<svg width="24" height="25" viewBox="0 0 24 25" fill="none" xmlns="http://www.w3.org/2000/svg">
<path fill-rule="evenodd" clip-rule="evenodd" d="M3.68921 1.8286C6.09913 0.626004 8.75559 0 11.4489 0C14.1422 0 16.7987 0.626004 19.2086 1.8286C19.3355 1.95024 19.4193 2.10993 19.4472 2.28347C19.4752 2.45701 19.4458 2.63493 19.3636 2.79028C19.2814 2.94563 19.1507 3.06993 18.9915 3.14436C18.8322 3.21878 18.6531 3.23927 18.4811 3.20271C16.2969 2.11381 13.8896 1.54703 11.4489 1.54703C9.00826 1.54703 6.60095 2.11381 4.41668 3.20271C4.24475 3.23927 4.06559 3.21878 3.90634 3.14436C3.7471 3.06993 3.61646 2.94563 3.53422 2.79028C3.45197 2.63493 3.42261 2.45701 3.45058 2.28347C3.47855 2.10993 3.56232 1.95024 3.68921 1.8286ZM5.06332 4.25351C7.07805 3.37685 9.25171 2.92443 11.4489 2.92443C13.6461 2.92443 15.8198 3.37685 17.8345 4.25351C19.9361 5.22347 21.7143 6.67841 22.9268 8.29501C23.0554 8.46651 23.1106 8.68209 23.0803 8.89431C23.05 9.10653 22.9366 9.29801 22.7651 9.42664C22.6802 9.49032 22.5836 9.53666 22.4808 9.56301C22.3779 9.58935 22.2709 9.59518 22.1658 9.58017C21.9536 9.54986 21.7621 9.43648 21.6335 9.26498C20.4839 7.69533 18.9541 6.44368 17.1878 5.62762C15.392 4.83718 13.4514 4.42899 11.4893 4.42899C9.52724 4.42899 7.58662 4.83718 5.79079 5.62762C3.9317 6.43592 2.3151 7.89086 1.34514 9.26498C1.21008 9.38496 1.03872 9.45624 0.858413 9.46744C0.678105 9.47864 0.499243 9.42911 0.350376 9.32677C0.201508 9.22442 0.0912177 9.07515 0.0371084 8.90279C-0.0170009 8.73043 -0.0118096 8.54491 0.0518535 8.37584C1.18348 6.75924 3.04257 5.14264 5.06332 4.25351ZM11.3681 5.62762C15.4096 5.62762 18.9661 7.64837 20.7444 10.6391C21.7143 12.2557 22.0377 13.8723 22.0377 15.1656C22.0377 17.4288 19.9361 18.8838 17.9961 18.8838C17.107 18.8838 16.1371 18.6413 15.3288 18.0755C14.5205 17.4288 13.9546 16.4589 13.9546 15.1656C13.9546 14.4381 13.5505 13.9531 13.1463 13.549C12.5805 13.2257 11.9339 13.064 11.3681 13.064C9.91313 13.064 8.94317 14.1148 8.94317 15.1656C8.94317 15.9739 9.18566 17.1863 9.50898 17.9946C9.91313 18.8029 10.5598 19.7729 11.1256 20.3387C12.1764 21.3087 13.5505 22.1978 15.3288 22.602C15.4915 22.6805 15.6232 22.8112 15.7028 22.9734C15.7825 23.1355 15.8056 23.3196 15.7684 23.4964C15.7312 23.6732 15.6358 23.8324 15.4975 23.9487C15.3592 24.0649 15.186 24.1315 15.0054 24.1377C13.5222 23.7934 12.135 23.1209 10.946 22.1697C9.75696 21.2185 8.79636 20.0128 8.13487 18.6413C7.64989 17.6713 7.32657 16.2164 7.32657 15.1656C7.32657 13.1448 9.26649 11.5282 11.3681 11.5282C12.1764 11.5282 13.1463 11.7707 13.9546 12.3365C14.7629 12.9023 15.4096 13.8723 15.4904 15.1656C15.4904 15.9739 15.8137 16.4589 16.2987 16.7822C16.7029 17.1055 17.3495 17.348 18.077 17.348C19.2894 17.348 20.5019 16.378 20.5019 15.1656C20.5019 14.1148 20.1786 12.7407 19.3703 11.4474C18.5099 10.1184 17.3216 9.03343 15.9199 8.29722C14.5183 7.56101 12.9506 7.19835 11.3681 7.24422C8.37736 7.24422 5.14415 8.69916 3.44672 11.4474C2.75243 12.6482 2.41589 14.0224 2.47676 15.4081C2.47676 17.348 2.80008 18.1563 3.28506 19.4496C3.35094 19.5475 3.39458 19.6586 3.41292 19.7752C3.43127 19.8917 3.42387 20.0109 3.39124 20.1243C3.35862 20.2377 3.30156 20.3426 3.22407 20.4316C3.14659 20.5206 3.05056 20.5915 2.94273 20.6395C2.8349 20.6874 2.71789 20.7111 2.5999 20.709C2.48192 20.7069 2.36584 20.6789 2.2598 20.6272C2.15376 20.5754 2.06035 20.501 1.98612 20.4093C1.91189 20.3176 1.85864 20.2107 1.83012 20.0962C1.26431 18.6413 1.02182 17.6713 0.860155 15.4081C0.82753 13.7276 1.27627 12.0728 2.15344 10.6391C4.09336 7.32505 7.89238 5.70845 11.3681 5.62762ZM4.09336 15.0039C4.09336 11.4474 7.64989 8.53751 11.3681 8.53751C15.1671 8.53751 18.8044 11.1241 18.8044 15.2464C18.8044 15.4608 18.7193 15.6664 18.5677 15.818C18.4161 15.9695 18.2105 16.0547 17.9961 16.0547C17.7818 16.0547 17.5762 15.9695 17.4246 15.818C17.273 15.6664 17.1878 15.4608 17.1878 15.2464C17.1878 12.2557 14.5205 10.1541 11.3681 10.1541C8.29653 10.1541 5.70996 12.4982 5.70996 15.0039C5.70996 16.4589 5.87162 17.833 6.67993 19.2879C7.27487 20.5103 8.09793 21.6077 9.10483 22.5211C9.22066 22.5691 9.32375 22.6433 9.40594 22.738C9.48812 22.8327 9.54717 22.9452 9.57839 23.0666C9.60962 23.188 9.61217 23.315 9.58585 23.4376C9.55953 23.5602 9.50506 23.675 9.42674 23.7729C9.34842 23.8708 9.2484 23.9491 9.1346 24.0017C9.02079 24.0543 8.89631 24.0797 8.77099 24.0758C8.64568 24.072 8.52297 24.0391 8.41257 23.9797C8.30217 23.9203 8.20709 23.8361 8.13487 23.7336C6.93364 22.694 5.94544 21.4313 5.22498 20.0154C4.41668 18.318 4.09336 16.7014 4.17419 15.0039H4.09336ZM11.3681 14.3573C11.8531 14.3573 12.1764 14.7614 12.1764 15.1656C12.1818 16.0054 12.4089 16.8288 12.8347 17.5527C13.2605 18.2766 13.8699 18.8751 14.6013 19.2879C15.7329 19.9346 16.4604 20.0962 17.592 20.0962C18.0783 20.1064 18.5647 20.0794 19.0469 20.0154C19.1604 19.9628 19.2845 19.9373 19.4095 19.9408C19.5345 19.9443 19.657 19.9767 19.7673 20.0356C19.8776 20.0945 19.9728 20.1781 20.0453 20.28C20.1179 20.3819 20.1657 20.4992 20.1852 20.6227C20.2048 20.7462 20.1953 20.8726 20.1577 20.9918C20.1201 21.1111 20.0554 21.22 19.9685 21.31C19.8817 21.4 19.7752 21.4686 19.6573 21.5104C19.5395 21.5523 19.4136 21.5662 19.2894 21.5512L17.6728 21.7128C16.2179 21.7128 15.1671 21.3895 13.793 20.662C12.8141 20.116 11.9985 19.3188 11.4302 18.3527C10.8619 17.3866 10.5615 16.2864 10.5598 15.1656C10.5598 14.7614 10.9639 14.3573 11.3681 14.3573Z" fill="#F58155"/>
</svg>
