<svg width="28" height="28" viewBox="0 0 28 28" fill="none" xmlns="http://www.w3.org/2000/svg">
<g clip-path="url(#clip0_7069_35957)">
<path d="M14.937 13.5212L21.2381 22.534H18.6521L13.5103 15.1796V15.1791L12.7554 14.0995L6.74902 5.50781H9.33497L14.1821 12.4416L14.937 13.5212Z" fill="black"/>
<path d="M24.9745 0H3.02546C1.35459 0 0 1.35459 0 3.02546V24.9745C0 26.6454 1.35459 28 3.02546 28H24.9745C26.6454 28 28 26.6454 28 24.9745V14V3.02546C28 1.35459 26.6454 0 24.9745 0ZM17.8593 23.7445L12.6561 16.172L6.14174 23.7445H4.45809L11.9086 15.0844L4.45809 4.24108H10.1407L15.0677 11.4118L21.2364 4.24108H22.9201L15.8156 12.4996L23.5419 23.7445H17.8593Z" fill="black"/>
</g>
<defs>
<clipPath id="clip0_7069_35957">
<rect width="28" height="28" fill="white"/>
</clipPath>
</defs>
</svg>
