<svg width="7" height="7" viewBox="0 0 7 7" fill="none" xmlns="http://www.w3.org/2000/svg">
<path d="M6.71772 1.64776L5.97149 2.39375L6.05735 2.48036C6.32378 2.74574 6.32563 3.20756 6.05477 3.47809C5.78097 3.75231 5.33433 3.75231 5.05979 3.47809L4.97356 3.39185L2.01626 6.35002C1.80179 6.56453 1.49445 6.66331 1.19411 6.61982L0.980746 6.83248C0.76701 7.05621 0.381548 7.05547 0.167811 6.83248C-0.0558744 6.61945 -0.0558749 6.23355 0.167442 6.01904L0.38081 5.80637C0.336589 5.50672 0.436088 5.19823 0.650192 4.98372L3.60749 2.02554L3.52163 1.93967C3.24709 1.66508 3.24709 1.21874 3.52384 0.941937C3.79838 0.667718 4.24501 0.667718 4.51882 0.941937L4.60542 1.02745L5.35128 0.281452C5.71169 -0.0941247 6.35805 -0.0937557 6.71772 0.282189C6.90566 0.470162 7 0.717475 7 0.964788C7 1.2121 6.90566 1.45978 6.71772 1.64776ZM5.58013 2.26401L6.45681 1.38717C6.68234 1.16197 6.68234 0.76797 6.45608 0.542034C6.23423 0.31057 5.8344 0.310201 5.61219 0.542034L4.7355 1.41887C4.66401 1.49111 4.54682 1.49111 4.47496 1.41887L4.25865 1.20289C4.1282 1.07204 3.9152 1.07204 3.78216 1.20473C3.65134 1.33557 3.65134 1.54787 3.78216 1.67908L5.32033 3.21751C5.45115 3.34799 5.66378 3.34799 5.79644 3.2153C5.92469 3.08851 5.92469 2.86773 5.79644 2.74095L5.58013 2.52459C5.54438 2.48847 5.52669 2.44129 5.52669 2.39412C5.52669 2.34694 5.54438 2.29976 5.58013 2.26401ZM0.720209 6.5719L1.00323 6.28921C1.04966 6.24277 1.11709 6.22507 1.18011 6.24129C1.39053 6.29584 1.60537 6.23945 1.75572 6.08944L4.71302 3.1309L3.8684 2.28613L0.910729 5.2443C0.761113 5.39394 0.704363 5.60882 0.758903 5.81964C0.775117 5.88377 0.75706 5.95085 0.710996 5.99693L0.42798 6.27925C0.384127 6.32164 0.365701 6.36992 0.365701 6.4171C0.365701 6.57632 0.576489 6.72117 0.720209 6.5719Z" fill="white"/>
</svg>
