<svg width="16" height="17" viewBox="0 0 16 17" fill="none" xmlns="http://www.w3.org/2000/svg">
<path d="M13.3333 8.5V15.1667H2.66663V8.5" stroke="#415362" stroke-linecap="round" stroke-linejoin="round"/>
<path d="M14.6667 5.16669H1.33337V8.50002H14.6667V5.16669Z" stroke="#415362" stroke-linecap="round" stroke-linejoin="round"/>
<path d="M8 15.1667V5.16669" stroke="#415362" stroke-linecap="round" stroke-linejoin="round"/>
<path d="M8.00004 5.16665H5.00004C4.55801 5.16665 4.13409 4.99105 3.82153 4.67849C3.50897 4.36593 3.33337 3.94201 3.33337 3.49998C3.33337 3.05795 3.50897 2.63403 3.82153 2.32147C4.13409 2.00891 4.55801 1.83331 5.00004 1.83331C7.33337 1.83331 8.00004 5.16665 8.00004 5.16665Z" stroke="#415362" stroke-linecap="round" stroke-linejoin="round"/>
<path d="M8 5.16665H11C11.442 5.16665 11.866 4.99105 12.1785 4.67849C12.4911 4.36593 12.6667 3.94201 12.6667 3.49998C12.6667 3.05795 12.4911 2.63403 12.1785 2.32147C11.866 2.00891 11.442 1.83331 11 1.83331C8.66667 1.83331 8 5.16665 8 5.16665Z" stroke="#415362" stroke-linecap="round" stroke-linejoin="round"/>
</svg>
