<svg width="45" height="45" viewBox="0 0 45 45" fill="none" xmlns="http://www.w3.org/2000/svg">
<path d="M33.9102 4C35.8267 4 37.6159 4.74777 38.9463 6.10547C40.2773 7.46244 41.0107 9.28667 41.0107 11.2422C41.0106 13.1878 40.2832 15.0017 38.9648 16.3564C38.9585 16.3631 38.9537 16.3713 38.9473 16.3779L16.6895 39.0811C16.6709 39.1 16.6502 39.1171 16.6309 39.1348C16.6205 39.1443 16.6103 39.1539 16.5996 39.1631C16.5713 39.1875 16.5424 39.2106 16.5127 39.2324C16.5056 39.2377 16.4985 39.2429 16.4912 39.248C16.4666 39.2654 16.4414 39.2813 16.416 39.2969C16.398 39.308 16.3799 39.3188 16.3613 39.3291C16.3394 39.3412 16.3173 39.3524 16.2949 39.3633C16.2755 39.3728 16.2563 39.383 16.2363 39.3916C16.2139 39.4013 16.1907 39.4086 16.168 39.417C16.1466 39.4249 16.1254 39.4335 16.1035 39.4404C16.0732 39.45 16.0425 39.4574 16.0117 39.4648C16.0009 39.4675 15.9904 39.4722 15.9795 39.4746L5.72168 41.7197C5.71463 41.7213 5.70724 41.7212 5.7002 41.7227C5.66856 41.7291 5.63669 41.7341 5.60449 41.7383C5.58849 41.7404 5.57261 41.7426 5.55664 41.7441C5.51311 41.7483 5.46905 41.752 5.4248 41.752L5.42285 41.751L5.42188 41.752C5.37425 41.7519 5.32705 41.749 5.28027 41.7441C5.27374 41.7435 5.26728 41.742 5.26074 41.7412C5.21819 41.7362 5.17635 41.7285 5.13477 41.7197C5.13168 41.7191 5.12808 41.7194 5.125 41.7188C5.12037 41.7177 5.11594 41.7159 5.11133 41.7148C5.0737 41.7062 5.03662 41.6963 5 41.6846C4.99213 41.6821 4.98436 41.6794 4.97656 41.6768C4.93654 41.6632 4.89694 41.6489 4.8584 41.6318C4.8548 41.6302 4.85124 41.6286 4.84766 41.627C4.80661 41.6084 4.76662 41.5878 4.72754 41.5654C4.71559 41.5586 4.70409 41.5511 4.69238 41.5439C4.66903 41.5297 4.64556 41.5156 4.62305 41.5C4.60466 41.4872 4.58704 41.4735 4.56934 41.46C4.5502 41.4453 4.53111 41.4307 4.5127 41.415C4.50179 41.4058 4.49108 41.3963 4.48047 41.3867C4.45484 41.3636 4.43025 41.3394 4.40625 41.3145C4.40051 41.3085 4.39529 41.302 4.38965 41.2959C4.36707 41.2716 4.34517 41.2467 4.32422 41.2207C4.3158 41.2102 4.30695 41.2001 4.29883 41.1895C4.27862 41.1629 4.25966 41.1355 4.24121 41.1074C4.23581 41.0992 4.22985 41.0913 4.22461 41.083C4.15656 40.9748 4.10115 40.8562 4.0625 40.7285L4.05664 40.708C4.05432 40.7 4.05297 40.6917 4.05078 40.6836C4.04369 40.6572 4.03598 40.6306 4.03027 40.6035C4.02858 40.5954 4.02792 40.5872 4.02637 40.5791C4.02237 40.5584 4.01972 40.5375 4.0166 40.5166C4.01304 40.4927 4.00922 40.4691 4.00684 40.4453C4.00417 40.4185 4.00314 40.3914 4.00195 40.3643C4.00097 40.3424 4.00001 40.3206 4 40.2988C4.00002 40.2767 4.00093 40.2546 4.00195 40.2324C4.00316 40.2053 4.00415 40.1782 4.00684 40.1514C4.00852 40.1347 4.01141 40.1182 4.01367 40.1016C4.01809 40.0687 4.02272 40.0361 4.0293 40.0039C4.02996 40.0007 4.03057 39.9974 4.03125 39.9941L6.23242 29.5312C6.23456 29.5211 6.23692 29.511 6.23926 29.501C6.24685 29.4682 6.25481 29.4356 6.26465 29.4033C6.27193 29.3795 6.28067 29.3562 6.28906 29.333C6.29592 29.314 6.30288 29.2951 6.31055 29.2764C6.32198 29.2484 6.33465 29.2212 6.34766 29.1943C6.35557 29.178 6.36352 29.1616 6.37207 29.1455C6.38456 29.122 6.39746 29.0988 6.41113 29.0762C6.42235 29.0576 6.4332 29.0387 6.44531 29.0205C6.46541 28.9904 6.48763 28.9619 6.50977 28.9336C6.51321 28.9292 6.51603 28.9243 6.51953 28.9199L6.54297 28.8906C6.5583 28.8725 6.57467 28.8552 6.59082 28.8379C6.59958 28.8285 6.60813 28.8188 6.61719 28.8096L28.8643 6.11621C28.8677 6.11258 28.8715 6.10907 28.875 6.10547C30.2053 4.74788 31.9931 4.00009 33.9102 4ZM8.92871 30.5596L7.27832 38.4062L14.9727 36.7227L31.8965 19.46L25.8545 13.2959L8.92871 30.5596ZM33.9102 6.90527C32.7587 6.90536 31.6883 7.34798 30.8965 8.15234C30.8942 8.15466 30.8929 8.15786 30.8906 8.16016L27.8682 11.2422L33.9111 17.4053L36.9229 14.333C36.926 14.3298 36.9295 14.3265 36.9326 14.3232C37.7251 13.5148 38.161 12.4202 38.1611 11.2422C38.1611 10.064 37.7252 8.96867 36.9326 8.16016C36.1392 7.35091 35.0653 6.90527 33.9102 6.90527Z" fill="#4882B8"/>
</svg>
