<svg width="28" height="28" viewBox="0 0 28 28" fill="none" xmlns="http://www.w3.org/2000/svg">
<path d="M13.9707 0.5C21.4094 0.5 27.4414 6.54317 27.4414 14C27.4414 21.4568 21.4094 27.5 13.9707 27.5C6.53203 27.5 0.5 21.4568 0.5 14C0.5 6.54317 6.53203 0.500002 13.9707 0.5Z" stroke="#FFECE0"/>
<path d="M9.9292 18.4008H12.6794C12.7648 18.4012 12.8494 18.3849 12.9284 18.3525C13.0075 18.3202 13.0794 18.2725 13.14 18.2123L17.6286 13.7091L19.4707 11.9026C19.5315 11.8422 19.5797 11.7704 19.6127 11.6912C19.6456 11.612 19.6626 11.5271 19.6626 11.4413C19.6626 11.3555 19.6456 11.2706 19.6127 11.1914C19.5797 11.1122 19.5315 11.0403 19.4707 10.9799L16.7205 8.19221C16.6602 8.13131 16.5884 8.08297 16.5094 8.04998C16.4303 8.01698 16.3455 8 16.2599 8C16.1743 8 16.0895 8.01698 16.0105 8.04998C15.9314 8.08297 15.8597 8.13131 15.7994 8.19221L13.9702 10.0312L9.46866 14.5344C9.40854 14.5951 9.36098 14.6671 9.3287 14.7463C9.29642 14.8254 9.28006 14.9102 9.28056 14.9957V17.7509C9.28056 17.9233 9.34889 18.0886 9.47054 18.2104C9.59218 18.3323 9.75717 18.4008 9.9292 18.4008ZM16.2599 9.56981L18.0956 11.4088L17.1745 12.3315L15.3389 10.4925L16.2599 9.56981ZM10.5778 15.2622L14.4243 11.4088L16.2599 13.2477L12.4135 17.1011H10.5778V15.2622ZM20.3074 19.7004H8.63192C8.45989 19.7004 8.2949 19.7688 8.17326 19.8907C8.05161 20.0126 7.98328 20.1778 7.98328 20.3502C7.98328 20.5225 8.05161 20.6878 8.17326 20.8097C8.2949 20.9315 8.45989 21 8.63192 21H20.3074C20.4795 21 20.6444 20.9315 20.7661 20.8097C20.8877 20.6878 20.9561 20.5225 20.9561 20.3502C20.9561 20.1778 20.8877 20.0126 20.7661 19.8907C20.6444 19.7688 20.4795 19.7004 20.3074 19.7004Z" fill="#5090cc"/>
</svg>
