<svg width="45" height="45" viewBox="0 0 45 45" fill="none" xmlns="http://www.w3.org/2000/svg">
<path d="M34.4 4H11.6C7.401 4 4 7.401 4 11.6V34.4C4 38.599 7.401 42 11.6 42H34.4C38.599 42 42 38.599 42 34.4V11.6C42 7.401 38.599 4 34.4 4ZM38.2 34.4C38.2 36.49 36.49 38.2 34.4 38.2H11.6C9.51 38.2 7.8 36.49 7.8 34.4V11.6C7.8 9.51 9.51 7.8 11.6 7.8H34.4C36.49 7.8 38.2 9.51 38.2 11.6V34.4Z" fill="#4882B8"/>
<path d="M28.9221 16.9343L20.5881 25.2683L17.0601 21.7403C16.3581 21.0383 15.2241 21.0383 14.5221 21.7403C13.8201 22.4423 13.8201 23.5763 14.5221 24.2783L19.3281 29.0843C19.6701 29.4263 20.1201 29.6063 20.6061 29.6063C21.0921 29.6063 21.5421 29.4083 21.8841 29.0843L31.4781 19.4903C32.1801 18.7883 32.1801 17.6543 31.4781 16.9523C30.7761 16.2503 29.6421 16.2503 28.9401 16.9523L28.9221 16.9343Z" fill="#4882B8"/>
</svg>
