<svg width="45" height="45" viewBox="0 0 45 45" fill="none" xmlns="http://www.w3.org/2000/svg">
<path d="M28.4262 34.4943C29.2607 34.4943 29.9375 33.8175 29.9375 32.9829V17.8693C29.9375 17.0347 29.2607 16.3579 28.4262 16.3579C27.5916 16.3579 26.9148 17.0347 26.9148 17.8693V32.9829C26.9148 33.8175 27.5916 34.4943 28.4262 34.4943Z" fill="#4882B8"/>
<path d="M17.8466 34.4943C18.6812 34.4943 19.358 33.8175 19.358 32.9829V17.8693C19.358 17.0347 18.6812 16.3579 17.8466 16.3579C17.0121 16.3579 16.3353 17.0347 16.3353 17.8693V32.9829C16.3353 33.8175 17.0121 34.4943 17.8466 34.4943Z" fill="#4882B8"/>
<path d="M29.1819 5.02273C30.0165 5.02273 30.6933 4.34594 30.6933 3.51136C30.6933 2.67679 30.0165 2 29.1819 2H17.091C16.2564 2 15.5797 2.67679 15.5797 3.51136C15.5797 4.34594 16.2564 5.02273 17.091 5.02273H29.1819Z" fill="#4882B8"/>
<path d="M6.51149 6.53418C5.67691 6.53418 5.00012 7.21097 5.00012 8.04554C5.00012 8.88012 5.67691 9.55691 6.51149 9.55691H8.02285V37.366C8.02285 40.7815 10.8038 43.5626 14.2194 43.5626H32.0535C35.4691 43.5626 38.2501 40.7817 38.2501 37.366V9.55691H39.7615C40.5961 9.55691 41.2728 8.88012 41.2728 8.04554C41.2728 7.21097 40.5961 6.53418 39.7615 6.53418H36.7388H9.53421H6.51149ZM35.2274 9.55691V37.366C35.2274 39.1192 33.8067 40.5399 32.0535 40.5399H14.2194C12.4663 40.5399 11.0456 39.1192 11.0456 37.366V9.55691H35.2274Z" fill="#4882B8"/>
</svg>
