<svg width="28" height="28" viewBox="0 0 28 28" fill="none" xmlns="http://www.w3.org/2000/svg">
<path d="M13.9707 0.5C21.4094 0.5 27.4414 6.54317 27.4414 14C27.4414 21.4568 21.4094 27.5 13.9707 27.5C6.53203 27.5 0.5 21.4568 0.5 14C0.5 6.54317 6.53203 0.500002 13.9707 0.5Z" stroke="#FFECE0"/>
<path d="M15.5123 13.6541C15.5123 14.767 14.613 15.6664 13.5001 15.6664C12.3871 15.6664 11.4878 14.767 11.4878 13.6541C11.4878 12.5412 12.3871 11.6418 13.5001 11.6418C14.613 11.6418 15.5123 12.5412 15.5123 13.6541Z" stroke="#5090cc" stroke-width="0.843127" stroke-linecap="round" stroke-linejoin="round"/>
<path d="M13.5 18.3025C15.4842 18.3025 17.3334 17.1334 18.6206 15.1099C19.1265 14.3173 19.1265 12.9852 18.6206 12.1926C17.3334 10.1691 15.4842 9 13.5 9C11.5158 9 9.66658 10.1691 8.37941 12.1926C7.87353 12.9852 7.87353 14.3173 8.37941 15.1099C9.66658 17.1334 11.5158 18.3025 13.5 18.3025Z" stroke="#5090cc" stroke-width="0.843127" stroke-linecap="round" stroke-linejoin="round"/>
</svg>
