<svg width="45" height="45" viewBox="0 0 45 45" fill="none" xmlns="http://www.w3.org/2000/svg">
<path d="M34.4 4H11.6C7.401 4 4 7.401 4 11.6V34.4C4 38.599 7.401 42 11.6 42H34.4C38.599 42 42 38.599 42 34.4V11.6C42 7.401 38.599 4 34.4 4ZM38.2 34.4C38.2 36.49 36.49 38.2 34.4 38.2H11.6C9.51 38.2 7.8 36.49 7.8 34.4V11.6C7.8 9.51 9.51 7.8 11.6 7.8H34.4C36.49 7.8 38.2 9.51 38.2 11.6V34.4Z" fill="#8293A2"/>
<path d="M27.6895 15.1895C28.2754 14.6035 29.2246 14.6035 29.8105 15.1895C30.3965 15.7754 30.3965 16.7246 29.8105 17.3105L24.6211 22.5L29.8105 27.6895C30.3965 28.2754 30.3965 29.2246 29.8105 29.8105C29.5177 30.1034 29.1335 30.25 28.75 30.25C28.3665 30.25 27.9823 30.1034 27.6895 29.8105L22.5 24.6211L17.3105 29.8105C17.0177 30.1034 16.6335 30.25 16.25 30.25C15.8665 30.25 15.4823 30.1034 15.1895 29.8105C14.6035 29.2246 14.6035 28.2754 15.1895 27.6895L20.3789 22.5L15.1895 17.3105C14.6035 16.7246 14.6035 15.7754 15.1895 15.1895C15.7754 14.6035 16.7246 14.6035 17.3105 15.1895L22.5 20.3789L27.6895 15.1895Z" fill="#8293A2" stroke="#8293A2" stroke-width="0.5"/>
</svg>
