<svg width="29" height="28" viewBox="0 0 29 28" fill="none" xmlns="http://www.w3.org/2000/svg">
<path d="M14.8999 0.5C22.3386 0.5 28.3706 6.54317 28.3706 14C28.3706 21.4568 22.3386 27.5 14.8999 27.5C7.46123 27.5 1.4292 21.4568 1.4292 14C1.4292 6.54317 7.46123 0.500002 14.8999 0.5Z" stroke="#FFECE0"/>
<path d="M19.8894 10.2114C18.0432 10.028 16.186 9.93359 14.3343 9.93359C13.2366 9.93359 12.1389 9.98915 11.0412 10.1003L9.91028 10.2114" stroke="#5090cc" stroke-linecap="round" stroke-linejoin="round"/>
<path d="M12.9596 9.65L13.0816 8.92222C13.1703 8.39444 13.2368 8 14.1737 8H15.6262C16.5632 8 16.6352 8.41667 16.7184 8.92778L16.8403 9.65" stroke="#5090cc" stroke-linecap="round" stroke-linejoin="round"/>
<path d="M18.6983 11.9668L18.338 17.5612C18.277 18.4335 18.2271 19.1112 16.6803 19.1112H13.1211C11.5744 19.1112 11.5245 18.4335 11.4635 17.5612L11.1031 11.9668" stroke="#5090cc" stroke-linecap="round" stroke-linejoin="round"/>
<path d="M13.974 16.0557H15.8193" stroke="#5090cc" stroke-linecap="round" stroke-linejoin="round"/>
<path d="M13.514 13.833H16.286" stroke="#5090cc" stroke-linecap="round" stroke-linejoin="round"/>
</svg>
