<svg width="12" height="15" viewBox="0 0 12 15" fill="none" xmlns="http://www.w3.org/2000/svg">
<path d="M8.83893 7.67057C9.07015 7.58796 9.2254 7.36719 9.2254 7.12173C9.2254 6.87627 9.07015 6.65549 8.83988 6.57288L7.78113 6.19116C6.73567 5.81466 5.92 4.99852 5.54303 3.95306L5.1613 2.89431C5.07822 2.66404 4.85792 2.50879 4.61341 2.50879C4.36843 2.50879 4.14766 2.66357 4.06409 2.89431L3.68285 3.95306C3.30587 4.999 2.49021 5.81466 1.44427 6.19116L0.386469 6.57288C0.155252 6.65597 0 6.87627 0 7.12173C0 7.36719 0.155252 7.58748 0.385519 7.67057L1.44427 8.05229C2.48973 8.42879 3.3054 9.24446 3.68237 10.2904L4.06409 11.3496C4.14718 11.5799 4.36795 11.7347 4.61294 11.7347C4.85792 11.7347 5.07869 11.5794 5.1613 11.3491L5.54303 10.2904C5.91952 9.24493 6.73567 8.42926 7.78113 8.05229L8.83893 7.67057ZM7.45923 7.15876C6.14647 7.63164 5.12237 8.65573 4.6495 9.96849L4.61246 10.071L4.57543 9.96849C4.10208 8.65573 3.07798 7.63164 1.7657 7.15876L1.66362 7.12173L1.76617 7.08469C3.07893 6.61182 4.10303 5.58772 4.5759 4.27496L4.61294 4.17241L4.64997 4.27496C5.12285 5.58772 6.14694 6.61182 7.45923 7.08469L7.56178 7.12173L7.45923 7.15876Z" fill="#5090CC"/>
<path d="M7.20976 3.06849L7.74579 3.26172C8.20964 3.42884 8.57095 3.79062 8.73807 4.25401L8.93083 4.78955C9.00632 4.99941 9.20668 5.14041 9.42935 5.14041C9.65202 5.14041 9.85285 4.99941 9.92786 4.79003L10.1211 4.25401C10.2882 3.79015 10.65 3.42837 11.1134 3.26172L11.6499 3.06849C11.8583 2.993 11.9993 2.79312 11.9998 2.57139C12.0003 2.34967 11.8607 2.14884 11.6499 2.07193L11.1134 1.87869C10.65 1.71157 10.2882 1.34979 10.1211 0.886409L9.92786 0.350386C9.85237 0.140534 9.65249 0 9.42982 0C9.20668 0 9.00632 0.141009 8.9313 0.350386L8.73807 0.886409C8.57095 1.35027 8.20917 1.71157 7.74579 1.87869L7.20834 2.0724C6.99944 2.14837 6.8589 2.3492 6.85938 2.57139C6.85985 2.79359 7.00086 2.99347 7.20976 3.06849ZM9.42982 1.64036C9.65487 2.02588 9.97439 2.3454 10.3594 2.56997C9.97392 2.79501 9.65439 3.11454 9.42982 3.49958C9.20478 3.11454 8.88525 2.79454 8.50021 2.56997C8.88525 2.34493 9.20478 2.0254 9.42982 1.64036Z" fill="#5090CC"/>
<path d="M11.6489 11.175L11.1129 10.9817C10.6495 10.8146 10.2877 10.4528 10.1206 9.98944L9.92736 9.45341C9.85187 9.24404 9.65151 9.10303 9.42884 9.10303C9.2057 9.10303 9.00534 9.24404 8.93033 9.45341L8.73709 9.98944C8.56997 10.4533 8.20819 10.8151 7.74481 10.9817L7.20926 11.1745C6.99988 11.2495 6.85887 11.4499 6.8584 11.672C6.85792 11.8942 6.99798 12.0951 7.20879 12.1715L7.74481 12.3647C8.20867 12.5319 8.57045 12.8932 8.73709 13.357L8.92985 13.8926C9.00582 14.1024 9.20617 14.2434 9.42932 14.2434C9.65247 14.2434 9.85282 14.1024 9.92784 13.8931L10.1211 13.357C10.2882 12.8936 10.65 12.5319 11.1134 12.3647L11.6518 12.171C11.8602 12.0946 12.0002 11.8942 11.9998 11.672C11.9993 11.4499 11.8578 11.2504 11.6489 11.175ZM9.42932 12.6031C9.20428 12.2176 8.88475 11.898 8.49971 11.6735C8.88475 11.4484 9.20475 11.1289 9.42932 10.7439C9.65436 11.1289 9.97389 11.4489 10.3589 11.6735C9.97389 11.8985 9.65389 12.218 9.42932 12.6031Z" fill="#5090CC"/>
</svg>
