<svg width="12" height="15" viewBox="0 0 12 15" fill="none" xmlns="http://www.w3.org/2000/svg">
<path d="M8.79297 4.55664L8.80859 4.55859L8.82422 4.55957C9.18846 4.57019 10.135 4.69299 10.8584 5.47559C10.3587 5.88482 9.55345 6.74864 9.49512 8.10645L9.49121 8.29688C9.50168 9.51911 10.0418 10.3448 10.582 10.8584C10.847 11.1102 11.113 11.2888 11.3193 11.4062C11.2892 11.4871 11.2528 11.5819 11.208 11.6875C11.056 12.0454 10.8225 12.5145 10.4912 12.9844L10.4854 12.9932C10.1882 13.4375 9.91123 13.8328 9.60156 14.1221C9.30047 14.4033 8.99622 14.5577 8.64258 14.5635H8.63965C8.26377 14.5721 8.02046 14.4681 7.68457 14.3252C7.33689 14.1772 6.91855 14.0029 6.28418 14.0029C5.6507 14.0029 5.22885 14.1635 4.87207 14.3125C4.52283 14.4584 4.27862 14.5697 3.91016 14.585C3.60552 14.5957 3.29932 14.4458 2.96582 14.1328C2.6319 13.8194 2.32418 13.3949 2.0166 12.9551H2.01758C1.4411 12.1131 0.921505 10.9132 0.701172 9.66406C0.480358 8.41194 0.568093 7.16205 1.1377 6.17578L1.13867 6.17383C1.68705 5.21292 2.68081 4.60608 3.72461 4.58984H3.72754C4.10246 4.58228 4.48299 4.70964 4.88672 4.86914C5.07628 4.94403 5.2869 5.03187 5.47559 5.09668C5.66415 5.16143 5.87985 5.22061 6.09473 5.2207C6.31574 5.2207 6.54998 5.14801 6.74902 5.07617C6.93972 5.00733 7.20423 4.89744 7.41113 4.81934C7.87861 4.64289 8.34457 4.50945 8.79297 4.55664Z" fill="white" stroke="white" stroke-width="0.843208"/>
<path d="M8.43066 1.16504C8.37945 1.72024 8.13529 2.26086 7.79199 2.69336C7.42919 3.12119 6.90974 3.4427 6.39648 3.53125C6.44815 2.98124 6.72842 2.41679 7.05566 2.03418L7.05664 2.0332C7.39741 1.63335 7.93634 1.30775 8.43066 1.16504Z" fill="white" stroke="white" stroke-width="0.843208"/>
</svg>
