<svg width="50" height="54" viewBox="0 0 50 54" fill="none" xmlns="http://www.w3.org/2000/svg">
<path d="M26.8828 18.8301C26.2624 18.9505 25.632 19.0126 25 19.0176C24.368 19.0126 23.7376 18.9505 23.1172 18.8301L22.8643 18.7812V32.4492L22.9951 32.5039C23.6304 32.7686 24.3118 32.9043 25 32.9043C25.6882 32.9043 26.3697 32.7686 27.0049 32.5039L27.1357 32.4492V18.7812L26.8828 18.8301ZM25 3.63379C23.4136 3.63379 21.8923 4.26401 20.7705 5.38574C19.6488 6.50749 19.0186 8.02884 19.0186 9.61523C19.0186 10.7983 19.3691 11.9548 20.0264 12.9385C20.6836 13.9222 21.6179 14.6889 22.7109 15.1416C23.8039 15.5943 25.0067 15.7132 26.167 15.4824C27.3273 15.2516 28.3929 14.6813 29.2295 13.8447C30.066 13.0082 30.6364 11.9425 30.8672 10.7822C31.0979 9.62196 30.9791 8.41912 30.5264 7.32617C30.0736 6.2332 29.3069 5.29886 28.3232 4.6416C27.3396 3.98436 26.183 3.6338 25 3.63379ZM46.3662 40.6924L46.3525 40.6562L41.6416 28.0986C41.4889 27.6899 41.2143 27.338 40.8555 27.0898C40.4968 26.8418 40.0708 26.7097 39.6348 26.7109H30.5566V32.6924C30.5566 33.7215 30.0002 34.6229 29.0215 35.2754C28.0401 35.9296 26.6413 36.3262 25 36.3262C23.3587 36.3262 21.9599 35.9296 20.9785 35.2754C19.9998 34.6229 19.4434 33.7215 19.4434 32.6924V26.7109H10.3652C9.92918 26.7097 9.5032 26.8418 9.14453 27.0898C8.83056 27.307 8.58157 27.6037 8.42188 27.9482L8.3584 28.0986L3.64746 40.6562L3.63379 40.6924V48.0771C3.63387 48.6433 3.85849 49.1865 4.25879 49.5869C4.65928 49.9874 5.20315 50.2119 5.76953 50.2119H44.2305C44.7968 50.2119 45.3407 49.9874 45.7412 49.5869C46.1415 49.1865 46.3661 48.6433 46.3662 48.0771V40.6924ZM19.4434 17.2012L19.3584 17.1377C18.1906 16.2618 17.2427 15.126 16.5898 13.8203C15.9371 12.5147 15.5967 11.075 15.5967 9.61523C15.5967 7.12148 16.5882 4.73015 18.3516 2.9668C20.1149 1.20346 22.5062 0.212891 25 0.212891C27.4938 0.2129 29.8851 1.20345 31.6484 2.9668C33.4118 4.73015 34.4033 7.12148 34.4033 9.61523C34.4033 11.0749 34.0629 12.5147 33.4102 13.8203C32.7573 15.126 31.8094 16.2618 30.6416 17.1377L30.5566 17.2012V23.2891H39.6328C40.776 23.2961 41.8899 23.6555 42.8213 24.3184C43.7527 24.9813 44.4568 25.9162 44.8379 26.9941L44.8398 26.998L49.6855 39.7871C49.7545 39.9781 49.7889 40.1798 49.7871 40.3828V48.0771C49.787 49.5507 49.202 50.9639 48.1602 52.0059C47.1181 53.048 45.7042 53.6338 44.2305 53.6338H5.76953C4.29579 53.6338 2.88194 53.048 1.83984 52.0059C0.797935 50.9638 0.212967 49.5507 0.212891 48.0771V40.3848C0.221336 40.2131 0.254519 40.0433 0.313477 39.8818L0.314453 39.8828L5.16016 26.998L5.16211 26.9941C5.54319 25.9162 6.24725 24.9813 7.17871 24.3184C8.10999 23.6556 9.2232 23.2962 10.3662 23.2891H19.4434V17.2012Z" fill="#415262" stroke="white" stroke-width="0.424912"/>
<path d="M9.61511 40.5975H40.3846C40.8383 40.5975 41.2729 40.7777 41.5936 41.0984C41.9144 41.4192 42.0955 41.8538 42.0956 42.3074C42.0956 42.7611 41.9144 43.1966 41.5936 43.5174C41.2729 43.838 40.8381 44.0183 40.3846 44.0184H9.61511C9.16163 44.0183 8.72685 43.838 8.40613 43.5174C8.08532 43.1966 7.90515 42.7611 7.90515 42.3074C7.90521 41.8538 8.08538 41.4192 8.40613 41.0984C8.72688 40.7777 9.16151 40.5975 9.61511 40.5975Z" fill="#415262" stroke="white" stroke-width="0.424912"/>
</svg>
