<svg width="14" height="13" viewBox="0 0 14 13" fill="none" xmlns="http://www.w3.org/2000/svg">
<path d="M5.89292 12.1371L6.5469 12.768C6.68129 12.8966 6.86013 12.9684 7.04613 12.9684C7.23214 12.9684 7.41097 12.8966 7.54537 12.768L13.2709 7.24144C13.3365 7.17953 13.3888 7.10487 13.4246 7.02203C13.4603 6.93919 13.4787 6.84992 13.4787 6.75971C13.4787 6.66949 13.4603 6.58022 13.4246 6.49738C13.3888 6.41455 13.3365 6.33988 13.2709 6.27797L7.54537 0.751389C7.41097 0.622798 7.23214 0.551025 7.04613 0.551025C6.86013 0.551025 6.68129 0.622798 6.5469 0.751389L5.89292 1.38234C5.82569 1.44548 5.77232 1.5219 5.73617 1.60675C5.70003 1.6916 5.6819 1.78303 5.68294 1.87525C5.68398 1.96748 5.70416 2.05848 5.74221 2.14249C5.78026 2.2265 5.83534 2.3017 5.90397 2.36331L9.45296 5.62584H0.988997C0.805198 5.62313 0.62784 5.69349 0.49589 5.82147C0.363939 5.94945 0.288188 6.12457 0.285278 6.30837L0.285278 7.21749C0.286717 7.30874 0.306147 7.3988 0.342455 7.48252C0.378763 7.56624 0.431236 7.64198 0.496866 7.70538C0.562497 7.76879 0.639994 7.81862 0.724917 7.85202C0.809841 7.88542 0.90052 7.90173 0.99176 7.90003H9.45296L5.90397 11.1626C5.83576 11.2237 5.781 11.2984 5.74318 11.3819C5.70535 11.4653 5.68528 11.5558 5.68424 11.6474C5.6832 11.739 5.70122 11.8299 5.73714 11.9141C5.77306 11.9984 5.82611 12.0744 5.89292 12.1371Z" fill="#5090cc"/>
</svg>
