<svg width="12" height="7" viewBox="0 0 12 7" fill="none" xmlns="http://www.w3.org/2000/svg">
<path d="M5.91045 6.7543C5.79939 6.75495 5.6893 6.73366 5.58649 6.69167C5.48367 6.64967 5.39016 6.5878 5.31131 6.50959L0.248171 1.44645C0.0892699 1.28755 0 1.07203 0 0.847309C0 0.622589 0.0892699 0.407072 0.248171 0.248171C0.407072 0.0892699 0.622589 0 0.847309 0C1.07203 0 1.28755 0.0892699 1.44645 0.248171L5.91045 4.72061L10.3744 0.25661C10.5359 0.118364 10.7435 0.0461244 10.9559 0.0543276C11.1683 0.0625309 11.3698 0.150573 11.52 0.300859C11.6703 0.451145 11.7584 0.652607 11.7666 0.864985C11.7748 1.07736 11.7025 1.28502 11.5643 1.44645L6.50115 6.50959C6.34397 6.66548 6.13182 6.75337 5.91045 6.7543Z" fill="#7B8D9F"/>
</svg>
