<svg width="32" height="32" viewBox="0 0 32 32" fill="none" xmlns="http://www.w3.org/2000/svg">
<rect width="32" height="32" rx="16" fill="#F8F9FA"/>
<path d="M11.92 15.2891H10.4978V20.978H11.92V15.2891Z" fill="#ABADD4"/>
<path d="M12.6235 13.8672V15.2894C12.6235 15.3837 12.586 15.4741 12.5194 15.5408C12.4527 15.6075 12.3622 15.645 12.2679 15.645H10.1346C10.0403 15.645 9.94987 15.6075 9.88319 15.5408C9.81651 15.4741 9.77905 15.3837 9.77905 15.2894V13.8672H12.6235ZM12.6235 22.4005V20.9783C12.6235 20.884 12.586 20.7936 12.5194 20.7269C12.4527 20.6602 12.3622 20.6227 12.2679 20.6227H10.1346C10.0403 20.6227 9.94987 20.6602 9.88319 20.7269C9.81651 20.7936 9.77905 20.884 9.77905 20.9783V22.4005H12.6235Z" fill="#565CA9"/>
<path d="M16.8888 15.2891H15.4666V20.978H16.8888V15.2891Z" fill="#ABADD4"/>
<path d="M17.6079 13.8672V15.2894C17.6079 15.3837 17.5704 15.4741 17.5037 15.5408C17.4371 15.6075 17.3466 15.645 17.2523 15.645H15.119C15.0247 15.645 14.9342 15.6075 14.8676 15.5408C14.8009 15.4741 14.7634 15.3837 14.7634 15.2894V13.8672H17.6079ZM17.6079 22.4005V20.9783C17.6079 20.884 17.5704 20.7936 17.5037 20.7269C17.4371 20.6602 17.3466 20.6227 17.2523 20.6227H15.119C15.0247 20.6227 14.9342 20.6602 14.8676 20.7269C14.8009 20.7936 14.7634 20.884 14.7634 20.9783V22.4005H17.6079Z" fill="#565CA9"/>
<path d="M21.8731 15.2891H20.4509V20.978H21.8731V15.2891Z" fill="#ABADD4"/>
<path d="M22.5766 13.8672V15.2894C22.5766 15.3837 22.5392 15.4741 22.4725 15.5408C22.4058 15.6075 22.3154 15.645 22.2211 15.645H20.0877C19.9934 15.645 19.903 15.6075 19.8363 15.5408C19.7696 15.4741 19.7322 15.3837 19.7322 15.2894V13.8672H22.5766ZM22.5766 22.4005V20.9783C22.5766 20.884 22.5392 20.7936 22.4725 20.7269C22.4058 20.6602 22.3154 20.6227 22.2211 20.6227H20.0877C19.9934 20.6227 19.903 20.6602 19.8363 20.7269C19.7696 20.7936 19.7322 20.884 19.7322 20.9783V22.4005H22.5766Z" fill="#565CA9"/>
<path d="M23.2943 22.0469H9.07211C8.87574 22.0469 8.71655 22.2061 8.71655 22.4024V23.1135C8.71655 23.3099 8.87574 23.4691 9.07211 23.4691H23.2943C23.4907 23.4691 23.6499 23.3099 23.6499 23.1135V22.4024C23.6499 22.2061 23.4907 22.0469 23.2943 22.0469Z" fill="#2E348E"/>
<path d="M16.1832 8.53125L8.71655 14.2201H23.6499L16.1832 8.53125Z" fill="#2E348E"/>
<path d="M16.1738 12.8052C16.7629 12.8052 17.2405 12.3276 17.2405 11.7385C17.2405 11.1494 16.7629 10.6719 16.1738 10.6719C15.5847 10.6719 15.1072 11.1494 15.1072 11.7385C15.1072 12.3276 15.5847 12.8052 16.1738 12.8052Z" fill="#F6F7F9"/>
</svg>
