<svg width="67" height="66" viewBox="0 0 67 66" fill="none" xmlns="http://www.w3.org/2000/svg">
<rect x="0.5" width="66" height="66" rx="33" fill="#F6F7F9"/>
<path d="M34.4915 17.3604C34.5137 22.472 35.3109 25.2683 36.6028 27.3584C37.2515 28.408 38.0235 29.2791 38.8831 30.1738C39.7426 31.0686 40.6886 31.9867 41.6868 33.1357V33.1367C43.8389 35.8907 44.2812 38.8534 43.302 41.5889C42.3325 44.2973 39.9667 46.7842 36.4778 48.626C38.0186 46.279 38.1441 43.7474 36.8538 41.0332L36.8157 40.9531L36.7952 41.0391C36.4412 42.4754 35.8015 43.3481 34.884 43.6758C35.7511 41.1199 34.9898 38.3644 32.6116 35.4131L32.5569 35.3457L32.5549 35.4326C32.5033 38.4969 31.7674 40.7224 30.3528 42.1162C29.3681 43.0853 28.8783 44.1203 28.8899 45.2197C28.9013 46.2806 29.3799 47.396 30.3186 48.5664C26.2448 46.3687 23.9243 43.8074 23.3459 40.8818C22.7637 37.9361 23.9447 34.6122 26.9016 30.9072C27.2824 32.6786 28.1824 33.7749 29.6057 34.1846L29.6575 34.1992L29.6448 34.1465C28.0981 27.5827 29.7135 21.989 34.4915 17.3604Z" fill="url(#paint0_linear_6497_217576)" stroke="#5090CC" stroke-width="0.0628571"/>
<defs>
<linearGradient id="paint0_linear_6497_217576" x1="43.1481" y1="25.9119" x2="24.7591" y2="44.3009" gradientUnits="userSpaceOnUse">
<stop stop-color="#EF3E3D"/>
<stop offset="1" stop-color="#FFC828"/>
</linearGradient>
</defs>
</svg>
