<svg width="24" height="24" viewBox="0 0 24 24" fill="none" xmlns="http://www.w3.org/2000/svg">
<path d="M17 8L8 17" stroke="#415362" stroke-width="1.5" stroke-linecap="round" stroke-linejoin="round"/>
<path d="M10.25 9.5C10.9404 9.5 11.5 8.94036 11.5 8.25C11.5 7.55964 10.9404 7 10.25 7C9.55964 7 9 7.55964 9 8.25C9 8.94036 9.55964 9.5 10.25 9.5Z" stroke="#415362" stroke-width="1.5" stroke-linecap="round" stroke-linejoin="round"/>
<path d="M15.75 18C16.4404 18 17 17.4404 17 16.75C17 16.0596 16.4404 15.5 15.75 15.5C15.0596 15.5 14.5 16.0596 14.5 16.75C14.5 17.4404 15.0596 18 15.75 18Z" stroke="#415362" stroke-width="1.5" stroke-linecap="round" stroke-linejoin="round"/>
<path d="M11.0052 2.68168C11.8008 1.78664 13.1992 1.78664 13.9948 2.68168L14.4578 3.20256C14.9386 3.74345 15.6741 3.98242 16.381 3.82743L17.0617 3.67818C18.2315 3.42171 19.3628 4.24371 19.4804 5.43544L19.5488 6.129C19.6199 6.84918 20.0744 7.47481 20.7374 7.76493L21.3759 8.04431C22.4729 8.52438 22.9051 9.8544 22.2997 10.8876L21.9474 11.4889C21.5815 12.1133 21.5815 12.8867 21.9474 13.5111L22.2997 14.1124C22.9051 15.1456 22.4729 16.4756 21.3759 16.9557L20.7374 17.2351C20.0744 17.5252 19.6199 18.1508 19.5488 18.871L19.4804 19.5646C19.3628 20.7563 18.2315 21.5783 17.0617 21.3218L16.381 21.1726C15.6741 21.0176 14.9386 21.2565 14.4578 21.7974L13.9948 22.3183C13.1992 23.2134 11.8008 23.2134 11.0052 22.3183L10.5422 21.7974C10.0614 21.2566 9.32591 21.0176 8.61902 21.1726L7.93827 21.3218C6.76854 21.5783 5.63715 20.7563 5.5196 19.5646L5.45119 18.871C5.38015 18.1508 4.9256 17.5252 4.26261 17.2351L3.62414 16.9557C2.52707 16.4756 2.09492 15.1456 2.70029 14.1124L3.05261 13.5111C3.41845 12.8867 3.41845 12.1133 3.05261 11.4889L2.70029 10.8876C2.09492 9.85441 2.52707 8.52438 3.62414 8.04431L4.26261 7.76493C4.9256 7.47481 5.38015 6.84918 5.45119 6.129L5.5196 5.43544C5.63715 4.24371 6.76854 3.42171 7.93827 3.67818L8.61902 3.82743C9.32591 3.98242 10.0614 3.74345 10.5422 3.20256L11.0052 2.68168Z" stroke="#415362" stroke-width="1.5"/>
</svg>
