<svg viewBox="0 0 12 16" fill="none" xmlns="http://www.w3.org/2000/svg">
<path d="M3.28832 0.859343C3.68214 0.740604 4.10476 0.76033 4.48581 0.915239C4.86686 1.07015 5.18336 1.35089 5.38262 1.71074L5.45012 1.84484L6.04502 3.16874C6.22584 3.57058 6.28453 4.01671 6.2138 4.45164C6.14307 4.88657 5.94604 5.29111 5.64722 5.61494L5.52842 5.73374L4.58882 6.60944C4.41962 6.76964 4.54652 7.38974 5.15942 8.44994C5.70932 9.40394 6.15842 9.84944 6.37802 9.87374H6.41672L6.46442 9.86474L8.30942 9.30044C8.55738 9.2244 8.822 9.22139 9.07162 9.29177C9.32125 9.36216 9.54531 9.50296 9.71702 9.69734L9.79982 9.80084L11.0202 11.4928C11.2597 11.8244 11.3791 12.2276 11.3588 12.6361C11.3386 13.0446 11.1798 13.434 10.9086 13.7401L10.7988 13.8535L10.3101 14.3161C9.87208 14.731 9.32414 15.0113 8.73143 15.1238C8.13872 15.2363 7.52617 15.1762 6.96662 14.9506C5.22512 14.2486 3.64292 12.6448 2.20562 10.1554C0.765619 7.65974 0.167119 5.48444 0.434419 3.62144C0.515384 3.05818 0.747418 2.52737 1.10587 2.08541C1.46432 1.64344 1.9358 1.30684 2.47022 1.11134L2.64392 1.05374L3.28832 0.859343Z" fill="#0C2936"/>
</svg>
