<svg width="32" height="32" viewBox="0 0 32 32" fill="none" xmlns="http://www.w3.org/2000/svg">
<rect width="32" height="32" rx="16" fill="#F4F5F6"/>
<path d="M11.9164 15.291H10.4941V20.9799H11.9164V15.291Z" fill="#ABADD4"/>
<path d="M12.6237 13.8691V15.2914C12.6237 15.3857 12.5863 15.4761 12.5196 15.5428C12.4529 15.6095 12.3625 15.6469 12.2682 15.6469H10.1349C10.0406 15.6469 9.95012 15.6095 9.88344 15.5428C9.81676 15.4761 9.7793 15.3857 9.7793 15.2914V13.8691H12.6237ZM12.6237 22.4025V20.9803C12.6237 20.886 12.5863 20.7955 12.5196 20.7288C12.4529 20.6622 12.3625 20.6247 12.2682 20.6247H10.1349C10.0406 20.6247 9.95012 20.6622 9.88344 20.7288C9.81676 20.7955 9.7793 20.886 9.7793 20.9803V22.4025H12.6237Z" fill="#565CA9"/>
<path d="M16.889 15.291H15.4668V20.9799H16.889V15.291Z" fill="#ABADD4"/>
<path d="M17.6042 13.8691V15.2914C17.6042 15.3857 17.5668 15.4761 17.5001 15.5428C17.4334 15.6095 17.343 15.6469 17.2487 15.6469H15.1153C15.021 15.6469 14.9306 15.6095 14.8639 15.5428C14.7972 15.4761 14.7598 15.3857 14.7598 15.2914V13.8691H17.6042ZM17.6042 22.4025V20.9803C17.6042 20.886 17.5668 20.7955 17.5001 20.7288C17.4334 20.6622 17.343 20.6247 17.2487 20.6247H15.1153C15.021 20.6247 14.9306 20.6622 14.8639 20.7288C14.7972 20.7955 14.7598 20.886 14.7598 20.9803V22.4025H17.6042Z" fill="#565CA9"/>
<path d="M21.8695 15.291H20.4473V20.9799H21.8695V15.291Z" fill="#ABADD4"/>
<path d="M22.5808 13.8691V15.2914C22.5808 15.3857 22.5433 15.4761 22.4766 15.5428C22.41 15.6095 22.3195 15.6469 22.2252 15.6469H20.0919C19.9976 15.6469 19.9071 15.6095 19.8405 15.5428C19.7738 15.4761 19.7363 15.3857 19.7363 15.2914V13.8691H22.5808ZM22.5808 22.4025V20.9803C22.5808 20.886 22.5433 20.7955 22.4766 20.7288C22.41 20.6622 22.3195 20.6247 22.2252 20.6247H20.0919C19.9976 20.6247 19.9071 20.6622 19.8405 20.7288C19.7738 20.7955 19.7363 20.886 19.7363 20.9803V22.4025H22.5808Z" fill="#565CA9"/>
<path d="M23.2907 22.0449H9.06845C8.87208 22.0449 8.71289 22.2041 8.71289 22.4005V23.1116C8.71289 23.308 8.87208 23.4671 9.06845 23.4671H23.2907C23.487 23.4671 23.6462 23.308 23.6462 23.1116V22.4005C23.6462 22.2041 23.487 22.0449 23.2907 22.0449Z" fill="#2E348E"/>
<path d="M16.1796 8.5332L8.71289 14.2221H23.6462L16.1796 8.5332Z" fill="#2E348E"/>
<path d="M16.178 12.7993C16.7671 12.7993 17.2447 12.3218 17.2447 11.7327C17.2447 11.1436 16.7671 10.666 16.178 10.666C15.5889 10.666 15.1113 11.1436 15.1113 11.7327C15.1113 12.3218 15.5889 12.7993 16.178 12.7993Z" fill="#F4F5F6"/>
</svg>
