<svg width="66" height="66" viewBox="0 0 66 66" fill="none" xmlns="http://www.w3.org/2000/svg">
<g clip-path="url(#clip0_422_62726)">
<path d="M63.8324 36.2086C64.2035 35.1316 66 34.1215 66 33C66 31.8784 64.211 30.8684 63.8399 29.7914C63.825 29.6205 63.7953 29.4571 63.773 29.2863C63.8695 28.1276 65.4284 26.7312 65.1834 25.6543C64.931 24.5476 62.8971 23.9608 62.3329 22.9656C62.2809 22.8245 62.2364 22.6758 62.1844 22.5347C62.0211 21.3909 63.2237 19.6752 62.7412 18.6799C62.2513 17.6549 60.1134 17.5435 59.3488 16.682C59.2968 16.6003 59.2449 16.5185 59.1929 16.4443C58.6436 15.4045 59.5343 13.3396 58.8069 12.426C58.0794 11.5199 55.897 11.9136 54.9914 11.1709L54.8355 11.0148C54.0931 10.1087 54.4866 7.9251 53.5809 7.19717C52.6678 6.46925 50.6116 7.35315 49.5649 6.81095L49.32 6.65497C48.4589 5.88252 48.3475 3.75089 47.3232 3.26057C46.321 2.77785 44.6137 3.98114 43.4704 3.81772C43.3294 3.76568 43.181 3.72115 43.0325 3.6691C42.0378 3.09724 41.4513 1.06953 40.3453 0.81698C39.2689 0.571944 37.8734 2.12428 36.7153 2.22821L36.2031 2.16137C35.1268 1.79002 34.1171 0 32.9963 0C31.8754 0 30.8658 1.79002 29.7895 2.16137C29.6187 2.17625 29.4479 2.20599 29.2773 2.22821C28.1193 2.12428 26.7236 0.571944 25.6473 0.81698C24.5412 1.06953 23.9548 3.09724 22.9601 3.66918C22.819 3.72115 22.6706 3.76568 22.5221 3.81772C21.3789 3.98114 19.6716 2.77785 18.6695 3.26065C17.6451 3.75089 17.5337 5.88996 16.6726 6.65497C16.5909 6.70694 16.5093 6.75898 16.4351 6.81095C15.3958 7.36059 13.3322 6.46925 12.4191 7.19717C11.5134 7.9251 11.9069 10.1087 11.1645 11.0148L11.0086 11.1709C10.103 11.9136 7.92058 11.5199 7.19316 12.426C6.46566 13.3396 7.35641 15.397 6.80711 16.4443C6.75514 16.526 6.70318 16.6003 6.65121 16.682C5.88661 17.5435 3.74872 17.6549 3.25881 18.6799C2.77626 19.6826 3.97888 21.3909 3.81555 22.5347C3.76359 22.6758 3.71906 22.8245 3.66709 22.9656C3.09548 23.9608 1.06151 24.5476 0.816562 25.6543C0.57161 26.7312 2.12303 28.1276 2.22696 29.2863C2.20473 29.4571 2.18243 29.6205 2.16012 29.7914C1.7891 30.8684 0 31.8784 0 33C0 34.1215 1.78902 35.1316 2.1602 36.2086C2.17499 36.3794 2.20473 36.5429 2.22704 36.7137C2.13046 37.8724 0.57161 39.2687 0.816562 40.3457C1.06895 41.4524 3.10292 42.0392 3.66709 43.0344C3.71906 43.1755 3.76359 43.3241 3.81555 43.4652C3.97888 44.6091 2.77626 46.3247 3.25881 47.32C3.74872 48.345 5.88661 48.4564 6.65121 49.318C6.70318 49.3997 6.75514 49.474 6.80711 49.5557C7.35641 50.5955 6.46566 52.6603 7.19308 53.5739C7.92058 54.4801 10.103 54.0864 11.0086 54.8291L11.1645 54.9851C11.9069 55.8913 11.5134 58.075 12.4191 58.8028C13.3322 59.5307 15.3884 58.6468 16.4351 59.189L16.68 59.345C17.5411 60.1175 17.6525 62.2491 18.6768 62.7393C19.679 63.2221 21.3863 62.0189 22.5296 62.1823C22.6706 62.2343 22.819 62.2788 22.9675 62.3308C23.9622 62.9028 24.5487 64.9305 25.6547 65.183C26.7311 65.428 28.1266 63.8757 29.2847 63.7718L29.7969 63.8386C30.8732 64.21 31.8828 66 33.0037 66C34.1246 66 35.1342 64.21 36.2105 63.8386C36.3813 63.8237 36.552 63.7941 36.7227 63.7718C37.8807 63.8757 39.2689 65.428 40.3527 65.183C41.4513 64.9305 42.0378 62.9028 43.0325 62.3308C43.181 62.2788 43.3294 62.2343 43.4704 62.1823C44.6137 62.0189 46.321 63.2221 47.3232 62.7393C48.3475 62.2491 48.4589 60.1175 49.32 59.345L49.5649 59.189C50.6116 58.6394 52.6678 59.5307 53.5809 58.8028C54.4866 58.075 54.0931 55.8913 54.8355 54.9851L54.9914 54.8291C55.897 54.0864 58.0794 54.4801 58.8069 53.5739C59.5343 52.6603 58.6436 50.5955 59.1929 49.5557C59.2449 49.474 59.2968 49.3997 59.3488 49.318C60.1134 48.4564 62.2513 48.3376 62.7486 47.32C63.2312 46.3173 62.0285 44.6091 62.1919 43.4578C62.2438 43.3166 62.2884 43.1681 62.3403 43.027C62.9119 42.0243 64.9459 41.4375 65.1909 40.3383C65.4358 39.2613 63.8844 37.8649 63.7805 36.7063C63.8027 36.5354 63.825 36.372 63.8472 36.2012L63.8324 36.2086ZM62.2884 33C62.2884 49.1546 49.1493 62.3012 33.0037 62.3012C16.8582 62.3012 3.71906 49.1546 3.71906 33C3.71906 16.8454 16.8582 3.69884 33.0037 3.69884C49.1493 3.69884 62.2884 16.8454 62.2884 33Z" fill="#5F8FC8"/>
<path d="M23.2553 12.5172C23.2553 12.7238 23.2065 12.9188 23.1091 13.102C23.0116 13.2852 22.8556 13.4353 22.6413 13.5523C22.4268 13.6653 22.1519 13.7219 21.8167 13.7219H21.0798V15.3711H20.4131V11.3066H21.8167C22.1285 11.3066 22.3917 11.3612 22.6062 11.4704C22.8245 11.5756 22.9863 11.7199 23.0916 11.9031C23.2007 12.0863 23.2553 12.291 23.2553 12.5172ZM21.8167 13.178C22.0701 13.178 22.2591 13.1215 22.3839 13.0084C22.5087 12.8915 22.5711 12.7277 22.5711 12.5172C22.5711 12.0727 22.3196 11.8505 21.8167 11.8505H21.0798V13.178H21.8167ZM26.0023 15.3711L25.0666 13.7453H24.5578V15.3711H23.8912V11.3066H25.2947C25.6066 11.3066 25.8697 11.3612 26.0842 11.4704C26.3025 11.5796 26.4643 11.7258 26.5696 11.909C26.6787 12.0922 26.7333 12.2969 26.7333 12.523C26.7333 12.7881 26.6553 13.0299 26.4994 13.2482C26.3474 13.4627 26.1114 13.6089 25.7918 13.6868L26.7977 15.3711H26.0023ZM24.5578 13.2131H25.2947C25.5442 13.2131 25.7313 13.1507 25.8561 13.026C25.9848 12.9012 26.0491 12.7336 26.0491 12.523C26.0491 12.3125 25.9867 12.1488 25.862 12.0318C25.7372 11.9109 25.5481 11.8505 25.2947 11.8505H24.5578V13.2131ZM28.2528 11.8447V13.0377H29.6564V13.5815H28.2528V14.8272H29.8318V15.3711H27.5862V11.3008H29.8318V11.8447H28.2528ZM34.9338 11.3066V15.3711H34.2671V12.5874L33.0273 15.3711H32.5653L31.3197 12.5874V15.3711H30.653V11.3066H31.3723L32.7992 14.4938L34.2203 11.3066H34.9338ZM36.4768 11.3066V15.3711H35.8101V11.3066H36.4768ZM38.0129 11.3066V13.8973C38.0129 14.2054 38.0928 14.4373 38.2527 14.5933C38.4164 14.7492 38.6425 14.8272 38.9311 14.8272C39.2235 14.8272 39.4495 14.7492 39.6094 14.5933C39.7732 14.4373 39.8551 14.2054 39.8551 13.8973V11.3066H40.5217V13.8856C40.5217 14.2171 40.4496 14.4978 40.3054 14.7278C40.1611 14.9578 39.9681 15.1294 39.7264 15.2424C39.4846 15.3554 39.2176 15.412 38.9252 15.412C38.6328 15.412 38.3657 15.3554 38.124 15.2424C37.8862 15.1294 37.6971 14.9578 37.5568 14.7278C37.4164 14.4978 37.3462 14.2171 37.3462 13.8856V11.3066H38.0129ZM45.6706 11.3066V15.3711H45.0039V12.5874L43.7641 15.3711H43.3021L42.0565 12.5874V15.3711H41.3898V11.3066H42.1091L43.536 14.4938L44.9571 11.3066H45.6706ZM17.483 45.8981C17.3627 45.6665 17.1956 45.4927 16.9817 45.3768C16.7678 45.2565 16.5206 45.1964 16.2398 45.1964C15.9324 45.1964 15.6584 45.2655 15.4178 45.4036C15.1772 45.5417 14.9879 45.7377 14.8497 45.9917C14.716 46.2457 14.6492 46.5398 14.6492 46.8739C14.6492 47.2081 14.716 47.5045 14.8497 47.7629C14.9879 48.0168 15.1772 48.2129 15.4178 48.351C15.6584 48.4891 15.9324 48.5582 16.2398 48.5582C16.6542 48.5582 16.9907 48.4423 17.2491 48.2107C17.5075 47.979 17.6657 47.6649 17.7236 47.2683H15.9792V46.6601H18.539V47.2549C18.49 47.6158 18.3608 47.9477 18.1513 48.2508C17.9464 48.5538 17.6768 48.7966 17.3426 48.9793C17.013 49.1575 16.6454 49.2466 16.2398 49.2466C15.8032 49.2466 15.4044 49.1464 15.0435 48.9458C14.6826 48.7409 14.3952 48.4579 14.1813 48.097C13.972 47.7361 13.8672 47.3284 13.8672 46.8739C13.8672 46.4195 13.972 46.0118 14.1813 45.6509C14.3952 45.2899 14.6826 45.0092 15.0435 44.8087C15.4089 44.6038 15.8077 44.5013 16.2398 44.5013C16.7344 44.5013 17.1734 44.6238 17.5565 44.8689C17.9441 45.1095 18.2249 45.4526 18.3986 45.8981H17.483ZM20.0457 44.5614V47.5223C20.0457 47.8742 20.1371 48.1394 20.3197 48.3176C20.5069 48.4958 20.7654 48.5849 21.095 48.5849C21.4292 48.5849 21.6877 48.4958 21.8703 48.3176C22.0575 48.1394 22.151 47.8742 22.151 47.5223V44.5614H22.9129V47.5089C22.9129 47.8876 22.8306 48.2084 22.6657 48.4713C22.5008 48.7342 22.2803 48.9302 22.004 49.0595C21.7278 49.1887 21.4225 49.2533 21.0883 49.2533C20.7542 49.2533 20.449 49.1887 20.1727 49.0595C19.9009 48.9302 19.6848 48.7342 19.5244 48.4713C19.364 48.2084 19.2838 47.8876 19.2838 47.5089V44.5614H20.0457ZM26.7054 48.2574H24.7605L24.4264 49.2065H23.631L25.2952 44.5548H26.1774L27.8416 49.2065H27.0396L26.7054 48.2574ZM26.4916 47.6359L25.7363 45.4771L24.9744 47.6359H26.4916ZM30.978 49.2065L29.9086 47.3485H29.3271V49.2065H28.5652V44.5614H30.1693C30.5258 44.5614 30.8265 44.6238 31.0715 44.7486C31.3211 44.8733 31.506 45.0404 31.6263 45.2498C31.751 45.4593 31.8134 45.6932 31.8134 45.9516C31.8134 46.2546 31.7243 46.5308 31.5461 46.7804C31.3723 47.0254 31.1027 47.1925 30.7374 47.2816L31.8869 49.2065H30.978ZM29.3271 46.7403H30.1693C30.4544 46.7403 30.6683 46.669 30.8109 46.5264C30.9579 46.3838 31.0314 46.1922 31.0314 45.9516C31.0314 45.711 30.9602 45.5239 30.8176 45.3902C30.675 45.2521 30.4589 45.183 30.1693 45.183H29.3271V46.7403ZM35.5885 48.2574H33.6436L33.3095 49.2065H32.5141L34.1783 44.5548H35.0605L36.7247 49.2065H35.9227L35.5885 48.2574ZM35.3747 47.6359L34.6194 45.4771L33.8575 47.6359H35.3747ZM41.2646 49.2065H40.5027L38.2102 45.7377V49.2065H37.4483V44.5548H38.2102L40.5027 48.0168V44.5548H41.2646V49.2065ZM45.2661 44.5614V45.183H44.0296V49.2065H43.2677V45.183H42.0245V44.5614H45.2661ZM46.7997 45.1763V46.5398H48.4037V47.1613H46.7997V48.5849H48.6042V49.2065H46.0378V44.5548H48.6042V45.1763H46.7997ZM50.3046 45.1763V46.5398H51.9087V47.1613H50.3046V48.5849H52.1092V49.2065H49.5427V44.5548H52.1092V45.1763H50.3046Z" fill="#38547B"/>
<path d="M19.8041 19.0469L19.1319 21.1166H16.96L18.7182 22.4001L18.046 24.4773L19.8041 23.1938L21.555 24.4773L20.8827 22.4001L22.641 21.1166H20.4691L19.8041 19.0469ZM26.4041 19.0469L25.7319 21.1166H23.56L25.3182 22.4001L24.646 24.4773L26.4041 23.1938L28.155 24.4773L27.4827 22.4001L29.241 21.1166H27.0691L26.4041 19.0469ZM33.0041 19.0469L32.3319 21.1166H30.16L31.9181 22.4001L31.246 24.4773L33.0041 23.1938L34.755 24.4773L34.0827 22.4001L35.841 21.1166H33.6691L33.0041 19.0469ZM39.6041 19.0469L38.9319 21.1166H36.76L38.5181 22.4001L37.8459 24.4773L39.6041 23.1938L41.355 24.4773L40.6827 22.4001L42.441 21.1166H40.2691L39.6041 19.0469ZM46.2041 19.0469L45.5319 21.1166H43.36L45.1181 22.4001L44.446 24.4773L46.2041 23.1938L47.955 24.4773L47.2827 22.4001L49.041 21.1166H46.8691L46.2041 19.0469Z" fill="#FDD600"/>
<path d="M21.3705 29.8728L19.4774 36.2598H18.2919L16.9502 31.4259L15.5258 36.2598L14.3495 36.269L12.5391 29.8728H13.651L14.9744 35.0743L16.408 29.8728H17.5843L18.9168 35.0467L20.2494 29.8728H21.3705ZM22.7676 30.5253C22.5777 30.5253 22.4184 30.461 22.2898 30.3323C22.1611 30.2037 22.0968 30.0444 22.0968 29.8545C22.0968 29.6646 22.1611 29.5052 22.2898 29.3766C22.4184 29.2479 22.5777 29.1836 22.7676 29.1836C22.9514 29.1836 23.1077 29.2479 23.2363 29.3766C23.365 29.5052 23.4293 29.6646 23.4293 29.8545C23.4293 30.0444 23.365 30.2037 23.2363 30.3323C23.1077 30.461 22.9514 30.5253 22.7676 30.5253ZM23.2823 31.1962V36.2598H22.2346V31.1962H23.2823ZM27.2125 31.1135C27.6107 31.1135 27.966 31.1962 28.2785 31.3616C28.5971 31.527 28.8452 31.772 29.0229 32.0968C29.2006 32.4215 29.2894 32.8136 29.2894 33.2731V36.2598H28.2509V33.4293C28.2509 32.9759 28.1376 32.6298 27.9109 32.3909C27.6842 32.1458 27.3749 32.0233 26.9827 32.0233C26.5906 32.0233 26.2782 32.1458 26.0453 32.3909C25.8187 32.6298 25.7053 32.9759 25.7053 33.4293V36.2598H24.6577V31.1962H25.7053V31.7751C25.8769 31.5669 26.0944 31.4045 26.3578 31.2881C26.6274 31.1717 26.9123 31.1135 27.2125 31.1135ZM38.9426 29.8728L37.0495 36.2598H35.864L34.5222 31.4259L33.0978 36.2598L31.9215 36.269L30.1111 29.8728H31.2231L32.5464 35.0743L33.98 29.8728H35.1563L36.4889 35.0467L37.8214 29.8728H38.9426ZM40.3397 30.5253C40.1497 30.5253 39.9905 30.461 39.8618 30.3323C39.7332 30.2037 39.6688 30.0444 39.6688 29.8545C39.6688 29.6646 39.7332 29.5052 39.8618 29.3766C39.9905 29.2479 40.1497 29.1836 40.3397 29.1836C40.5235 29.1836 40.6797 29.2479 40.8084 29.3766C40.937 29.5052 41.0014 29.6646 41.0014 29.8545C41.0014 30.0444 40.937 30.2037 40.8084 30.3323C40.6797 30.461 40.5235 30.5253 40.3397 30.5253ZM40.8543 31.1962V36.2598H39.8067V31.1962H40.8543ZM44.7846 31.1135C45.1827 31.1135 45.5381 31.1962 45.8506 31.3616C46.1692 31.527 46.4173 31.772 46.595 32.0968C46.7726 32.4215 46.8615 32.8136 46.8615 33.2731V36.2598H45.823V33.4293C45.823 32.9759 45.7097 32.6298 45.483 32.3909C45.2563 32.1458 44.9469 32.0233 44.5548 32.0233C44.1627 32.0233 43.8502 32.1458 43.6175 32.3909C43.3907 32.6298 43.2774 32.9759 43.2774 33.4293V36.2598H42.2298V31.1962H43.2774V31.7751C43.4489 31.5669 43.6664 31.4045 43.9299 31.2881C44.1994 31.1717 44.4843 31.1135 44.7846 31.1135Z" fill="#5F8FC8"/>
<path d="M51.1291 33.0693L53.1141 36.2582H51.9378L50.495 33.9424L49.1441 36.2582H47.977L49.962 33.0693L47.9678 29.8713H49.1441L50.5961 32.2055L51.9562 29.8713H53.1233L51.1291 33.0693Z" fill="#31509F"/>
<path d="M57.4368 26.2344H8.56335C8.448 26.2344 8.35449 26.3279 8.35449 26.4432C8.35449 26.5586 8.448 26.6521 8.56335 26.6521H57.4368C57.5521 26.6521 57.6456 26.5586 57.6456 26.4432C57.6456 26.3279 57.5521 26.2344 57.4368 26.2344Z" fill="#38547B"/>
<path d="M57.4368 39.3477H8.56335C8.448 39.3477 8.35449 39.4412 8.35449 39.5565C8.35449 39.6719 8.448 39.7654 8.56335 39.7654H57.4368C57.5521 39.7654 57.6456 39.6719 57.6456 39.5565C57.6456 39.4412 57.5521 39.3477 57.4368 39.3477Z" fill="#38547B"/>
</g>
<defs>
<clipPath id="clip0_422_62726">
<rect width="66" height="66" fill="white"/>
</clipPath>
</defs>
</svg>
