<svg viewBox="0 0 14 13" fill="none" xmlns="http://www.w3.org/2000/svg">
<path d="M14 6.125C14 9.50775 10.8658 12.25 7 12.25C6.3067 12.2509 5.61626 12.1609 4.94637 11.9823C4.43537 12.2413 3.262 12.7383 1.288 13.062C1.113 13.09 0.98 12.908 1.04912 12.7452C1.35888 12.0138 1.63888 11.039 1.72287 10.15C0.651 9.07375 0 7.665 0 6.125C0 2.74225 3.13425 0 7 0C10.8658 0 14 2.74225 14 6.125ZM3.9375 3.5C3.82147 3.5 3.71019 3.54609 3.62814 3.62814C3.54609 3.71019 3.5 3.82147 3.5 3.9375C3.5 4.05353 3.54609 4.16481 3.62814 4.24686C3.71019 4.32891 3.82147 4.375 3.9375 4.375H10.0625C10.1785 4.375 10.2898 4.32891 10.3719 4.24686C10.4539 4.16481 10.5 4.05353 10.5 3.9375C10.5 3.82147 10.4539 3.71019 10.3719 3.62814C10.2898 3.54609 10.1785 3.5 10.0625 3.5H3.9375ZM3.9375 5.6875C3.82147 5.6875 3.71019 5.73359 3.62814 5.81564C3.54609 5.89769 3.5 6.00897 3.5 6.125C3.5 6.24103 3.54609 6.35231 3.62814 6.43436C3.71019 6.51641 3.82147 6.5625 3.9375 6.5625H10.0625C10.1785 6.5625 10.2898 6.51641 10.3719 6.43436C10.4539 6.35231 10.5 6.24103 10.5 6.125C10.5 6.00897 10.4539 5.89769 10.3719 5.81564C10.2898 5.73359 10.1785 5.6875 10.0625 5.6875H3.9375ZM3.9375 7.875C3.82147 7.875 3.71019 7.92109 3.62814 8.00314C3.54609 8.08519 3.5 8.19647 3.5 8.3125C3.5 8.42853 3.54609 8.53981 3.62814 8.62186C3.71019 8.70391 3.82147 8.75 3.9375 8.75H7.4375C7.55353 8.75 7.66481 8.70391 7.74686 8.62186C7.82891 8.53981 7.875 8.42853 7.875 8.3125C7.875 8.19647 7.82891 8.08519 7.74686 8.00314C7.66481 7.92109 7.55353 7.875 7.4375 7.875H3.9375Z" fill="#0C2936"/>
</svg>
