<svg width="48" height="48" viewBox="0 0 48 48" fill="none" xmlns="http://www.w3.org/2000/svg">
<rect width="48" height="48" rx="24" fill="#EEF4FA"/>
<path d="M24.3299 17.1368L26.4899 14.5171C27.1075 14.1156 27.8164 14.8633 27.3955 15.467L25.1274 18.2196L27.3789 20.9889C27.4149 21.0388 27.4592 21.0637 27.5173 21.0775C27.6558 21.1025 28.9657 21.0942 29.0488 21.0554L31.4968 18.3803C31.7211 18.1809 31.8928 17.8846 32.2307 17.8735C32.7651 17.8569 33.103 18.491 32.779 18.9258C32.0839 19.6375 31.4359 20.388 30.7685 21.1246C30.5663 21.3462 30.1482 21.6369 30.1066 21.9277C30.1565 23.5727 30.0235 25.273 30.1011 26.9097C30.1952 28.97 30.5996 31.1107 30.7408 33.1766C30.6937 33.9963 29.6663 34.2095 29.3008 33.4729L28.4949 27.2807L28.4257 27.2115L28.0684 27.2032L27.2293 33.4563C26.9413 34.2206 25.8142 33.9935 25.8004 33.1738C25.9361 31.2574 26.3044 29.2746 26.393 27.3638C26.4816 25.453 26.3238 23.6557 26.3902 21.828L24.4047 19.38L24.2717 19.2914L22.1394 21.8751C22.2086 23.7001 22.0425 25.5942 22.1366 27.4109C22.2308 29.2276 22.6046 31.2768 22.7292 33.1766C22.7431 33.772 22.0951 34.1763 21.5717 33.8717C21.1867 33.6473 21.1951 33.1046 21.1369 32.7058C20.8738 30.8947 20.7326 29.0586 20.439 27.2531L20.032 27.2503L19.2538 33.4396C19.0239 34.2261 17.7611 34.179 17.7888 33.0741C17.8387 31.1134 18.2928 29.0116 18.387 27.0426C18.4701 25.345 18.3205 23.5782 18.3842 21.8751L15.7091 18.923C15.2882 18.2529 16.1522 17.5218 16.7614 18.1006C17.3374 18.6489 17.8996 19.3883 18.4535 19.9781C18.7941 20.3381 19.1347 20.7009 19.4836 21.0526L21.015 21.0748L21.1314 21.0083L23.3773 18.2141L23.3523 18.1033L21.1369 15.4199C20.7409 14.7663 21.4443 14.1045 22.0674 14.5365L24.1942 17.123L24.3271 17.1396L24.3299 17.1368Z" fill="#5090CC"/>
<path d="M21.298 20.271C20.1459 21.5144 18.152 19.7061 19.3678 18.4101C20.5807 17.1113 22.5054 18.9667 21.298 20.271Z" fill="#5090CC"/>
<path d="M29.1689 18.3436C30.476 19.4956 28.6039 21.5034 27.3273 20.2267C26.1476 19.0498 27.8728 17.1999 29.1689 18.3436Z" fill="#5090CC"/>
</svg>
