<svg width="13" height="13" viewBox="0 0 13 13" fill="none" xmlns="http://www.w3.org/2000/svg">
<path d="M9.31922 4.70039C9.39082 4.77208 9.43104 4.86926 9.43104 4.97059C9.43104 5.07191 9.39082 5.16909 9.31922 5.24078L5.75059 8.80941C5.6789 8.88101 5.58172 8.92123 5.48039 8.92123C5.37907 8.92123 5.28189 8.88101 5.2102 8.80941L3.68079 7.28C3.61325 7.20752 3.57648 7.11165 3.57823 7.0126C3.57997 6.91354 3.6201 6.81903 3.69016 6.74898C3.76021 6.67892 3.85472 6.63879 3.95378 6.63705C4.05283 6.6353 4.1487 6.67207 4.22118 6.73961L5.48039 7.99818L8.77882 4.70039C8.85052 4.62879 8.9477 4.58857 9.04902 4.58857C9.15034 4.58857 9.24753 4.62879 9.31922 4.70039ZM13 6.5C13 7.78558 12.6188 9.04229 11.9046 10.1112C11.1903 11.1801 10.1752 12.0132 8.98744 12.5052C7.79972 12.9972 6.49279 13.1259 5.23191 12.8751C3.97104 12.6243 2.81285 12.0052 1.90381 11.0962C0.994767 10.1872 0.375703 9.02896 0.124899 7.76809C-0.125905 6.50721 0.00281624 5.20028 0.494786 4.01256C0.986755 2.82484 1.81988 1.80968 2.8888 1.09545C3.95772 0.381218 5.21442 0 6.5 0C8.22329 0.00202383 9.87541 0.687493 11.094 1.90604C12.3125 3.12459 12.998 4.77671 13 6.5ZM12.2353 6.5C12.2353 5.36566 11.8989 4.2568 11.2687 3.31364C10.6385 2.37048 9.74279 1.63537 8.6948 1.20128C7.64682 0.767188 6.49364 0.65361 5.3811 0.874908C4.26856 1.09621 3.24663 1.64244 2.44454 2.44453C1.64244 3.24663 1.09621 4.26856 0.874911 5.3811C0.653613 6.49364 0.767191 7.64681 1.20128 8.6948C1.63537 9.74279 2.37048 10.6385 3.31364 11.2687C4.25681 11.8989 5.36567 12.2353 6.5 12.2353C8.02058 12.2336 9.47839 11.6288 10.5536 10.5536C11.6288 9.47839 12.2336 8.02058 12.2353 6.5Z" fill="#00A63E"/>
</svg>
