<svg width="36" height="36" viewBox="0 0 36 36" fill="none" xmlns="http://www.w3.org/2000/svg">
<rect x="0.5" y="0.5" width="35" height="35" rx="17.5" fill="#F6F7F9"/>
<rect x="0.5" y="0.5" width="35" height="35" rx="17.5" stroke="#ECEEEF"/>
<path d="M17.9997 18.6666C18.3679 18.6666 18.6663 18.3681 18.6663 17.9999C18.6663 17.6317 18.3679 17.3333 17.9997 17.3333C17.6315 17.3333 17.333 17.6317 17.333 17.9999C17.333 18.3681 17.6315 18.6666 17.9997 18.6666Z" stroke="#415362" stroke-width="1.5" stroke-linecap="round" stroke-linejoin="round"/>
<path d="M22.6667 18.6666C23.0349 18.6666 23.3333 18.3681 23.3333 17.9999C23.3333 17.6317 23.0349 17.3333 22.6667 17.3333C22.2985 17.3333 22 17.6317 22 17.9999C22 18.3681 22.2985 18.6666 22.6667 18.6666Z" stroke="#415362" stroke-width="1.5" stroke-linecap="round" stroke-linejoin="round"/>
<path d="M13.3337 18.6666C13.7018 18.6666 14.0003 18.3681 14.0003 17.9999C14.0003 17.6317 13.7018 17.3333 13.3337 17.3333C12.9655 17.3333 12.667 17.6317 12.667 17.9999C12.667 18.3681 12.9655 18.6666 13.3337 18.6666Z" stroke="#415362" stroke-width="1.5" stroke-linecap="round" stroke-linejoin="round"/>
</svg>
