<svg width="11" height="11" viewBox="0 0 11 11" fill="none" xmlns="http://www.w3.org/2000/svg">
<path fill-rule="evenodd" clip-rule="evenodd" d="M0.222885 0.232607C0.365642 0.0897657 0.559235 0.00952934 0.761087 0.00952934C0.96294 0.00952934 1.15653 0.0897657 1.29929 0.232607L5.32855 4.26535L9.35783 0.232607C9.42809 0.15983 9.51206 0.101788 9.60493 0.0618571C9.6978 0.0219257 9.79775 0.000912391 9.89877 2.85829e-05C9.99986 -0.000847606 10.1001 0.0184285 10.1937 0.056737C10.2872 0.0950455 10.3722 0.151625 10.4437 0.22316C10.5152 0.294695 10.5717 0.379761 10.61 0.473399C10.6482 0.567037 10.6675 0.667364 10.6666 0.76853C10.6657 0.869695 10.6447 0.969673 10.6048 1.06262C10.5649 1.15558 10.5069 1.23965 10.4342 1.30993L6.40495 5.34269L10.4342 9.37544C10.5729 9.51913 10.6497 9.71159 10.6479 9.91136C10.6462 10.1111 10.5662 10.3022 10.4249 10.4435C10.2838 10.5847 10.0929 10.6649 9.89329 10.6666C9.69369 10.6684 9.5014 10.5916 9.35783 10.4528L5.32855 6.42002L1.29929 10.4528C1.15572 10.5916 0.963427 10.6684 0.763828 10.6666C0.564229 10.6649 0.373301 10.5847 0.232158 10.4435C0.0910149 10.3022 0.0109545 10.1111 0.0092265 9.91136C0.00749086 9.71159 0.0842167 9.51913 0.222885 9.37544L4.25214 5.34269L0.222885 1.30993C0.0801745 1.16706 0 0.973299 0 0.771265C0 0.569239 0.0801745 0.375479 0.222885 0.232607Z" fill="#EF4444"/>
</svg>
