<svg width="12" height="12" viewBox="0 0 12 12" fill="none" xmlns="http://www.w3.org/2000/svg">
<path d="M8.17269 4.48038L6.6525 6L8.17269 7.51961C8.21558 7.5625 8.24959 7.6134 8.2728 7.66943C8.29601 7.72546 8.30795 7.78551 8.30795 7.84615C8.30795 7.9068 8.29601 7.96685 8.2728 8.02287C8.24959 8.0789 8.21558 8.12981 8.17269 8.17269C8.12981 8.21557 8.0789 8.24959 8.02288 8.27279C7.96685 8.296 7.9068 8.30795 7.84616 8.30795C7.78551 8.30795 7.72546 8.296 7.66943 8.27279C7.61341 8.24959 7.5625 8.21557 7.51962 8.17269L6 6.6525L4.48039 8.17269C4.4375 8.21557 4.3866 8.24959 4.33057 8.27279C4.27454 8.296 4.21449 8.30795 4.15385 8.30795C4.0932 8.30795 4.03315 8.296 3.97713 8.27279C3.9211 8.24959 3.87019 8.21557 3.82731 8.17269C3.78443 8.12981 3.75041 8.0789 3.7272 8.02287C3.704 7.96685 3.69205 7.9068 3.69205 7.84615C3.69205 7.78551 3.704 7.72546 3.7272 7.66943C3.75041 7.6134 3.78443 7.5625 3.82731 7.51961L5.3475 6L3.82731 4.48038C3.74071 4.39378 3.69205 4.27632 3.69205 4.15385C3.69205 4.03137 3.74071 3.91391 3.82731 3.82731C3.91391 3.7407 4.03137 3.69205 4.15385 3.69205C4.27632 3.69205 4.39378 3.7407 4.48039 3.82731L6 5.3475L7.51962 3.82731C7.5625 3.78443 7.61341 3.75041 7.66943 3.7272C7.72546 3.70399 7.78551 3.69205 7.84616 3.69205C7.9068 3.69205 7.96685 3.70399 8.02288 3.7272C8.0789 3.75041 8.12981 3.78443 8.17269 3.82731C8.21558 3.87019 8.24959 3.9211 8.2728 3.97712C8.29601 4.03315 8.30795 4.0932 8.30795 4.15385C8.30795 4.21449 8.29601 4.27454 8.2728 4.33057C8.24959 4.38659 8.21558 4.4375 8.17269 4.48038ZM12 6C12 7.18669 11.6481 8.34672 10.9888 9.33342C10.3295 10.3201 9.39246 11.0891 8.2961 11.5433C7.19975 11.9974 5.99335 12.1162 4.82946 11.8847C3.66557 11.6532 2.59648 11.0818 1.75736 10.2426C0.918247 9.40352 0.346802 8.33443 0.115291 7.17054C-0.11622 6.00666 0.00259971 4.80025 0.456725 3.7039C0.910851 2.60754 1.67989 1.67047 2.66658 1.01118C3.65328 0.351894 4.81331 0 6 0C7.59078 0.0016799 9.11593 0.63436 10.2408 1.75921C11.3656 2.88407 11.9983 4.40922 12 6ZM11.0769 6C11.0769 4.99588 10.7792 4.01431 10.2213 3.17941C9.66345 2.34452 8.87054 1.69379 7.94286 1.30953C7.01517 0.925274 5.99437 0.824734 5.00954 1.02063C4.02472 1.21652 3.1201 1.70005 2.41008 2.41007C1.70006 3.12009 1.21653 4.02471 1.02063 5.00954C0.824737 5.99437 0.925277 7.01517 1.30954 7.94285C1.6938 8.87054 2.34452 9.66345 3.17941 10.2213C4.01431 10.7792 4.99588 11.0769 6 11.0769C7.34602 11.0754 8.63646 10.54 9.58824 9.58824C10.54 8.63646 11.0754 7.34601 11.0769 6Z" fill="#EF4444"/>
</svg>
