<svg width="26" height="31" viewBox="0 0 26 31" fill="none" xmlns="http://www.w3.org/2000/svg">
<circle cx="12.7002" cy="12.7002" r="12.7002" fill="#F0F0F0"/>
<path d="M17.3672 14.5732L17.124 16.0186V16.0195C17.0794 16.2837 16.8318 16.499 16.5176 16.499H9.13672C8.8225 16.499 8.57486 16.2837 8.53027 16.0195V16.0186L8.28613 14.5732H17.3672ZM12.8271 8.9082C12.9043 8.90823 12.9767 8.93204 13.0342 8.97266L13.0859 9.01855L15.1562 11.2734L15.3379 11.4717L15.5693 11.333L17.5439 10.1475C17.6591 10.0785 17.8086 10.0805 17.9219 10.1514C18.0323 10.2207 18.0807 10.3374 18.0625 10.4453L17.4785 13.9141H8.17578L7.5918 10.4453C7.57357 10.3373 7.62185 10.2207 7.73242 10.1514C7.84538 10.0807 7.99437 10.0782 8.10938 10.1465V10.1475L10.085 11.333L10.3154 11.4717L10.498 11.2734L12.5684 9.01855C12.6303 8.95103 12.7244 8.9082 12.8271 8.9082Z" fill="url(#paint0_linear_14425_113069)" stroke="#44525E" stroke-width="0.65975"/>
<defs>
<linearGradient id="paint0_linear_14425_113069" x1="9.98183" y1="8.57812" x2="13.6264" y2="17.6507" gradientUnits="userSpaceOnUse">
<stop offset="0.0192308" stop-color="white"/>
<stop offset="0.379808" stop-color="#EBEBEB"/>
<stop offset="1" stop-color="#D8D8D8"/>
</linearGradient>
</defs>
</svg>
