<svg width="18" height="18" viewBox="0 0 18 18" fill="none" xmlns="http://www.w3.org/2000/svg">
<rect width="18" height="18" rx="9" fill="#ECEEEF"/>
<g clip-path="url(#clip0_13191_185112)">
<path d="M9 10.7188C8.82741 10.7188 8.6875 10.5788 8.6875 10.4062V9.3125H7.59375C7.42116 9.3125 7.28125 9.17259 7.28125 9C7.28125 8.82741 7.42116 8.6875 7.59375 8.6875H8.6875V7.59375C8.6875 7.42116 8.82741 7.28125 9 7.28125C9.17259 7.28125 9.3125 7.42116 9.3125 7.59375V8.6875H10.4062C10.5788 8.6875 10.7188 8.82741 10.7188 9C10.7188 9.17259 10.5788 9.3125 10.4062 9.3125H9.3125V10.4062C9.3125 10.5788 9.17259 10.7188 9 10.7188Z" fill="black"/>
<path fill-rule="evenodd" clip-rule="evenodd" d="M6.8125 4.3125C5.43179 4.3125 4.3125 5.43179 4.3125 6.8125V11.1875C4.3125 12.5682 5.43179 13.6875 6.8125 13.6875H11.1875C12.5682 13.6875 13.6875 12.5682 13.6875 11.1875V7.21989C13.6875 6.87342 13.5437 6.54248 13.2904 6.30608L11.5146 4.64868C11.2832 4.43265 10.9783 4.3125 10.6617 4.3125H6.8125ZM4.9375 6.8125C4.9375 5.77697 5.77697 4.9375 6.8125 4.9375H10.5625V5.875C10.5625 6.56536 11.1221 7.125 11.8125 7.125H13.0553C13.06 7.1562 13.0625 7.18792 13.0625 7.21989V11.1875C13.0625 12.223 12.223 13.0625 11.1875 13.0625H6.8125C5.77697 13.0625 4.9375 12.223 4.9375 11.1875V6.8125ZM11.1875 5.875V5.1983L12.5822 6.5H11.8125C11.4673 6.5 11.1875 6.22017 11.1875 5.875Z" fill="black"/>
</g>
<defs>
<clipPath id="clip0_13191_185112">
<rect width="10" height="10" fill="white" transform="translate(4 4)"/>
</clipPath>
</defs>
</svg>
