<svg width="18" height="18" viewBox="0 0 18 18" fill="none" xmlns="http://www.w3.org/2000/svg">
<rect width="18" height="18" rx="9" fill="#ECEEEF"/>
<path d="M10.1102 12.8872C9.94358 12.8872 9.83247 12.776 9.83247 12.6094V12.3316C9.83247 11.5538 9.22135 10.9427 8.44358 10.9427H6.49913C5.72135 10.9427 5.11024 11.5538 5.11024 12.3316V12.6094C5.11024 12.776 4.99913 12.8872 4.83247 12.8872C4.6658 12.8872 4.55469 12.776 4.55469 12.6094V12.3316C4.55469 11.2483 5.4158 10.3872 6.49913 10.3872H8.44358C9.52691 10.3872 10.388 11.2483 10.388 12.3316V12.6094C10.388 12.776 10.2769 12.8872 10.1102 12.8872ZM13.1658 11.776C12.9991 11.776 12.888 11.6649 12.888 11.4983V11.2205C12.888 10.4427 12.2769 9.8316 11.4991 9.8316H9.55469C9.38802 9.8316 9.27691 9.72049 9.27691 9.55382C9.27691 9.38715 9.38802 9.27604 9.55469 9.27604H11.4991C12.5825 9.27604 13.4436 10.1372 13.4436 11.2205V11.4983C13.4436 11.6649 13.3325 11.776 13.1658 11.776ZM7.47135 9.8316C6.47135 9.8316 5.6658 9.02604 5.6658 8.02604C5.6658 7.02604 6.47135 6.22049 7.47135 6.22049C8.47135 6.22049 9.27691 7.02604 9.27691 8.02604C9.27691 9.02604 8.47135 9.8316 7.47135 9.8316ZM7.47135 6.77604C6.77691 6.77604 6.22135 7.3316 6.22135 8.02604C6.22135 8.72049 6.77691 9.27604 7.47135 9.27604C8.1658 9.27604 8.72135 8.72049 8.72135 8.02604C8.72135 7.3316 8.1658 6.77604 7.47135 6.77604ZM10.5269 8.72049C10.3325 8.72049 10.1658 8.69271 9.99913 8.63715C9.86024 8.5816 9.77691 8.44271 9.83247 8.27604C9.88802 8.13715 10.0269 8.05382 10.1936 8.10937C10.3047 8.13715 10.4158 8.16493 10.5547 8.16493C11.2491 8.16493 11.8047 7.60937 11.8047 6.91493C11.8047 6.22049 11.2214 5.66493 10.5269 5.66493C10.1102 5.66493 9.72135 5.88715 9.47135 6.22049C9.38802 6.35937 9.22135 6.38715 9.08247 6.30382C8.94358 6.22049 8.9158 6.05382 8.99913 5.91493C9.36024 5.41493 9.9158 5.10938 10.5269 5.10938C11.5269 5.10938 12.3325 5.91493 12.3325 6.91493C12.3325 7.91493 11.5269 8.72049 10.5269 8.72049Z" fill="black"/>
</svg>
