<svg width="18" height="18" viewBox="0 0 18 18" fill="none" xmlns="http://www.w3.org/2000/svg">
<rect width="18" height="18" rx="9" fill="#ECEEEF"/>
<g clip-path="url(#clip0_13191_185105)">
<path d="M9 6.92969C9.80771 6.92969 10.4648 6.27256 10.4648 5.46484C10.4648 4.65713 9.80771 4 9 4C8.19229 4 7.53516 4.65713 7.53516 5.46484C7.53516 6.27256 8.19229 6.92969 9 6.92969ZM9 4.58594C9.48463 4.58594 9.87891 4.98021 9.87891 5.46484C9.87891 5.94947 9.48463 6.34375 9 6.34375C8.51537 6.34375 8.12109 5.94947 8.12109 5.46484C8.12109 4.98021 8.51537 4.58594 9 4.58594Z" fill="black"/>
<path d="M13.804 12.3688C14.2079 11.6693 13.9674 10.7717 13.2679 10.3678C12.5683 9.96398 11.6707 10.2045 11.2668 10.904C10.862 11.6051 11.1018 12.5002 11.803 12.905C12.507 13.3114 13.4027 13.0639 13.804 12.3688ZM12.9749 10.8753C13.3946 11.1176 13.5389 11.6562 13.2966 12.0759C13.0554 12.4936 12.5176 12.641 12.096 12.3976C11.6753 12.1547 11.5314 11.6177 11.7743 11.197C12.0166 10.7773 12.5552 10.6329 12.9749 10.8753Z" fill="black"/>
<path d="M6.19676 12.905C6.89789 12.5002 7.13777 11.6052 6.73293 10.904C6.32908 10.2045 5.43141 9.96397 4.73191 10.3678C4.03242 10.7717 3.7919 11.6693 4.19574 12.3689C4.59779 13.0652 5.49438 13.3106 6.19676 12.905ZM6.22549 11.197C6.46836 11.6176 6.32451 12.1547 5.90377 12.3976C5.4841 12.6399 4.94549 12.4956 4.70317 12.0759C4.46086 11.6562 4.60516 11.1176 5.02486 10.8753C5.44678 10.6317 5.98445 10.7795 6.22549 11.197Z" fill="black"/>
<path d="M12.8036 9.37047L13.3887 9.33826C13.3504 8.64373 13.1445 7.96029 12.7932 7.36184C12.4516 6.77992 11.9726 6.27658 11.4079 5.90625L11.0866 6.39621C12.0956 7.05797 12.7375 8.16984 12.8036 9.37047Z" fill="black"/>
<path d="M5.19705 9.37047C5.26316 8.16984 5.90504 7.05797 6.91406 6.39621L6.59273 5.90625C6.02805 6.27658 5.54902 6.7799 5.20744 7.36184C4.85613 7.96029 4.65023 8.64373 4.61199 9.33826L5.19705 9.37047Z" fill="black"/>
<path d="M9.00146 14.0015C9.69826 14.0015 10.3647 13.8431 10.9824 13.5307L10.7179 13.0078C10.183 13.2784 9.60553 13.4156 9.00146 13.4156C8.3974 13.4156 7.81988 13.2784 7.28498 13.0078L7.02051 13.5307C7.63818 13.8431 8.30467 14.0015 9.00146 14.0015Z" fill="black"/>
</g>
<defs>
<clipPath id="clip0_13191_185105">
<rect width="10" height="10" fill="white" transform="matrix(-1 0 0 1 14 4)"/>
</clipPath>
</defs>
</svg>
