<svg width="15" height="15" viewBox="0 0 15 15" fill="none" xmlns="http://www.w3.org/2000/svg">
<path d="M10.7529 5.42353C10.8356 5.50625 10.882 5.61838 10.882 5.73529C10.882 5.8522 10.8356 5.96434 10.7529 6.04706L6.6353 10.1647C6.55257 10.2473 6.44044 10.2937 6.32353 10.2937C6.20662 10.2937 6.09449 10.2473 6.01177 10.1647L4.24706 8.4C4.16913 8.31637 4.12671 8.20575 4.12872 8.09146C4.13074 7.97716 4.17704 7.86811 4.25787 7.78728C4.3387 7.70645 4.44775 7.66015 4.56205 7.65813C4.67634 7.65611 4.78696 7.69854 4.87059 7.77647L6.32353 9.22867L10.1294 5.42353C10.2121 5.34091 10.3243 5.2945 10.4412 5.2945C10.5581 5.2945 10.6702 5.34091 10.7529 5.42353ZM15 7.5C15 8.98336 14.5601 10.4334 13.736 11.6668C12.9119 12.9001 11.7406 13.8614 10.3701 14.4291C8.99968 14.9967 7.49168 15.1453 6.03682 14.8559C4.58197 14.5665 3.2456 13.8522 2.1967 12.8033C1.14781 11.7544 0.433503 10.418 0.144114 8.96317C-0.145275 7.50832 0.0032495 6.00032 0.570907 4.62987C1.13856 3.25943 2.09986 2.08809 3.33323 1.26398C4.56659 0.439867 6.01664 0 7.5 0C9.48841 0.00233518 11.3947 0.793261 12.8007 2.19928C14.2067 3.60529 14.9977 5.51159 15 7.5ZM14.1176 7.5C14.1176 6.19115 13.7295 4.9117 13.0024 3.82343C12.2752 2.73517 11.2417 1.88696 10.0325 1.38609C8.82325 0.885217 7.49266 0.754166 6.20896 1.00951C4.92527 1.26485 3.74611 1.89512 2.82062 2.82062C1.89513 3.74611 1.26486 4.92526 1.00951 6.20896C0.754169 7.49266 0.88522 8.82325 1.38609 10.0325C1.88697 11.2417 2.73517 12.2752 3.82343 13.0024C4.9117 13.7295 6.19115 14.1176 7.5 14.1176C9.25451 14.1157 10.9366 13.4179 12.1772 12.1772C13.4179 10.9366 14.1157 9.25451 14.1176 7.5Z" fill="#00A63E"/>
</svg>
