<svg width="67" height="66" viewBox="0 0 67 66" fill="none" xmlns="http://www.w3.org/2000/svg">
<rect x="0.5" width="66" height="66" rx="33" fill="#EEF4FA"/>
<path d="M46.0716 47.1424V43.9996C46.0716 42.3325 45.4093 40.7337 44.2305 39.5549C43.0517 38.3761 41.4529 37.7139 39.7859 37.7139H27.2144C25.5474 37.7139 23.9486 38.3761 22.7698 39.5549C21.591 40.7337 20.9287 42.3325 20.9287 43.9996V47.1424" stroke="#5090CC" stroke-width="2.35714" stroke-linecap="round" stroke-linejoin="round"/>
<path d="M33.4996 31.4279C36.9711 31.4279 39.7853 28.6137 39.7853 25.1422C39.7853 21.6707 36.9711 18.8564 33.4996 18.8564C30.0281 18.8564 27.2139 21.6707 27.2139 25.1422C27.2139 28.6137 30.0281 31.4279 33.4996 31.4279Z" stroke="#5090CC" stroke-width="2.35714" stroke-linecap="round" stroke-linejoin="round"/>
</svg>
