<svg width="21" height="20" viewBox="0 0 21 20" fill="none" xmlns="http://www.w3.org/2000/svg">
<rect x="0.332031" width="20" height="20" rx="10" fill="white"/>
<path fill-rule="evenodd" clip-rule="evenodd" d="M6.4992 6.17446C6.60626 6.06732 6.75146 6.00715 6.90285 6.00715C7.05424 6.00715 7.19943 6.06732 7.3065 6.17446L10.3284 9.19902L13.3504 6.17446C13.4031 6.11987 13.4661 6.07634 13.5357 6.04639C13.6054 6.01644 13.6803 6.00068 13.7561 6.00002C13.8319 5.99936 13.9071 6.01382 13.9773 6.04255C14.0475 6.07128 14.1112 6.11372 14.1648 6.16737C14.2184 6.22102 14.2608 6.28482 14.2895 6.35505C14.3182 6.42528 14.3326 6.50052 14.332 6.5764C14.3313 6.65227 14.3156 6.72725 14.2857 6.79697C14.2557 6.86668 14.2122 6.92974 14.1577 6.98245L11.1357 10.007L14.1577 13.0316C14.2617 13.1394 14.3193 13.2837 14.318 13.4335C14.3167 13.5834 14.2566 13.7267 14.1507 13.8326C14.0449 13.9385 13.9017 13.9987 13.752 14C13.6023 14.0013 13.4581 13.9437 13.3504 13.8396L10.3284 10.815L7.3065 13.8396C7.19882 13.9437 7.0546 14.0013 6.9049 14C6.7552 13.9987 6.61201 13.9385 6.50615 13.8326C6.40029 13.7267 6.34025 13.5834 6.33895 13.4335C6.33765 13.2837 6.39519 13.1394 6.4992 13.0316L9.52114 10.007L6.4992 6.98245C6.39216 6.87529 6.33203 6.72997 6.33203 6.57845C6.33203 6.42693 6.39216 6.28161 6.4992 6.17446Z" fill="#101B25"/>
</svg>
