<svg width="31" height="31" viewBox="0 0 31 31" fill="none" xmlns="http://www.w3.org/2000/svg">
<circle cx="15.5" cy="15.5" r="15.5" fill="#F6F7F9"/>
<path d="M21.4583 10.3077H18.75V9.73077C18.75 9.27174 18.5788 8.83151 18.274 8.50693C17.9693 8.18235 17.556 8 17.125 8H13.875C13.444 8 13.0307 8.18235 12.726 8.50693C12.4212 8.83151 12.25 9.27174 12.25 9.73077V10.3077H9.54167C9.39801 10.3077 9.26023 10.3685 9.15865 10.4767C9.05707 10.5849 9 10.7316 9 10.8846C9 11.0376 9.05707 11.1844 9.15865 11.2926C9.26023 11.4008 9.39801 11.4615 9.54167 11.4615H10.0833V21.8462C10.0833 22.1522 10.1975 22.4457 10.4006 22.662C10.6038 22.8784 10.8793 23 11.1667 23H19.8333C20.1207 23 20.3962 22.8784 20.5994 22.662C20.8025 22.4457 20.9167 22.1522 20.9167 21.8462V11.4615H21.4583C21.602 11.4615 21.7398 11.4008 21.8414 11.2926C21.9429 11.1844 22 11.0376 22 10.8846C22 10.7316 21.9429 10.5849 21.8414 10.4767C21.7398 10.3685 21.602 10.3077 21.4583 10.3077ZM13.3333 9.73077C13.3333 9.57776 13.3904 9.43102 13.492 9.32282C13.5936 9.21463 13.7313 9.15385 13.875 9.15385H17.125C17.2687 9.15385 17.4064 9.21463 17.508 9.32282C17.6096 9.43102 17.6667 9.57776 17.6667 9.73077V10.3077H13.3333V9.73077ZM19.8333 21.8462H11.1667V11.4615H19.8333V21.8462ZM14.4167 14.3462V18.9615C14.4167 19.1145 14.3596 19.2613 14.258 19.3695C14.1564 19.4777 14.0187 19.5385 13.875 19.5385C13.7313 19.5385 13.5936 19.4777 13.492 19.3695C13.3904 19.2613 13.3333 19.1145 13.3333 18.9615V14.3462C13.3333 14.1931 13.3904 14.0464 13.492 13.9382C13.5936 13.83 13.7313 13.7692 13.875 13.7692C14.0187 13.7692 14.1564 13.83 14.258 13.9382C14.3596 14.0464 14.4167 14.1931 14.4167 14.3462ZM17.6667 14.3462V18.9615C17.6667 19.1145 17.6096 19.2613 17.508 19.3695C17.4064 19.4777 17.2687 19.5385 17.125 19.5385C16.9813 19.5385 16.8436 19.4777 16.742 19.3695C16.6404 19.2613 16.5833 19.1145 16.5833 18.9615V14.3462C16.5833 14.1931 16.6404 14.0464 16.742 13.9382C16.8436 13.83 16.9813 13.7692 17.125 13.7692C17.2687 13.7692 17.4064 13.83 17.508 13.9382C17.6096 14.0464 17.6667 14.1931 17.6667 14.3462Z" fill="black"/>
</svg>
