<svg width="21" height="22" viewBox="0 0 21 22" fill="none" xmlns="http://www.w3.org/2000/svg">
<path d="M10.3316 0.941406L6.8015 4.47151L7.862 5.53204L9.58166 3.81236V8.00162H11.0816V3.81236L12.8013 5.53204L13.8618 4.47151L10.3316 0.941406ZM3.80162 7.47144L0.271484 11.0015L3.80162 14.5317L4.86212 13.4711L3.14246 11.7515H7.33175V10.2516H3.14246L4.86212 8.53188L3.80162 7.47144ZM16.8616 7.47144L15.8011 8.53188L17.5208 10.2516H13.3315V11.7515H17.5208L15.8011 13.4711L16.8616 14.5317L20.3918 11.0015L16.8616 7.47144ZM9.58166 14.0014V18.1907L7.862 16.4711L6.8015 17.5316L10.3316 21.0617L13.8618 17.5316L12.8013 16.4711L11.0816 18.1907V14.0014H9.58166Z" fill="#101B25"/>
</svg>
