<svg width="13" height="14" viewBox="0 0 13 14" fill="none" xmlns="http://www.w3.org/2000/svg">
<path d="M1.78571 0C1.31211 0 0.85791 0.194078 0.523024 0.53954C0.188137 0.885002 0 1.35355 0 1.84211V12.1579C0 12.6465 0.188137 13.115 0.523024 13.4605C0.85791 13.8059 1.31211 14 1.78571 14H3.21429C3.68789 14 4.14209 13.8059 4.47698 13.4605C4.81186 13.115 5 12.6465 5 12.1579V1.84211C5 1.35355 4.81186 0.885002 4.47698 0.53954C4.14209 0.194078 3.68789 0 3.21429 0H1.78571ZM4.28571 1.84211V12.1579C4.28571 12.451 4.17283 12.7322 3.9719 12.9394C3.77097 13.1467 3.49845 13.2632 3.21429 13.2632H1.78571C1.50155 13.2632 1.22903 13.1467 1.0281 12.9394C0.827168 12.7322 0.714286 12.451 0.714286 12.1579V1.84211C0.714286 1.54897 0.827168 1.26784 1.0281 1.06057C1.22903 0.853289 1.50155 0.736842 1.78571 0.736842H3.21429C3.49845 0.736842 3.77097 0.853289 3.9719 1.06057C4.17283 1.26784 4.28571 1.54897 4.28571 1.84211Z" fill="#415362"/>
<path d="M9.78571 14H11.2143C11.4488 14 11.681 13.9524 11.8976 13.8598C12.1143 13.7672 12.3112 13.6315 12.477 13.4605C12.6428 13.2894 12.7743 13.0863 12.8641 12.8628C12.9538 12.6393 13 12.3998 13 12.1579V1.84211C13 1.6002 12.9538 1.36066 12.8641 1.13716C12.7743 0.913668 12.6428 0.710595 12.477 0.53954C12.3112 0.368485 12.1143 0.232796 11.8976 0.140222C11.681 0.0476475 11.4488 0 11.2143 0H9.78571C9.31211 0 8.85791 0.194078 8.52302 0.53954C8.18814 0.885002 8 1.35355 8 1.84211V12.1579C8 12.6465 8.18814 13.115 8.52302 13.4605C8.85791 13.8059 9.31211 14 9.78571 14ZM8.71429 1.84211C8.71429 1.54897 8.82717 1.26784 9.0281 1.06057C9.22903 0.853289 9.50155 0.736842 9.78571 0.736842H11.2143C11.4984 0.736842 11.771 0.853289 11.9719 1.06057C12.1728 1.26784 12.2857 1.54897 12.2857 1.84211V12.1579C12.2857 12.451 12.1728 12.7322 11.9719 12.9394C11.771 13.1467 11.4984 13.2632 11.2143 13.2632H9.78571C9.50155 13.2632 9.22903 13.1467 9.0281 12.9394C8.82717 12.7322 8.71429 12.451 8.71429 12.1579V1.84211Z" fill="#415362"/>
</svg>
