<svg viewBox="0 0 16 12" fill="none" xmlns="http://www.w3.org/2000/svg">
<path d="M13.25 0H2.75C2.15326 0 1.58097 0.237053 1.15901 0.65901C0.737053 1.08097 0.5 1.65326 0.5 2.25V9.75C0.5 10.3467 0.737053 10.919 1.15901 11.341C1.58097 11.7629 2.15326 12 2.75 12H13.25C13.8467 12 14.419 11.7629 14.841 11.341C15.2629 10.919 15.5 10.3467 15.5 9.75V2.25C15.5 1.65326 15.2629 1.08097 14.841 0.65901C14.419 0.237053 13.8467 0 13.25 0ZM13.25 1.5L8.375 4.8525C8.26099 4.91833 8.13165 4.95298 8 4.95298C7.86835 4.95298 7.73901 4.91833 7.625 4.8525L2.75 1.5H13.25Z" fill="#0C2936"/>
</svg>
