<svg width="20" height="20" viewBox="0 0 20 20" fill="none" xmlns="http://www.w3.org/2000/svg">
<g clip-path="url(#clip0_2190_4765)">
<path d="M14.9507 14.9499C13.5261 16.0358 11.7916 16.6373 10.0007 16.6666C4.16732 16.6666 0.833984 9.99994 0.833984 9.99994C1.87056 8.06819 3.30826 6.38045 5.05065 5.04994M8.25065 3.53327C8.82426 3.39901 9.41154 3.33189 10.0007 3.33327C15.834 3.33327 19.1673 9.99994 19.1673 9.99994C18.6615 10.9463 18.0582 11.8372 17.3673 12.6583M11.7673 11.7666C11.5384 12.0122 11.2624 12.2092 10.9558 12.3459C10.6491 12.4825 10.3181 12.556 9.98239 12.5619C9.64672 12.5678 9.31329 12.5061 9.00199 12.3803C8.6907 12.2546 8.40792 12.0675 8.17052 11.8301C7.93313 11.5927 7.74598 11.3099 7.62024 10.9986C7.4945 10.6873 7.43276 10.3539 7.43868 10.0182C7.4446 9.68252 7.51807 9.35148 7.65471 9.04481C7.79135 8.73815 7.98836 8.46215 8.23398 8.23327" stroke="#7B8D9F" stroke-width="1.5" stroke-linecap="round" stroke-linejoin="round"/>
<path d="M0.833984 0.833252L19.1673 19.1666" stroke="#7B8D9F" stroke-width="1.5" stroke-linecap="round" stroke-linejoin="round"/>
</g>
<defs>
<clipPath id="clip0_2190_4765">
<rect width="20" height="20" fill="white"/>
</clipPath>
</defs>
</svg>
