<svg width="20" height="15" viewBox="0 0 20 15" fill="none" xmlns="http://www.w3.org/2000/svg">
<path d="M18.7825 3.34967C18.6835 2.95418 18.4819 2.59182 18.1981 2.29918C17.9142 2.00654 17.5581 1.794 17.1658 1.68301C15.7325 1.33301 9.99917 1.33301 9.99917 1.33301C9.99917 1.33301 4.26584 1.33301 2.83251 1.71634C2.44021 1.82733 2.08416 2.03987 1.8003 2.33251C1.51644 2.62515 1.31483 2.98752 1.21584 3.38301C0.95352 4.83764 0.825204 6.31327 0.832508 7.79134C0.823157 9.28055 0.951481 10.7674 1.21584 12.233C1.32497 12.6162 1.5311 12.9648 1.81429 13.2451C2.09749 13.5254 2.44819 13.7279 2.83251 13.833C4.26584 14.2163 9.99917 14.2163 9.99917 14.2163C9.99917 14.2163 15.7325 14.2163 17.1658 13.833C17.5581 13.722 17.9142 13.5095 18.1981 13.2168C18.4819 12.9242 18.6835 12.5618 18.7825 12.1663C19.0428 10.7227 19.1711 9.25829 19.1658 7.79134C19.1752 6.30214 19.0469 4.81526 18.7825 3.34967Z" stroke="black" stroke-opacity="0.7" stroke-width="1.25" stroke-linecap="round" stroke-linejoin="round"/>
<path d="M8.125 10.5174L12.9167 7.79238L8.125 5.06738V10.5174Z" stroke="black" stroke-opacity="0.7" stroke-width="1.25" stroke-linecap="round" stroke-linejoin="round"/>
</svg>
