<svg width="20" height="18" viewBox="0 0 20 18" fill="none" xmlns="http://www.w3.org/2000/svg">
<path d="M19.1663 1.50057C18.3683 2.06347 17.4848 2.49399 16.5497 2.77557C16.0478 2.19849 15.3808 1.78948 14.6389 1.60384C13.897 1.4182 13.1159 1.4649 12.4014 1.73761C11.6869 2.01033 11.0734 2.4959 10.6438 3.12866C10.2143 3.76143 9.98942 4.51085 9.99967 5.27557V6.1089C8.5352 6.14687 7.08407 5.82208 5.77551 5.16344C4.46696 4.5048 3.34161 3.53276 2.49967 2.3339C2.49967 2.3339 -0.833659 9.8339 6.66634 13.1672C4.95011 14.3322 2.90564 14.9163 0.833008 14.8339C8.33301 19.0006 17.4997 14.8339 17.4997 5.25057C17.4989 5.01845 17.4766 4.7869 17.433 4.5589C18.2835 3.72014 18.8837 2.66116 19.1663 1.50057Z" stroke="black" stroke-opacity="0.7" stroke-width="1.25" stroke-linecap="round" stroke-linejoin="round"/>
</svg>
