<svg width="18" height="18" viewBox="0 0 18 18" fill="none" xmlns="http://www.w3.org/2000/svg">
<path d="M13.167 0.666992H4.83366C2.53247 0.666992 0.666992 2.53247 0.666992 4.83366V13.167C0.666992 15.4682 2.53247 17.3337 4.83366 17.3337H13.167C15.4682 17.3337 17.3337 15.4682 17.3337 13.167V4.83366C17.3337 2.53247 15.4682 0.666992 13.167 0.666992Z" stroke="black" stroke-opacity="0.7" stroke-width="1.25" stroke-linecap="round" stroke-linejoin="round"/>
<path d="M12.3328 8.47525C12.4356 9.16879 12.3171 9.8771 11.9942 10.4994C11.6713 11.1218 11.1604 11.6264 10.5341 11.9416C9.90785 12.2569 9.19814 12.3666 8.50592 12.2552C7.8137 12.1438 7.17423 11.817 6.67846 11.3212C6.18269 10.8255 5.85587 10.186 5.74449 9.49376C5.6331 8.80154 5.74282 8.09183 6.05804 7.46556C6.37325 6.8393 6.87792 6.32837 7.50025 6.00545C8.12258 5.68254 8.83089 5.56407 9.52443 5.66692C10.2319 5.77182 10.8868 6.10147 11.3925 6.60717C11.8982 7.11288 12.2279 7.76782 12.3328 8.47525Z" stroke="black" stroke-opacity="0.7" stroke-width="1.25" stroke-linecap="round" stroke-linejoin="round"/>
<path d="M13.583 4.41699H13.5913" stroke="black" stroke-opacity="0.7" stroke-width="1.25" stroke-linecap="round" stroke-linejoin="round"/>
</svg>
