<svg width="17" height="16" viewBox="0 0 17 16" fill="none" xmlns="http://www.w3.org/2000/svg">
<g clip-path="url(#clip0_6503_222531)">
<path d="M10.464 6.20015C10.2237 5.92786 9.80729 5.91185 9.51899 6.16811C9.24671 6.40836 9.23069 6.82479 9.48696 7.11309C10.5761 8.29832 11.1847 9.85193 11.1847 11.5016C11.1847 11.87 11.489 12.1583 11.8414 12.1583C12.2098 12.1583 12.4981 11.854 12.4981 11.5016C12.5141 9.51558 11.7933 7.62562 10.464 6.20015ZM5.43476 5.095C5.80315 5.12704 6.10746 4.87077 6.13949 4.50239C6.17153 4.13401 5.91526 3.82969 5.54688 3.79766C5.33867 3.78164 5.11443 3.76562 4.90622 3.76562C0.709872 3.76562 -2.70166 7.24122 -2.70166 11.5016C-2.70166 11.87 -2.39735 12.1583 -2.04498 12.1583C-1.69262 12.1583 -1.3883 11.854 -1.3883 11.5016C-1.3883 7.96197 1.43062 5.07898 4.8902 5.07898C5.0824 5.06297 5.2746 5.07899 5.43476 5.095Z" fill="#415362"/>
<path d="M8.67948 3.84837C9.05192 4.0439 9.20559 4.49714 9.02885 4.87886L6.14116 11.1158C5.85315 11.8198 5.35555 12.2374 4.81155 12.2374C4.36356 12.2374 3.97795 12.0134 3.76994 11.6438C3.54596 11.2118 3.56196 10.6838 3.83397 10.2342L7.64293 4.12941C7.86164 3.77888 8.31366 3.65632 8.67948 3.84837Z" fill="#415362"/>
</g>
<defs>
<clipPath id="clip0_6503_222531">
<rect width="16" height="16" fill="white" transform="translate(0.899902)"/>
</clipPath>
</defs>
</svg>
