<svg width="17" height="16" viewBox="0 0 17 16" fill="none" xmlns="http://www.w3.org/2000/svg">
<g clip-path="url(#clip0_6503_222539)">
<path d="M6.29997 14.6654C6.66816 14.6654 6.96663 14.3669 6.96663 13.9987C6.96663 13.6305 6.66816 13.332 6.29997 13.332C5.93178 13.332 5.6333 13.6305 5.6333 13.9987C5.6333 14.3669 5.93178 14.6654 6.29997 14.6654Z" stroke="#415362" stroke-linecap="round" stroke-linejoin="round"/>
<path d="M13.633 14.6654C14.0012 14.6654 14.2996 14.3669 14.2996 13.9987C14.2996 13.6305 14.0012 13.332 13.633 13.332C13.2648 13.332 12.9663 13.6305 12.9663 13.9987C12.9663 14.3669 13.2648 14.6654 13.633 14.6654Z" stroke="#415362" stroke-linecap="round" stroke-linejoin="round"/>
<path d="M0.966309 0.667969H3.63298L5.41964 9.59464C5.48061 9.90157 5.64758 10.1773 5.89134 10.3735C6.1351 10.5697 6.44011 10.674 6.75298 10.668H13.233C13.5458 10.674 13.8509 10.5697 14.0946 10.3735C14.3384 10.1773 14.5053 9.90157 14.5663 9.59464L15.633 4.0013H4.29964" stroke="#415362" stroke-linecap="round" stroke-linejoin="round"/>
</g>
<defs>
<clipPath id="clip0_6503_222539">
<rect width="16" height="16" fill="white" transform="translate(0.299805)"/>
</clipPath>
</defs>
</svg>
