<svg width="10" height="16" viewBox="0 0 10 16" fill="none" xmlns="http://www.w3.org/2000/svg">
<path d="M6.40063 14.3316H2.60062C2.40062 14.3316 2.26729 14.1982 2.26729 13.9982V12.1316C2.26729 10.7316 1.73396 9.29822 0.767292 8.16489C-0.0993749 7.13156 -0.466042 5.86489 -0.332708 4.53156C-0.099375 2.16489 1.86729 0.298224 4.26729 0.164891C7.06729 -0.00177574 9.43396 2.26489 9.43396 5.03156C9.43396 6.16489 9.03396 7.26489 8.30063 8.13156C7.30063 9.33156 6.76729 10.7649 6.76729 12.1982V13.9982C6.73396 14.1982 6.60063 14.3316 6.40063 14.3316ZM2.93396 13.6649H6.06729V12.1982C6.06729 10.6316 6.66729 9.03156 7.73396 7.69822C8.36729 6.93156 8.70062 5.99822 8.70062 5.03156C8.70062 2.63156 6.66729 0.698224 4.23396 0.831558C2.20063 0.964891 0.500625 2.56489 0.300625 4.59822C0.167292 5.73156 0.533958 6.86489 1.26729 7.73156C2.33396 9.03156 2.93396 10.5982 2.93396 12.1316V13.6649Z" fill="#415362"/>
<path d="M4.49948 15.8326C3.49948 15.8326 2.66615 15.0326 2.63281 14.0326V13.6992H6.36615V14.0326C6.33281 15.0326 5.49948 15.8326 4.49948 15.8326ZM3.36615 14.3326C3.53281 14.7992 3.96615 15.1659 4.49948 15.1659C5.03281 15.1659 5.46615 14.8326 5.63281 14.3326H3.36615Z" fill="#415362"/>
<path d="M2.39844 10.7305H6.5651V11.3971H2.39844V10.7305Z" fill="#415362"/>
<path d="M2.56641 12.1641H6.46641V12.8307H2.56641V12.1641Z" fill="#415362"/>
<path d="M6.40063 14.3316H2.60062C2.40062 14.3316 2.26729 14.1982 2.26729 13.9982V12.1316C2.26729 10.7316 1.73396 9.29822 0.767292 8.16489C-0.0993749 7.13156 -0.466042 5.86489 -0.332708 4.53156C-0.099375 2.16489 1.86729 0.298224 4.26729 0.164891C7.06729 -0.00177574 9.43396 2.26489 9.43396 5.03156C9.43396 6.16489 9.03396 7.26489 8.30063 8.13156C7.30063 9.33156 6.76729 10.7649 6.76729 12.1982V13.9982C6.73396 14.1982 6.60063 14.3316 6.40063 14.3316ZM2.93396 13.6649H6.06729V12.1982C6.06729 10.6316 6.66729 9.03156 7.73396 7.69822C8.36729 6.93156 8.70062 5.99822 8.70062 5.03156C8.70062 2.63156 6.66729 0.698224 4.23396 0.831558C2.20063 0.964891 0.500625 2.56489 0.300625 4.59822C0.167292 5.73156 0.533958 6.86489 1.26729 7.73156C2.33396 9.03156 2.93396 10.5982 2.93396 12.1316V13.6649Z" fill="#415362"/>
<path d="M4.49948 15.8326C3.49948 15.8326 2.66615 15.0326 2.63281 14.0326V13.6992H6.36615V14.0326C6.33281 15.0326 5.49948 15.8326 4.49948 15.8326ZM3.36615 14.3326C3.53281 14.7992 3.96615 15.1659 4.49948 15.1659C5.03281 15.1659 5.46615 14.8326 5.63281 14.3326H3.36615Z" fill="#415362"/>
<path d="M2.39844 10.7305H6.5651V11.3971H2.39844V10.7305Z" fill="#415362"/>
<path d="M2.56641 12.1641H6.46641V12.8307H2.56641V12.1641Z" fill="#415362"/>
</svg>
