<svg width="29" height="31" viewBox="0 0 29 31" fill="none" xmlns="http://www.w3.org/2000/svg">
<g filter="url(#filter0_d_599_62185)">
<rect x="1.44434" width="26" height="26" rx="13" fill="white"/>
<path d="M19.8283 11.0196L17.2126 8.28531C16.9967 8.05971 16.7778 7.94531 16.5619 7.94531C16.2654 7.94531 15.9193 8.18099 15.9193 8.84524V9.77609C14.0189 9.86267 12.2441 10.6774 10.8905 12.0922C9.45679 13.5908 8.66713 15.5832 8.66699 17.7025C8.66699 17.8548 8.76016 17.99 8.89833 18.0382C8.93361 18.0505 8.96972 18.0564 9.00549 18.0564C9.10992 18.0564 9.21101 18.0058 9.27619 17.9151C10.8745 15.6912 13.2809 14.3769 15.9193 14.2732V15.1897C15.9193 15.8539 16.2654 16.0896 16.5619 16.0896H16.5619C16.7778 16.0896 16.9967 15.9752 17.2126 15.7497L19.8283 13.0154C20.0825 12.7497 20.2225 12.3953 20.2225 12.0175C20.2225 11.6397 20.0825 11.2853 19.8283 11.0196Z" fill="#31509F"/>
</g>
<defs>
<filter id="filter0_d_599_62185" x="-0.00010848" y="0" width="28.8889" height="30.3333" filterUnits="userSpaceOnUse" color-interpolation-filters="sRGB">
<feFlood flood-opacity="0" result="BackgroundImageFix"/>
<feColorMatrix in="SourceAlpha" type="matrix" values="0 0 0 0 0 0 0 0 0 0 0 0 0 0 0 0 0 0 127 0" result="hardAlpha"/>
<feOffset dy="2.88889"/>
<feGaussianBlur stdDeviation="0.722222"/>
<feComposite in2="hardAlpha" operator="out"/>
<feColorMatrix type="matrix" values="0 0 0 0 0 0 0 0 0 0 0 0 0 0 0 0 0 0 0.02 0"/>
<feBlend mode="normal" in2="BackgroundImageFix" result="effect1_dropShadow_599_62185"/>
<feBlend mode="normal" in="SourceGraphic" in2="effect1_dropShadow_599_62185" result="shape"/>
</filter>
</defs>
</svg>
