<svg width="20" height="18" viewBox="0 0 20 18" fill="none" xmlns="http://www.w3.org/2000/svg">
<path d="M17.1166 2.84319C16.691 2.41736 16.1856 2.07956 15.6294 1.84909C15.0732 1.61862 14.477 1.5 13.8749 1.5C13.2729 1.5 12.6767 1.61862 12.1205 1.84909C11.5643 2.07956 11.0589 2.41736 10.6333 2.84319L9.74994 3.72652L8.8666 2.84319C8.00686 1.98344 6.8408 1.50045 5.62494 1.50045C4.40908 1.50045 3.24301 1.98344 2.38327 2.84319C1.52353 3.70293 1.04053 4.86899 1.04053 6.08485C1.04053 7.30072 1.52353 8.46678 2.38327 9.32652L3.2666 10.2099L9.74994 16.6932L16.2333 10.2099L17.1166 9.32652C17.5424 8.90089 17.8802 8.39553 18.1107 7.83932C18.3412 7.2831 18.4598 6.68693 18.4598 6.08485C18.4598 5.48278 18.3412 4.88661 18.1107 4.33039C17.8802 3.77418 17.5424 3.26882 17.1166 2.84319Z" stroke="#101B25" stroke-width="1.5" stroke-linecap="round" stroke-linejoin="round"/>
</svg>
