<svg width="40" height="40" viewBox="0 0 40 40" fill="none" xmlns="http://www.w3.org/2000/svg">
<rect x="0.5" y="0.5" width="39" height="39" rx="19.5" fill="#F4F5F6"/>
<rect x="0.5" y="0.5" width="39" height="39" rx="19.5" stroke="#ECEEEF"/>
<path d="M28.3335 15.417H23.3335" stroke="#415362" stroke-width="1.25" stroke-miterlimit="10" stroke-linecap="round" stroke-linejoin="round"/>
<path d="M14.9998 15.417H11.6665" stroke="#415362" stroke-width="1.25" stroke-miterlimit="10" stroke-linecap="round" stroke-linejoin="round"/>
<path d="M18.3332 18.3333C19.944 18.3333 21.2498 17.0275 21.2498 15.4167C21.2498 13.8058 19.944 12.5 18.3332 12.5C16.7223 12.5 15.4165 13.8058 15.4165 15.4167C15.4165 17.0275 16.7223 18.3333 18.3332 18.3333Z" stroke="#415362" stroke-width="1.25" stroke-miterlimit="10" stroke-linecap="round" stroke-linejoin="round"/>
<path d="M28.3333 24.583H25" stroke="#415362" stroke-width="1.25" stroke-miterlimit="10" stroke-linecap="round" stroke-linejoin="round"/>
<path d="M16.6665 24.583H11.6665" stroke="#415362" stroke-width="1.25" stroke-miterlimit="10" stroke-linecap="round" stroke-linejoin="round"/>
<path d="M21.6667 27.5003C23.2775 27.5003 24.5833 26.1945 24.5833 24.5837C24.5833 22.9728 23.2775 21.667 21.6667 21.667C20.0558 21.667 18.75 22.9728 18.75 24.5837C18.75 26.1945 20.0558 27.5003 21.6667 27.5003Z" stroke="#415362" stroke-width="1.25" stroke-miterlimit="10" stroke-linecap="round" stroke-linejoin="round"/>
</svg>
