<svg width="27" height="21" viewBox="0 0 27 21" fill="none" xmlns="http://www.w3.org/2000/svg">
<path d="M1.38584 4H20.7142C21.4783 4 22.1 4.62168 22.1 5.38584C22.1 6.14999 21.4783 6.77167 20.7142 6.77167H1.38584C0.621684 6.77599 0 6.15431 0 5.38584C0 4.62168 0.621684 4 1.38584 4Z" fill="#2E348E"/>
<path d="M4.38681 11H16.7212C17.4854 11 18.107 11.6217 18.107 12.3858C18.107 13.15 17.4854 13.7717 16.7212 13.7717H4.38681C3.62266 13.7717 3.00098 13.15 3.00098 12.3858C3.00098 11.6217 3.62266 11 4.38681 11Z" fill="#2E348E"/>
<path d="M8.37973 17.7852H13.7202C14.4843 17.7852 15.106 18.4068 15.106 19.171C15.106 19.9351 14.4843 20.5568 13.7202 20.5568H8.37973C7.61558 20.5568 6.9939 19.9351 6.9939 19.171C6.9939 18.4068 7.61558 17.7852 8.37973 17.7852Z" fill="#2E348E"/>
<circle cx="21.501" cy="5.5" r="5" fill="#FF0000" stroke="white"/>
</svg>
