<svg width="18" height="18" viewBox="0 0 18 18" fill="none" xmlns="http://www.w3.org/2000/svg">
<path d="M17.3333 4.41797H12.3333" stroke="#101B25" stroke-width="1.25" stroke-miterlimit="10" stroke-linecap="round" stroke-linejoin="round"/>
<path d="M4 4.41797H0.666668" stroke="#101B25" stroke-width="1.25" stroke-miterlimit="10" stroke-linecap="round" stroke-linejoin="round"/>
<path d="M7.33333 7.33333C8.94417 7.33333 10.25 6.0275 10.25 4.41667C10.25 2.80584 8.94417 1.5 7.33333 1.5C5.7225 1.5 4.41667 2.80584 4.41667 4.41667C4.41667 6.0275 5.7225 7.33333 7.33333 7.33333Z" stroke="#415362" stroke-width="1.25" stroke-miterlimit="10" stroke-linecap="round" stroke-linejoin="round"/>
<path d="M17.3333 13.582H14" stroke="#415362" stroke-width="1.25" stroke-miterlimit="10" stroke-linecap="round" stroke-linejoin="round"/>
<path d="M5.66667 13.582H0.666668" stroke="#415362" stroke-width="1.25" stroke-miterlimit="10" stroke-linecap="round" stroke-linejoin="round"/>
<path d="M10.6667 16.5013C12.2775 16.5013 13.5833 15.1955 13.5833 13.5846C13.5833 11.9738 12.2775 10.668 10.6667 10.668C9.05584 10.668 7.75 11.9738 7.75 13.5846C7.75 15.1955 9.05584 16.5013 10.6667 16.5013Z" stroke="#415362" stroke-width="1.25" stroke-miterlimit="10" stroke-linecap="round" stroke-linejoin="round"/>
</svg>
