<svg width="14" height="14" viewBox="0 0 14 14" fill="none" xmlns="http://www.w3.org/2000/svg">
<path d="M12.833 3.79167H9.33301" stroke="#101B25" stroke-miterlimit="10" stroke-linecap="round" stroke-linejoin="round"/>
<path d="M3.50033 3.79167H1.16699" stroke="#101B25" stroke-miterlimit="10" stroke-linecap="round" stroke-linejoin="round"/>
<path d="M5.83366 5.83333C6.96124 5.83333 7.87533 4.91925 7.87533 3.79167C7.87533 2.66409 6.96124 1.75 5.83366 1.75C4.70608 1.75 3.79199 2.66409 3.79199 3.79167C3.79199 4.91925 4.70608 5.83333 5.83366 5.83333Z" stroke="#101B25" stroke-miterlimit="10" stroke-linecap="round" stroke-linejoin="round"/>
<path d="M12.8333 10.2083H10.5" stroke="#101B25" stroke-miterlimit="10" stroke-linecap="round" stroke-linejoin="round"/>
<path d="M4.66699 10.2083H1.16699" stroke="#101B25" stroke-miterlimit="10" stroke-linecap="round" stroke-linejoin="round"/>
<path d="M8.16667 12.25C9.29425 12.25 10.2083 11.3359 10.2083 10.2083C10.2083 9.08076 9.29425 8.16667 8.16667 8.16667C7.03909 8.16667 6.125 9.08076 6.125 10.2083C6.125 11.3359 7.03909 12.25 8.16667 12.25Z" stroke="#101B25" stroke-miterlimit="10" stroke-linecap="round" stroke-linejoin="round"/>
</svg>
