<svg width="14" height="20" viewBox="0 0 14 20" fill="none" xmlns="http://www.w3.org/2000/svg">
<path fill-rule="evenodd" clip-rule="evenodd" d="M8.83488 20C9.85324 18.494 9.94708 16.8674 9.1164 15.1202C8.8854 16.0576 8.46284 16.6265 7.84868 16.827C8.419 15.1982 7.94244 13.4386 6.41896 11.548C6.38608 13.5006 5.91684 14.923 5.0112 15.8152C3.7636 17.0431 3.77828 18.4288 5.0552 19.9724C-0.245521 17.1516 -0.99336 13.3682 2.8116 8.62248C3.0476 9.76896 3.61948 10.4728 4.52732 10.7341C3.53776 6.53488 4.57892 2.95684 7.65076 0C7.66964 6.56188 9.68184 7.14512 12.226 10.0742C14.9728 13.5892 13.3586 17.6457 8.83488 20Z" fill="url(#paint0_linear_2002_27854)"/>
<defs>
<linearGradient id="paint0_linear_2002_27854" x1="13.1398" y1="5.48912" x2="1.43776" y2="17.1912" gradientUnits="userSpaceOnUse">
<stop stop-color="#EF3E3D"/>
<stop offset="1" stop-color="#FFC828"/>
</linearGradient>
</defs>
</svg>
