<svg width="20" height="20" viewBox="0 0 20 20" fill="none" xmlns="http://www.w3.org/2000/svg">
<path d="M7.76559 12.3202L13.4075 8.13209C13.6841 7.92677 14.0794 8.00685 14.2112 8.32579C14.9049 10.0077 14.5949 12.029 13.2149 13.4168C11.8348 14.8045 9.91461 15.1089 8.1595 14.4158L6.24219 15.3084C8.99218 17.1986 12.3315 16.7312 14.4183 14.6313C16.0735 12.9668 16.5861 10.698 16.1068 8.65199L16.1111 8.65634C15.416 5.65068 16.282 4.44928 18.056 1.99261C18.0979 1.93436 18.1399 1.87611 18.1819 1.81641L15.8476 4.16386V4.15658L7.76417 12.3217" fill="#4882B8"/>
<path d="M6.60087 13.338C4.62706 11.442 4.96737 8.50766 6.65153 6.81555C7.8969 5.56317 9.93732 5.05204 11.7185 5.80346L13.6315 4.91515C13.2869 4.66468 12.8451 4.39528 12.3383 4.20596C10.0474 3.25796 7.30464 3.72977 5.44235 5.60104C3.65103 7.4024 3.08771 10.1722 4.05505 12.5356C4.77767 14.3021 3.5931 15.5515 2.39985 16.8126C1.97699 17.2596 1.55269 17.7067 1.21094 18.18L6.5994 13.3395" fill="#4882B8"/>
</svg>
