<svg width="17" height="18" viewBox="0 0 17 18" fill="none" xmlns="http://www.w3.org/2000/svg">
<path d="M17.001 8.95537C17.001 8.38113 16.9454 7.78838 16.8528 7.23267H8.83203V10.5114H13.4259C13.2407 11.5672 12.6294 12.4934 11.7217 13.0861L14.4632 15.2164C16.0748 13.7159 17.001 11.5302 17.001 8.95537Z" fill="#4280EF"/>
<path d="M8.83103 17.2534C11.128 17.2534 13.0544 16.4939 14.4622 15.1973L11.7207 13.0856C10.9613 13.6043 9.9795 13.9006 8.83103 13.9006C6.60819 13.9006 4.7373 12.4002 4.05192 10.3997L1.23633 12.5669C2.68117 15.4381 5.60791 17.2534 8.83103 17.2534Z" fill="#34A353"/>
<path d="M4.05261 10.3813C3.70066 9.32541 3.70066 8.17694 4.05261 7.12109L1.23701 4.9353C0.0329748 7.34338 0.0329748 10.1775 1.23701 12.5671L4.05261 10.3813Z" fill="#F6B704"/>
<path d="M8.83103 3.62016C10.0351 3.60164 11.2206 4.06473 12.0912 4.8983L14.5178 2.45317C12.9803 1.00833 10.9427 0.230335 8.83103 0.248858C5.60791 0.248858 2.68117 2.06418 1.23633 4.93535L4.05192 7.12114C4.7373 5.10206 6.60819 3.62016 8.83103 3.62016Z" fill="#E54335"/>
</svg>
