<svg viewBox="0 0 790 790" fill="none" xmlns="http://www.w3.org/2000/svg" height="120" width="120"><path d="M0 0h790v790H0z"></path><path d="M764.055 433.406C768.497 420.515 790 408.424 790 395c0-13.425-21.414-25.515-25.856-38.406-.178-2.045-.534-4.001-.8-6.046 1.155-13.869 19.814-30.583 16.882-43.474-3.021-13.247-27.367-20.27-34.12-32.183-.622-1.689-1.155-3.468-1.777-5.157-1.955-13.691 12.44-34.228 6.664-46.141-5.864-12.269-31.454-13.602-40.606-23.915-.622-.978-1.244-1.956-1.866-2.845-6.575-12.446 4.087-37.162-4.62-48.097-8.708-10.846-34.831-6.134-45.671-15.024l-1.866-1.868c-8.886-10.846-4.176-36.983-15.017-45.696-10.929-8.713-35.541 1.867-48.07-4.623l-2.932-1.867c-10.307-9.246-11.64-34.761-23.901-40.63-11.996-5.778-32.432 8.625-46.116 6.669-1.688-.623-3.465-1.156-5.242-1.779-11.906-6.845-18.926-31.116-32.165-34.139-12.884-2.933-29.588 15.648-43.45 16.892l-6.131-.8C420.457 21.426 408.372 0 394.956 0c-13.417 0-25.502 21.426-38.385 25.871-2.044.178-4.088.534-6.131.8-13.861-1.244-30.566-19.825-43.45-16.892-13.239 3.023-20.258 27.294-32.165 34.14-1.688.622-3.465 1.155-5.242 1.778-13.684 1.956-34.12-12.447-46.115-6.668-12.262 5.868-13.595 31.472-23.902 40.629-.978.622-1.955 1.245-2.843 1.867-12.44 6.579-37.141-4.09-48.07 4.623-10.841 8.713-6.131 34.85-15.017 45.696l-1.866 1.868c-10.84 8.89-36.963 4.178-45.67 15.024-8.708 10.935 1.954 35.562-4.621 48.097-.622.978-1.244 1.867-1.866 2.845-9.152 10.313-34.742 11.646-40.606 23.915-5.776 12.002 8.619 32.45 6.664 46.141-.622 1.689-1.155 3.468-1.777 5.157-6.842 11.913-31.188 18.936-34.12 32.183-2.932 12.891 15.638 29.605 16.882 43.474-.266 2.045-.533 4.001-.8 6.046C21.415 369.485 0 381.575 0 395c0 13.424 21.414 25.515 25.857 38.406.177 2.045.533 4.001.8 6.046-1.156 13.869-19.815 30.583-16.883 43.474 3.021 13.247 27.367 20.27 34.12 32.183.622 1.689 1.155 3.467 1.777 5.156 1.955 13.692-12.44 34.228-6.664 46.141 5.864 12.269 31.454 13.603 40.606 23.916.622.978 1.244 1.867 1.866 2.845 6.575 12.446-4.087 37.161 4.62 48.097 8.708 10.846 34.831 6.134 45.671 15.024l1.866 1.867c8.886 10.847 4.176 36.985 15.017 45.697 10.929 8.713 35.541-1.867 48.07 4.623l2.932 1.867c10.307 9.246 11.64 34.761 23.901 40.629 11.996 5.779 32.432-8.624 46.116-6.668 1.688.623 3.465 1.156 5.242 1.778 11.906 6.846 18.926 31.117 32.165 34.14 12.884 2.933 29.588-15.648 43.45-16.892l6.131.8C369.543 768.574 381.628 790 395.044 790c13.417 0 25.502-21.426 38.385-25.871 2.044-.178 4.088-.533 6.131-.8 13.861 1.244 30.477 19.825 43.45 16.892 13.15-3.023 20.17-27.294 32.076-34.14 1.777-.622 3.554-1.155 5.242-1.778 13.684-1.956 34.12 12.447 46.116 6.668 12.261-5.868 13.594-31.383 23.901-40.629l2.932-1.867c12.529-6.579 37.141 4.09 48.07-4.623 10.841-8.712 6.131-34.85 15.017-45.697l1.866-1.867c10.84-8.89 36.963-4.178 45.671-15.024 8.707-10.936-1.955-35.651 4.62-48.097.622-.978 1.244-1.867 1.866-2.845 9.152-10.313 34.742-11.736 40.695-23.916 5.776-12.002-8.619-32.449-6.664-46.229.622-1.69 1.155-3.468 1.777-5.157 6.842-12.002 31.188-19.025 34.12-32.183 2.932-12.891-15.638-29.605-16.882-43.474.266-2.045.533-4.001.799-6.046l-.177.089ZM745.573 395c0 193.366-157.271 350.726-350.529 350.726-193.257 0-350.528-157.36-350.528-350.726 0-193.366 157.271-350.726 350.528-350.726 193.258 0 350.529 157.36 350.529 350.726Z" fill="#0C2936"></path><path d="M278.364 149.84c0 2.473-.584 4.807-1.75 7-1.167 2.193-3.034 3.99-5.6 5.39-2.567 1.353-5.857 2.03-9.87 2.03h-8.82V184h-7.98v-48.65h16.8c3.733 0 6.883.653 9.45 1.96 2.613 1.26 4.55 2.987 5.81 5.18 1.306 2.193 1.96 4.643 1.96 7.35Zm-17.22 7.91c3.033 0 5.296-.677 6.79-2.03 1.493-1.4 2.24-3.36 2.24-5.88 0-5.32-3.01-7.98-9.03-7.98h-8.82v15.89h8.82ZM311.245 184l-11.2-19.46h-6.09V184h-7.98v-48.65h16.8c3.733 0 6.883.653 9.45 1.96 2.613 1.307 4.55 3.057 5.81 5.25 1.306 2.193 1.96 4.643 1.96 7.35 0 3.173-.934 6.067-2.8 8.68-1.82 2.567-4.644 4.317-8.47 5.25l12.04 20.16h-9.52Zm-17.29-25.83h8.82c2.986 0 5.226-.747 6.72-2.24 1.54-1.493 2.31-3.5 2.31-6.02 0-2.52-.747-4.48-2.24-5.88-1.494-1.447-3.757-2.17-6.79-2.17h-8.82v16.31Zm44.228-16.38v14.28h16.8v6.51h-16.8v14.91h18.9V184h-26.88v-48.72h26.88v6.51h-18.9Zm79.969-6.44V184h-7.98v-33.32L395.332 184h-5.53l-14.91-33.32V184h-7.98v-48.65h8.61l17.08 38.15 17.01-38.15h8.54Zm18.469 0V184h-7.98v-48.65h7.98Zm18.387 0v31.01c0 3.687.956 6.463 2.87 8.33 1.96 1.867 4.666 2.8 8.12 2.8 3.5 0 6.206-.933 8.12-2.8 1.96-1.867 2.94-4.643 2.94-8.33v-31.01h7.98v30.87c0 3.967-.864 7.327-2.59 10.08-1.727 2.753-4.037 4.807-6.93 6.16-2.894 1.353-6.09 2.03-9.59 2.03s-6.697-.677-9.59-2.03c-2.847-1.353-5.11-3.407-6.79-6.16-1.68-2.753-2.52-6.113-2.52-10.08v-30.87h7.98Zm91.66 0V184h-7.98v-33.32L523.848 184h-5.53l-14.91-33.32V184h-7.98v-48.65h8.61l17.08 38.15 17.01-38.15h8.54ZM209.271 549.4c-1.44-2.773-3.44-4.853-6-6.24-2.56-1.44-5.52-2.16-8.88-2.16-3.68 0-6.96.827-9.84 2.48s-5.146 4-6.8 7.04c-1.6 3.04-2.4 6.56-2.4 10.56 0 4 .8 7.547 2.4 10.64 1.654 3.04 3.92 5.387 6.8 7.04 2.88 1.653 6.16 2.48 9.84 2.48 4.96 0 8.987-1.387 12.08-4.16 3.094-2.773 4.987-6.533 5.68-11.28h-20.88v-7.28h30.64v7.12c-.586 4.32-2.133 8.293-4.64 11.92-2.453 3.627-5.68 6.533-9.68 8.72-3.946 2.133-8.346 3.2-13.2 3.2-5.226 0-10-1.2-14.32-3.6-4.32-2.453-7.76-5.84-10.32-10.16-2.506-4.32-3.76-9.2-3.76-14.64 0-5.44 1.254-10.32 3.76-14.64 2.56-4.32 6-7.68 10.32-10.08 4.374-2.453 9.147-3.68 14.32-3.68 5.92 0 11.174 1.467 15.76 4.4 4.64 2.88 8 6.987 10.08 12.32h-10.96Zm30.675-16v35.44c0 4.213 1.094 7.387 3.28 9.52 2.24 2.133 5.334 3.2 9.28 3.2 4 0 7.094-1.067 9.28-3.2 2.24-2.133 3.36-5.307 3.36-9.52V533.4h9.12v35.28c0 4.533-.986 8.373-2.96 11.52-1.973 3.147-4.613 5.493-7.92 7.04-3.306 1.547-6.96 2.32-10.96 2.32-4 0-7.653-.773-10.96-2.32-3.253-1.547-5.84-3.893-7.76-7.04-1.92-3.147-2.88-6.987-2.88-11.52V533.4h9.12Zm79.715 44.24h-23.28l-4 11.36h-9.52l19.92-55.68h10.56l19.92 55.68h-9.6l-4-11.36Zm-2.56-7.44-9.04-25.84-9.12 25.84h18.16Zm53.701 18.8-12.8-22.24h-6.96V589h-9.12v-55.6h19.2c4.267 0 7.867.747 10.8 2.24 2.987 1.493 5.2 3.493 6.64 6 1.493 2.507 2.24 5.307 2.24 8.4 0 3.627-1.067 6.933-3.2 9.92-2.08 2.933-5.307 4.933-9.68 6l13.76 23.04h-10.88Zm-19.76-29.52h10.08c3.413 0 5.973-.853 7.68-2.56 1.76-1.707 2.64-4 2.64-6.88s-.853-5.12-2.56-6.72c-1.707-1.653-4.293-2.48-7.76-2.48h-10.08v18.64Zm74.947 18.16h-23.28l-4 11.36h-9.52l19.92-55.68h10.56l19.92 55.68h-9.6l-4-11.36Zm-2.56-7.44-9.04-25.84-9.12 25.84h18.16ZM493.93 589h-9.12l-27.44-41.52V589h-9.12v-55.68h9.12l27.44 41.44v-41.44h9.12V589Zm47.896-55.6v7.44h-14.8V589h-9.12v-48.16h-14.88v-7.44h38.8Zm18.357 7.36v16.32h19.2v7.44h-19.2v17.04h21.6V589h-30.72v-55.68h30.72v7.44h-21.6Zm41.953 0v16.32h19.2v7.44h-19.2v17.04h21.6V589h-30.72v-55.68h30.72v7.44h-21.6Z" fill="#0C2936"></path><path d="m237.044 228-8.047 24.774H203l21.045 15.363L215.999 293l21.045-15.362L258.001 293l-8.047-24.863L271 252.774h-25.997L237.044 228ZM316.044 228l-8.047 24.774H282l21.045 15.363L294.999 293l21.045-15.362L337.001 293l-8.047-24.863L350 252.774h-25.997L316.044 228ZM395.044 228l-8.047 24.774H361l21.045 15.363L373.999 293l21.045-15.362L416.001 293l-8.047-24.863L429 252.774h-25.997L395.044 228ZM474.044 228l-8.047 24.774H440l21.045 15.363L452.999 293l21.045-15.362L495.001 293l-8.047-24.863L508 252.774h-25.997L474.044 228ZM553.044 228l-8.047 24.774H519l21.045 15.363L531.999 293l21.045-15.362L574.001 293l-8.047-24.863L587 252.774h-25.997L553.044 228Z" fill="#47B870"></path><path d="M255.8 357.55 233.14 434h-14.19l-16.06-57.86L185.84 434l-14.08.11-21.67-76.56h13.31l15.84 62.26 17.16-62.26h14.08l15.95 61.93 15.95-61.93h13.42Zm16.723 7.81c-2.274 0-4.18-.77-5.72-2.31s-2.31-3.447-2.31-5.72c0-2.273.77-4.18 2.31-5.72s3.446-2.31 5.72-2.31c2.2 0 4.07.77 5.61 2.31s2.31 3.447 2.31 5.72c0 2.273-.77 4.18-2.31 5.72s-3.41 2.31-5.61 2.31Zm6.16 8.03V434h-12.54v-60.61h12.54Zm47.043-.99c4.767 0 9.02.99 12.76 2.97 3.814 1.98 6.784 4.913 8.91 8.8 2.127 3.887 3.19 8.58 3.19 14.08V434h-12.43v-33.88c0-5.427-1.356-9.57-4.07-12.43-2.713-2.933-6.416-4.4-11.11-4.4-4.693 0-8.433 1.467-11.22 4.4-2.713 2.86-4.07 7.003-4.07 12.43V434h-12.54v-60.61h12.54v6.93c2.054-2.493 4.657-4.437 7.81-5.83 3.227-1.393 6.637-2.09 10.23-2.09Zm140.406-14.85L443.472 434h-14.19l-16.06-57.86-17.05 57.86-14.08.11-21.67-76.56h13.31l15.84 62.26 17.16-62.26h14.08l15.95 61.93 15.95-61.93h13.42Zm16.723 7.81c-2.274 0-4.18-.77-5.72-2.31s-2.31-3.447-2.31-5.72c0-2.273.77-4.18 2.31-5.72s3.446-2.31 5.72-2.31c2.2 0 4.07.77 5.61 2.31s2.31 3.447 2.31 5.72c0 2.273-.77 4.18-2.31 5.72s-3.41 2.31-5.61 2.31Zm6.16 8.03V434h-12.54v-60.61h12.54Zm47.044-.99c4.766 0 9.02.99 12.76 2.97 3.813 1.98 6.783 4.913 8.91 8.8 2.126 3.887 3.19 8.58 3.19 14.08V434h-12.43v-33.88c0-5.427-1.357-9.57-4.07-12.43-2.714-2.933-6.417-4.4-11.11-4.4-4.694 0-8.434 1.467-11.22 4.4-2.714 2.86-4.07 7.003-4.07 12.43V434h-12.54v-60.61h12.54v6.93c2.053-2.493 4.656-4.437 7.81-5.83 3.226-1.393 6.636-2.09 10.23-2.09Z" fill="#0C2936"></path><path d="m612.004 395.83 23.76 38.17h-14.08l-17.27-27.72-16.17 27.72h-13.97l23.76-38.17-23.87-38.28h14.08l17.38 27.94 16.28-27.94h13.97l-23.87 38.28Z" fill="#47B870"></path><rect x="100" y="314" width="590" height="5" rx="2.5" fill="#0C2936"></rect><rect x="100" y="471" width="590" height="5" rx="2.5" fill="#0C2936"></rect></svg>