<svg width="11" height="11" viewBox="0 0 11 11" fill="none" xmlns="http://www.w3.org/2000/svg">
<path d="M10.2505 10.1379H3.89351C3.41924 10.1379 2.98319 9.89959 2.72706 9.50045C2.7253 9.49772 2.72351 9.49501 2.72171 9.49233L1.02193 6.97131C0.867093 6.73771 0.744632 6.31593 1.04054 6.10796C1.23368 5.9722 1.49188 5.98945 1.66586 6.1461L3.17569 8.29043C3.4493 8.69491 3.90288 8.93681 4.39115 8.93861C4.39313 8.93863 6.90171 8.93865 6.90171 8.93865C7.13902 8.93865 7.33139 8.74628 7.33139 8.50897C7.33139 8.27165 7.13902 8.07928 6.90171 8.07928H4.40041C4.39931 8.07928 4.39822 8.07926 4.39712 8.07926C4.11347 8.07926 3.8827 7.8433 3.8827 7.55326C3.8827 7.2632 4.11347 7.02721 4.39732 7.02721L8.43427 7.02556H8.43485C8.80496 7.02556 9.15294 7.16965 9.41469 7.43131C9.6766 7.69312 9.82085 8.04125 9.82085 8.41158C9.82085 8.64889 10.0132 8.84127 10.2505 8.84127C10.4879 8.84127 10.6802 8.64889 10.6802 8.41158C10.6802 7.81165 10.4465 7.24764 10.0222 6.82352C9.59814 6.39959 9.03444 6.16618 8.43483 6.16618H8.43391L4.3971 6.16784C3.89355 6.16784 3.45241 6.44247 3.21323 6.851L2.34492 5.6178C2.33125 5.5984 2.31602 5.58016 2.29935 5.56327C1.82972 5.08763 1.09246 5.02102 0.546396 5.40486C0.21298 5.63915 0.0194492 5.99755 0.00138089 6.41403C-0.0136796 6.76182 0.0948593 7.12909 0.307017 7.44818L0.308564 7.45048L2.00654 9.96885C2.42187 10.6129 3.12688 10.9972 3.89351 10.9972H10.2505C10.4879 10.9972 10.6802 10.8049 10.6802 10.5676C10.6802 10.3302 10.4879 10.1379 10.2505 10.1379Z" fill="#4F91CD"/>
<path d="M5.49166 5.34269C6.96464 5.34269 8.163 4.14433 8.163 2.67134C8.163 1.19835 6.96464 0 5.49166 0C4.01867 0 2.82031 1.19835 2.82031 2.67134C2.82031 4.14433 4.01869 5.34269 5.49166 5.34269ZM5.49166 0.859374C6.49079 0.859374 7.30363 1.67221 7.30363 2.67134C7.30363 3.67047 6.49079 4.48331 5.49166 4.48331C4.49255 4.48331 3.67969 3.67047 3.67969 2.67134C3.67969 1.67221 4.49255 0.859374 5.49166 0.859374Z" fill="#4F91CD"/>
<path d="M5.49121 3.3925C5.72853 3.3925 5.9209 3.20013 5.9209 2.96281V2.375C5.9209 2.13768 5.72853 1.94531 5.49121 1.94531C5.25389 1.94531 5.06152 2.13768 5.06152 2.375V2.96281C5.06152 3.20013 5.25389 3.3925 5.49121 3.3925Z" fill="#4F91CD"/>
</svg>
