<svg width="24" height="20" viewBox="0 0 24 20" fill="none" xmlns="http://www.w3.org/2000/svg">
<path d="M20.8401 2.61183C20.3294 2.10083 19.7229 1.69547 19.0555 1.41891C18.388 1.14235 17.6726 1 16.9501 1C16.2276 1 15.5122 1.14235 14.8448 1.41891C14.1773 1.69547 13.5709 2.10083 13.0601 2.61183L12.0001 3.67183L10.9401 2.61183C9.90843 1.58013 8.50915 1.00053 7.05012 1.00053C5.59109 1.00053 4.19181 1.58013 3.16012 2.61183C2.12843 3.64352 1.54883 5.04279 1.54883 6.50183C1.54883 7.96086 2.12843 9.36013 3.16012 10.3918L4.22012 11.4518L12.0001 19.2318L19.7801 11.4518L20.8401 10.3918C21.3511 9.88107 21.7565 9.27464 22.033 8.60718C22.3096 7.93972 22.4519 7.22431 22.4519 6.50183C22.4519 5.77934 22.3096 5.06393 22.033 4.39647C21.7565 3.72901 21.3511 3.12258 20.8401 2.61183Z" stroke="#415362" stroke-width="1.5" stroke-linecap="round" stroke-linejoin="round"/>
</svg>
