<svg width="20" height="21" viewBox="0 0 20 21" fill="none" xmlns="http://www.w3.org/2000/svg">
<path d="M11.057 2.73618C9.57114 1.53305 7.62719 1.0718 5.72156 1.47701C3.30531 1.98951 1.3701 3.96847 0.906769 6.3993C0.847394 6.71034 1.05114 7.01034 1.36239 7.06972C1.67344 7.13118 1.97344 6.92534 2.03281 6.61409C2.41114 4.62972 3.98927 3.01701 5.95969 2.59826C7.52385 2.26576 9.11989 2.64076 10.3353 3.6268C11.552 4.6118 12.2493 6.07347 12.2493 7.63576C12.2493 8.72034 11.9168 9.7566 11.2878 10.6341C10.478 11.7622 10.017 13.1624 9.95364 14.6845C9.94239 14.9599 9.90323 15.2418 9.83614 15.5206C9.50198 16.9218 8.32802 18.0824 6.91489 18.4103C5.68656 18.6958 4.49177 18.4383 3.54885 17.6895C2.59135 16.9285 2.04302 15.7701 2.04302 14.512C2.04302 14.1953 1.78614 13.9389 1.46989 13.9389C1.15323 13.9389 0.896769 14.1951 0.896769 14.512C0.896769 16.1214 1.60302 17.6066 2.83573 18.587C3.72656 19.2949 4.82344 19.6666 5.96281 19.6666C6.36406 19.6666 6.76969 19.6208 7.17385 19.5278C9.02906 19.097 10.5114 17.6285 10.9507 15.7874C11.0347 15.436 11.0845 15.0812 11.0984 14.732C11.1522 13.4349 11.5395 12.2485 12.2189 11.3026C12.9889 10.2293 13.3951 8.96118 13.3951 7.63597C13.3951 5.72659 12.5428 3.94034 11.057 2.73618Z" fill="#4882B8"/>
<path d="M4.99078 10.5461H4.12391C3.80766 10.5461 3.55078 10.8024 3.55078 11.1193V13.2649C3.55078 14.7345 4.7462 15.9297 6.21557 15.9297C7.50161 15.9297 8.54745 14.8843 8.54745 13.5984C8.54745 13.2818 8.29057 13.0253 7.97432 13.0253C7.65807 13.0253 7.4012 13.2816 7.4012 13.5984C7.4012 14.252 6.86891 14.7836 6.21536 14.7836C5.37828 14.7836 4.69661 14.102 4.69661 13.2649V11.6924H4.99036C5.98599 11.6924 6.79516 10.882 6.79516 9.88718C6.79516 8.89239 5.98599 8.08197 4.99036 8.08197H4.75807C4.76245 8.05072 4.76766 8.02051 4.7737 7.99239C4.94266 7.10822 5.6512 6.38405 6.5337 6.19259C7.24161 6.04155 7.93557 6.20489 8.4862 6.65155C9.03245 7.09364 9.34578 7.75072 9.34578 8.45239C9.34578 8.76905 9.60203 9.02551 9.91891 9.02551C10.2352 9.02551 10.492 8.76926 10.492 8.45239C10.492 7.4026 10.0237 6.42218 9.20766 5.76072C8.39557 5.10259 7.33411 4.85301 6.29328 5.07239C4.96536 5.36114 3.90203 6.44801 3.64911 7.77197C3.60536 7.98801 3.58141 8.29134 3.57078 8.63718C3.56516 8.79155 3.62328 8.9428 3.73203 9.05343C3.83953 9.1653 3.98828 9.22801 4.14328 9.22801H4.99057C5.36057 9.22801 5.64932 9.5178 5.64932 9.88718C5.64932 10.2566 5.36057 10.5461 4.99078 10.5461Z" fill="#4882B8"/>
<path d="M15.6398 8.39051C15.7298 8.39051 15.8217 8.36926 15.9073 8.32447L18.7984 6.79676C19.0782 6.64905 19.1844 6.30197 19.0367 6.02218C18.889 5.74238 18.5426 5.63488 18.2621 5.78259L15.3713 7.31051C15.0915 7.45822 14.9853 7.8053 15.133 8.08509C15.2359 8.27988 15.4338 8.39051 15.6398 8.39051Z" fill="#4882B8"/>
<path d="M18.7966 14.1255L15.9056 12.5965C15.6258 12.4511 15.2789 12.5563 15.131 12.8361C14.9833 13.1159 15.0896 13.4617 15.3693 13.6107L18.2604 15.1396C18.346 15.1844 18.4373 15.2057 18.5279 15.2057C18.7337 15.2057 18.9318 15.0949 19.035 14.9001C19.1829 14.6201 19.0766 14.2742 18.7966 14.1255Z" fill="#4882B8"/>
<path d="M18.5307 9.88794H15.1063C14.7901 9.88794 14.5332 10.1442 14.5332 10.4611C14.5332 10.7779 14.7901 11.0342 15.1063 11.0342H18.5305C18.8467 11.0342 19.1036 10.7779 19.1036 10.4611C19.1036 10.1442 18.8467 9.88794 18.5307 9.88794Z" fill="#4882B8"/>
</svg>
