<svg width="20" height="20" viewBox="0 0 20 20" fill="none" xmlns="http://www.w3.org/2000/svg">
<path d="M12.0156 2.18042C12.6372 1.55905 13.624 1.52033 14.291 2.06421L14.4199 2.18042L14.4346 2.19507C14.6107 2.37111 14.7433 2.57937 14.8271 2.8064L14.834 2.8269L14.8525 2.81616C15.1099 2.66509 15.4035 2.58383 15.71 2.58374C16.1641 2.58374 16.5919 2.76064 16.9131 3.08179L16.9346 3.10425C17.2562 3.42584 17.4331 3.8535 17.4326 4.30835C17.4325 4.41571 17.4228 4.52149 17.4033 4.62476L17.3994 4.64233L17.417 4.64526C17.7384 4.70745 18.0448 4.86299 18.293 5.11108L18.3115 5.12964C18.6331 5.45129 18.8101 5.87889 18.8096 6.33374C18.809 6.78847 18.6309 7.21508 18.3086 7.53589L17.6035 8.23901L17.585 8.25757L17.6094 8.26733C17.8117 8.35007 18.0014 8.47377 18.165 8.63745C18.4862 8.9588 18.6624 9.38625 18.6621 9.84058C18.6618 10.295 18.4847 10.7218 18.1631 11.0427L14.1055 15.0867L12.791 16.4041C11.5631 17.6352 9.92922 18.314 8.19043 18.3152H8.18555C6.44844 18.3152 4.81536 17.6384 3.58691 16.4099C2.5863 15.4092 1.9506 14.1418 1.74902 12.7449C1.5542 11.3945 1.79521 9.98865 2.42676 8.78687C3.27253 7.17744 3.89131 5.52997 4.26562 3.89038L4.34375 3.54761C4.46254 3.02737 4.7999 2.58298 5.26855 2.32788C5.73718 2.07286 6.29363 2.03094 6.79492 2.21362C7.68552 2.53835 8.18873 3.47781 7.96582 4.39917L7.39551 6.75366L7.38086 6.81519L7.4248 6.77026L12.0156 2.18042ZM13.6973 2.90112C13.4327 2.63707 13.0022 2.63731 12.7373 2.9021L6.81836 8.82007C6.59938 9.02038 6.35727 9.00416 6.18359 8.88647C6.00854 8.76777 5.90453 8.54725 5.96191 8.34058V8.3396L6.97461 4.15894C7.07503 3.743 6.84734 3.31917 6.44531 3.17261C6.21573 3.08898 5.97054 3.10655 5.75586 3.22339C5.54116 3.34026 5.39326 3.53684 5.33887 3.77515L5.26074 4.11694C4.86686 5.84252 4.21707 7.57362 3.33008 9.26147C2.79771 10.2745 2.59542 11.4602 2.75977 12.5994C2.92968 13.7764 3.46507 14.8446 4.30859 15.6882C5.3442 16.7238 6.72117 17.2946 8.18555 17.2947H8.18945C9.65535 17.2937 11.0332 16.7213 12.0684 15.6833L13.3838 14.365L17.4424 10.3201C17.5707 10.192 17.6425 10.0212 17.6426 9.8396C17.6427 9.65816 17.5716 9.48752 17.4434 9.35913C17.1797 9.09557 16.7494 9.09395 16.4844 9.3562L16.1406 9.69702H16.1396L13.7197 12.1082C13.6203 12.207 13.4904 12.2565 13.3604 12.2566C13.2294 12.2566 13.0977 12.2062 12.998 12.1062C12.7997 11.9066 12.8007 11.5843 13 11.3855L17.5889 6.81323C17.7179 6.68482 17.7888 6.51361 17.7891 6.33179C17.7892 6.1501 17.7184 5.97885 17.5898 5.85034L17.5723 5.83276C17.3079 5.56843 16.8773 5.56808 16.6123 5.83179C15.7697 6.66987 13.37 9.05891 12.4893 9.93628C12.3897 10.0354 12.2592 10.0857 12.1289 10.0857C11.9981 10.0856 11.8672 10.0353 11.7676 9.9353C11.5688 9.73564 11.5699 9.41247 11.7695 9.21362C13.0795 7.90806 14.8896 6.10585 16.2129 4.78784C16.3415 4.65962 16.4128 4.48888 16.4131 4.30737C16.4133 4.12571 16.3423 3.95446 16.2139 3.82593L16.1914 3.80347C16.0631 3.67518 15.8923 3.60436 15.7109 3.60425C15.5294 3.60425 15.3578 3.67508 15.2295 3.80347C14.7365 4.29643 11.381 7.65196 10.7969 8.23608C10.5978 8.43494 10.2754 8.43489 10.0762 8.23608C9.87693 8.03684 9.87693 7.71361 10.0762 7.5144C11.0218 6.56876 12.7496 4.84091 13.7129 3.87769C13.841 3.74939 13.9111 3.57859 13.9111 3.39722C13.9111 3.21586 13.841 3.04508 13.7129 2.91675L13.6973 2.90112Z" fill="#4882B8" stroke="#4882B8" stroke-width="0.0351852"/>
</svg>
