<svg width="12" height="12" viewBox="0 0 12 12" fill="none" xmlns="http://www.w3.org/2000/svg">
<g clip-path="url(#clip0_13866_108949)">
<path d="M10.0982 11.3127H8.0207C7.69946 11.3127 7.39137 11.185 7.16422 10.9579C6.93707 10.7307 6.80945 10.4226 6.80945 10.1014V8.05015C6.80945 7.98958 6.79752 7.9296 6.77434 7.87364C6.75116 7.81768 6.71719 7.76683 6.67436 7.724C6.63152 7.68117 6.58068 7.64719 6.52472 7.62401C6.46875 7.60083 6.40877 7.5889 6.3482 7.5889H5.6507C5.59013 7.5889 5.53015 7.60083 5.47419 7.62401C5.41823 7.64719 5.36738 7.68117 5.32455 7.724C5.28172 7.76683 5.24774 7.81768 5.22456 7.87364C5.20138 7.9296 5.18945 7.98958 5.18945 8.05015V10.1014C5.18945 10.2605 5.15812 10.418 5.09725 10.5649C5.03638 10.7119 4.94716 10.8454 4.83469 10.9579C4.72221 11.0704 4.58868 11.1596 4.44173 11.2205C4.29477 11.2813 4.13727 11.3127 3.9782 11.3127H1.9007C1.57946 11.3127 1.27137 11.185 1.04422 10.9579C0.817067 10.7307 0.689453 10.4226 0.689453 10.1014V5.9389C0.689716 5.64063 0.808414 5.35468 1.01945 5.1439L5.14445 1.0189C5.25662 0.906424 5.38988 0.817184 5.5366 0.756295C5.68331 0.695405 5.8406 0.664062 5.99945 0.664062C6.1583 0.664062 6.31559 0.695405 6.46231 0.756295C6.60902 0.817184 6.74228 0.906424 6.85445 1.0189L10.9532 5.11765C11.0661 5.22958 11.1557 5.36276 11.2169 5.50951C11.278 5.65626 11.3095 5.81367 11.3095 5.97265V10.0977C11.3099 10.257 11.279 10.4149 11.2183 10.5623C11.1577 10.7097 11.0685 10.8437 10.956 10.9566C10.8435 11.0694 10.7098 11.159 10.5626 11.2201C10.4154 11.2812 10.2576 11.3127 10.0982 11.3127ZM5.6507 6.8389H6.3482C6.66945 6.8389 6.97753 6.96652 7.20469 7.19367C7.43184 7.42082 7.55945 7.72891 7.55945 8.05015V10.1014C7.55945 10.2237 7.60805 10.3411 7.69455 10.4276C7.78105 10.5141 7.89837 10.5627 8.0207 10.5627H10.0982C10.2205 10.5627 10.3379 10.5141 10.4244 10.4276C10.5109 10.3411 10.5595 10.2237 10.5595 10.1014V5.9764C10.5583 5.85429 10.5099 5.73737 10.4245 5.65015L6.3257 1.54765C6.28287 1.50479 6.23201 1.47079 6.17603 1.44759C6.12005 1.4244 6.06005 1.41246 5.99945 1.41246C5.93886 1.41246 5.87886 1.4244 5.82288 1.44759C5.7669 1.47079 5.71604 1.50479 5.6732 1.54765L1.5482 5.67265C1.51345 5.70769 1.48595 5.74925 1.46729 5.79494C1.44863 5.84063 1.43917 5.88955 1.43945 5.9389V10.1014C1.43945 10.2237 1.48805 10.3411 1.57455 10.4276C1.66105 10.5141 1.77837 10.5627 1.9007 10.5627H3.9782C4.10053 10.5627 4.21785 10.5141 4.30436 10.4276C4.39086 10.3411 4.43945 10.2237 4.43945 10.1014V8.05015C4.43945 7.72891 4.56707 7.42082 4.79422 7.19367C5.02137 6.96652 5.32946 6.8389 5.6507 6.8389Z" fill="black"/>
</g>
<defs>
<clipPath id="clip0_13866_108949">
<rect width="12" height="12" fill="white"/>
</clipPath>
</defs>
</svg>
