<svg width="26" height="26" viewBox="0 0 26 26" fill="none" xmlns="http://www.w3.org/2000/svg">
<path d="M24.1234 17.2661C23.581 17.0036 22.993 16.8482 22.3918 16.8085C22.654 16.1601 22.7967 15.4695 22.813 14.7701C22.9352 11.0911 20.0206 8.42095 18.7804 7.27695L18.6504 7.15995C18.471 6.99355 18.3072 6.82975 18.1538 6.66595C18.3121 6.53263 18.4393 6.36624 18.5265 6.17848C18.6136 5.99072 18.6586 5.78614 18.6582 5.57915V5.55315C18.6572 5.26732 18.5704 4.98838 18.4091 4.75243C18.2478 4.51648 18.0193 4.33439 17.7534 4.22975C18.0512 3.3989 18.2596 2.53862 18.3748 1.66355C18.3928 1.51429 18.3685 1.36297 18.3045 1.2269C18.2406 1.09083 18.1396 0.975506 18.0132 0.894125C17.8868 0.812744 17.7401 0.768592 17.5897 0.766721C17.4394 0.76485 17.2916 0.805336 17.1632 0.883546C16.7648 1.10416 16.3391 1.27114 15.897 1.38015C15.4707 1.49103 15.0232 1.49103 14.597 1.38015C14.152 1.27112 13.7236 1.10324 13.323 0.880946C13.1938 0.802929 13.0452 0.762999 12.8943 0.765759C12.7434 0.768519 12.5964 0.813856 12.4702 0.896546C12.3447 0.976565 12.2447 1.09081 12.1821 1.22579C12.1194 1.36077 12.0967 1.51086 12.1166 1.65835C12.2335 2.53674 12.4427 3.40038 12.7406 4.23495C12.4739 4.33888 12.2447 4.52071 12.0829 4.75676C11.921 4.99282 11.834 5.27214 11.8332 5.55835V5.58435C11.8331 5.8154 11.8894 6.04298 11.9973 6.24732C12.1051 6.45167 12.2612 6.62661 12.452 6.75695C12.335 6.88175 12.192 7.01695 12.0412 7.15995L11.9164 7.27695C10.6606 8.42095 7.76157 11.0885 7.88117 14.7675C7.88117 14.9599 7.90457 15.1445 7.92537 15.3291H5.89997V14.4945C5.89997 14.3566 5.84518 14.2244 5.74766 14.1269C5.65015 14.0293 5.51788 13.9745 5.37997 13.9745H1.68797C1.55006 13.9745 1.41779 14.0293 1.32027 14.1269C1.22275 14.2244 1.16797 14.3566 1.16797 14.4945V23.3605C1.16797 23.4985 1.22275 23.6307 1.32027 23.7282C1.41779 23.8258 1.55006 23.8805 1.68797 23.8805H5.37997C5.51788 23.8805 5.65015 23.8258 5.74766 23.7282C5.84518 23.6307 5.89997 23.4985 5.89997 23.3605V22.6845L11.5628 24.9699C12.0003 25.1345 12.463 25.2225 12.9304 25.2299C13.9704 25.2299 14.8804 24.7801 15.9438 24.2497L16.0634 24.1899H16.0894L24.1494 19.5593C24.3593 19.4493 24.5344 19.2831 24.6552 19.0792C24.7759 18.8753 24.8376 18.6419 24.8332 18.4049C24.835 18.1674 24.7692 17.9342 24.6435 17.7325C24.5179 17.5309 24.3375 17.3692 24.1234 17.2661ZM13.4218 5.97695H13.2606C13.159 5.97695 13.0615 5.93676 12.9894 5.86516C12.9173 5.79356 12.8765 5.69635 12.8758 5.59475V5.56875C12.8747 5.51756 12.8839 5.46668 12.9028 5.41909C12.9217 5.3715 12.9498 5.32816 12.9857 5.29159C13.0215 5.25503 13.0643 5.22599 13.1115 5.20616C13.1587 5.18634 13.2094 5.17614 13.2606 5.17615H17.236C17.3373 5.17615 17.4345 5.21641 17.5062 5.28809C17.5779 5.35977 17.6182 5.45698 17.6182 5.55835V5.58435C17.6196 5.63541 17.6107 5.68623 17.5921 5.7338C17.5735 5.78138 17.5456 5.82475 17.51 5.86135C17.4743 5.89795 17.4317 5.92704 17.3847 5.94689C17.3376 5.96674 17.287 5.97696 17.236 5.97695H13.4218ZM14.3214 2.39415C14.9261 2.55539 15.5626 2.55539 16.1674 2.39415C16.5463 2.29467 16.9167 2.16513 17.275 2.00675C17.138 2.73178 16.9406 3.44407 16.6848 4.13615H13.7988C13.5448 3.44369 13.3482 2.73148 13.2112 2.00675C13.5705 2.1647 13.9417 2.29423 14.3214 2.39415ZM12.6184 8.05695L12.7458 7.93995C13.0604 7.65368 13.3541 7.34522 13.6246 7.01695H17.0696C17.3389 7.34054 17.6299 7.64544 17.9406 7.92955L18.0732 8.04915C19.2094 9.08914 21.8744 11.5331 21.7678 14.7337C21.7604 15.4866 21.5627 16.2254 21.1932 16.8813C20.7944 16.9651 20.4075 17.0978 20.0414 17.2765L17.2386 18.6259C17.1633 18.2172 16.9485 17.8473 16.6308 17.5794C16.313 17.3114 15.9121 17.1621 15.4966 17.1569H12.4806C11.5457 16.1942 10.3156 15.5719 8.98617 15.3889C8.95088 15.1721 8.92917 14.9533 8.92117 14.7337C8.81717 11.5331 11.4796 9.09695 12.6184 8.05695ZM2.21837 22.8509V15.0145H4.87037V22.8405L2.21837 22.8509ZM23.6606 18.6207L15.6006 23.2539L15.4966 23.3059C14.0744 24.0157 13.2138 24.4447 11.9476 23.9975L5.89997 21.5769V16.3769H8.14637C8.84638 16.3772 9.5384 16.5256 10.177 16.8124C10.8155 17.0992 11.3862 17.5179 11.8514 18.0409C11.9 18.0956 11.9597 18.1394 12.0265 18.1694C12.0932 18.1994 12.1656 18.215 12.2388 18.2151H15.4966C15.6698 18.2177 15.8365 18.2811 15.9677 18.3943C16.0989 18.5074 16.1861 18.663 16.2142 18.8339C16.2189 18.9777 16.1769 19.1191 16.0946 19.2369C16.0946 19.2369 16.0946 19.2369 16.079 19.2577C16.0166 19.3365 15.9377 19.4006 15.8479 19.4455C15.758 19.4904 15.6594 19.5151 15.559 19.5177H9.74277C9.60486 19.5177 9.47259 19.5725 9.37507 19.67C9.27755 19.7676 9.22277 19.8998 9.22277 20.0377C9.22277 20.1757 9.27755 20.3079 9.37507 20.4054C9.47259 20.503 9.60486 20.5577 9.74277 20.5577H15.5538C15.7769 20.5585 15.9979 20.515 16.2041 20.4297C16.4103 20.3445 16.5975 20.2192 16.755 20.0611C16.7888 20.0273 16.8226 19.9909 16.8538 19.9545L20.4938 18.2021C20.8209 18.036 21.1717 17.9212 21.5338 17.8615C22.2603 17.7563 23.0017 17.8732 23.6606 18.1969C23.6975 18.2136 23.7287 18.2407 23.7504 18.2749C23.7721 18.3091 23.7833 18.3489 23.7828 18.3893C23.7864 18.4355 23.7769 18.4818 23.7552 18.5228C23.7336 18.5637 23.7008 18.5977 23.6606 18.6207Z" fill="black"/>
<path d="M16.1203 14.3916H14.9243C14.8855 14.3919 14.847 14.3846 14.8111 14.37C14.7751 14.3554 14.7424 14.3338 14.7149 14.3065C14.6873 14.2792 14.6654 14.2467 14.6505 14.2108C14.6356 14.175 14.6279 14.1366 14.6279 14.0978C14.6279 13.9599 14.5731 13.8276 14.4756 13.7301C14.3781 13.6326 14.2458 13.5778 14.1079 13.5778C13.97 13.5778 13.8377 13.6326 13.7402 13.7301C13.6427 13.8276 13.5879 13.9599 13.5879 14.0978C13.5886 14.4518 13.7297 14.791 13.9802 15.0411C14.2308 15.2912 14.5703 15.4316 14.9243 15.4316H15.0023V15.8216C15.0023 15.9595 15.0571 16.0918 15.1546 16.1893C15.2521 16.2868 15.3844 16.3416 15.5223 16.3416C15.6602 16.3416 15.7925 16.2868 15.89 16.1893C15.9875 16.0918 16.0423 15.9595 16.0423 15.8216V15.4316H16.1203C16.2954 15.4316 16.4689 15.3971 16.6307 15.3301C16.7925 15.263 16.9396 15.1648 17.0634 15.0409C17.1873 14.9171 17.2855 14.77 17.3526 14.6082C17.4196 14.4464 17.4541 14.273 17.4541 14.0978V13.2346C17.4534 12.8811 17.3127 12.5422 17.0627 12.2922C16.8127 12.0422 16.4738 11.9015 16.1203 11.9008H14.9243C14.8855 11.9011 14.847 11.8938 14.8111 11.8792C14.7751 11.8646 14.7424 11.843 14.7149 11.8157C14.6873 11.7884 14.6654 11.7559 14.6505 11.72C14.6356 11.6842 14.6279 11.6458 14.6279 11.607V10.7438C14.6286 10.6656 14.6601 10.5909 14.7156 10.5359C14.7711 10.4809 14.8461 10.45 14.9243 10.45H16.1203C16.198 10.4507 16.2723 10.4819 16.3273 10.5368C16.3822 10.5918 16.4134 10.6661 16.4141 10.7438C16.4141 10.8817 16.4689 11.014 16.5664 11.1115C16.6639 11.209 16.7962 11.2638 16.9341 11.2638C17.072 11.2638 17.2043 11.209 17.3018 11.1115C17.3993 11.014 17.4541 10.8817 17.4541 10.7438C17.4541 10.5686 17.4196 10.3952 17.3526 10.2334C17.2855 10.0716 17.1873 9.92452 17.0634 9.80066C16.9396 9.67681 16.7925 9.57856 16.6307 9.51153C16.4689 9.4445 16.2954 9.41 16.1203 9.41H16.0423V9.02C16.0423 8.88209 15.9875 8.74982 15.89 8.65231C15.7925 8.55479 15.6602 8.5 15.5223 8.5C15.3844 8.5 15.2521 8.55479 15.1546 8.65231C15.0571 8.74982 15.0023 8.88209 15.0023 9.02V9.41H14.9243C14.5703 9.41 14.2308 9.55044 13.9802 9.8005C13.7297 10.0506 13.5886 10.3898 13.5879 10.7438V11.607C13.5886 11.961 13.7297 12.3002 13.9802 12.5503C14.2308 12.8004 14.5703 12.9408 14.9243 12.9408H16.1203C16.198 12.9415 16.2723 12.9727 16.3273 13.0276C16.3822 13.0826 16.4134 13.1569 16.4141 13.2346V14.0978C16.4141 14.1757 16.3831 14.2505 16.328 14.3055C16.2729 14.3606 16.1982 14.3916 16.1203 14.3916Z" fill="black"/>
</svg>
