<svg width="24" height="23" viewBox="0 0 24 23" fill="none" xmlns="http://www.w3.org/2000/svg">
<path d="M22.3081 9.11474L21.1703 7.97897C21.0315 7.84069 20.9215 7.67633 20.8466 7.49535C20.7717 7.31437 20.7333 7.12036 20.7337 6.92448V5.59386C20.7328 4.78431 20.411 4.00813 19.8386 3.4356C19.2663 2.86306 18.4902 2.5409 17.6806 2.5398H16.35C15.9553 2.53874 15.5768 2.38227 15.2966 2.10425L14.1598 0.966401C13.5867 0.394755 12.8102 0.0737305 12.0008 0.0737305C11.1913 0.0737305 10.4149 0.394755 9.84179 0.966401L8.70602 2.10425C8.42544 2.38252 8.0467 2.53933 7.65153 2.54084H6.31987C5.51032 2.54195 4.73425 2.8641 4.16191 3.43664C3.58957 4.00918 3.26768 4.78535 3.26685 5.5949V6.92448C3.26736 7.12028 3.22915 7.31425 3.1544 7.49523C3.07965 7.6762 2.96984 7.8406 2.8313 7.97897L1.69345 9.11474C1.12181 9.68784 0.800781 10.4643 0.800781 11.2737C0.800781 12.0832 1.12181 12.8596 1.69345 13.4327L2.8313 14.5685C2.97003 14.7068 3.08003 14.8711 3.15496 15.0521C3.22989 15.2331 3.26827 15.4271 3.26789 15.623V16.9536C3.26872 17.7632 3.59061 18.5393 4.16295 19.1119C4.7353 19.6844 5.51136 20.0066 6.32091 20.0077H7.65153C8.04643 20.009 8.4249 20.1659 8.70498 20.4443L9.84179 21.5811C10.4148 22.153 11.1912 22.4742 12.0008 22.4742C12.8103 22.4742 13.5868 22.153 14.1598 21.5811L15.2955 20.4443C15.5761 20.166 15.9549 20.0092 16.35 20.0077H17.6817C18.4912 20.0066 19.2673 19.6844 19.8397 19.1119C20.412 18.5393 20.7339 17.7632 20.7347 16.9536V15.623C20.7343 15.4271 20.7727 15.2331 20.8476 15.0521C20.9226 14.8711 21.0326 14.7068 21.1713 14.5685L22.3081 13.4327C22.8798 12.8596 23.2008 12.0832 23.2008 11.2737C23.2008 10.4643 22.8798 9.68784 22.3081 9.11474ZM15.679 9.73993L11.511 13.9079C11.4386 13.9806 11.3526 14.0383 11.2578 14.0777C11.163 14.117 11.0614 14.1373 10.9588 14.1373C10.8562 14.1373 10.7546 14.117 10.6598 14.0777C10.565 14.0383 10.479 13.9806 10.4065 13.9079L8.32257 11.8239C8.18453 11.6758 8.10937 11.4798 8.11295 11.2774C8.11652 11.0749 8.19854 10.8817 8.34172 10.7385C8.4849 10.5954 8.67807 10.5133 8.88053 10.5098C9.08299 10.5062 9.27893 10.5814 9.42707 10.7194L10.9588 12.2522L14.5745 8.63751C14.7226 8.49946 14.9186 8.42431 15.121 8.42788C15.3235 8.43146 15.5167 8.51347 15.6598 8.65666C15.803 8.79984 15.885 8.99301 15.8886 9.19547C15.8922 9.39793 15.817 9.59387 15.679 9.74201V9.73993Z" fill="#1BB746"/>
</svg>
