<svg width="26" height="24" viewBox="0 0 26 24" fill="none" xmlns="http://www.w3.org/2000/svg">
<rect x="0.800781" y="6.67334" width="22.876" height="17.164" rx="2.8" fill="#565CA9"/>
<path d="M19.2939 1.20459C19.4949 1.2047 19.6873 1.27919 19.8379 1.41162L19.8389 1.41064C20.5328 1.98927 21.3104 2.45978 22.1445 2.80713L22.1514 2.81006C22.9596 3.16573 23.8147 3.40379 24.6904 3.51709H24.6895C24.8754 3.53608 25.0498 3.61764 25.1836 3.74854C25.3207 3.88275 25.4073 4.06065 25.4277 4.25146L25.4531 4.53467C25.4923 5.00532 25.5591 5.99803 25.541 7.14404C25.5171 8.65539 25.3463 10.5039 24.7256 11.7554L24.7246 11.7563C23.9848 13.2309 22.7435 14.3659 21.6895 15.1343C20.6311 15.9058 19.7342 16.3273 19.6553 16.3647L19.6523 16.3657C19.5436 16.416 19.4255 16.4428 19.3057 16.4429C19.1858 16.4429 19.0668 16.4161 18.958 16.3657L18.9551 16.3647C18.8757 16.3271 17.9789 15.9055 16.9209 15.1343C15.9327 14.4139 14.78 13.3712 14.0303 12.0288L13.8857 11.7563C13.2586 10.5046 13.085 8.65643 13.0596 7.14502C13.0339 5.61664 13.1604 4.36031 13.1719 4.25146L13.1992 4.11084C13.2388 3.97343 13.3133 3.84742 13.417 3.74658C13.5508 3.61649 13.7248 3.53685 13.9102 3.51807V3.51709C14.7812 3.40225 15.6315 3.16425 16.4355 2.81006L16.4424 2.80713C17.2766 2.46008 18.0543 1.98951 18.748 1.41064V1.41162C18.8989 1.27875 19.0926 1.20459 19.2939 1.20459Z" fill="#565CA9" stroke="white" stroke-width="0.7"/>
<path d="M14.5313 21.0953H19.2972C19.4236 21.0953 19.5449 21.0451 19.6342 20.9557C19.7236 20.8663 19.7738 20.7451 19.7738 20.6187C19.7738 20.4923 19.7236 20.3711 19.6342 20.2817C19.5449 20.1923 19.4236 20.1421 19.2972 20.1421H14.5313C14.4049 20.1421 14.2837 20.1923 14.1943 20.2817C14.1049 20.3711 14.0547 20.4923 14.0547 20.6187C14.0547 20.7451 14.1049 20.8663 14.1943 20.9557C14.2837 21.0451 14.4049 21.0953 14.5313 21.0953Z" fill="white"/>
<path d="M14.5313 18.2359H17.3909C17.5173 18.2359 17.6385 18.1857 17.7279 18.0963C17.8172 18.0069 17.8675 17.8857 17.8675 17.7593C17.8675 17.6329 17.8172 17.5117 17.7279 17.4223C17.6385 17.3329 17.5173 17.2827 17.3909 17.2827H14.5313C14.4049 17.2827 14.2837 17.3329 14.1943 17.4223C14.1049 17.5117 14.0547 17.6329 14.0547 17.7593C14.0547 17.8857 14.1049 18.0069 14.1943 18.0963C14.2837 18.1857 14.4049 18.2359 14.5313 18.2359Z" fill="white"/>
<path d="M2.61819 19.1864V19.4247C2.61819 19.8671 2.79394 20.2914 3.10676 20.6042C3.41959 20.9171 3.84387 21.0928 4.28628 21.0928H10.482C10.9244 21.0928 11.3487 20.9171 11.6615 20.6042C11.9744 20.2914 12.1501 19.8671 12.1501 19.4247V19.1864C12.1692 18.364 11.9147 17.5586 11.4265 16.8965C10.9382 16.2344 10.2439 15.7533 9.45258 15.5286C9.91936 15.1099 10.2481 14.5594 10.3954 13.9499C10.5426 13.3404 10.5015 12.7006 10.2773 12.115C10.0532 11.5294 9.65662 11.0256 9.14004 10.6702C8.62346 10.3148 8.01118 10.1245 7.38415 10.1245C6.75712 10.1245 6.14485 10.3148 5.62826 10.6702C5.11168 11.0256 4.71511 11.5294 4.49097 12.115C4.26682 12.7006 4.22566 13.3404 4.37292 13.9499C4.52019 14.5594 4.84894 15.1099 5.31573 15.5286C4.52438 15.7533 3.83008 16.2344 3.34183 16.8965C2.85359 17.5586 2.59905 18.364 2.61819 19.1864ZM7.38415 11.0843C7.80833 11.0843 8.22298 11.2101 8.57567 11.4457C8.92836 11.6814 9.20325 12.0164 9.36558 12.4082C9.5279 12.8001 9.57038 13.2314 9.48762 13.6474C9.40487 14.0634 9.20061 14.4456 8.90067 14.7455C8.60073 15.0454 8.21859 15.2497 7.80256 15.3325C7.38653 15.4152 6.95531 15.3727 6.56342 15.2104C6.17153 15.0481 5.83657 14.7732 5.60091 14.4205C5.36525 14.0678 5.23947 13.6532 5.23947 13.229C5.23947 12.6602 5.46543 12.1147 5.86763 11.7125C6.26984 11.3103 6.81535 11.0843 7.38415 11.0843ZM6.43096 16.3269H8.33734C8.71518 16.3184 9.09082 16.3866 9.44159 16.5273C9.79236 16.668 10.111 16.8783 10.3782 17.1456C10.6455 17.4128 10.8558 17.7314 10.9965 18.0822C11.1372 18.4329 11.2054 18.8086 11.1969 19.1864V19.4247C11.1969 19.6143 11.1216 19.7962 10.9875 19.9302C10.8535 20.0643 10.6716 20.1396 10.482 20.1396H4.28628C4.09668 20.1396 3.91484 20.0643 3.78077 19.9302C3.6467 19.7962 3.57138 19.6143 3.57138 19.4247V19.1864C3.56292 18.8086 3.6311 18.4329 3.77181 18.0822C3.91252 17.7314 4.12284 17.4128 4.39009 17.1456C4.65733 16.8783 4.97595 16.668 5.32671 16.5273C5.67748 16.3866 6.05312 16.3184 6.43096 16.3269Z" fill="white"/>
<path d="M21.7441 6.936L18.7463 9.93379L16.859 8.04647C16.7695 7.95704 16.6483 7.9068 16.5218 7.9068C16.3953 7.9068 16.274 7.95704 16.1846 8.04647C16.0952 8.1359 16.0449 8.25719 16.0449 8.38366C16.0449 8.51014 16.0952 8.63143 16.1846 8.72086L18.4079 10.9442C18.4522 10.9888 18.505 11.0242 18.5631 11.0483C18.6211 11.0724 18.6834 11.0848 18.7463 11.0848C18.8725 11.0842 18.9933 11.0337 19.0823 10.9442L22.4185 7.608C22.5005 7.5172 22.5444 7.39834 22.5412 7.27604C22.5379 7.15374 22.4878 7.03736 22.4011 6.95101C22.3145 6.86465 22.1979 6.81493 22.0756 6.81214C21.9533 6.80934 21.8346 6.85369 21.7441 6.936Z" fill="white"/>
</svg>
