<svg width="26" height="26" viewBox="0 0 26 26" fill="none" xmlns="http://www.w3.org/2000/svg">
<path d="M25.3163 14.1857L24.2575 15.738C24.0506 16.0412 23.953 16.4057 23.9808 16.7716L24.1224 18.6433C24.1472 18.9683 24.0731 19.2932 23.91 19.5754C23.7469 19.8576 23.5023 20.084 23.2083 20.2247L21.5174 21.0354C21.1851 21.1947 20.9172 21.4627 20.7579 21.7949L19.9498 23.4832C19.8087 23.7767 19.5823 24.0208 19.3003 24.1836C19.0182 24.3464 18.6936 24.4203 18.3688 24.3955L16.4976 24.2535C16.1315 24.2257 15.7669 24.3233 15.4636 24.5302L13.9108 25.5912C13.642 25.775 13.324 25.8733 12.9984 25.8733C12.6728 25.8733 12.3548 25.775 12.0861 25.5912L10.5337 24.5324C10.2306 24.3255 9.86611 24.2279 9.50016 24.2557L7.6285 24.3973C7.30348 24.4221 6.97856 24.348 6.69635 24.1849C6.41414 24.0218 6.18781 23.7772 6.04706 23.4832L5.23635 21.7923C5.07703 21.46 4.80913 21.1921 4.47691 21.0328L2.7886 20.2247C2.49506 20.0836 2.25094 19.8573 2.08816 19.5752C1.92538 19.2931 1.85151 18.9685 1.87623 18.6437L2.0183 16.7725C2.04604 16.4064 1.94844 16.0418 1.74154 15.7385L0.68059 14.1857C0.496783 13.917 0.398438 13.5989 0.398438 13.2733C0.398437 12.9477 0.496783 12.6297 0.68059 12.361L1.73937 10.8086C1.94624 10.5055 2.04383 10.141 2.01612 9.77506L1.87623 7.90427C1.85112 7.5793 1.92481 7.25432 2.08762 6.97196C2.25043 6.6896 2.49477 6.46303 2.7886 6.32196L4.47952 5.51125C4.81173 5.35193 5.07964 5.08403 5.23896 4.75182L6.04706 3.0635C6.18814 2.76997 6.41453 2.52585 6.69661 2.36306C6.97868 2.20028 7.30332 2.12642 7.62806 2.15113L9.49929 2.2932C9.86538 2.32094 10.23 2.22334 10.5333 2.01645L12.0861 0.955492C12.3548 0.771685 12.6728 0.67334 12.9984 0.67334C13.324 0.67334 13.642 0.771685 13.9108 0.955492L15.4631 2.01427C15.7663 2.22114 16.1308 2.31874 16.4967 2.29103L18.3675 2.15113C18.6925 2.12602 19.0175 2.19971 19.2998 2.36252C19.5822 2.52533 19.8087 2.76967 19.9498 3.0635L20.7605 4.75442C20.9198 5.08664 21.1877 5.35454 21.52 5.51386L23.2083 6.32196C23.5018 6.46304 23.7459 6.68943 23.9087 6.97151C24.0715 7.25359 24.1454 7.57823 24.1206 7.90296L23.9786 9.77419C23.9508 10.1403 24.0484 10.5049 24.2553 10.8082L25.3163 12.361C25.5001 12.6297 25.5984 12.9477 25.5984 13.2733C25.5984 13.5989 25.5001 13.917 25.3163 14.1857Z" fill="#5090CC"/>
<path d="M14.3021 7.62516C14.3021 6.90532 13.7185 6.32178 12.9987 6.32178C12.2789 6.32178 11.6953 6.90532 11.6953 7.62516V14.5765C11.6953 15.2964 12.2789 15.8799 12.9987 15.8799C13.7185 15.8799 14.3021 15.2964 14.3021 14.5765V7.62516Z" fill="white"/>
<path d="M12.9987 20.2254C13.7185 20.2254 14.3021 19.6419 14.3021 18.922C14.3021 18.2022 13.7185 17.6187 12.9987 17.6187C12.2789 17.6187 11.6953 18.2022 11.6953 18.922C11.6953 19.6419 12.2789 20.2254 12.9987 20.2254Z" fill="white"/>
</svg>
