<svg width="24" height="25" viewBox="0 0 24 25" fill="none" xmlns="http://www.w3.org/2000/svg">
<path d="M12 0.272949C5.37284 0.272949 0 5.64579 0 12.2729C0 18.9001 5.37284 24.2729 12 24.2729C18.6272 24.2729 24 18.9001 24 12.2729C24 5.64579 18.6272 0.272949 12 0.272949ZM15.4469 17.0038C14.9235 17.6409 14.242 18.0705 13.4469 18.2878C13.1012 18.3816 12.9432 18.5643 12.963 18.9248C12.9778 19.2804 12.963 19.631 12.958 19.9865C12.958 20.3026 12.7951 20.4705 12.484 20.4804C12.2815 20.4853 12.079 20.4902 11.8765 20.4902C11.6988 20.4902 11.521 20.4902 11.3432 20.4853C11.0074 20.4804 10.8494 20.2878 10.8494 19.9618C10.8444 19.705 10.8444 19.4433 10.8444 19.1865C10.8395 18.6137 10.8198 18.5939 10.2716 18.505C9.57037 18.3915 8.87901 18.2334 8.23704 17.9223C7.73333 17.6754 7.67901 17.552 7.82222 17.0186C7.93086 16.6236 8.03951 16.2285 8.16296 15.8384C8.25185 15.552 8.3358 15.4236 8.48889 15.4236C8.57778 15.4236 8.69136 15.468 8.84445 15.547C9.55556 15.9174 10.3111 16.1248 11.1062 16.2236C11.2395 16.2384 11.3728 16.2483 11.5062 16.2483C11.8765 16.2483 12.237 16.1791 12.5877 16.026C13.4716 15.6409 13.6099 14.6186 12.8642 14.0063C12.6123 13.7989 12.321 13.6458 12.0198 13.5125C11.2444 13.1717 10.4395 12.9149 9.70864 12.4754C8.52346 11.7643 7.77284 10.7915 7.86173 9.34949C7.96049 7.71986 8.88395 6.70258 10.3802 6.15937C10.9975 5.93715 11.0025 5.94209 11.0025 5.30011C11.0025 5.08283 10.9975 4.86554 11.0074 4.64332C11.0222 4.15937 11.1012 4.07542 11.5852 4.0606C11.6395 4.0606 11.6988 4.0606 11.7531 4.0606C11.8469 4.0606 11.9407 4.0606 12.0346 4.0606C12.0741 4.0606 12.1136 4.0606 12.1481 4.0606C13.0667 4.0606 13.0667 4.10011 13.0716 5.0927C13.0765 5.82357 13.0765 5.82357 13.8025 5.93715C14.3605 6.02604 14.8889 6.189 15.4025 6.41616C15.684 6.53962 15.7926 6.73715 15.7037 7.03838C15.5753 7.48283 15.4519 7.93221 15.3136 8.37171C15.2247 8.63838 15.1407 8.76184 14.9827 8.76184C14.8938 8.76184 14.7852 8.72727 14.6469 8.65813C13.9358 8.31246 13.1901 8.14455 12.4099 8.14455C12.3111 8.14455 12.2074 8.14949 12.1086 8.15443C11.8765 8.16925 11.6494 8.19887 11.4321 8.2927C10.6617 8.6285 10.5383 9.47789 11.1951 10.0013C11.5259 10.268 11.9062 10.4557 12.2963 10.6186C12.9778 10.9001 13.6593 11.1717 14.3062 11.5273C16.3407 12.6631 16.8938 15.2458 15.4469 17.0038Z" fill="#EF4444"/>
</svg>
