<svg width="28" height="22" viewBox="0 0 28 22" fill="none" xmlns="http://www.w3.org/2000/svg">
<path d="M24.7915 0.772949H3.20834C1.43848 0.772949 -6.10352e-05 2.21149 -6.10352e-05 3.98135V18.5645C-6.10352e-05 20.3344 1.43848 21.7729 3.20834 21.7729H24.7915C26.5614 21.7729 27.9999 20.3344 27.9999 18.5645V3.98135C27.9999 2.21149 26.5614 0.772949 24.7915 0.772949ZM8.74994 5.43954C10.3577 5.43954 11.6665 6.74863 11.6665 8.35635C11.6665 9.96387 10.3577 11.2729 8.74994 11.2729C7.14221 11.2729 5.83334 9.96387 5.83334 8.35635C5.83334 6.74863 7.14221 5.43954 8.74994 5.43954ZM13.9999 16.2314C13.9999 16.7144 13.6079 17.1064 13.1249 17.1064H4.37494C3.89194 17.1064 3.49994 16.7144 3.49994 16.2314V15.6479C3.49994 13.8781 4.93848 12.4395 6.70834 12.4395H10.7915C12.5614 12.4395 13.9999 13.8781 13.9999 15.6479V16.2314ZM23.6249 17.1064H17.2083C16.7253 17.1064 16.3333 16.7144 16.3333 16.2314C16.3333 15.7484 16.7253 15.3564 17.2083 15.3564H23.6249C24.1079 15.3564 24.4999 15.7484 24.4999 16.2314C24.4999 16.7144 24.1079 17.1064 23.6249 17.1064ZM23.6249 12.4395H17.2083C16.7253 12.4395 16.3333 12.0475 16.3333 11.5645C16.3333 11.0815 16.7253 10.6895 17.2083 10.6895H23.6249C24.1079 10.6895 24.4999 11.0815 24.4999 11.5645C24.4999 12.0475 24.1079 12.4395 23.6249 12.4395ZM23.6249 7.77295H17.2083C16.7253 7.77295 16.3333 7.38095 16.3333 6.89795C16.3333 6.41495 16.7253 6.02295 17.2083 6.02295H23.6249C24.1079 6.02295 24.4999 6.41495 24.4999 6.89795C24.4999 7.38095 24.1079 7.77295 23.6249 7.77295Z" fill="#F59E0B"/>
</svg>
