<svg width="41" height="42" viewBox="0 0 41 42" fill="none" xmlns="http://www.w3.org/2000/svg">
<path d="M32.4583 5.25H8.54167C6.65469 5.25 5.125 6.817 5.125 8.75V33.25C5.125 35.183 6.65469 36.75 8.54167 36.75H32.4583C34.3453 36.75 35.875 35.183 35.875 33.25V8.75C35.875 6.817 34.3453 5.25 32.4583 5.25Z" stroke="#415362" stroke-width="1.09091" stroke-linecap="round" stroke-linejoin="round"/>
<path d="M14.521 17.5C15.9362 17.5 17.0835 16.3247 17.0835 14.875C17.0835 13.4253 15.9362 12.25 14.521 12.25C13.1058 12.25 11.9585 13.4253 11.9585 14.875C11.9585 16.3247 13.1058 17.5 14.521 17.5Z" stroke="#415362" stroke-width="1.09091" stroke-linecap="round" stroke-linejoin="round"/>
<path d="M35.8748 26.25L27.3332 17.5L8.5415 36.75" stroke="#415362" stroke-width="1.09091" stroke-linecap="round" stroke-linejoin="round"/>
</svg>
