<svg width="36" height="36" viewBox="0 0 36 36" fill="none" xmlns="http://www.w3.org/2000/svg">
<rect width="36" height="36" rx="18" fill="#EEF4FA"/>
<path d="M26.3084 23.2763C26.3084 23.5763 26.2417 23.8846 26.1001 24.1846C25.9584 24.4846 25.7751 24.768 25.5334 25.0346C25.1251 25.4846 24.6751 25.8096 24.1667 26.018C23.6667 26.2263 23.1251 26.3346 22.5417 26.3346C21.6917 26.3346 20.7834 26.1346 19.8251 25.7263C18.8667 25.318 17.9084 24.768 16.9584 24.0763C16.0001 23.3763 15.0917 22.6013 14.2251 21.743C13.3667 20.8763 12.5917 19.968 11.9001 19.018C11.2167 18.068 10.6667 17.118 10.2667 16.1763C9.86675 15.2263 9.66675 14.318 9.66675 13.4513C9.66675 12.8846 9.76675 12.343 9.96675 11.843C10.1667 11.3346 10.4834 10.868 10.9251 10.4513C11.4584 9.9263 12.0417 9.66797 12.6584 9.66797C12.8917 9.66797 13.1251 9.71797 13.3334 9.81797C13.5501 9.91797 13.7417 10.068 13.8917 10.2846L15.8251 13.0096C15.9751 13.218 16.0834 13.4096 16.1584 13.593C16.2334 13.768 16.2751 13.943 16.2751 14.1013C16.2751 14.3013 16.2167 14.5013 16.1001 14.693C15.9917 14.8846 15.8334 15.0846 15.6334 15.2846L15.0001 15.943C14.9084 16.0346 14.8667 16.143 14.8667 16.2763C14.8667 16.343 14.8751 16.4013 14.8917 16.468C14.9167 16.5346 14.9417 16.5846 14.9584 16.6346C15.1084 16.9096 15.3667 17.268 15.7334 17.7013C16.1084 18.1346 16.5084 18.5763 16.9417 19.018C17.3917 19.4596 17.8251 19.868 18.2667 20.243C18.7001 20.6096 19.0584 20.8596 19.3417 21.0096C19.3834 21.0263 19.4334 21.0513 19.4917 21.0763C19.5584 21.1013 19.6251 21.1096 19.7001 21.1096C19.8417 21.1096 19.9501 21.0596 20.0417 20.968L20.6751 20.343C20.8834 20.1346 21.0834 19.9763 21.2751 19.8763C21.4667 19.7596 21.6584 19.7013 21.8667 19.7013C22.0251 19.7013 22.1917 19.7346 22.3751 19.8096C22.5584 19.8846 22.7501 19.993 22.9584 20.1346L25.7167 22.093C25.9334 22.243 26.0834 22.418 26.1751 22.6263C26.2584 22.8346 26.3084 23.043 26.3084 23.2763Z" stroke="#5090CC" stroke-width="1.5" stroke-miterlimit="10"/>
</svg>
