<svg width="15" height="14" viewBox="0 0 15 14" fill="none" xmlns="http://www.w3.org/2000/svg">
<path d="M9.25 1.75H3.41667C2.77233 1.75 2.25 2.27233 2.25 2.91667V11.0833C2.25 11.7277 2.77233 12.25 3.41667 12.25H11.5833C12.2277 12.25 12.75 11.7277 12.75 11.0833V5.54167" stroke="#415362" stroke-linecap="round" stroke-linejoin="round"/>
<path d="M5.4585 5.83325C5.94175 5.83325 6.3335 5.4415 6.3335 4.95825C6.3335 4.475 5.94175 4.08325 5.4585 4.08325C4.97525 4.08325 4.5835 4.475 4.5835 4.95825C4.5835 5.4415 4.97525 5.83325 5.4585 5.83325Z" stroke="#415362" stroke-linecap="round" stroke-linejoin="round"/>
<path d="M12.7498 8.74992L9.83317 5.83325L3.4165 12.2499" stroke="#415362" stroke-linecap="round" stroke-linejoin="round"/>
<path d="M11.5835 4.66667V1.75" stroke="#415362" stroke-linecap="round" stroke-linejoin="round"/>
<path d="M10.125 3.20833L11.5833 1.75L13.0417 3.20833" stroke="#415362" stroke-linecap="round" stroke-linejoin="round"/>
</svg>
