<svg width="15" height="14" viewBox="0 0 15 14" fill="none" xmlns="http://www.w3.org/2000/svg">
<path d="M2.25 3.5H3.41667H12.75" stroke="#EF4444" stroke-linecap="round" stroke-linejoin="round"/>
<path d="M11.5832 3.50008V11.6667C11.5832 11.9762 11.4603 12.2729 11.2415 12.4917C11.0227 12.7105 10.7259 12.8334 10.4165 12.8334H4.58317C4.27375 12.8334 3.97701 12.7105 3.75821 12.4917C3.53942 12.2729 3.4165 11.9762 3.4165 11.6667V3.50008M5.1665 3.50008V2.33341C5.1665 2.024 5.28942 1.72725 5.50821 1.50846C5.72701 1.28966 6.02375 1.16675 6.33317 1.16675H8.6665C8.97592 1.16675 9.27267 1.28966 9.49146 1.50846C9.71025 1.72725 9.83317 2.024 9.83317 2.33341V3.50008" stroke="#EF4444" stroke-linecap="round" stroke-linejoin="round"/>
<path d="M6.3335 6.41675V9.91675" stroke="#EF4444" stroke-linecap="round" stroke-linejoin="round"/>
<path d="M8.6665 6.41675V9.91675" stroke="#EF4444" stroke-linecap="round" stroke-linejoin="round"/>
</svg>
