<svg width="17" height="17" viewBox="0 0 17 17" fill="none" xmlns="http://www.w3.org/2000/svg">
<circle cx="8.5" cy="8.5" r="8.5" fill="#EBEFF4"/>
<path d="M8.5 3C7.4122 3 6.34884 3.32257 5.44437 3.92692C4.5399 4.53126 3.83495 5.39025 3.41866 6.39524C3.00238 7.40023 2.89346 8.5061 3.10568 9.573C3.3179 10.6399 3.84173 11.6199 4.61091 12.3891C5.3801 13.1583 6.36011 13.6821 7.427 13.8943C8.4939 14.1065 9.59977 13.9976 10.6048 13.5813C11.6098 13.1651 12.4687 12.4601 13.0731 11.5556C13.6774 10.6512 14 9.5878 14 8.5C13.9985 7.04178 13.4185 5.64373 12.3874 4.61261C11.3563 3.5815 9.95822 3.00154 8.5 3ZM8.5 13.1538C7.57956 13.1538 6.67978 12.8809 5.91446 12.3695C5.14914 11.8582 4.55265 11.1313 4.20041 10.2809C3.84817 9.43057 3.75601 8.49484 3.93558 7.59208C4.11515 6.68932 4.55838 5.86009 5.20924 5.20923C5.86009 4.55838 6.68932 4.11515 7.59208 3.93558C8.49484 3.75601 9.43057 3.84817 10.281 4.20041C11.1313 4.55265 11.8582 5.14914 12.3695 5.91446C12.8809 6.67978 13.1538 7.57956 13.1538 8.5C13.1524 9.73385 12.6617 10.9168 11.7892 11.7892C10.9168 12.6617 9.73385 13.1524 8.5 13.1538ZM9.34616 11.0385C9.34616 11.1507 9.30158 11.2583 9.22224 11.3376C9.1429 11.417 9.03528 11.4615 8.92308 11.4615C8.69866 11.4615 8.48344 11.3724 8.32476 11.2137C8.16607 11.055 8.07692 10.8398 8.07692 10.6154V8.5C7.96472 8.5 7.85711 8.45542 7.77776 8.37608C7.69842 8.29674 7.65385 8.18913 7.65385 8.07692C7.65385 7.96472 7.69842 7.8571 7.77776 7.77776C7.85711 7.69842 7.96472 7.65385 8.07692 7.65385C8.30134 7.65385 8.51656 7.74299 8.67525 7.90168C8.83393 8.06036 8.92308 8.27559 8.92308 8.5V10.6154C9.03528 10.6154 9.1429 10.66 9.22224 10.7393C9.30158 10.8186 9.34616 10.9263 9.34616 11.0385ZM7.65385 6.17308C7.65385 6.04756 7.69107 5.92487 7.7608 5.8205C7.83053 5.71614 7.92965 5.6348 8.04561 5.58677C8.16157 5.53874 8.28917 5.52617 8.41227 5.55065C8.53537 5.57514 8.64845 5.63558 8.7372 5.72434C8.82596 5.81309 8.8864 5.92617 8.91088 6.04927C8.93537 6.17237 8.9228 6.29997 8.87477 6.41593C8.82674 6.53189 8.7454 6.63101 8.64104 6.70074C8.53667 6.77047 8.41398 6.80769 8.28846 6.80769C8.12015 6.80769 7.95874 6.74083 7.83972 6.62182C7.72071 6.5028 7.65385 6.34139 7.65385 6.17308Z" fill="#98AABC"/>
</svg>
