<svg width="23" height="17" viewBox="0 0 23 17" fill="none" xmlns="http://www.w3.org/2000/svg">
<path d="M20.1904 11.96L19.7031 14.8545C19.6138 15.3866 19.1158 15.8203 18.4844 15.8203H3.75C3.15789 15.8203 2.68317 15.4393 2.55273 14.9531L2.53125 14.8545L2.04395 11.96H20.1904ZM11.1172 0.650391C11.3246 0.650391 11.5154 0.736443 11.6406 0.873047L15.7725 5.37402L16.1318 5.76465L16.5859 5.49121L20.5293 3.125L20.5283 3.12402C20.7608 2.98502 21.0633 2.98964 21.292 3.13281C21.5154 3.27291 21.6131 3.50942 21.5762 3.72852L20.4092 10.6602H1.8252L0.658203 3.72852C0.621212 3.50926 0.719625 3.27287 0.943359 3.13281C1.17196 2.98982 1.47266 2.98621 1.70508 3.125L5.64844 5.49121L6.10254 5.76465L6.46191 5.37402L10.5938 0.873047C10.719 0.736442 10.9098 0.650391 11.1172 0.650391Z" fill="#FFDA9C" stroke="#F59E0B" stroke-width="1.3"/>
</svg>
