<svg width="12" height="11" viewBox="0 0 12 11" fill="none" xmlns="http://www.w3.org/2000/svg">
<path fill-rule="evenodd" clip-rule="evenodd" d="M11.3788 4.27013H8.75963C8.54807 4.27013 8.3748 4.4434 8.3748 4.65593V9.77849C8.3748 9.99005 8.54807 10.1643 8.75963 10.1643H11.3788C11.5904 10.1643 11.7637 9.99101 11.7637 9.77849V4.65593C11.7637 4.4434 11.5904 4.27013 11.3788 4.27013ZM5.72688 0.427488C5.52393 -0.601619 3.83906 0.346117 3.72802 2.00513C3.69451 2.51251 3.74716 3.10317 3.87161 3.76276H1.46398C0.462633 3.802 -0.411391 4.51903 0.206074 5.69652C0.0653496 6.20964 0.0442886 6.81179 0.426255 7.0492C0.378389 7.85908 0.6024 8.36071 1.0217 8.75704C1.04946 9.16198 1.13562 9.52193 1.33091 9.79859C1.65448 10.2552 1.91679 10.1461 2.42607 10.1461H6.49177C7.13604 10.1461 7.48737 9.96899 7.90859 9.44056V4.91248C6.69663 4.58508 6.05236 2.92702 5.72688 1.83856V0.427488Z" fill="#415362"/>
</svg>
