<svg width="61" height="60" viewBox="0 0 61 60" fill="none" xmlns="http://www.w3.org/2000/svg">
<rect x="0.5" width="60" height="60" rx="30" fill="#F8F9FA"/>
<path d="M22.8346 28.668H20.168V39.3346H22.8346V28.668Z" fill="#ABADD4"/>
<path d="M24.1654 26V28.6667C24.1654 28.8435 24.0951 29.013 23.9701 29.1381C23.8451 29.2631 23.6755 29.3333 23.4987 29.3333H19.4987C19.3219 29.3333 19.1523 29.2631 19.0273 29.1381C18.9023 29.013 18.832 28.8435 18.832 28.6667V26H24.1654ZM24.1654 42V39.3333C24.1654 39.1565 24.0951 38.987 23.9701 38.8619C23.8451 38.7369 23.6755 38.6667 23.4987 38.6667H19.4987C19.3219 38.6667 19.1523 38.7369 19.0273 38.8619C18.9023 38.987 18.832 39.1565 18.832 39.3333V42H24.1654Z" fill="#565CA9"/>
<path d="M32.1667 28.668H29.5V39.3346H32.1667V28.668Z" fill="#ABADD4"/>
<path d="M33.5013 26V28.6667C33.5013 28.8435 33.4311 29.013 33.306 29.1381C33.181 29.2631 33.0114 29.3333 32.8346 29.3333H28.8346C28.6578 29.3333 28.4883 29.2631 28.3632 29.1381C28.2382 29.013 28.168 28.8435 28.168 28.6667V26H33.5013ZM33.5013 42V39.3333C33.5013 39.1565 33.4311 38.987 33.306 38.8619C33.181 38.7369 33.0114 38.6667 32.8346 38.6667H28.8346C28.6578 38.6667 28.4883 38.7369 28.3632 38.8619C28.2382 38.987 28.168 39.1565 28.168 39.3333V42H33.5013Z" fill="#565CA9"/>
<path d="M41.4987 28.668H38.832V39.3346H41.4987V28.668Z" fill="#ABADD4"/>
<path d="M42.8333 26V28.6667C42.8333 28.8435 42.7631 29.013 42.6381 29.1381C42.513 29.2631 42.3435 29.3333 42.1667 29.3333H38.1667C37.9899 29.3333 37.8203 29.2631 37.6953 29.1381C37.5702 29.013 37.5 28.8435 37.5 28.6667V26H42.8333ZM42.8333 42V39.3333C42.8333 39.1565 42.7631 38.987 42.6381 38.8619C42.513 38.7369 42.3435 38.6667 42.1667 38.6667H38.1667C37.9899 38.6667 37.8203 38.7369 37.6953 38.8619C37.5702 38.987 37.5 39.1565 37.5 39.3333V42H42.8333Z" fill="#565CA9"/>
<path d="M44.1654 41.332H17.4987C17.1305 41.332 16.832 41.6305 16.832 41.9987V43.332C16.832 43.7002 17.1305 43.9987 17.4987 43.9987H44.1654C44.5336 43.9987 44.832 43.7002 44.832 43.332V41.9987C44.832 41.6305 44.5336 41.332 44.1654 41.332Z" fill="#2E348E"/>
<path d="M30.832 16L16.832 26.6667H44.832L30.832 16Z" fill="#2E348E"/>
<path d="M30.832 24C31.9366 24 32.832 23.1046 32.832 22C32.832 20.8954 31.9366 20 30.832 20C29.7275 20 28.832 20.8954 28.832 22C28.832 23.1046 29.7275 24 30.832 24Z" fill="#F4F5F6"/>
</svg>
