<svg width="8" height="11" viewBox="0 0 8 11" fill="none" xmlns="http://www.w3.org/2000/svg">
<path d="M6.83247 4.26873V2.90247C6.83247 1.30265 5.56319 0 4.00005 0C2.43884 0 1.16762 1.30265 1.16762 2.90247V4.26873C0.514127 4.3247 0 4.89013 0 5.57324V7.20208C1.12995e-08 9.29594 1.66101 11 3.70433 11H4.29567C6.33899 11 8 9.29594 8 7.20208V5.57324C8 4.89009 7.48597 4.32468 6.83247 4.26873ZM2.39364 2.90247C2.48168 0.721295 5.51847 0.721789 5.60646 2.90247V4.26305H2.39364L2.39364 2.90247ZM3.55185 7.78307C2.89082 7.34114 3.21333 6.26094 4.00007 6.26811C4.7868 6.26135 5.10978 7.34061 4.44829 7.78307C4.39745 7.81781 4.36543 7.87956 4.36543 7.94325V8.62063C4.35319 9.1137 3.64744 9.11467 3.63473 8.62063V7.94325C3.63473 7.87957 3.6027 7.81782 3.55185 7.78307Z" fill="#4F91CD"/>
</svg>
