<svg width="48" height="48" viewBox="0 0 48 48" fill="none" xmlns="http://www.w3.org/2000/svg">
<rect width="48" height="48" rx="24" fill="#ECEEEF"/>
<path d="M34.6676 18.4145L24.1676 13.1645C24.1156 13.1385 24.0582 13.125 24 13.125C23.9418 13.125 23.8844 13.1385 23.8324 13.1645L13.3324 18.4145C13.27 18.4457 13.2176 18.4936 13.181 18.5529C13.1444 18.6122 13.125 18.6805 13.125 18.7502V29.2502C13.1246 29.3202 13.1438 29.3889 13.1805 29.4485C13.2171 29.5082 13.2698 29.5564 13.3324 29.5877L23.8324 34.8377C23.8844 34.8637 23.9418 34.8772 24 34.8772C24.0582 34.8772 24.1156 34.8637 24.1676 34.8377L34.6676 29.5877C34.7303 29.5564 34.7829 29.5082 34.8195 29.4485C34.8562 29.3889 34.8754 29.3202 34.875 29.2502V18.7502C34.875 18.6805 34.8557 18.6122 34.819 18.5529C34.7824 18.4936 34.73 18.4457 34.6676 18.4145ZM24 23.5809L21.0686 22.115L30.4384 17.1377L33.6634 18.7502L24 23.5809ZM18.0686 20.615L27.4384 15.6377L29.6134 16.7252L20.2448 21.7033L18.0686 20.615ZM17.625 21.2319L19.875 22.3569V25.3449L19.0151 24.485C18.9448 24.4147 18.8495 24.3752 18.75 24.3752H17.625V21.2319ZM24 13.9194L26.6145 15.2252L17.2448 20.2033L14.3385 18.7502L24 13.9194ZM13.875 19.3569L16.875 20.8569V24.7502C16.875 24.8496 16.9145 24.945 16.9848 25.0153C17.0552 25.0857 17.1505 25.1252 17.25 25.1252H18.5948L19.9849 26.5153C20.0373 26.5677 20.1041 26.6034 20.1769 26.6179C20.2496 26.6324 20.325 26.6249 20.3935 26.5966C20.462 26.5682 20.5206 26.5201 20.5618 26.4585C20.603 26.3968 20.625 26.3243 20.625 26.2502V22.7319L23.625 24.2319V33.8934L13.875 29.0184V19.3569ZM24.375 33.8934V24.2319L34.125 19.3569V29.0184L24.375 33.8934Z" fill="#101B25"/>
</svg>
