<svg width="24" height="24" viewBox="0 0 24 24" fill="none" xmlns="http://www.w3.org/2000/svg">
<path d="M20.6376 15.5088L20.1815 18.3574C20.0986 18.8771 19.6496 19.2598 19.1239 19.2598H4.87592C4.35032 19.2596 3.90212 18.8771 3.81922 18.3574L3.36222 15.5088H20.6376ZM11.9999 4C12.1539 4 12.3016 4.0672 12.4032 4.1836H12.4042L16.4003 8.7637L16.8222 9.248L17.3651 8.9053L21.1767 6.4971L21.1776 6.498C21.356 6.3857 21.5838 6.3871 21.7597 6.5029C21.9352 6.6186 22.0273 6.8273 21.994 7.0351L20.8778 14.0088H3.12202L2.00672 7.0351C1.97348 6.8273 2.06552 6.6186 2.24112 6.5029C2.41682 6.3874 2.64402 6.385 2.82222 6.4971L6.63472 8.9053L7.17762 9.248L7.60052 8.7637L11.5966 4.1836C11.6981 4.0671 11.8459 4.0001 11.9999 4Z" stroke="#415362" stroke-width="1.5"/>
</svg>
