<svg width="135" height="42" fill="none" xmlns="http://www.w3.org/2000/svg"><rect width="135" height="42" rx="20" fill="#000"></rect><path d="M48.971 12.104c0 .767-.22 1.381-.653 1.84-.499.543-1.148.816-1.944.816-.76 0-1.41-.278-1.943-.826-.533-.555-.8-1.238-.8-2.054 0-.817.267-1.499.8-2.05A2.602 2.602 0 0 1 46.374 9c.379 0 .74.082 1.084.233.343.153.623.36.825.614l-.46.485c-.353-.435-.834-.65-1.449-.65-.555 0-1.036.202-1.444.61-.404.409-.606.938-.606 1.588 0 .65.202 1.184.606 1.593.408.403.89.61 1.444.61.589 0 1.084-.207 1.475-.615.257-.27.404-.642.442-1.117h-1.917v-.664h2.558c.03.144.04.283.04.417ZM53.029 9.804h-2.403v1.745h2.166v.664h-2.166v1.745h2.403v.677h-3.083V9.127h3.083v.677ZM55.893 14.635h-.68V9.804h-1.474v-.677h3.628v.677h-1.474v4.83ZM59.993 14.635V9.127h.68v5.508h-.68ZM63.682 14.635h-.675V9.804h-1.48v-.677h3.634v.677h-1.48v4.83ZM72.031 13.925a2.541 2.541 0 0 1-1.934.835c-.774 0-1.419-.278-1.94-.835-.519-.556-.778-1.238-.778-2.045 0-.807.259-1.49.778-2.045.521-.557 1.166-.835 1.94-.835.765 0 1.41.278 1.93.84.524.56.783 1.237.783 2.04 0 .807-.259 1.49-.779 2.045Zm-3.37-.462c.391.413.868.62 1.436.62.563 0 1.044-.207 1.431-.62.391-.412.59-.941.59-1.583s-.199-1.171-.59-1.584a1.893 1.893 0 0 0-1.431-.618c-.568 0-1.045.206-1.436.618-.391.413-.59.942-.59 1.584 0 .642.199 1.171.59 1.583ZM73.764 14.635V9.127h.825l2.567 4.284h.03l-.03-1.06V9.128h.679v5.508h-.71l-2.687-4.495h-.03l.03 1.064v3.43h-.674Z" fill="#fff" stroke="#fff" stroke-width="0.151" stroke-miterlimit="10"></path><path d="M67.211 22.678c-2.068 0-3.757 1.642-3.757 3.907 0 2.248 1.69 3.907 3.757 3.907 2.073 0 3.762-1.66 3.762-3.907 0-2.265-1.69-3.907-3.762-3.907Zm0 6.275c-1.134 0-2.11-.977-2.11-2.368 0-1.409.976-2.369 2.11-2.369 1.135 0 2.116.96 2.116 2.37 0 1.39-.981 2.367-2.116 2.367Zm-8.198-6.275c-2.072 0-3.757 1.642-3.757 3.907 0 2.248 1.685 3.907 3.757 3.907s3.758-1.66 3.758-3.907c0-2.265-1.687-3.907-3.758-3.907Zm0 6.275c-1.136 0-2.115-.977-2.115-2.368 0-1.409.98-2.369 2.115-2.369 1.135 0 2.111.96 2.111 2.37 0 1.39-.976 2.367-2.11 2.367Zm-9.755-5.078v1.66h3.8c-.111.929-.408 1.61-.864 2.086-.555.574-1.419 1.212-2.936 1.212-2.339 0-4.17-1.97-4.17-4.41 0-2.44 1.831-4.41 4.17-4.41 1.264 0 2.184.516 2.863 1.184l1.122-1.17c-.95-.946-2.213-1.673-3.985-1.673-3.207 0-5.903 2.723-5.903 6.069s2.696 6.069 5.903 6.069c1.733 0 3.035-.593 4.059-1.704 1.048-1.095 1.375-2.633 1.375-3.876 0-.386-.03-.74-.085-1.037h-5.35Zm39.89 1.288c-.308-.874-1.263-2.485-3.206-2.485-1.926 0-3.53 1.583-3.53 3.907 0 2.189 1.587 3.907 3.715 3.907 1.72 0 2.713-1.095 3.121-1.732l-1.277-.887c-.426.65-1.006 1.08-1.844 1.08-.833 0-1.431-.398-1.814-1.184l5.009-2.162-.173-.444Zm-5.106 1.3c-.043-1.506 1.122-2.278 1.956-2.278.654 0 1.208.341 1.393.83l-3.349 1.449Zm-4.07 3.791h1.646V18.771H79.97v11.483Zm-2.697-6.706h-.055c-.37-.457-1.075-.87-1.969-.87-1.875 0-3.59 1.717-3.59 3.92 0 2.19 1.715 3.894 3.59 3.894.894 0 1.6-.417 1.969-.888h.055v.56c0 1.495-.765 2.297-1.999 2.297-1.006 0-1.63-.758-1.887-1.395l-1.432.624c.413 1.035 1.506 2.31 3.32 2.31 1.93 0 3.558-1.185 3.558-4.069v-7.016h-1.56v.633Zm-1.883 5.405c-1.135 0-2.085-.99-2.085-2.355 0-1.377.95-2.382 2.085-2.382 1.118 0 2 1.005 2 2.382 0 1.364-.882 2.355-2 2.355Zm21.465-10.182H92.92v11.483h1.642v-4.35h2.296c1.824 0 3.612-1.378 3.612-3.567 0-2.19-1.792-3.566-3.612-3.566Zm.043 5.535h-2.339v-3.938h2.34c1.225 0 1.925 1.063 1.925 1.969 0 .888-.7 1.969-1.926 1.969Zm10.151-1.65c-1.187 0-2.42.546-2.928 1.758l1.457.637c.314-.637.891-.844 1.5-.844.852 0 1.716.534 1.729 1.477v.12c-.297-.179-.933-.444-1.715-.444-1.57 0-3.169.902-3.169 2.584 0 1.539 1.286 2.53 2.731 2.53 1.105 0 1.714-.52 2.097-1.126h.056v.888h1.586V25.83c0-2.036-1.457-3.175-3.344-3.175Zm-.198 6.293c-.537 0-1.286-.278-1.286-.973 0-.889.933-1.23 1.741-1.23.723 0 1.062.167 1.501.386-.128 1.063-1.005 1.817-1.956 1.817Zm9.32-6.042-1.887 4.978h-.056l-1.952-4.978h-1.77l2.932 6.957-1.673 3.87h1.715L118 22.908h-1.827Zm-14.801 7.347h1.646V18.771h-1.646v11.483Z" fill="#fff"></path><path d="M16.408 9.62c-.258.282-.408.722-.408 1.291v20.316c0 .57.15 1.01.408 1.292l.064.062 10.911-11.38v-.268l-10.91-11.38-.065.066Z" fill="url(#googlePlayButton_svg__a)"></path><path d="m31.017 24.995-3.633-3.796v-.268l3.637-3.796.082.05 4.307 2.557c1.23.726 1.23 1.92 0 2.65l-4.307 2.553-.086.05Z" fill="url(#googlePlayButton_svg__b)"></path><path d="m31.102 24.95-3.719-3.88-10.975 11.452c.409.447 1.074.502 1.831.054l12.863-7.626Z" fill="url(#googlePlayButton_svg__c)"></path><path d="M31.102 17.189 18.239 9.563c-.757-.444-1.422-.39-1.83.058L27.382 21.07l3.719-3.88Z" fill="url(#googlePlayButton_svg__d)"></path><defs><linearGradient id="googlePlayButton_svg__a" x1="26.414" y1="31.439" x2="11.011" y2="16.676" gradientUnits="userSpaceOnUse"><stop stop-color="#00A0FF"></stop><stop offset="0.007" stop-color="#00A1FF"></stop><stop offset="0.26" stop-color="#00BEFF"></stop><stop offset="0.512" stop-color="#00D2FF"></stop><stop offset="0.76" stop-color="#00DFFF"></stop><stop offset="1" stop-color="#00E3FF"></stop></linearGradient><linearGradient id="googlePlayButton_svg__b" x1="37.011" y1="21.064" x2="15.707" y2="21.064" gradientUnits="userSpaceOnUse"><stop stop-color="#FFE000"></stop><stop offset="0.409" stop-color="#FFBD00"></stop><stop offset="0.775" stop-color="orange"></stop><stop offset="1" stop-color="#FF9C00"></stop></linearGradient><linearGradient id="googlePlayButton_svg__c" x1="29.08" y1="18.96" x2="8.192" y2="-1.059" gradientUnits="userSpaceOnUse"><stop stop-color="#FF3A44"></stop><stop offset="1" stop-color="#C31162"></stop></linearGradient><linearGradient id="googlePlayButton_svg__d" x1="13.646" y1="39.28" x2="22.973" y2="30.34" gradientUnits="userSpaceOnUse"><stop stop-color="#32A071"></stop><stop offset="0.069" stop-color="#2DA771"></stop><stop offset="0.476" stop-color="#15CF74"></stop><stop offset="0.801" stop-color="#06E775"></stop><stop offset="1" stop-color="#00F076"></stop></linearGradient></defs></svg>