<svg width="50" height="50" viewBox="0 0 50 50" fill="none" xmlns="http://www.w3.org/2000/svg">
<path d="M0.5 5.75V17.2344C0.5 20.1294 2.85498 22.4844 5.75 22.4844H17.2344C20.1294 22.4844 22.4844 20.1294 22.4844 17.2344V5.75C22.4844 2.85498 20.1294 0.5 17.2344 0.5H5.75C2.85498 0.5 0.5 2.85498 0.5 5.75ZM4 5.75C4 4.78442 4.78528 4 5.75 4H17.2344C18.1991 4 18.9844 4.78442 18.9844 5.75V17.2344C18.9844 18.2 18.1991 18.9844 17.2344 18.9844H5.75C4.78528 18.9844 4 18.2 4 17.2344V5.75Z" fill="#101B25"/>
<path d="M0.5 44.25C0.5 47.145 2.85498 49.5 5.75 49.5H17.2344C20.1294 49.5 22.4844 47.145 22.4844 44.25V32.7656C22.4844 29.8706 20.1294 27.5156 17.2344 27.5156H5.75C2.85498 27.5156 0.5 29.8706 0.5 32.7656V44.25ZM4 32.7656C4 31.8 4.78528 31.0156 5.75 31.0156H17.2344C18.1991 31.0156 18.9844 31.8 18.9844 32.7656V44.25C18.9844 45.2156 18.1991 46 17.2344 46H5.75C4.78528 46 4 45.2156 4 44.25V32.7656Z" fill="#101B25"/>
<path d="M44.25 27.5156H32.7656C29.8706 27.5156 27.5156 29.8706 27.5156 32.7656V44.25C27.5156 47.145 29.8706 49.5 32.7656 49.5H44.25C47.145 49.5 49.5 47.145 49.5 44.25V32.7656C49.5 29.8706 47.145 27.5156 44.25 27.5156ZM46 44.25C46 45.2156 45.2147 46 44.25 46H32.7656C31.8009 46 31.0156 45.2156 31.0156 44.25V32.7656C31.0156 31.8 31.8009 31.0156 32.7656 31.0156H44.25C45.2147 31.0156 46 31.8 46 32.7656V44.25Z" fill="#101B25"/>
<path d="M47.75 9.74219H40.2578V2.25C40.2578 1.28271 39.4743 0.5 38.5078 0.5C37.5414 0.5 36.7578 1.28271 36.7578 2.25V9.74219H29.2656C28.2992 9.74219 27.5156 10.5249 27.5156 11.4922C27.5156 12.4595 28.2992 13.2422 29.2656 13.2422H36.7578V20.7344C36.7578 21.7017 37.5414 22.4844 38.5078 22.4844C39.4743 22.4844 40.2578 21.7017 40.2578 20.7344V13.2422H47.75C48.7164 13.2422 49.5 12.4595 49.5 11.4922C49.5 10.5249 48.7164 9.74219 47.75 9.74219Z" fill="#101B25"/>
</svg>
