<svg width="68" height="69" viewBox="0 0 68 69" fill="none" xmlns="http://www.w3.org/2000/svg">
<path d="M62.9362 0H5.06383C3.72082 0 2.43281 0.541355 1.48316 1.50497C0.533509 2.46859 0 3.77554 0 5.1383V63.8617C0 65.2245 0.533509 66.5314 1.48316 67.495C2.43281 68.4586 3.72082 69 5.06383 69H62.9362C64.2792 69 65.5672 68.4586 66.5168 67.495C67.4665 66.5314 68 65.2245 68 63.8617V5.1383C68 3.77554 67.4665 2.46859 66.5168 1.50497C65.5672 0.541355 64.2792 0 62.9362 0ZM4.34043 63.8617V5.1383C4.34043 4.94362 4.41664 4.75691 4.55231 4.61925C4.68797 4.48159 4.87197 4.40426 5.06383 4.40426H62.9362C63.128 4.40426 63.312 4.48159 63.4477 4.61925C63.5834 4.75691 63.6596 4.94362 63.6596 5.1383V35.3074L53.4957 24.9941C53.0255 24.517 52.4673 24.1384 51.8529 23.8802C51.2384 23.6219 50.5799 23.489 49.9149 23.489C49.2499 23.489 48.5913 23.6219 47.9769 23.8802C47.3625 24.1384 46.8043 24.517 46.334 24.9941L7.30638 64.5957H5.06383C4.87197 64.5957 4.68797 64.5184 4.55231 64.3807C4.41664 64.2431 4.34043 64.0564 4.34043 63.8617ZM62.9362 64.5957H13.4445L49.4013 28.1102C49.4685 28.0419 49.5482 27.9878 49.6361 27.9508C49.7239 27.9139 49.818 27.8949 49.9131 27.8949C50.0081 27.8949 50.1023 27.9139 50.1901 27.9508C50.2779 27.9878 50.3577 28.0419 50.4249 28.1102L63.6596 41.5358V63.8617C63.6596 64.0564 63.5834 64.2431 63.4477 64.3807C63.312 64.5184 63.128 64.5957 62.9362 64.5957ZM22.4255 30.8298C23.9994 30.8298 25.5379 30.3562 26.8465 29.469C28.155 28.5818 29.175 27.3207 29.7773 25.8453C30.3795 24.3699 30.5371 22.7464 30.2301 21.1801C29.923 19.6138 29.1652 18.175 28.0523 17.0458C26.9394 15.9166 25.5215 15.1476 23.978 14.836C22.4344 14.5244 20.8344 14.6843 19.3803 15.2955C17.9263 15.9066 16.6835 16.9415 15.8092 18.2694C14.9348 19.5972 14.4681 21.1583 14.4681 22.7553C14.4681 24.8968 15.3065 26.9506 16.7988 28.4648C18.2911 29.9791 20.3151 30.8298 22.4255 30.8298ZM22.4255 19.0851C23.1409 19.0851 23.8402 19.3004 24.435 19.7036C25.0299 20.1069 25.4935 20.6801 25.7672 21.3508C26.041 22.0214 26.1126 22.7594 25.9731 23.4713C25.8335 24.1833 25.489 24.8373 24.9832 25.3506C24.4773 25.8638 23.8328 26.2134 23.1312 26.355C22.4295 26.4966 21.7023 26.4239 21.0414 26.1462C20.3804 25.8684 19.8155 25.3979 19.4181 24.7944C19.0206 24.1908 18.8085 23.4812 18.8085 22.7553C18.8085 21.7819 19.1896 20.8484 19.8679 20.1601C20.5462 19.4718 21.4662 19.0851 22.4255 19.0851Z" fill="#858F97" fill-opacity="0.4"/>
</svg>
