<svg width="20" height="20" viewBox="0 0 20 20" fill="none" xmlns="http://www.w3.org/2000/svg">
<path d="M15 6.66797C15 5.34189 14.4732 4.07012 13.5355 3.13243C12.5979 2.19475 11.3261 1.66797 10 1.66797C8.67392 1.66797 7.40215 2.19475 6.46447 3.13243C5.52678 4.07012 5 5.34189 5 6.66797C5 12.5013 2.5 14.168 2.5 14.168H17.5C17.5 14.168 15 12.5013 15 6.66797Z" stroke="#415362" stroke-width="1.25" stroke-linecap="round" stroke-linejoin="round"/>
<path d="M11.4409 17.5C11.2944 17.7526 11.0842 17.9622 10.8311 18.1079C10.5781 18.2537 10.2913 18.3304 9.99928 18.3304C9.7073 18.3304 9.42044 18.2537 9.16743 18.1079C8.91441 17.9622 8.70413 17.7526 8.55762 17.5" stroke="#415362" stroke-width="1.25" stroke-linecap="round" stroke-linejoin="round"/>
</svg>
