<svg width="15" height="15" viewBox="0 0 15 15" fill="none" xmlns="http://www.w3.org/2000/svg">
<path d="M10.1647 5.45882L8.12353 7.5L10.1647 9.54117C10.2081 9.58156 10.2428 9.63027 10.2669 9.68439C10.291 9.7385 10.304 9.79692 10.3051 9.85616C10.3061 9.9154 10.2952 9.97424 10.273 10.0292C10.2508 10.0841 10.2178 10.134 10.1759 10.1759C10.134 10.2178 10.0841 10.2508 10.0292 10.273C9.97424 10.2952 9.9154 10.3061 9.85616 10.3051C9.79693 10.304 9.73851 10.291 9.68439 10.2669C9.63027 10.2428 9.58157 10.208 9.54118 10.1647L7.5 8.12353L5.45883 10.1647C5.37519 10.2426 5.26458 10.2851 5.15028 10.283C5.03599 10.281 4.92694 10.2347 4.84611 10.1539C4.76528 10.0731 4.71897 9.96401 4.71696 9.84972C4.71494 9.73542 4.75737 9.62481 4.8353 9.54117L6.87647 7.5L4.8353 5.45882C4.75737 5.37519 4.71494 5.26457 4.71696 5.15028C4.71897 5.03598 4.76528 4.92693 4.84611 4.8461C4.92694 4.76527 5.03599 4.71897 5.15028 4.71695C5.26458 4.71494 5.37519 4.75736 5.45883 4.83529L7.5 6.87647L9.54118 4.83529C9.62481 4.75736 9.73542 4.71494 9.84972 4.71695C9.96401 4.71897 10.0731 4.76527 10.1539 4.8461C10.2347 4.92693 10.281 5.03598 10.283 5.15028C10.2851 5.26457 10.2426 5.37519 10.1647 5.45882ZM15 7.5C15 8.98336 14.5601 10.4334 13.736 11.6668C12.9119 12.9001 11.7406 13.8614 10.3701 14.4291C8.99968 14.9967 7.49168 15.1453 6.03682 14.8559C4.58197 14.5665 3.2456 13.8522 2.1967 12.8033C1.14781 11.7544 0.433503 10.418 0.144114 8.96317C-0.145275 7.50832 0.0032495 6.00032 0.570907 4.62987C1.13856 3.25943 2.09986 2.08809 3.33323 1.26398C4.56659 0.439867 6.01664 0 7.5 0C9.48841 0.00233518 11.3947 0.793261 12.8007 2.19928C14.2067 3.60529 14.9977 5.51159 15 7.5ZM14.1176 7.5C14.1176 6.19115 13.7295 4.9117 13.0024 3.82343C12.2752 2.73517 11.2417 1.88696 10.0325 1.38609C8.82325 0.885217 7.49266 0.754166 6.20896 1.00951C4.92527 1.26485 3.74611 1.89512 2.82062 2.82062C1.89513 3.74611 1.26486 4.92526 1.00951 6.20896C0.754169 7.49266 0.88522 8.82325 1.38609 10.0325C1.88697 11.2417 2.73517 12.2752 3.82343 13.0024C4.9117 13.7295 6.19115 14.1176 7.5 14.1176C9.25451 14.1157 10.9366 13.4179 12.1772 12.1772C13.4179 10.9366 14.1157 9.25451 14.1176 7.5Z" fill="#CD6B6B"/>
</svg>
