<svg width="24" height="24" viewBox="0 0 24 24" fill="none" xmlns="http://www.w3.org/2000/svg">
<path d="M18 8C18 6.4087 17.3679 4.8826 16.2426 3.7574C15.1174 2.6321 13.5913 2 12 2C10.4087 2 8.8826 2.6321 7.7574 3.7574C6.6321 4.8826 6 6.4087 6 8C6 15 3 17 3 17H21C21 17 18 15 18 8Z" stroke="#415362" stroke-width="1.5" stroke-linecap="round" stroke-linejoin="round"/>
<path d="M13.7295 21C13.5537 21.3031 13.3014 21.5547 12.9978 21.7295C12.6941 21.9044 12.3499 21.9965 11.9995 21.9965C11.6492 21.9965 11.3049 21.9044 11.0013 21.7295C10.6977 21.5547 10.4453 21.3031 10.2695 21" stroke="#415362" stroke-width="1.5" stroke-linecap="round" stroke-linejoin="round"/>
</svg>
