<svg width="44" height="44" viewBox="0 0 44 44" fill="none" xmlns="http://www.w3.org/2000/svg">
<path d="M33 14.6641C33 11.7467 31.8411 8.94879 29.7782 6.88589C27.7153 4.82299 24.9174 3.66406 22 3.66406C19.0826 3.66406 16.2847 4.82299 14.2218 6.88589C12.1589 8.94879 11 11.7467 11 14.6641C11 27.4974 5.5 31.1641 5.5 31.1641H38.5C38.5 31.1641 33 27.4974 33 14.6641Z" stroke="#101B25" stroke-width="2.75" stroke-linecap="round" stroke-linejoin="round"/>
<path d="M25.1715 38.5C24.8491 39.0556 24.3865 39.5169 23.8299 39.8375C23.2732 40.1581 22.6422 40.3268 21.9998 40.3268C21.3574 40.3268 20.7263 40.1581 20.1697 39.8375C19.6131 39.5169 19.1504 39.0556 18.8281 38.5" stroke="#101B25" stroke-width="2.75" stroke-linecap="round" stroke-linejoin="round"/>
</svg>
