<svg width="56" height="56" viewBox="0 0 56 56" fill="none" xmlns="http://www.w3.org/2000/svg">
<rect width="56" height="56" rx="28" fill="#F4F5F6"/>
<path d="M42.2235 20.5527L28.2235 13.5527C28.1541 13.5181 28.0776 13.5 28 13.5C27.9224 13.5 27.8459 13.5181 27.7765 13.5527L13.7765 20.5527C13.6934 20.5943 13.6235 20.6581 13.5747 20.7372C13.5258 20.8162 13.5 20.9073 13.5 21.0002V35.0002C13.4995 35.0936 13.5251 35.1852 13.574 35.2647C13.6229 35.3442 13.693 35.4085 13.7765 35.4502L27.7765 42.4502C27.8459 42.4849 27.9224 42.503 28 42.503C28.0776 42.503 28.1541 42.4849 28.2235 42.4502L42.2235 35.4502C42.307 35.4085 42.3772 35.3442 42.426 35.2647C42.4749 35.1852 42.5005 35.0936 42.5 35.0002V21.0002C42.5001 20.9073 42.4742 20.8162 42.4254 20.7372C42.3765 20.6581 42.3066 20.5943 42.2235 20.5527ZM28 27.4412L24.0915 25.4867L36.5845 18.8502L40.8845 21.0002L28 27.4412ZM20.0915 23.4867L32.5845 16.8502L35.4845 18.3002L22.993 24.9377L20.0915 23.4867ZM19.5 24.3092L22.5 25.8092V29.7932L21.3535 28.6467C21.2598 28.553 21.1326 28.5003 21 28.5002H19.5V24.3092ZM28 14.5592L31.486 16.3002L18.993 22.9377L15.118 21.0002L28 14.5592ZM14.5 21.8092L18.5 23.8092V29.0002C18.5 29.1328 18.5527 29.26 18.6465 29.3538C18.7402 29.4476 18.8674 29.5002 19 29.5002H20.793L22.6465 31.3537C22.7164 31.4236 22.8055 31.4712 22.9025 31.4905C22.9995 31.5098 23.1 31.4999 23.1913 31.4621C23.2827 31.4242 23.3608 31.3602 23.4157 31.278C23.4707 31.1958 23.5 31.0991 23.5 31.0002V26.3092L27.5 28.3092V41.1912L14.5 34.6912V21.8092ZM28.5 41.1912V28.3092L41.5 21.8092V34.6912L28.5 41.1912Z" fill="#101B25"/>
</svg>
