<svg width="10" height="9" viewBox="0 0 10 9" fill="none" xmlns="http://www.w3.org/2000/svg">
<path d="M9.70703 1.8005H7.05811V1.20665C7.05811 0.541295 6.52742 0 5.87516 0H4.12486C3.4726 0 2.94191 0.541295 2.94191 1.20665V1.8005H0.292969C0.131172 1.8005 0 1.9343 0 2.09934V7.52822C0 8.33977 0.647285 9 1.44287 9H8.55713C9.35271 9 10 8.33977 10 7.52822V2.09934C10 1.9343 9.86883 1.8005 9.70703 1.8005ZM5.66475 5.70033C5.66475 6.07422 5.36652 6.3784 5 6.3784C4.63348 6.3784 4.33525 6.07422 4.33525 5.70033V5.02227H5.66475V5.70033ZM5.95772 4.42459H4.04228C3.88049 4.42459 3.74932 4.55839 3.74932 4.72343V5.26626C2.04564 4.88909 0.768516 3.76191 0.604199 2.39817H9.39578C9.23146 3.76191 7.95436 4.88909 6.25068 5.26628V4.72345C6.25068 4.55839 6.11951 4.42459 5.95772 4.42459ZM3.52783 1.20665C3.52783 0.870853 3.79566 0.597676 4.12484 0.597676H5.87514C6.20432 0.597676 6.47215 0.870853 6.47215 1.20665V1.8005H3.52781V1.20665H3.52783ZM9.41406 7.52822C9.41406 8.01021 9.02963 8.40232 8.55713 8.40232H1.44287C0.970371 8.40232 0.585938 8.01021 0.585938 7.52822V3.93926C0.822461 4.28426 1.12742 4.60284 1.49584 4.88468C2.13426 5.37308 2.91365 5.71217 3.76189 5.87946C3.84756 6.49835 4.36998 6.97605 5 6.97605C5.63002 6.97605 6.15244 6.49835 6.23811 5.87946C7.08635 5.71217 7.86572 5.37308 8.50416 4.88468C8.87258 4.60284 9.17754 4.28424 9.41406 3.93926V7.52822Z" fill="black"/>
</svg>
