<svg width="12" height="12" viewBox="0 0 12 12" fill="none" xmlns="http://www.w3.org/2000/svg">
<path d="M6.41924 5.44204C6.41924 5.21086 6.23182 5.02344 6.00064 5.02344C5.76945 5.02344 5.58203 5.21086 5.58203 5.44204V8.79088C5.58203 9.02206 5.76945 9.20948 6.00064 9.20948C6.23182 9.20948 6.41924 9.02206 6.41924 8.79088V5.44204Z" fill="#F59E0B"/>
<path fill-rule="evenodd" clip-rule="evenodd" d="M6 0C2.68629 0 0 2.68629 0 6C0 9.31373 2.68629 12 6 12C9.31373 12 12 9.31373 12 6C12 2.68629 9.31373 0 6 0ZM0.837209 6C0.837209 3.14867 3.14867 0.837209 6 0.837209C8.85131 0.837209 11.1628 3.14867 11.1628 6C11.1628 8.85131 8.85131 11.1628 6 11.1628C3.14867 11.1628 0.837209 8.85131 0.837209 6Z" fill="#F59E0B"/>
<path d="M6.55769 3.76908C6.55769 4.07733 6.30781 4.32722 5.99955 4.32722C5.69129 4.32722 5.44141 4.07733 5.44141 3.76908C5.44141 3.46083 5.69129 3.21094 5.99955 3.21094C6.30781 3.21094 6.55769 3.46083 6.55769 3.76908Z" fill="#F59E0B"/>
</svg>
