<svg width="14" height="14" viewBox="0 0 14 14" fill="none" xmlns="http://www.w3.org/2000/svg">
<path d="M11.6667 5.25H6.41667C5.77233 5.25 5.25 5.77233 5.25 6.41667V11.6667C5.25 12.311 5.77233 12.8333 6.41667 12.8333H11.6667C12.311 12.8333 12.8333 12.311 12.8333 11.6667V6.41667C12.8333 5.77233 12.311 5.25 11.6667 5.25Z" stroke="#101B25" stroke-width="0.875" stroke-linecap="round" stroke-linejoin="round"/>
<path d="M2.91663 8.7513H2.33329C2.02387 8.7513 1.72713 8.62839 1.50833 8.40959C1.28954 8.1908 1.16663 7.89406 1.16663 7.58464V2.33464C1.16663 2.02522 1.28954 1.72847 1.50833 1.50968C1.72713 1.29089 2.02387 1.16797 2.33329 1.16797H7.58329C7.89271 1.16797 8.18946 1.29089 8.40825 1.50968C8.62704 1.72847 8.74996 2.02522 8.74996 2.33464V2.91797" stroke="#101B25" stroke-width="0.875" stroke-linecap="round" stroke-linejoin="round"/>
</svg>
