<svg width="36" height="36" viewBox="0 0 36 36" fill="none" xmlns="http://www.w3.org/2000/svg">
<path d="M0 18C0 8.05888 8.05888 0 18 0C27.9411 0 36 8.05888 36 18C36 27.9411 27.9411 36 18 36C8.05888 36 0 27.9411 0 18Z" fill="#ECEEEF"/>
<path d="M13 9.66406L10.5 12.9974V24.6641C10.5 25.1061 10.6756 25.53 10.9882 25.8426C11.3007 26.1551 11.7246 26.3307 12.1667 26.3307H23.8333C24.2754 26.3307 24.6993 26.1551 25.0118 25.8426C25.3244 25.53 25.5 25.1061 25.5 24.6641V12.9974L23 9.66406H13Z" stroke="#415362" stroke-width="1.25" stroke-linecap="round" stroke-linejoin="round"/>
<path d="M10.5 13H25.5" stroke="#415362" stroke-width="1.25" stroke-linecap="round" stroke-linejoin="round"/>
<path d="M21.3337 16.3359C21.3337 17.22 20.9825 18.0678 20.3573 18.693C19.7322 19.3181 18.8844 19.6693 18.0003 19.6693C17.1163 19.6693 16.2684 19.3181 15.6433 18.693C15.0182 18.0678 14.667 17.22 14.667 16.3359" stroke="#415362" stroke-width="1.25" stroke-linecap="round" stroke-linejoin="round"/>
</svg>
