<svg width="36" height="36" viewBox="0 0 36 36" fill="none" xmlns="http://www.w3.org/2000/svg">
<path d="M0 18C0 8.05888 8.05888 0 18 0C27.9411 0 36 8.05888 36 18C36 27.9411 27.9411 36 18 36C8.05888 36 0 27.9411 0 18Z" fill="#ECEEEF"/>
<path d="M25.5 21.3368V14.6702C25.4997 14.3779 25.4225 14.0908 25.2763 13.8378C25.13 13.5848 24.9198 13.3746 24.6667 13.2285L18.8333 9.89517C18.58 9.74889 18.2926 9.67188 18 9.67188C17.7074 9.67188 17.42 9.74889 17.1667 9.89517L11.3333 13.2285C11.0802 13.3746 10.87 13.5848 10.7237 13.8378C10.5775 14.0908 10.5003 14.3779 10.5 14.6702V21.3368C10.5003 21.6291 10.5775 21.9162 10.7237 22.1692C10.87 22.4222 11.0802 22.6324 11.3333 22.7785L17.1667 26.1118C17.42 26.2581 17.7074 26.3351 18 26.3351C18.2926 26.3351 18.58 26.2581 18.8333 26.1118L24.6667 22.7785C24.9198 22.6324 25.13 22.4222 25.2763 22.1692C25.4225 21.9162 25.4997 21.6291 25.5 21.3368Z" stroke="#101B25" stroke-width="1.25" stroke-linecap="round" stroke-linejoin="round"/>
<path d="M10.7246 13.8047L17.9996 18.013L25.2746 13.8047" stroke="#101B25" stroke-width="1.25" stroke-linecap="round" stroke-linejoin="round"/>
<path d="M18 26.4V18" stroke="#101B25" stroke-width="1.25" stroke-linecap="round" stroke-linejoin="round"/>
</svg>
