<svg width="40" height="40" viewBox="0 0 40 40" fill="none" xmlns="http://www.w3.org/2000/svg">
<path d="M11.0107 19.2188V23.7087C11.0107 28.1987 12.8107 29.9987 17.3007 29.9987H22.6907C27.1807 29.9987 28.9807 28.1987 28.9807 23.7087V19.2188" stroke="#415362" stroke-width="1.5" stroke-linecap="round" stroke-linejoin="round"/>
<path d="M19.9995 20C21.8295 20 23.1795 18.51 22.9995 16.68L22.3395 10H17.6695L16.9995 16.68C16.8195 18.51 18.1695 20 19.9995 20Z" stroke="#415362" stroke-width="1.5" stroke-linecap="round" stroke-linejoin="round"/>
<path d="M26.3108 20C28.3308 20 29.8108 18.36 29.6108 16.35L29.3308 13.6C28.9708 11 27.9708 10 25.3508 10H22.3008L23.0008 17.01C23.1708 18.66 24.6608 20 26.3108 20Z" stroke="#415362" stroke-width="1.5" stroke-linecap="round" stroke-linejoin="round"/>
<path d="M13.6394 20C15.2894 20 16.7794 18.66 16.9394 17.01L17.1594 14.8L17.6394 10H14.5894C11.9694 10 10.9694 11 10.6094 13.6L10.3394 16.35C10.1394 18.36 11.6194 20 13.6394 20Z" stroke="#415362" stroke-width="1.5" stroke-linecap="round" stroke-linejoin="round"/>
<path d="M20 25C18.33 25 17.5 25.83 17.5 27.5V30H22.5V27.5C22.5 25.83 21.67 25 20 25Z" stroke="#415362" stroke-width="1.5" stroke-linecap="round" stroke-linejoin="round"/>
</svg>
