<svg width="40" height="40" viewBox="0 0 40 40" fill="none" xmlns="http://www.w3.org/2000/svg">
<path d="M11 26V20C11 17.6131 11.9482 15.3239 13.636 13.636C15.3239 11.9482 17.6131 11 20 11C22.3869 11 24.6761 11.9482 26.364 13.636C28.0518 15.3239 29 17.6131 29 20V26" stroke="#415362" stroke-width="1.5" stroke-linecap="round" stroke-linejoin="round"/>
<path d="M29 27C29 27.5304 28.7893 28.0391 28.4142 28.4142C28.0391 28.7893 27.5304 29 27 29H26C25.4696 29 24.9609 28.7893 24.5858 28.4142C24.2107 28.0391 24 27.5304 24 27V24C24 23.4696 24.2107 22.9609 24.5858 22.5858C24.9609 22.2107 25.4696 22 26 22H29V27ZM11 27C11 27.5304 11.2107 28.0391 11.5858 28.4142C11.9609 28.7893 12.4696 29 13 29H14C14.5304 29 15.0391 28.7893 15.4142 28.4142C15.7893 28.0391 16 27.5304 16 27V24C16 23.4696 15.7893 22.9609 15.4142 22.5858C15.0391 22.2107 14.5304 22 14 22H11V27Z" stroke="#415362" stroke-width="1.5" stroke-linecap="round" stroke-linejoin="round"/>
</svg>
