<svg width="13" height="15" viewBox="0 0 13 15" fill="none" xmlns="http://www.w3.org/2000/svg">
<path d="M6.11711 14.9273C6.24777 14.8751 9.51416 13.464 10.5333 12.6278C11.6047 11.7393 12.1795 10.485 12.1795 8.99557V1.8879L12.075 1.83564C9.4619 0.424559 6.24777 0.529084 6.11711 0.529084C5.98646 0.529084 2.7462 0.424559 0.133081 1.83564L0.0546875 1.8879V8.96944C0.0546875 10.485 0.629573 11.7393 1.70095 12.6017C2.72006 13.464 5.98646 14.8751 6.11711 14.9273Z" fill="#2B0F0F"/>
<path d="M6.1217 14.7446C6.1217 14.7446 2.82917 13.3335 1.81006 12.4973C0.738679 11.635 0.242188 10.4068 0.242188 8.96962V1.9926C2.8553 0.581518 6.14783 0.712174 6.14783 0.712174C6.14783 0.712174 9.44035 0.60765 12.0535 1.9926V8.96962C12.0535 10.3807 11.5308 11.6089 10.4856 12.4973C9.41422 13.3335 6.1217 14.7446 6.1217 14.7446ZM0.686417 8.96962C0.686417 10.2762 1.18291 11.3737 2.0975 12.1315C2.9337 12.8109 5.41615 13.9345 6.1217 14.2481C6.82724 13.9345 9.30969 12.8109 10.1459 12.1315C11.0605 11.3737 11.557 10.2762 11.557 8.96962V2.09713C8.08153 1.78355 3.95281 1.96647 0.712548 4.97155V8.96962H0.686417Z" fill="#FFD125"/>
<path d="M2.7749 10.2239C3.40205 10.2239 3.9508 10.0672 4.34277 9.80584V5.28516H3.29752V9.20483C3.193 9.28322 3.01008 9.33548 2.80103 9.33548C2.33067 9.33548 2.25228 8.89125 2.25228 8.60381V5.28516H1.20703V8.55155C1.20703 9.64906 1.72965 10.2239 2.7749 10.2239Z" fill="#FFD125"/>
<path d="M5.91243 10.1446C6.01696 10.1707 6.17375 10.1969 6.38279 10.1969C7.53256 10.1969 8.21197 9.15162 8.21197 7.63602C8.21197 6.12041 7.53256 5.17969 6.27827 5.17969C5.70338 5.17969 5.25915 5.31034 4.86719 5.54552V12.3135H5.91243V10.1446ZM5.91243 6.09428C5.99083 6.04202 6.14761 6.01588 6.27827 6.01588C6.87929 6.01588 7.1406 6.48624 7.1406 7.66215C7.1406 8.78579 6.85315 9.33454 6.25214 9.33454C6.12148 9.33454 5.99083 9.30841 5.91243 9.28228V6.09428Z" fill="#FFD125"/>
<path d="M9.43702 8.00386C9.90738 8.26517 10.0903 8.44809 10.0903 8.78779C10.0903 9.15363 9.85512 9.36268 9.46315 9.36268C9.12345 9.36268 8.73148 9.17976 8.47017 8.94458V9.91143C8.78375 10.0944 9.20184 10.225 9.61994 10.225C10.6391 10.225 11.1094 9.49333 11.1355 8.84006C11.1617 8.23904 10.9788 7.76868 10.1164 7.27219C9.72447 7.03701 9.41089 6.90635 9.43702 6.51438C9.43702 6.14855 9.7506 6.01789 10.038 6.01789C10.4039 6.01789 10.7436 6.22694 10.9788 6.43599V5.5214C10.7958 5.39075 10.4039 5.15556 9.82899 5.1817C9.14958 5.20783 8.41791 5.70432 8.44404 6.54052C8.41791 7.08927 8.5747 7.50737 9.43702 8.00386Z" fill="#FFD125"/>
<path d="M10.2734 13.7266V14.406H10.4041V14.1185H10.4302C10.4302 14.1447 10.6131 14.406 10.6131 14.406H10.7699C10.7699 14.406 10.587 14.1447 10.5609 14.1185C10.6393 14.0924 10.7177 14.0401 10.7177 13.9356C10.7177 13.8311 10.6654 13.7266 10.4825 13.7266H10.2734ZM10.4564 13.805C10.5609 13.805 10.5609 13.8572 10.5609 13.9095C10.5609 13.9617 10.5347 14.014 10.4041 14.014H10.378V13.805H10.4564Z" fill="#FFD125"/>
<path d="M10.9266 14.0651C10.9266 14.3264 10.7175 14.5355 10.4562 14.5355C10.1949 14.5355 9.98586 14.3264 9.98586 14.0651C9.98586 13.8038 10.1949 13.5948 10.4562 13.5948C10.7175 13.5948 10.9266 13.8038 10.9266 14.0651ZM10.4823 13.4902C10.1688 13.4902 9.93359 13.7515 9.93359 14.039C9.93359 14.3526 10.1949 14.5877 10.4823 14.5877C10.7959 14.5877 11.0311 14.3264 11.0311 14.039C11.0311 13.7515 10.7698 13.4902 10.4823 13.4902Z" fill="#FFD125"/>
</svg>
