<svg width="22" height="20" viewBox="0 0 22 20" fill="none" xmlns="http://www.w3.org/2000/svg">
<path fill-rule="evenodd" clip-rule="evenodd" d="M5.01246 14.5607L4.60295 16.5031H5.05268L5.46194 14.5607H5.01246ZM5.65306 14.5607L5.58085 14.8904H6.18223L5.84182 16.5031H6.29142L6.63183 14.8904H7.22189L7.31016 14.5607H5.65306ZM8.98245 17.0258L8.58141 18.966H9.90109L9.96459 18.6451H9.10323L9.44476 17.0258H8.98245ZM7.48361 14.5607L7.07422 16.5031H8.50185L8.57406 16.162H7.59691L7.70175 15.6654H8.55837L8.62536 15.3641H7.76512L7.86573 14.8848H8.84499L8.92518 14.5607H7.48361ZM2.60394 16.5031H3.0213L3.29435 15.1386L3.78567 16.5031H4.32604L4.73543 14.5607H4.33164L4.03132 15.9492L3.58496 14.5607H3.01333L2.60394 16.5031ZM13.9285 16.5031H14.3701L15.2174 15.0181L15.3896 16.1673H14.7986L14.5931 16.5031H15.8813L15.5772 14.5607H15.0554L13.9285 16.5031ZM1.44775 14.5607H0.998142L0.730944 15.8264C0.505208 16.8006 2.26055 16.7284 2.43523 15.9735L2.73231 14.5605H2.2908L2.02585 15.7967C1.95101 16.2784 1.02392 16.4781 1.20707 15.7164L1.44775 14.5607ZM9.12477 14.5607H9.92761C10.2845 14.5607 10.5495 14.6268 10.6886 14.817C10.9587 15.1865 10.7271 15.9299 10.3885 16.2137C10.1359 16.4257 9.8031 16.5033 9.51 16.5033H8.72335L9.12477 14.5607Z" fill="black"/>
<path fill-rule="evenodd" clip-rule="evenodd" d="M9.50879 14.8906L9.23438 16.1693H9.54752C9.71137 16.1693 9.92092 16.116 10.0868 15.9636C10.3202 15.7489 10.4141 15.3455 10.3322 15.1225C10.2612 14.9291 10.069 14.8907 9.91831 14.8907L9.50879 14.8906Z" fill="white"/>
<path fill-rule="evenodd" clip-rule="evenodd" d="M1.37516 17.0237H0.460013L0.0585938 18.9665H0.500105L0.842507 17.3416C0.842507 17.3416 1.16387 17.3099 1.31988 17.3812C1.41376 17.424 1.45397 17.609 1.35773 17.7399C1.20869 17.9424 1.12203 17.9381 0.776517 17.9164L0.800547 18.182C0.800547 18.182 0.892435 18.2284 0.986689 18.2289C2.00381 18.2362 2.12745 17.0237 1.37516 17.0237ZM15.6349 17.0234L15.9369 18.966H16.4398L17.5537 17.0234H17.1055L16.2933 18.5129L16.07 17.0234H15.6349Z" fill="black"/>
<path fill-rule="evenodd" clip-rule="evenodd" d="M13.7329 18.9678H14.1742L14.521 17.3506H14.8588C15.3121 17.3506 15.139 17.9083 14.5998 17.9083H14.4955L14.8246 18.9679H15.3241L15.0276 18.1318C15.7316 17.9838 15.8457 17.0253 15.0111 17.0253H14.1342L13.7329 18.9678ZM0.523874 16.7032L0.507812 16.8294H21.5185L21.5366 16.7032H0.523874ZM17.8018 14.5625L17.3923 16.505H18.8201L18.892 16.1638H17.9149L18.02 15.6673H18.8765L18.9433 15.366H18.0832L18.1838 14.8866H19.163L19.2432 14.5625H17.8018ZM15.9755 14.5625L15.9033 14.8922H16.5047L16.1643 16.505H16.6139L16.9543 14.8922H17.5446L17.6326 14.5625H15.9755ZM13.037 14.5625L12.9646 14.8922H13.5659L13.2256 16.505H13.6751L14.0155 14.8922H14.6057L14.694 14.5625H13.037ZM3.12625 16.9909C3.69315 16.9909 4.10017 17.391 3.89062 18.1661C3.70921 18.8368 3.0371 19.0241 2.69283 19.017C2.31034 19.009 1.60176 18.7283 1.88103 17.8689C2.14462 17.0583 2.81187 16.9909 3.12625 16.9909Z" fill="black"/>
<path fill-rule="evenodd" clip-rule="evenodd" d="M3.10998 17.3211C2.8185 17.2989 2.51108 17.406 2.32805 17.8998C2.15997 18.3534 2.37624 18.6609 2.69349 18.6792C2.88984 18.6907 3.30297 18.6292 3.45761 18.0766C3.61212 17.5239 3.3204 17.3371 3.10998 17.3211Z" fill="white"/>
<path fill-rule="evenodd" clip-rule="evenodd" d="M12.1656 17.3574L12.2378 17.0237H11.6597C10.8447 17.0237 10.6473 17.5291 11.0169 17.8986L11.5092 18.3239C11.6125 18.4375 11.5206 18.6426 11.3479 18.6323H10.6288L10.5566 18.9663H11.3227C12.1118 18.9663 12.1393 18.3603 11.8998 18.1314L11.3788 17.6337C11.2941 17.566 11.3489 17.3574 11.5327 17.3574H12.1656ZM5.40459 17.3574L5.4768 17.0237H4.89883C4.08379 17.0237 3.88644 17.5291 4.25598 17.8986L4.74817 18.3239C4.85164 18.4375 4.75975 18.6426 4.58706 18.6323H3.86789L3.79555 18.9663H4.56153C5.35067 18.9663 5.37832 18.3603 5.13863 18.1314L4.61769 17.6337C4.53314 17.566 4.58805 17.3574 4.7717 17.3574H5.40459ZM12.8134 14.8971L12.8856 14.5631H12.3075C11.4924 14.5631 11.2951 15.0685 11.6648 15.4381L12.1567 15.8634C12.2603 15.9772 12.1685 16.182 11.9958 16.1718H11.2767L11.2045 16.5057H11.9705C12.7596 16.5057 12.7871 15.8997 12.5476 15.6709L12.0266 15.1733C11.942 15.1055 11.997 14.8971 12.1805 14.8971H12.8134ZM20.582 14.8971L20.6542 14.5631H20.0761C19.2612 14.5631 19.0637 15.0685 19.4333 15.4381L19.9255 15.8634C20.0289 15.9772 19.937 16.182 19.7643 16.1718H19.0452L18.973 16.5057H19.739C20.5282 16.5057 20.5559 15.8997 20.3161 15.6709L19.7952 15.1733C19.7105 15.1055 19.7655 14.8971 19.9491 14.8971H20.582ZM5.61737 17.0239L5.54516 17.3536H6.14654L5.80613 18.9665H6.25574L6.59602 17.3536H7.1862L7.2746 17.0239H5.61737ZM6.51409 18.9658H6.9556L7.80277 17.4809L7.97521 18.6299H7.38429L7.1786 18.9658H8.46678L8.16285 17.0232H7.64091L6.51409 18.9658ZM12.5067 17.0237L12.0975 18.9663H13.525L13.5972 18.625H12.6201L12.7249 18.1285H13.5814L13.6485 17.8271H12.7881L12.889 17.3477H13.8681L13.9483 17.0237H12.5067ZM20.0182 17.0237L19.6087 18.9663H21.0364L21.1086 18.625H20.1312L20.2363 18.1285H21.0928L21.1597 17.8271H20.2996L20.4003 17.3477H21.3793L21.4595 17.0237H20.0182ZM21.2903 18.6474L21.2821 18.6856H21.39L21.3304 18.9665H21.3735L21.4333 18.6856H21.5413L21.5493 18.6474H21.2903ZM21.8297 18.9665H21.8715L21.9394 18.6474H21.8781L21.7292 18.9183L21.6954 18.6474H21.6337L21.5658 18.9665H21.6077L21.6641 18.6956L21.6974 18.9665H21.7399L21.8883 18.6956V18.6958L21.8297 18.9665ZM19.8094 17.0568C19.1317 16.8593 18.2678 17.0483 18.0427 17.971C17.9766 18.2424 17.9733 18.9904 18.9324 19.0064C19.0545 19.0064 19.3189 19.014 19.4348 18.9563L19.5285 18.6081C19.4009 18.6662 19.2072 18.679 19.0312 18.679C18.813 18.679 18.6525 18.599 18.5623 18.4704C18.4718 18.3415 18.4028 17.966 18.7424 17.5441C18.9263 17.3158 19.2894 17.2589 19.7563 17.3839L19.8094 17.0568ZM17.6596 17.0237L17.2501 18.9663H17.6997L18.1089 17.0237H17.6596ZM13.5794 3.79552C12.1643 3.61125 4.52181 3.67761 3.39861 3.68844L1.37109 13.0964C4.475 11.5344 7.23799 10.1862 10.3118 8.71963C14.2196 6.85522 16.908 6.37735 17.4657 6.35021C17.841 6.33203 17.6282 6.16855 17.4499 6.12921C15.2671 5.64785 9.97297 8.10256 9.97297 8.10256L8.81628 4.59313L16.3532 4.60023C15.9374 3.9844 15.1076 3.99461 13.5794 3.79552Z" fill="black"/>
<path fill-rule="evenodd" clip-rule="evenodd" d="M4.54843 0.984375C7.99489 1.74077 11.4412 2.49787 14.8873 3.25568C16.5444 3.62099 16.7562 4.18876 16.7562 4.18876C16.7562 4.18876 18.5696 3.96962 18.9023 4.60076C19.3289 5.40933 18.2382 6.94565 18.2382 6.94565L2.5625 13.0961H18.8413L21.5109 0.984375H4.54843Z" fill="black"/>
<path fill-rule="evenodd" clip-rule="evenodd" d="M16.4248 4.6125C16.4248 4.6125 16.3469 5.04891 14.7359 5.184C14.5882 5.19633 14.553 5.29071 14.7479 5.29693C14.9423 5.30316 17.6351 5.2104 17.9351 5.23978C18.2351 5.26917 18.195 5.45033 18.1566 5.62576C18.1177 5.80107 17.916 6.32663 17.8642 6.45002C17.8127 6.57353 17.9111 6.57067 17.9905 6.49011C18.0695 6.40943 18.5534 5.4375 18.5673 5.20766C18.5811 4.97781 18.499 4.73913 18.1249 4.6567C17.7508 4.5739 16.4248 4.6125 16.4248 4.6125Z" fill="black"/>
</svg>
