<svg width="24" height="24" viewBox="0 0 24 24" fill="none" xmlns="http://www.w3.org/2000/svg">
<path d="M21.4343 14.0686C21.4343 13.7767 21.2291 13.5558 20.9451 13.5558C20.6611 13.5558 20.456 13.7688 20.456 14.0686C20.456 14.3605 20.6611 14.5814 20.9451 14.5814C21.2291 14.5814 21.4343 14.3605 21.4343 14.0686ZM20.811 14.0923V14.4236H20.7005V13.682H20.9688C21.1266 13.682 21.1976 13.753 21.1976 13.8871C21.1976 13.966 21.1423 14.037 21.0713 14.0449C21.1345 14.0528 21.1581 14.108 21.166 14.2106C21.1739 14.2737 21.1897 14.3921 21.2133 14.4157H21.0871C21.0556 14.3447 21.0634 14.25 21.0398 14.1633C21.024 14.1001 20.9846 14.0765 20.9214 14.0765L20.811 14.0923ZM20.9451 13.9976C21.0477 13.9976 21.0792 13.9424 21.0792 13.895C21.0792 13.8398 21.0477 13.7925 20.9451 13.7925H20.811V14.0055L20.9451 13.9976ZM20.3376 14.0686C20.3376 13.7057 20.6216 13.4611 20.9451 13.4611C21.2686 13.4611 21.5526 13.7057 21.5526 14.0686C21.5526 14.4315 21.2686 14.6761 20.9451 14.6761C20.6216 14.6761 20.3376 14.4315 20.3376 14.0686ZM18.2311 14.5735L17.5289 13.7767L16.8347 14.5735H15.3751L16.8031 12.9483L15.3751 11.323H16.882L17.592 12.112L18.2705 11.323H19.7222L18.3021 12.9483L19.7459 14.5814H18.2311V14.5735ZM12.5664 14.5735V9.44531H15.3751V10.5893H13.7577V11.323H15.3751V12.4276H13.7577V13.4374H15.3751V14.5735H12.5664Z" fill="#EB5C1C"/>
<path d="M11.3823 9.4375V11.5361H11.3665C11.1062 11.2284 10.7748 11.1259 10.3961 11.1259C9.61506 11.1259 9.03123 11.6624 8.82611 12.3724C8.58942 11.5913 7.98981 11.1101 7.09041 11.1101C6.36457 11.1101 5.78863 11.4414 5.48883 11.9858V11.3152H3.98193V10.5815H5.62295V9.4375H2.63281V14.5657H3.97404V12.4119H5.31526C5.27581 12.5775 5.25214 12.7511 5.25214 12.9168C5.25214 13.9898 6.05688 14.7393 7.08252 14.7393C7.95037 14.7393 8.51841 14.329 8.81822 13.5795H7.66634C7.50855 13.8083 7.39021 13.8714 7.08252 13.8714C6.7196 13.8714 6.41191 13.548 6.41191 13.1771H8.7551C8.85766 14.0292 9.5125 14.7629 10.404 14.7629C10.7906 14.7629 11.1456 14.5736 11.3587 14.2422H11.3744V14.5736H12.5579V9.44539L11.3823 9.4375ZM6.45924 12.4276C6.53025 12.1042 6.78271 11.8911 7.09041 11.8911C7.42966 11.8911 7.66634 12.0963 7.72946 12.4276C7.73735 12.4276 6.45924 12.4276 6.45924 12.4276ZM10.6644 13.7925C10.2304 13.7925 9.95431 13.3823 9.95431 12.9483C9.95431 12.4908 10.191 12.0489 10.6644 12.0489C11.1535 12.0489 11.3508 12.4908 11.3508 12.9483C11.3508 13.3823 11.1456 13.7925 10.6644 13.7925Z" fill="#2E276C"/>
</svg>
