<svg width="19" height="20" viewBox="0 0 19 20" fill="none" xmlns="http://www.w3.org/2000/svg">
<path d="M9.57599 15.3787C9.57611 14.3372 9.87979 13.3183 10.4499 12.4467C11.0199 11.5751 11.8317 10.8886 12.7858 10.4711C13.74 10.0536 14.7951 9.92327 15.8221 10.096C16.8492 10.2688 17.8036 10.7371 18.5687 11.4438C18.594 9.61306 18.5788 7.78229 18.5231 5.95153C18.4927 4.69372 17.7825 3.43097 16.5927 2.807C15.9813 2.48382 15.3478 2.17278 14.7071 1.87808C12.1755 2.69687 9.21065 3.77695 6.22031 5.11413C5.9328 5.24121 5.6865 5.44607 5.50916 5.70561C5.33181 5.96515 5.23048 6.26906 5.21657 6.58309C5.16986 8.02623 5.15543 9.51571 5.17442 10.9885C5.17595 11.0317 5.16359 11.0742 5.13915 11.1099C5.11471 11.1455 5.07949 11.1724 5.03865 11.1865C4.99782 11.2007 4.95352 11.2014 4.91226 11.1885C4.87101 11.1756 4.83498 11.1498 4.80945 11.1149C4.49298 10.7098 4.18384 10.3093 3.88205 9.91333C3.85977 9.88237 3.82666 9.86093 3.7893 9.85326C3.75194 9.84559 3.71306 9.85226 3.68039 9.87193C3.44569 10.0117 3.21516 10.1495 2.98882 10.2855C2.86197 10.3615 2.70589 10.2601 2.70513 10.104C2.69753 8.63691 2.73399 7.16605 2.8126 5.74038C2.84564 5.13919 3.22276 4.57295 3.78065 4.29724C6.6487 2.88068 9.70853 1.72351 12.3195 0.867121C11.7118 0.629383 11.1076 0.411393 10.5178 0.204796C9.72258 -0.0682653 8.85898 -0.0682653 8.06373 0.204796C6.09575 0.883831 3.94661 1.77022 1.98849 2.807C0.799044 3.43097 0.0896266 4.69372 0.0581054 5.95153C-0.0193685 8.46563 -0.0193685 10.9797 0.0581054 13.4938C0.0884872 14.7516 0.799044 16.0144 1.98849 16.6384C3.94661 17.6751 6.09575 18.5615 8.06487 19.2402C8.86012 19.5133 9.72372 19.5133 10.519 19.2402C10.6909 19.1809 10.8644 19.1198 11.0396 19.0568C10.0967 18.0647 9.57253 16.7473 9.57599 15.3787Z" fill="#2A9623"/>
<path d="M14.9333 11.3125C14.1291 11.3126 13.3429 11.5511 12.6743 11.998C12.0056 12.4449 11.4845 13.08 11.1768 13.823C10.8691 14.566 10.7887 15.3836 10.9456 16.1724C11.1026 16.9612 11.4899 17.6856 12.0587 18.2543C12.6274 18.8229 13.352 19.2101 14.1408 19.3669C14.9295 19.5237 15.7471 19.4431 16.4901 19.1353C17.2331 18.8275 17.8681 18.3062 18.3148 17.6375C18.7616 16.9688 19 16.1826 18.9999 15.3784C18.9999 14.8444 18.8946 14.3156 18.6902 13.8223C18.4858 13.329 18.1863 12.8808 17.8087 12.5032C17.431 12.1257 16.9828 11.8262 16.4894 11.6219C15.996 11.4176 15.4673 11.3125 14.9333 11.3125ZM17.2526 14.7054L14.8083 17.2719C14.7418 17.3419 14.6619 17.3977 14.5732 17.4359C14.4846 17.4742 14.3891 17.4941 14.2926 17.4945H14.2892C14.1932 17.4944 14.0983 17.4751 14.0099 17.4377C13.9215 17.4004 13.8415 17.3457 13.7746 17.2768L12.4777 15.9408C12.3452 15.8043 12.2724 15.6208 12.2753 15.4307C12.2781 15.2405 12.3564 15.0593 12.4929 14.9268C12.6293 14.7944 12.8128 14.7215 13.003 14.7244C13.1932 14.7272 13.3744 14.8055 13.5069 14.942L14.285 15.7429L16.2146 13.7165C16.3473 13.5865 16.5253 13.513 16.711 13.5116C16.8968 13.5102 17.0758 13.581 17.2105 13.7089C17.3451 13.8369 17.4248 14.0122 17.4328 14.1978C17.4408 14.3833 17.3765 14.5648 17.2533 14.7039L17.2526 14.7054Z" fill="#2A9623"/>
</svg>
