<svg width="32" height="32" viewBox="0 0 32 32" fill="none" xmlns="http://www.w3.org/2000/svg">
<rect width="32" height="32" rx="16" fill="#F8F9FA"/>
<path d="M21.4022 12.1337C21.4293 11.9136 21.4434 11.6894 21.4434 11.462C21.4434 9.55 19.8935 8 17.9815 8H12.1958C11.8318 8 11.5211 8.26281 11.4608 8.62169L9.32888 21.2928C9.25238 21.7475 9.60288 22.1618 10.0639 22.1618H12.1799C12.5438 22.1618 12.8604 21.8992 12.9207 21.5403C12.9207 21.5403 12.9243 21.5192 12.9306 21.4814H12.9307L12.6358 23.2341C12.5684 23.6348 12.8773 24 13.2837 24H15.1348C15.4556 24 15.7295 23.7683 15.7827 23.452L16.3086 20.3264C16.3992 19.7876 16.8657 19.3931 17.412 19.3931H17.8983C20.5399 19.3931 22.6813 17.2517 22.6813 14.6101C22.6813 13.588 22.176 12.6844 21.4022 12.1337Z" fill="#002987"/>
<path d="M21.4026 12.1328C21.0715 14.8259 18.7762 16.9113 15.9937 16.9113H14.3791C14.0147 16.9113 13.7 17.154 13.6013 17.4972L12.6362 23.2331C12.5688 23.6338 12.8777 23.9991 13.2841 23.9991H15.1352C15.456 23.9991 15.7299 23.7674 15.7831 23.4511L16.309 20.3255C16.3996 19.7867 16.8661 19.3921 17.4124 19.3921H17.8988C20.5403 19.3921 22.6817 17.2507 22.6817 14.6092C22.6817 13.587 22.1764 12.6835 21.4026 12.1328Z" fill="#0085CC"/>
<path d="M14.3794 16.9125H15.994C18.7766 16.9125 21.0719 14.8271 21.4029 12.1341C20.9064 11.7808 20.2997 11.5723 19.6438 11.5723H15.4298C14.95 11.5723 14.5403 11.9187 14.4607 12.3919L13.6016 17.4984C13.7003 17.1552 14.015 16.9125 14.3794 16.9125Z" fill="#00186A"/>
</svg>
