<svg width="10" height="10" viewBox="0 0 10 10" fill="none" xmlns="http://www.w3.org/2000/svg">
<path d="M4.368 9.216C4.28 8.696 4.048 8.136 3.672 7.536C3.296 6.928 2.76 6.364 2.064 5.844C1.376 5.324 0.688 4.992 0 4.848V4.344C0.68 4.184 1.332 3.888 1.956 3.456C2.588 3.016 3.116 2.488 3.54 1.872C3.972 1.24 4.248 0.616 4.368 0H4.872C4.944 0.4 5.088 0.812 5.304 1.236C5.52 1.652 5.796 2.052 6.132 2.436C6.476 2.812 6.86 3.152 7.284 3.456C7.916 3.904 8.56 4.2 9.216 4.344V4.848C8.776 4.936 8.32 5.116 7.848 5.388C7.384 5.66 6.952 5.984 6.552 6.36C6.152 6.728 5.824 7.116 5.568 7.524C5.192 8.124 4.96 8.688 4.872 9.216H4.368Z" fill="#FF9B10"/>
</svg>
