<svg width="14" height="14" viewBox="0 0 14 14" fill="none" xmlns="http://www.w3.org/2000/svg">
<path d="M8.75 1.75H2.91667C2.27233 1.75 1.75 2.27233 1.75 2.91667V11.0833C1.75 11.7277 2.27233 12.25 2.91667 12.25H11.0833C11.7277 12.25 12.25 11.7277 12.25 11.0833V5.54167" stroke="#415362" stroke-linecap="round" stroke-linejoin="round"/>
<path d="M4.95825 5.83594C5.4415 5.83594 5.83325 5.44419 5.83325 4.96094C5.83325 4.47769 5.4415 4.08594 4.95825 4.08594C4.475 4.08594 4.08325 4.47769 4.08325 4.96094C4.08325 5.44419 4.475 5.83594 4.95825 5.83594Z" stroke="#415362" stroke-linecap="round" stroke-linejoin="round"/>
<path d="M12.2501 8.7526L9.33342 5.83594L2.91675 12.2526" stroke="#415362" stroke-linecap="round" stroke-linejoin="round"/>
<path d="M11.0833 4.66667V1.75" stroke="#415362" stroke-linecap="round" stroke-linejoin="round"/>
<path d="M9.625 3.20833L11.0833 1.75L12.5417 3.20833" stroke="#415362" stroke-linecap="round" stroke-linejoin="round"/>
</svg>
