<svg width="14" height="14" viewBox="0 0 14 14" fill="none" xmlns="http://www.w3.org/2000/svg">
<path d="M1.75 3.5H2.91667H12.25" stroke="#EF4444" stroke-linecap="round" stroke-linejoin="round"/>
<path d="M11.0834 3.4974V11.6641C11.0834 11.9735 10.9605 12.2702 10.7417 12.489C10.5229 12.7078 10.2262 12.8307 9.91675 12.8307H4.08341C3.774 12.8307 3.47725 12.7078 3.25846 12.489C3.03966 12.2702 2.91675 11.9735 2.91675 11.6641V3.4974M4.66675 3.4974V2.33073C4.66675 2.02131 4.78966 1.72456 5.00846 1.50577C5.22725 1.28698 5.524 1.16406 5.83341 1.16406H8.16675C8.47617 1.16406 8.77291 1.28698 8.99171 1.50577C9.2105 1.72456 9.33342 2.02131 9.33342 2.33073V3.4974" stroke="#EF4444" stroke-linecap="round" stroke-linejoin="round"/>
<path d="M5.83325 6.41406V9.91406" stroke="#EF4444" stroke-linecap="round" stroke-linejoin="round"/>
<path d="M8.16675 6.41406V9.91406" stroke="#EF4444" stroke-linecap="round" stroke-linejoin="round"/>
</svg>
