<svg width="19" height="18" viewBox="0 0 19 18" fill="none" xmlns="http://www.w3.org/2000/svg">
<g clip-path="url(#clip0_2489_4947)">
<path d="M17.2501 12.6901V14.9401C17.2509 15.1489 17.2081 15.3557 17.1245 15.5471C17.0408 15.7385 16.918 15.9103 16.7641 16.0515C16.6102 16.1927 16.4285 16.3002 16.2306 16.3671C16.0328 16.434 15.8231 16.4589 15.6151 16.4401C13.3072 16.1893 11.0903 15.4007 9.14257 14.1376C7.33044 12.9861 5.79407 11.4497 4.64257 9.63757C3.37506 7.68098 2.58625 5.45332 2.34007 3.13507C2.32133 2.92767 2.34598 2.71864 2.41245 2.52129C2.47892 2.32394 2.58575 2.14259 2.72615 1.98879C2.86654 1.83499 3.03743 1.7121 3.22791 1.62796C3.4184 1.54382 3.62433 1.50027 3.83257 1.50007H6.08257C6.44655 1.49649 6.79942 1.62538 7.07539 1.86272C7.35137 2.10006 7.53163 2.42966 7.58257 2.79007C7.67754 3.51012 7.85366 4.21712 8.10757 4.89757C8.20848 5.16602 8.23032 5.45776 8.1705 5.73823C8.11068 6.01871 7.97172 6.27616 7.77007 6.48007L6.81757 7.43257C7.88524 9.31023 9.43991 10.8649 11.3176 11.9326L12.2701 10.9801C12.474 10.7784 12.7314 10.6395 13.0119 10.5796C13.2924 10.5198 13.5841 10.5417 13.8526 10.6426C14.533 10.8965 15.24 11.0726 15.9601 11.1676C16.3244 11.219 16.6571 11.4025 16.895 11.6832C17.1328 11.9639 17.2592 12.3223 17.2501 12.6901Z" stroke="#7B8D9F" stroke-width="1.5" stroke-linecap="round" stroke-linejoin="round"/>
</g>
<defs>
<clipPath id="clip0_2489_4947">
<rect width="18" height="18" fill="white" transform="translate(0.75)"/>
</clipPath>
</defs>
</svg>
