<svg width="15" height="16" viewBox="0 0 15 16" fill="none" xmlns="http://www.w3.org/2000/svg">
<path d="M7.11984 7.64071L0.643555 14.67C0.643798 14.6715 0.644285 14.6727 0.644513 14.6742C0.843136 15.4375 1.52493 15.9995 2.33408 15.9995C2.65754 15.9995 2.96122 15.9101 3.22166 15.7531L3.24234 15.7407L10.5326 11.439L7.11984 7.64071Z" fill="#EB3131"/>
<path d="M13.6723 6.44436L13.6661 6.44002L10.5186 4.57422L6.97266 7.80081L10.531 11.439L13.6618 9.59173C14.2107 9.28872 14.5833 8.697 14.5833 8.01464C14.5833 7.33718 14.2157 6.74838 13.6723 6.44436Z" fill="#F6B60B"/>
<path d="M0.642405 1.3291C0.603471 1.47591 0.583008 1.62969 0.583008 1.78938V14.2108C0.583008 14.3702 0.60323 14.5245 0.642651 14.6708L7.34251 7.8211L0.642405 1.3291Z" fill="#5778C5"/>
<path d="M7.16725 7.99999L10.5196 4.57301L3.23754 0.255674C2.97284 0.0935607 2.66391 0 2.33335 0C1.5242 0 0.841482 0.563054 0.642822 1.32724C0.642578 1.32799 0.642578 1.3285 0.642578 1.32916L7.16725 7.99999Z" fill="#3BAD49"/>
</svg>
