<svg width="30" height="30" viewBox="0 0 30 30" fill="none" xmlns="http://www.w3.org/2000/svg">
<path d="M25.3682 19.5215L24.8076 23.0225V23.0234C24.7057 23.6621 24.1538 24.1317 23.5078 24.1318H5.99414C5.34817 24.1317 4.79629 23.6621 4.69434 23.0234V23.0225L4.13379 19.5215H25.3682ZM14.751 5.375C14.9404 5.37501 15.1222 5.45737 15.2471 5.60059V5.60156L20.1592 11.2305L20.6787 11.8262L21.3457 11.4043L26.0312 8.44434L26.0322 8.44531C26.2515 8.30718 26.5309 8.30971 26.7471 8.45215C26.9627 8.59431 27.075 8.85013 27.0342 9.10547V9.10645L25.6631 17.6777H3.83887L2.46777 9.10645V9.10547C2.42696 8.85011 2.53923 8.5943 2.75488 8.45215C2.97096 8.3098 3.25049 8.30645 3.46973 8.44434L8.15625 11.4043L8.82324 11.8262L9.34277 11.2305L14.2549 5.60156V5.60059C14.3797 5.45738 14.5615 5.375 14.751 5.375Z" stroke="#F59E0B" stroke-width="1.84375"/>
</svg>
