<svg width="66" height="66" viewBox="0 0 66 66" fill="none" xmlns="http://www.w3.org/2000/svg">
<circle cx="33" cy="33" r="31.9" fill="#DCE9F5" stroke="white" stroke-width="2.2" stroke-linecap="round" stroke-linejoin="round"/>
<path d="M46.1992 47.8492V44.5492C46.1992 42.7988 45.5039 41.1201 44.2661 39.8823C43.0284 38.6446 41.3497 37.9492 39.5992 37.9492H26.3992C24.6488 37.9492 22.9701 38.6446 21.7323 39.8823C20.4946 41.1201 19.7992 42.7988 19.7992 44.5492V47.8492" stroke="#5090CC" stroke-width="2" stroke-linecap="round" stroke-linejoin="round"/>
<path d="M32.9992 31.3492C36.6443 31.3492 39.5992 28.3942 39.5992 24.7492C39.5992 21.1041 36.6443 18.1492 32.9992 18.1492C29.3542 18.1492 26.3992 21.1041 26.3992 24.7492C26.3992 28.3942 29.3542 31.3492 32.9992 31.3492Z" stroke="#5090CC" stroke-width="2" stroke-linecap="round" stroke-linejoin="round"/>
</svg>
