<svg width="44" height="44" viewBox="0 0 44 44" fill="none" xmlns="http://www.w3.org/2000/svg">
<path d="M0 22C0 9.84974 9.84974 0 22 0C34.1503 0 44 9.84974 44 22C44 34.1503 34.1503 44 22 44C9.84974 44 0 34.1503 0 22Z" fill="#F7FAFD"/>
<path d="M29 22.8987C29 27.398 25.9375 29.6476 22.2975 30.9524C22.1069 31.0188 21.8998 31.0156 21.7113 30.9434C18.0625 29.6476 15 27.398 15 22.8987V16.5998C15 16.3611 15.0922 16.1323 15.2563 15.9635C15.4204 15.7948 15.6429 15.7 15.875 15.7C17.625 15.7 19.8125 14.6201 21.335 13.2524C21.5204 13.0895 21.7562 13 22 13C22.2438 13 22.4796 13.0895 22.665 13.2524C24.1963 14.6291 26.375 15.7 28.125 15.7C28.3571 15.7 28.5796 15.7948 28.7437 15.9635C28.9078 16.1323 29 16.3611 29 16.5998V22.8987Z" stroke="#5090CC" stroke-width="2" stroke-linecap="round" stroke-linejoin="round"/>
</svg>
