<svg width="18" height="18" viewBox="0 0 18 18" fill="none" xmlns="http://www.w3.org/2000/svg">
<path d="M15 6H3C2.58579 6 2.25 6.33579 2.25 6.75V8.25C2.25 8.66421 2.58579 9 3 9H15C15.4142 9 15.75 8.66421 15.75 8.25V6.75C15.75 6.33579 15.4142 6 15 6Z" stroke="#101828" stroke-linecap="round" stroke-linejoin="round"/>
<path d="M9 6V15.75" stroke="#101828" stroke-linecap="round" stroke-linejoin="round"/>
<path d="M14.25 9V14.25C14.25 14.6478 14.092 15.0294 13.8107 15.3107C13.5294 15.592 13.1478 15.75 12.75 15.75H5.25C4.85218 15.75 4.47064 15.592 4.18934 15.3107C3.90804 15.0294 3.75 14.6478 3.75 14.25V9" stroke="#101828" stroke-linecap="round" stroke-linejoin="round"/>
<path d="M5.625 6.00033C5.12772 6.00033 4.65081 5.80278 4.29917 5.45115C3.94754 5.09952 3.75 4.62261 3.75 4.12533C3.75 3.62805 3.94754 3.15113 4.29917 2.7995C4.65081 2.44787 5.12772 2.25033 5.625 2.25033C6.34851 2.23772 7.05752 2.58877 7.65955 3.2577C8.26159 3.92662 8.72871 4.88238 9 6.00033C9.27129 4.88238 9.73841 3.92662 10.3404 3.2577C10.9425 2.58877 11.6515 2.23772 12.375 2.25033C12.8723 2.25033 13.3492 2.44787 13.7008 2.7995C14.0525 3.15113 14.25 3.62805 14.25 4.12533C14.25 4.62261 14.0525 5.09952 13.7008 5.45115C13.3492 5.80278 12.8723 6.00033 12.375 6.00033" stroke="#101828" stroke-linecap="round" stroke-linejoin="round"/>
</svg>
