<svg width="409" height="432" viewBox="0 0 409 432" fill="none" xmlns="http://www.w3.org/2000/svg">
<path d="M16 0.5H393C401.56 0.5 408.5 7.43959 408.5 16V48.0244C408.5 57.8341 403.428 66.9471 395.092 72.1172C382.648 79.8344 382.648 97.939 395.092 105.656C403.428 110.826 408.5 119.939 408.5 129.749V416C408.5 424.56 401.56 431.5 393 431.5H16C7.43959 431.5 0.5 424.56 0.5 416V129.749C0.5 119.939 5.57156 110.826 13.9082 105.656C26.3516 97.939 26.3517 79.8344 13.9082 72.1172C5.57156 66.9471 0.5 57.8341 0.5 48.0244V16C0.500009 7.43959 7.43959 0.5 16 0.5Z" fill="white" stroke="#E0E4EB"/>
</svg>
