<svg width="30" height="84" viewBox="0 0 30 84" fill="none" xmlns="http://www.w3.org/2000/svg">
<rect width="25" height="84" fill="#F8F9FA"/>
<mask id="mask0_16_96" style="mask-type:alpha" maskUnits="userSpaceOnUse" x="0" y="0" width="30" height="84">
<rect width="30" height="84" fill="#D9D9D9"/>
</mask>
<g mask="url(#mask0_16_96)">
<path d="M16.5 -49H393.5C402.06 -49 409 -42.0604 409 -33.5V-1.4756C409 8.3341 403.928 17.4471 395.592 22.6172C383.148 30.3344 383.148 48.439 395.592 56.156C403.928 61.326 409 70.439 409 80.249V366.5C409 375.06 402.06 382 393.5 382H16.5C7.93959 382 1 375.06 1 366.5V80.249C1 70.439 6.07156 61.326 14.4082 56.156C26.8516 48.439 26.8517 30.3344 14.4082 22.6172C6.07156 17.4471 1 8.3341 1 -1.4756V-33.5C1.00001 -42.0604 7.93959 -49 16.5 -49Z" fill="white" stroke="#E0E4EB"/>
</g>
</svg>
