<svg width="40" height="40" viewBox="0 0 40 40" fill="none" xmlns="http://www.w3.org/2000/svg">
<rect width="40" height="40" rx="20" fill="#F3F4F6"/>
<path d="M25.25 26.75V25.25C25.25 24.4544 24.9339 23.6913 24.3713 23.1287C23.8087 22.5661 23.0456 22.25 22.25 22.25H17.75C16.9544 22.25 16.1913 22.5661 15.6287 23.1287C15.0661 23.6913 14.75 24.4544 14.75 25.25V26.75" stroke="#101B25" stroke-linecap="round" stroke-linejoin="round"/>
<path d="M20 19.25C21.6569 19.25 23 17.9069 23 16.25C23 14.5931 21.6569 13.25 20 13.25C18.3431 13.25 17 14.5931 17 16.25C17 17.9069 18.3431 19.25 20 19.25Z" stroke="#101B25" stroke-linecap="round" stroke-linejoin="round"/>
</svg>
