<svg width="14" height="15" viewBox="0 0 14 15" fill="none" xmlns="http://www.w3.org/2000/svg">
<path fill-rule="evenodd" clip-rule="evenodd" d="M6.50647 2.70524C5.83558 2.70524 5.22774 2.80778 4.68133 2.9717C4.38629 3.06022 4.07541 2.89282 3.98689 2.59779C3.89837 2.30278 4.06581 1.99187 4.36081 1.90337C5.00417 1.71036 5.7199 1.58984 6.50647 1.58984C10.0966 1.58984 13.0129 4.47476 13.0129 8.04423C13.0129 11.6138 10.0966 14.4987 6.50647 14.4987C2.91634 14.4987 0 11.6138 0 8.04423C0 6.71669 0.407471 5.47848 1.0992 4.45312C1.27145 4.19778 1.61808 4.13041 1.87342 4.30267C2.12873 4.47494 2.1961 4.82155 2.02386 5.07689C1.45148 5.92535 1.11539 6.94771 1.11539 8.04423C1.11539 10.9886 3.5232 13.3833 6.50647 13.3833C9.4897 13.3833 11.8975 10.9886 11.8975 8.04423C11.8975 5.09987 9.4897 2.70524 6.50647 2.70524Z" fill="#4F91CD"/>
<path fill-rule="evenodd" clip-rule="evenodd" d="M5.87997 0.0898753C6.13834 0.257492 6.21195 0.602849 6.04433 0.861254L5.09969 2.31764L6.56986 3.26397C6.82886 3.43066 6.90363 3.77576 6.73695 4.03475C6.57022 4.29375 6.22512 4.36857 5.96617 4.20184L4.02538 2.9526C3.90073 2.87238 3.81315 2.74581 3.78201 2.60087C3.75082 2.45593 3.77866 2.30455 3.85932 2.18018L5.10856 0.254271C5.27619 -0.00413891 5.62156 -0.0777369 5.87997 0.0898753Z" fill="#4F91CD"/>
</svg>
