<svg width="18" height="18" viewBox="0 0 18 18" fill="none" xmlns="http://www.w3.org/2000/svg">
<path d="M16.5002 0.666748L14.8336 2.33341M14.8336 2.33341L17.3336 4.83341L14.4169 7.75008L11.9169 5.25008M14.8336 2.33341L11.9169 5.25008M8.4919 8.67508C8.92218 9.09964 9.26423 9.60511 9.49836 10.1624C9.73248 10.7197 9.85406 11.3178 9.85608 11.9223C9.85811 12.5267 9.74054 13.1256 9.51016 13.6845C9.27977 14.2433 8.94111 14.7511 8.51368 15.1785C8.08625 15.606 7.5785 15.9446 7.01965 16.175C6.4608 16.4054 5.86189 16.523 5.25742 16.5209C4.65295 16.5189 4.05485 16.3973 3.49755 16.1632C2.94026 15.9291 2.43478 15.587 2.01023 15.1567C1.17534 14.2923 0.713363 13.1346 0.723806 11.9328C0.734249 10.7311 1.21627 9.58153 2.06606 8.73175C2.91585 7.88196 4.0654 7.39993 5.26714 7.38949C6.46887 7.37905 7.62663 7.84102 8.49106 8.67591L8.4919 8.67508ZM8.4919 8.67508L11.9169 5.25008" stroke="#4882B8" stroke-width="1.25" stroke-linecap="round" stroke-linejoin="round"/>
</svg>
