<svg width="11" height="10" viewBox="0 0 11 10" fill="none" xmlns="http://www.w3.org/2000/svg">
<path d="M11 4.99962C11.0001 6.31424 10.4746 7.57602 9.5372 8.51187C8.5998 9.44771 7.32592 9.98232 5.9913 9.99998H5.92308C4.62647 10.0032 3.37842 9.51446 2.43798 8.6353C2.3976 8.59768 2.36513 8.55259 2.34244 8.50261C2.31974 8.45264 2.30727 8.39874 2.30572 8.34402C2.30417 8.28929 2.31359 8.2348 2.33342 8.18365C2.35326 8.13251 2.38313 8.08571 2.42132 8.04594C2.45952 8.00616 2.5053 7.97418 2.55604 7.95183C2.60678 7.92948 2.6615 7.91719 2.71707 7.91567C2.77263 7.91415 2.82796 7.92342 2.87989 7.94295C2.93181 7.96249 2.97933 7.99191 3.01971 8.02953C3.6246 8.59139 4.38418 8.96524 5.20355 9.10439C6.02291 9.24354 6.86574 9.14182 7.62675 8.81192C8.38776 8.48203 9.03321 7.9386 9.48246 7.24951C9.93171 6.56042 10.1649 5.75623 10.1528 4.9374C10.1407 4.11857 9.88386 3.3214 9.41445 2.64547C8.94503 1.96955 8.2838 1.44484 7.51337 1.13689C6.74294 0.828948 5.89746 0.751417 5.08255 0.913986C4.26764 1.07656 3.51943 1.47202 2.93139 2.05097C2.92707 2.05557 2.92248 2.05992 2.91764 2.06399L1.51197 3.33284H2.96154C3.07375 3.33284 3.18136 3.37674 3.2607 3.45488C3.34004 3.53303 3.38462 3.63902 3.38462 3.74953C3.38462 3.86005 3.34004 3.96604 3.2607 4.04418C3.18136 4.12233 3.07375 4.16623 2.96154 4.16623H0.423077C0.31087 4.16623 0.203259 4.12233 0.123916 4.04418C0.044574 3.96604 0 3.86005 0 3.74953V1.24935C0 1.13884 0.044574 1.03285 0.123916 0.954702C0.203259 0.876556 0.31087 0.832654 0.423077 0.832654C0.535284 0.832654 0.642895 0.876556 0.722238 0.954702C0.80158 1.03285 0.846154 1.13884 0.846154 1.24935V2.80155L2.34014 1.4577C3.0509 0.760378 3.95549 0.286087 4.9397 0.0947C5.92392 -0.0966872 6.94364 0.00340963 7.87015 0.382354C8.79665 0.761299 9.5884 1.4021 10.1454 2.22387C10.7025 3.04564 10.9999 4.01154 11 4.99962Z" fill="#1BB746"/>
</svg>
