<svg width="125" height="53" viewBox="0 0 125 53" fill="none" xmlns="http://www.w3.org/2000/svg">
<g clip-path="url(#clip0_13274_299758)">
<path d="M62.5674 1.44531H62.5869C64.5088 1.44665 66.43 1.63882 68.2979 2.01562C70.1268 2.38454 71.9263 2.93476 73.6455 3.65137C75.3326 4.35435 76.96 5.22505 78.4814 6.23828C79.9629 7.22494 81.3594 8.35651 82.6309 9.60254L82.6318 9.60352L82.6543 9.625L82.6875 9.6582L82.6904 9.66016C83.9771 10.9283 85.145 12.3238 86.1621 13.8076C87.1896 15.307 88.0725 16.9107 88.7861 18.5732C89.513 20.2672 90.0711 22.0398 90.4453 23.8418C90.8281 25.6856 91.023 27.5825 91.0234 29.4795V29.9756H82.7256V29.4795C82.7242 26.7984 82.1917 24.1993 81.1426 21.7549C80.6375 20.5781 80.0121 19.4429 79.2842 18.3809C78.5622 17.3278 77.7333 16.3374 76.8203 15.4375L76.8057 15.4229C76.8011 15.4183 76.7946 15.4124 76.7881 15.4062L76.7637 15.3828C75.8647 14.5036 74.8792 13.7046 73.834 13.0088C72.7566 12.2915 71.6048 11.6754 70.4111 11.1777C67.9349 10.1454 65.302 9.62085 62.5859 9.61816H62.5674C59.8459 9.61816 57.2058 10.1432 54.7236 11.1777C53.53 11.6754 52.3782 12.2915 51.3008 13.0088C50.3514 13.6406 49.4484 14.3598 48.6172 15.1455C48.5081 15.249 48.4086 15.3447 48.3145 15.4375C47.4014 16.3374 46.5726 17.3278 45.8506 18.3809C45.1227 19.4429 44.4972 20.5781 43.9922 21.7549C42.9431 24.1993 42.4105 26.7984 42.4092 29.4795V29.9756H34.1113V29.4795C34.1122 27.5829 34.3067 25.6856 34.6895 23.8418C35.0637 22.0395 35.6216 20.2665 36.3486 18.5723C37.0617 16.9099 37.9448 15.3069 38.9727 13.8076C39.9898 12.3237 41.1586 10.9284 42.4453 9.66016C42.5387 9.56814 42.6386 9.4704 42.7598 9.35449C43.9623 8.20632 45.2723 7.15783 46.6533 6.23828C48.1748 5.22548 49.8021 4.3548 51.4893 3.65137C53.2085 2.93476 55.0079 2.38454 56.8369 2.01562C58.7116 1.63747 60.6392 1.44531 62.5674 1.44531Z" fill="white" stroke="#DFE1E3" stroke-width="0.328772"/>
<path d="M89.9465 23.9428C89.579 22.1723 89.0305 20.431 88.3163 18.767C87.6156 17.1341 86.7482 15.5593 85.7386 14.0866C84.7393 12.6286 83.5918 11.258 82.3278 10.0121C82.3084 9.99302 82.289 9.97482 82.2701 9.95574C81.0218 8.73249 79.651 7.62064 78.1941 6.65039C76.6999 5.65528 75.1021 4.80087 73.4454 4.10979C71.757 3.40585 69.9904 2.86524 68.194 2.50305C66.3593 2.13288 64.472 1.94469 62.5842 1.94336C62.5779 1.94336 62.5716 1.94336 62.5648 1.94336C60.6707 1.94336 58.777 2.13155 56.9361 2.50305C55.1397 2.86524 53.373 3.40585 51.6847 4.10979C50.0279 4.80042 48.4302 5.65528 46.9359 6.65039C45.5764 7.55584 44.2916 8.58469 43.1113 9.71251C43.0072 9.81193 42.9041 9.91135 42.8019 10.0121C41.5382 11.2576 40.3903 12.6286 39.391 14.0866C38.3814 15.5593 37.5145 17.1341 36.8133 18.767C36.0991 20.431 35.5506 22.1723 35.1831 23.9428C34.8071 25.7541 34.6161 27.6179 34.6152 29.4811H41.8998C41.9012 26.7333 42.447 24.0697 43.5224 21.5637C44.0398 20.3578 44.6807 19.194 45.4269 18.1053C46.1668 17.0258 47.0166 16.0112 47.9524 15.0884C48.0546 14.9877 48.1582 14.8882 48.2626 14.7897C49.1142 13.9846 50.0378 13.2491 51.0133 12.5993C52.1179 11.8638 53.2983 11.2323 54.5223 10.7223C57.0676 9.66102 59.7736 9.12308 62.5648 9.12308C62.5711 9.12308 62.5774 9.12308 62.5842 9.12308C65.3686 9.12574 68.0679 9.66324 70.6073 10.7223C71.8309 11.2323 73.0117 11.8638 74.1163 12.5993C75.189 13.3135 76.1987 14.1319 77.1192 15.032C77.1385 15.0507 77.1579 15.0693 77.1768 15.0884C78.1131 16.0107 78.9624 17.0258 79.7023 18.1053C80.4485 19.194 81.0893 20.3574 81.6068 21.5637C82.6822 24.0697 83.228 26.7333 83.2293 29.4811H90.5139C90.5135 27.6179 90.3221 25.7541 89.9461 23.9428H89.9465Z" fill="white"/>
<path d="M81.9624 21.416C81.435 20.1875 80.7825 19.0024 80.0223 17.8937C79.3252 16.8763 78.5322 15.9154 77.6621 15.033L82.2713 10.4902C83.434 11.662 84.4937 12.9416 85.4232 14.2971C86.4189 15.7499 87.2741 17.3029 87.9653 18.9132C88.6696 20.5541 89.2105 22.2718 89.573 24.0174C89.9184 25.6814 90.1058 27.3903 90.1301 29.1022H83.6115C83.5624 26.4373 83.0085 23.8532 81.9624 21.4156V21.416Z" fill="#05AA4E"/>
<path d="M89.573 24.0174C89.2105 22.2718 88.6696 20.5541 87.9653 18.9132C87.2741 17.3024 86.4189 15.7494 85.4232 14.2971C84.4937 12.9412 83.4345 11.662 82.2713 10.4902L77.6621 15.033C78.5317 15.9154 79.3247 16.8763 80.0223 17.8937C80.7825 19.0024 81.435 20.1879 81.9624 21.416C83.0085 23.8537 83.5624 26.4378 83.6115 29.1026H90.1301C90.1058 27.3907 89.9184 25.6819 89.573 24.0179V24.0174Z" fill="#05AA4E"/>
<path d="M77.9826 6.96138C76.5087 5.98003 74.9329 5.13716 73.2991 4.45585C71.6342 3.76167 69.8914 3.22861 68.1203 2.87131C66.4351 2.53132 64.7045 2.34712 62.9707 2.32227V8.74699C65.6714 8.79626 68.2901 9.34264 70.7601 10.3719C72.0067 10.8917 73.2091 11.5348 74.334 12.284C75.3202 12.9405 76.2556 13.6848 77.1189 14.4988L81.7285 9.9556C80.5707 8.85219 79.3125 7.84598 77.9826 6.96094V6.96138Z" fill="#FDD600"/>
<path d="M62.2013 8.74699C59.4872 8.79182 56.8554 9.3382 54.3736 10.3728C53.1271 10.8926 51.9247 11.5357 50.7998 12.2849C49.9117 12.8761 49.0628 13.5401 48.2716 14.2618L43.6602 9.7168C44.7468 8.70749 45.9199 7.78162 47.1507 6.96183C48.6246 5.98048 50.2004 5.13761 51.8342 4.4563C53.4991 3.76212 55.2419 3.22905 57.013 2.87175C58.7108 2.52954 60.4545 2.3449 62.2009 2.32227V8.74655L62.2013 8.74699Z" fill="#F68922"/>
<path d="M51.8361 4.45585C50.2019 5.13716 48.6261 5.98003 47.1527 6.96139C45.9214 7.78118 44.7488 8.7066 43.6621 9.71636L48.2735 14.2614C49.0648 13.5397 49.9137 12.8761 50.8017 12.2845C51.9267 11.5353 53.1295 10.8921 54.3756 10.3724C56.8574 9.33776 59.4891 8.79138 62.2033 8.74655V2.32227C60.4569 2.3449 58.7132 2.52954 57.0154 2.87175C55.2443 3.22905 53.5015 3.76211 51.8366 4.4563L51.8361 4.45585Z" fill="#F68922"/>
<path d="M47.682 14.8196C46.7287 15.7592 45.8636 16.793 45.1097 17.8919C44.3496 19.0007 43.697 20.1862 43.1697 21.4143C42.1235 23.852 41.5696 26.4361 41.5205 29.1009H35.002C35.0263 27.389 35.2136 25.6802 35.559 24.0162C35.9215 22.2705 36.4624 20.5528 37.1667 18.9119C37.858 17.3012 38.7132 15.7481 39.7089 14.2959C40.6946 12.8578 41.8263 11.5058 43.0729 10.2773C43.0846 10.2657 43.0963 10.2542 43.1084 10.2422L47.7172 14.7845C47.705 14.7961 47.6933 14.8081 47.6816 14.8196H47.682Z" fill="#EF3C38"/>
<path d="M43.0748 10.2773C41.8283 11.5058 40.6961 12.8582 39.7108 14.2959C38.7151 15.7486 37.8599 17.3016 37.1687 18.9119C36.4643 20.5528 35.9235 22.2705 35.561 24.0162C35.2156 25.6802 35.0282 27.389 35.0039 29.1009H41.5225C41.5716 26.4361 42.1255 23.852 43.1716 21.4143C43.699 20.1858 44.3515 19.0007 45.1117 17.8919C45.8651 16.7925 46.7306 15.7588 47.684 14.8196C47.6957 14.8081 47.7079 14.7961 47.7196 14.7845L43.1108 10.2422C43.0987 10.2542 43.087 10.2657 43.0753 10.2773H43.0748Z" fill="#EF3C38"/>
<path d="M50.1239 29.9415C49.9753 29.815 50.0266 29.6152 50.2086 29.5704L60.927 27.8522C61.2679 27.7479 61.3084 27.3591 61.5147 27.0973C63.0539 25.1457 66.1347 26.7417 65.4785 29.0591C64.9296 30.9978 62.3883 31.1847 61.3165 29.5855C57.7904 29.5233 54.2116 29.9423 50.6738 29.9801C50.5472 29.9814 50.1996 30.0054 50.1239 29.9415Z" fill="#2E348E"/>
<path d="M40.4725 23.0498L40.214 22.9739C40.1068 22.7156 40.0109 22.4977 39.9262 22.3206C39.8415 22.1435 39.7627 21.9988 39.6889 21.886C39.615 21.7737 39.543 21.6876 39.4723 21.6282C39.402 21.5687 39.3259 21.527 39.2449 21.503C39.1341 21.4706 39.0377 21.4773 38.9557 21.5234C38.8738 21.5696 38.8157 21.6495 38.7815 21.7627C38.7459 21.8798 38.7513 21.985 38.7977 22.0787C38.8436 22.1723 38.9265 22.246 39.0458 22.3006L38.9485 22.6224C38.7585 22.5452 38.6243 22.4218 38.5459 22.2531C38.4676 22.084 38.4617 21.8896 38.5284 21.669C38.5919 21.4586 38.6977 21.3086 38.8454 21.2189C38.9931 21.1293 39.1642 21.1129 39.3583 21.1701C39.4574 21.1994 39.5502 21.2465 39.6371 21.3121C39.724 21.3778 39.8078 21.4675 39.8888 21.582C39.9694 21.6965 40.0528 21.8425 40.1383 22.0201C40.2239 22.1976 40.3167 22.4133 40.4166 22.6677L40.2932 22.7125L40.6567 21.5092L40.9151 21.5851L40.4725 23.0507V23.0498Z" fill="white"/>
<path d="M41.2785 20.7136C41.1965 20.9245 41.075 21.0727 40.9142 21.1584C40.7534 21.244 40.576 21.2667 40.3814 21.2263L40.5048 20.9098C40.626 20.9289 40.7322 20.9125 40.8246 20.861C40.9164 20.8091 40.9831 20.731 41.0236 20.6266C41.0673 20.5144 41.0677 20.4065 41.0254 20.3026C40.9826 20.1988 40.8845 20.118 40.73 20.0594C40.5778 20.0017 40.4476 19.9959 40.34 20.0417C40.2324 20.0874 40.1558 20.1695 40.1099 20.2876C40.0788 20.367 40.0685 20.4438 40.0779 20.5184C40.0874 20.5929 40.1139 20.6542 40.1576 20.7017L40.0491 20.9804L38.957 20.4509L39.3988 19.3164L39.6505 19.4118L39.2651 20.4012L39.2506 20.2427L40.0023 20.5969L39.9491 20.6733C39.8987 20.6098 39.8676 20.5321 39.8559 20.4398C39.8442 20.3479 39.8604 20.2454 39.9041 20.1335C39.9545 20.0039 40.0275 19.8996 40.1225 19.8202C40.2175 19.7407 40.3283 19.6928 40.4544 19.6759C40.5805 19.6595 40.7147 19.6781 40.8574 19.7318C41.0043 19.7873 41.1177 19.8641 41.1992 19.9627C41.2803 20.0612 41.328 20.1744 41.3425 20.3031C41.3564 20.4318 41.3352 20.5685 41.279 20.7136H41.2785Z" fill="white"/>
<path d="M42.0386 18.9868C41.9589 19.1488 41.8445 19.2704 41.6955 19.3512C41.5464 19.432 41.3766 19.4693 41.1857 19.4631C40.9948 19.4568 40.798 19.4054 40.5953 19.3082C40.3927 19.2114 40.2319 19.0916 40.1121 18.9491C39.9928 18.8066 39.9203 18.6535 39.8941 18.4888C39.8685 18.3246 39.8955 18.1612 39.9752 17.9988C40.0549 17.8368 40.1684 17.7152 40.3148 17.6344C40.4616 17.5536 40.6282 17.5154 40.8155 17.5199C41.0029 17.5243 41.1979 17.5749 41.4005 17.6721C41.605 17.7698 41.7684 17.8909 41.8905 18.0343C42.0125 18.1781 42.0877 18.3326 42.1152 18.4977C42.1431 18.6628 42.1174 18.8257 42.0382 18.9859L42.0386 18.9868ZM41.7851 18.8652C41.8373 18.7591 41.849 18.6526 41.8198 18.5465C41.7905 18.4404 41.7261 18.3401 41.627 18.2451C41.528 18.1506 41.3992 18.0654 41.2411 17.9895C41.0848 17.9149 40.9398 17.8692 40.8056 17.8519C40.6714 17.835 40.5552 17.8483 40.4566 17.8923C40.358 17.9362 40.2823 18.0121 40.2287 18.1204C40.1747 18.2305 40.1612 18.3375 40.1878 18.4413C40.2148 18.5452 40.276 18.6437 40.3715 18.7365C40.467 18.8292 40.5926 18.9131 40.7489 18.9881C40.9069 19.0636 41.0551 19.1106 41.1934 19.1284C41.3316 19.1461 41.4514 19.1337 41.5527 19.0911C41.6541 19.0485 41.7315 18.9735 41.7846 18.8652H41.7851Z" fill="white"/>
<path d="M51.7847 9.38304C51.5829 9.49001 51.3929 9.52463 51.2141 9.48646C51.0358 9.44829 50.8858 9.35153 50.7651 9.19574L51.0678 9.03506C51.147 9.12738 51.2384 9.18331 51.3425 9.20328C51.4465 9.22326 51.5487 9.20639 51.6482 9.15357C51.7554 9.09676 51.8275 9.01509 51.864 8.90901C51.9004 8.80293 51.8793 8.67821 51.8009 8.53484C51.7234 8.39325 51.6289 8.30537 51.5167 8.2712C51.4051 8.23702 51.2925 8.24989 51.1794 8.30981C51.1033 8.3502 51.0448 8.40169 51.0025 8.46472C50.9606 8.52774 50.9403 8.59121 50.9417 8.65513L50.6751 8.79672L50.1973 7.69375L51.2826 7.11719L51.4105 7.3511L50.4639 7.85398L50.5575 7.72437L50.8935 8.47626L50.8025 8.50022C50.8061 8.41989 50.834 8.34088 50.8858 8.26321C50.9381 8.18598 51.0173 8.11851 51.125 8.0617C51.2488 7.99601 51.3731 7.96316 51.4978 7.96405C51.6226 7.96494 51.7383 7.99956 51.8446 8.06791C51.9513 8.13627 52.0409 8.23658 52.1134 8.36929C52.1877 8.50555 52.2233 8.63693 52.2197 8.76387C52.2161 8.89081 52.1774 9.00754 52.1031 9.11407C52.0288 9.22059 51.9225 9.31069 51.7833 9.38437L51.7847 9.38304Z" fill="white"/>
<path d="M53.5047 8.56178C53.3367 8.63324 53.1696 8.65188 53.0035 8.6177C52.8373 8.58308 52.6837 8.5023 52.5428 8.37492C52.4018 8.24753 52.287 8.08198 52.1974 7.87825C52.1077 7.67452 52.065 7.48056 52.0686 7.29547C52.0722 7.11083 52.1186 6.94794 52.2077 6.8068C52.2969 6.66565 52.4252 6.55913 52.5932 6.48767C52.7612 6.41621 52.9274 6.39668 53.0917 6.42952C53.2561 6.46237 53.4079 6.54093 53.547 6.66476C53.6862 6.7886 53.8006 6.95238 53.8897 7.15611C53.9802 7.36161 54.0239 7.55823 54.0217 7.74554C54.0194 7.93284 53.9739 8.0984 53.8857 8.24132C53.7974 8.38424 53.6704 8.49121 53.5042 8.56222L53.5047 8.56178ZM53.3926 8.30657C53.5024 8.25952 53.5817 8.18673 53.6294 8.0873C53.6776 7.98788 53.6952 7.8707 53.6826 7.73489C53.67 7.59951 53.629 7.45215 53.5592 7.29326C53.4903 7.13613 53.4106 7.0083 53.32 6.90933C53.2295 6.81035 53.1327 6.74599 53.0287 6.71581C52.9251 6.68563 52.817 6.6945 52.7053 6.74244C52.5914 6.79082 52.5103 6.86316 52.4622 6.95948C52.414 7.0558 52.3951 7.16942 52.4063 7.30125C52.4171 7.43307 52.4572 7.57732 52.5261 7.73444C52.5959 7.89334 52.6774 8.02383 52.7702 8.12636C52.8634 8.22889 52.962 8.29636 53.0674 8.3292C53.1723 8.36205 53.2809 8.3545 53.3926 8.30701V8.30657Z" fill="white"/>
<path d="M55.4713 7.82755C55.2974 7.88347 55.1295 7.88658 54.9669 7.83687C54.8048 7.78716 54.6593 7.69262 54.5314 7.5528C54.4035 7.41299 54.3044 7.23767 54.2346 7.0264C54.1648 6.81513 54.1405 6.61806 54.1617 6.4343C54.1828 6.25099 54.2445 6.09298 54.3468 5.96027C54.449 5.828 54.5868 5.73391 54.7606 5.67798C54.9345 5.62206 55.102 5.61806 55.2628 5.666C55.4235 5.71393 55.5672 5.80581 55.6942 5.94207C55.8207 6.07789 55.9193 6.25144 55.9891 6.46271C56.0594 6.67576 56.0846 6.87549 56.0643 7.06191C56.0441 7.24832 55.9833 7.40855 55.882 7.54304C55.7806 7.67753 55.6437 7.77207 55.4717 7.82755H55.4713ZM55.3839 7.56346C55.4978 7.52706 55.5834 7.46137 55.6406 7.36683C55.6978 7.27229 55.7266 7.15733 55.727 7.02107C55.727 6.88481 55.7005 6.73479 55.646 6.57012C55.5924 6.40767 55.5248 6.27274 55.4442 6.16577C55.3636 6.05881 55.2731 5.98557 55.1727 5.94607C55.0723 5.90657 54.9642 5.90523 54.848 5.94252C54.73 5.98024 54.6426 6.04505 54.5854 6.13604C54.5283 6.22747 54.499 6.33887 54.4972 6.47114C54.4954 6.60341 54.5215 6.75077 54.5755 6.91366C54.63 7.07833 54.6985 7.21592 54.7818 7.326C54.8647 7.43652 54.957 7.51286 55.0583 7.55547C55.1596 7.59808 55.2682 7.6003 55.3843 7.56301L55.3839 7.56346Z" fill="white"/>
<path d="M68.9551 7.6461C69.0834 7.32253 69.2631 7.02027 69.495 6.73975C69.7265 6.45924 70.0134 6.19914 70.3556 5.95902L70.3426 6.03492L69.1064 5.67274L69.1834 5.41797L70.6979 5.86137L70.6299 6.08685C70.4119 6.25684 70.2196 6.4295 70.0525 6.60438C69.8855 6.7797 69.7414 6.96123 69.6202 7.14854C69.4991 7.33629 69.3964 7.53646 69.3122 7.74996L68.9555 7.64565L68.9551 7.6461Z" fill="white"/>
<path d="M70.8784 8.30545C70.664 8.22511 70.5132 8.10616 70.4258 7.94815C70.3384 7.79014 70.3146 7.61526 70.3551 7.42307L70.6766 7.54336C70.6577 7.66275 70.6744 7.7675 70.7275 7.85805C70.7802 7.94859 70.8599 8.01384 70.9658 8.05334C71.0797 8.09595 71.1891 8.09639 71.2945 8.05378C71.3999 8.01117 71.4814 7.91397 71.5404 7.76173C71.5985 7.61127 71.6039 7.48344 71.557 7.37736C71.5102 7.27172 71.4269 7.19627 71.3067 7.15144C71.226 7.12126 71.1477 7.11105 71.072 7.12081C70.9964 7.13058 70.9342 7.15676 70.8865 7.19982L70.6037 7.09374L71.1373 6.01562L72.2897 6.44705L72.1938 6.6956L71.1887 6.31922L71.3494 6.30413L70.9923 7.04624L70.9144 6.99431C70.9788 6.94416 71.0576 6.91353 71.1508 6.90155C71.2441 6.88957 71.3481 6.9051 71.462 6.94771C71.5935 6.99698 71.6998 7.06844 71.7809 7.16209C71.8619 7.25574 71.911 7.36448 71.9281 7.48832C71.9457 7.6126 71.9272 7.74486 71.8727 7.88601C71.8169 8.0307 71.7394 8.143 71.6395 8.22378C71.5399 8.30412 71.4251 8.35161 71.2945 8.36581C71.1644 8.38001 71.0252 8.3596 70.8779 8.30456L70.8784 8.30545Z" fill="white"/>
<path d="M72.6315 9.04992C72.4666 8.97181 72.3428 8.85951 72.2604 8.71304C72.178 8.56657 72.1393 8.39924 72.1451 8.21105C72.1505 8.02285 72.2023 7.82845 72.3 7.62871C72.3977 7.42854 72.5184 7.26964 72.6625 7.15158C72.8066 7.03351 72.962 6.96116 73.1286 6.93542C73.2953 6.90968 73.461 6.93542 73.6258 7.01354C73.7906 7.09166 73.914 7.20306 73.9964 7.34687C74.0788 7.49112 74.118 7.65535 74.1144 7.83999C74.1104 8.02463 74.0599 8.21682 73.9622 8.41699C73.8636 8.61894 73.7415 8.78006 73.5965 8.90123C73.4511 9.02196 73.2948 9.09653 73.1273 9.12449C72.9598 9.15245 72.7945 9.1276 72.6315 9.05037V9.04992ZM72.754 8.79959C72.862 8.85063 72.9697 8.86173 73.0773 8.83244C73.1849 8.80314 73.2867 8.73967 73.3822 8.64158C73.4781 8.54349 73.5637 8.41655 73.6402 8.26031C73.7154 8.1063 73.7614 7.96293 73.778 7.83067C73.7947 7.6984 73.7807 7.58389 73.7357 7.48668C73.6907 7.38992 73.6137 7.31536 73.5038 7.26298C73.3921 7.21016 73.2836 7.19685 73.1782 7.22392C73.0728 7.251 72.9733 7.31136 72.8792 7.4059C72.785 7.50044 72.7008 7.62472 72.6252 7.77874C72.5491 7.93497 72.5022 8.081 72.4847 8.21726C72.4671 8.35352 72.4802 8.47159 72.5234 8.57145C72.5666 8.67132 72.6436 8.74722 72.7535 8.79915L72.754 8.79959Z" fill="white"/>
<path d="M82.7344 18.3941L84.4011 17.4452L84.4096 17.5087C84.3457 17.514 84.2732 17.5015 84.1912 17.4718C84.1092 17.4421 84.0286 17.399 83.9498 17.3435C83.8706 17.2881 83.7994 17.2224 83.7355 17.146L84.0093 16.9902C84.0678 17.0621 84.1372 17.1256 84.216 17.1811C84.2952 17.2366 84.3772 17.2796 84.4632 17.3098C84.5488 17.34 84.628 17.3537 84.7001 17.3506L84.8293 17.5712L82.8969 18.6711L82.7344 18.3937V18.3941Z" fill="white"/>
<path d="M83.4462 19.7826C83.3664 19.6202 83.3403 19.4568 83.3682 19.2913C83.3962 19.1262 83.4718 18.9712 83.5948 18.8274C83.7182 18.6832 83.8812 18.5629 84.0838 18.4661C84.2865 18.3694 84.4815 18.3188 84.6688 18.3148C84.8562 18.3104 85.0232 18.3494 85.17 18.4311C85.3168 18.5127 85.4303 18.6348 85.51 18.7973C85.5898 18.9597 85.6163 19.1222 85.5898 19.2859C85.5632 19.4493 85.4902 19.602 85.3709 19.7444C85.2516 19.8865 85.0903 20.0063 84.8877 20.1031C84.6832 20.2007 84.4855 20.2522 84.2955 20.258C84.1055 20.2633 83.9357 20.226 83.7871 20.1448C83.6385 20.064 83.5245 19.9433 83.4457 19.783L83.4462 19.7826ZM83.6997 19.6614C83.7519 19.768 83.8294 19.8425 83.9321 19.8856C84.0347 19.9286 84.1545 19.9411 84.2914 19.9229C84.4283 19.9047 84.5756 19.8581 84.7337 19.7826C84.8899 19.708 85.0165 19.6242 85.1128 19.5309C85.2092 19.4377 85.2705 19.3392 85.297 19.2358C85.3232 19.1324 85.3096 19.0267 85.2565 18.9184C85.2025 18.8084 85.1255 18.7316 85.0264 18.6881C84.9269 18.6446 84.8107 18.6308 84.6774 18.6472C84.5441 18.6637 84.3995 18.7089 84.2433 18.7835C84.0852 18.859 83.9564 18.9446 83.8564 19.0405C83.7564 19.1364 83.692 19.2367 83.6632 19.3414C83.6344 19.4462 83.6466 19.5527 83.6997 19.6605V19.6614Z" fill="white"/>
<path d="M84.272 21.6927C84.208 21.5236 84.1977 21.3585 84.2414 21.1965C84.2846 21.0344 84.3747 20.8875 84.5111 20.7557C84.6476 20.6239 84.8214 20.5187 85.0321 20.4415C85.2429 20.3638 85.4419 20.3314 85.6288 20.3447C85.8157 20.3576 85.9783 20.4117 86.117 20.5067C86.2557 20.6017 86.3566 20.7335 86.4205 20.9026C86.4845 21.0717 86.4957 21.236 86.4539 21.3962C86.412 21.5564 86.3246 21.702 86.1922 21.8325C86.0598 21.963 85.8878 22.0673 85.677 22.145C85.464 22.2235 85.2627 22.2564 85.0727 22.2444C84.8831 22.2324 84.7178 22.1791 84.5773 22.085C84.4368 21.9905 84.335 21.86 84.272 21.6931V21.6927ZM84.5363 21.5955C84.5782 21.706 84.648 21.7877 84.7462 21.84C84.8444 21.8924 84.9623 21.9159 85.1006 21.9106C85.2384 21.9053 85.3897 21.8724 85.5545 21.8116C85.7171 21.7517 85.8509 21.6798 85.9558 21.5959C86.0607 21.512 86.131 21.4197 86.167 21.3194C86.2026 21.2186 86.1994 21.1121 86.1566 20.9998C86.1134 20.8853 86.044 20.8019 85.9495 20.7495C85.8545 20.6971 85.7401 20.6727 85.6059 20.6767C85.4717 20.6807 85.3235 20.7127 85.1609 20.7726C84.9966 20.8329 84.8597 20.9066 84.7516 20.9927C84.6431 21.0793 84.5696 21.1729 84.5309 21.2746C84.4922 21.3762 84.494 21.4832 84.5368 21.5959L84.5363 21.5955Z" fill="white"/>
<path d="M84.913 23.6694C84.8653 23.4955 84.8707 23.3299 84.9292 23.1723C84.9878 23.0152 85.0909 22.8767 85.2395 22.7582C85.3877 22.6393 85.5705 22.5509 85.788 22.4928C86.0055 22.4347 86.2064 22.4209 86.3915 22.4511C86.5761 22.4813 86.7333 22.5501 86.8621 22.657C86.9909 22.7644 87.0796 22.9051 87.1273 23.0791C87.1751 23.2531 87.1705 23.4182 87.1138 23.5736C87.0571 23.7294 86.9566 23.8661 86.8121 23.9841C86.668 24.1022 86.4869 24.1901 86.2694 24.2478C86.0501 24.3064 85.8466 24.321 85.6583 24.2913C85.4705 24.262 85.3111 24.1941 85.1801 24.0871C85.049 23.9801 84.9599 23.8408 84.913 23.669V23.6694ZM85.1855 23.5971C85.2165 23.7112 85.2787 23.7986 85.3715 23.8599C85.4642 23.9211 85.5795 23.9553 85.7173 23.9624C85.8551 23.9695 86.0091 23.9508 86.1785 23.9056C86.346 23.8607 86.486 23.8017 86.5986 23.7276C86.7112 23.6535 86.7896 23.5682 86.8351 23.4715C86.8801 23.3747 86.8868 23.2682 86.8549 23.1524C86.8224 23.0343 86.7616 22.9451 86.672 22.8838C86.5824 22.823 86.4707 22.7884 86.337 22.78C86.2032 22.7715 86.0524 22.7897 85.8848 22.8346C85.7151 22.8798 85.5723 22.9402 85.4561 23.0165C85.3399 23.0924 85.258 23.1794 85.2098 23.2771C85.1616 23.3747 85.1535 23.4817 85.1855 23.5975V23.5971Z" fill="white"/>
<path d="M63.4682 30.7929C64.7968 30.7929 65.8739 29.7313 65.8739 28.4218C65.8739 27.1123 64.7968 26.0508 63.4682 26.0508C62.1396 26.0508 61.0625 27.1123 61.0625 28.4218C61.0625 29.7313 62.1396 30.7929 63.4682 30.7929Z" fill="#2E348E"/>
</g>
<path d="M2.96436 47.2598V39.4838H0.000359401V38.6198H6.91236V39.4838H3.94836V47.2598H2.96436ZM6.91508 47.2598V41.1398H7.81508V42.6998H7.87508V47.2598H6.91508ZM7.87508 44.0678L7.71908 42.6158C7.86308 42.0958 8.11908 41.6998 8.48708 41.4278C8.85508 41.1558 9.27908 41.0198 9.75908 41.0198C9.95908 41.0198 10.0951 41.0358 10.1671 41.0678V41.9918C10.1271 41.9758 10.0711 41.9678 9.99908 41.9678C9.92708 41.9598 9.83908 41.9558 9.73508 41.9558C9.12708 41.9558 8.66308 42.1398 8.34308 42.5078C8.03108 42.8678 7.87508 43.3878 7.87508 44.0678ZM13.3133 47.3798C12.9133 47.3798 12.5573 47.2998 12.2453 47.1398C11.9333 46.9718 11.6893 46.7398 11.5133 46.4438C11.3373 46.1398 11.2493 45.7918 11.2493 45.3998V41.1398H12.2093V45.1478C12.2093 45.6118 12.3213 45.9598 12.5453 46.1918C12.7773 46.4238 13.1053 46.5398 13.5293 46.5398C13.9133 46.5398 14.2533 46.4518 14.5493 46.2758C14.8453 46.0998 15.0773 45.8558 15.2453 45.5438C15.4213 45.2238 15.5093 44.8598 15.5093 44.4518L15.6653 45.9038C15.4653 46.3598 15.1533 46.7198 14.7293 46.9838C14.3053 47.2478 13.8333 47.3798 13.3133 47.3798ZM15.5693 47.2598V45.8198H15.5093V41.1398H16.4693V47.2598H15.5693ZM20.4403 47.3798C19.6883 47.3798 19.0883 47.2078 18.6403 46.8638C18.1923 46.5118 17.9363 46.0158 17.8723 45.3758H18.7963C18.8523 45.7678 19.0243 46.0678 19.3123 46.2758C19.6003 46.4838 19.9843 46.5878 20.4643 46.5878C20.8883 46.5878 21.2203 46.5078 21.4603 46.3478C21.7003 46.1878 21.8203 45.9598 21.8203 45.6638C21.8203 45.4558 21.7523 45.2758 21.6163 45.1238C21.4803 44.9638 21.2083 44.8318 20.8003 44.7278L19.8163 44.4758C19.2563 44.3318 18.8363 44.1118 18.5563 43.8158C18.2763 43.5118 18.1363 43.1518 18.1363 42.7358C18.1363 42.2078 18.3323 41.7918 18.7243 41.4878C19.1163 41.1758 19.6483 41.0198 20.3203 41.0198C20.9843 41.0198 21.5243 41.1798 21.9403 41.4998C22.3563 41.8198 22.5923 42.2638 22.6483 42.8318H21.7243C21.6683 42.5038 21.5163 42.2518 21.2683 42.0758C21.0203 41.8998 20.6923 41.8118 20.2843 41.8118C19.8923 41.8118 19.5883 41.8878 19.3723 42.0398C19.1563 42.1838 19.0483 42.3918 19.0483 42.6638C19.0483 42.8718 19.1243 43.0518 19.2763 43.2038C19.4363 43.3558 19.7003 43.4838 20.0683 43.5878L21.0283 43.8518C21.5963 44.0038 22.0243 44.2358 22.3123 44.5478C22.6003 44.8598 22.7443 45.2358 22.7443 45.6758C22.7443 46.2118 22.5403 46.6318 22.1323 46.9358C21.7243 47.2318 21.1603 47.3798 20.4403 47.3798ZM26.4842 47.3678C25.8042 47.3678 25.3082 47.2158 24.9962 46.9118C24.6922 46.5998 24.5402 46.1518 24.5402 45.5678V39.7118L25.5002 39.3518V45.5558C25.5002 45.8998 25.5882 46.1518 25.7642 46.3118C25.9402 46.4718 26.2282 46.5518 26.6282 46.5518C26.7882 46.5518 26.9242 46.5438 27.0362 46.5278C27.1562 46.5038 27.2522 46.4758 27.3242 46.4438V47.2598C27.2442 47.2918 27.1282 47.3158 26.9762 47.3318C26.8322 47.3558 26.6682 47.3678 26.4842 47.3678ZM23.2802 41.9558V41.1398H27.3242V41.9558H23.2802ZM31.4541 47.3678C30.4461 47.3678 29.6421 47.1198 29.0421 46.6238C28.4501 46.1278 28.1021 45.4198 27.9981 44.4998H28.9581C29.0461 45.1638 29.2981 45.6638 29.7141 45.9998C30.1301 46.3358 30.7061 46.5038 31.4421 46.5038C32.0661 46.5038 32.5341 46.3878 32.8461 46.1558C33.1661 45.9158 33.3261 45.5678 33.3261 45.1118C33.3261 44.7198 33.2181 44.4078 33.0021 44.1758C32.7861 43.9438 32.4501 43.7518 31.9941 43.5998L30.5421 43.0958C29.8061 42.8398 29.2621 42.5318 28.9101 42.1718C28.5581 41.8038 28.3821 41.3398 28.3821 40.7798C28.3821 40.3158 28.4981 39.9158 28.7301 39.5798C28.9621 39.2358 29.2901 38.9678 29.7141 38.7758C30.1381 38.5838 30.6301 38.4878 31.1901 38.4878C32.0541 38.4878 32.7461 38.7158 33.2661 39.1718C33.7861 39.6198 34.0861 40.2598 34.1661 41.0918H33.2061C33.1021 40.4918 32.8861 40.0518 32.5581 39.7718C32.2381 39.4918 31.7741 39.3518 31.1661 39.3518C30.5901 39.3518 30.1421 39.4678 29.8221 39.6998C29.5021 39.9318 29.3421 40.2598 29.3421 40.6838C29.3421 41.0438 29.4541 41.3318 29.6781 41.5478C29.9021 41.7638 30.2501 41.9518 30.7221 42.1118L32.2701 42.6518C32.9421 42.8838 33.4461 43.1998 33.7821 43.5998C34.1181 43.9918 34.2861 44.4918 34.2861 45.0998C34.2861 45.8198 34.0381 46.3798 33.5421 46.7798C33.0541 47.1718 32.3581 47.3678 31.4541 47.3678ZM38.1555 47.3798C37.5955 47.3798 37.0955 47.2438 36.6555 46.9718C36.2235 46.6918 35.8795 46.3118 35.6235 45.8318C35.3755 45.3438 35.2515 44.7918 35.2515 44.1758C35.2515 43.5598 35.3755 43.0158 35.6235 42.5438C35.8795 42.0718 36.2235 41.6998 36.6555 41.4278C37.0955 41.1558 37.5915 41.0198 38.1435 41.0198C38.5995 41.0198 39.0075 41.1078 39.3675 41.2838C39.7355 41.4598 40.0355 41.7118 40.2675 42.0398C40.5075 42.3598 40.6595 42.7358 40.7235 43.1678H39.8355C39.7555 42.7758 39.5715 42.4558 39.2835 42.2078C38.9955 41.9598 38.6235 41.8358 38.1675 41.8358C37.7755 41.8358 37.4355 41.9318 37.1475 42.1238C36.8595 42.3158 36.6355 42.5878 36.4755 42.9398C36.3155 43.2918 36.2355 43.7038 36.2355 44.1758C36.2355 44.6478 36.3155 45.0638 36.4755 45.4238C36.6355 45.7838 36.8595 46.0638 37.1475 46.2638C37.4435 46.4638 37.7875 46.5638 38.1795 46.5638C38.6195 46.5638 38.9875 46.4438 39.2835 46.2038C39.5795 45.9558 39.7675 45.6358 39.8475 45.2438H40.7355C40.6635 45.6678 40.5035 46.0438 40.2555 46.3718C40.0155 46.6918 39.7155 46.9398 39.3555 47.1158C38.9955 47.2918 38.5955 47.3798 38.1555 47.3798ZM44.6505 47.3798C44.0505 47.3798 43.5225 47.2398 43.0665 46.9598C42.6105 46.6798 42.2545 46.2998 41.9985 45.8198C41.7505 45.3318 41.6265 44.7838 41.6265 44.1758C41.6265 43.5598 41.7545 43.0158 42.0105 42.5438C42.2665 42.0718 42.6185 41.6998 43.0665 41.4278C43.5225 41.1558 44.0505 41.0198 44.6505 41.0198C45.2585 41.0198 45.7865 41.1558 46.2345 41.4278C46.6905 41.6998 47.0425 42.0718 47.2905 42.5438C47.5465 43.0158 47.6745 43.5598 47.6745 44.1758C47.6745 44.7838 47.5465 45.3318 47.2905 45.8198C47.0425 46.2998 46.6905 46.6798 46.2345 46.9598C45.7865 47.2398 45.2585 47.3798 44.6505 47.3798ZM44.6505 46.5638C45.0665 46.5638 45.4265 46.4638 45.7305 46.2638C46.0345 46.0558 46.2705 45.7718 46.4385 45.4118C46.6065 45.0518 46.6905 44.6358 46.6905 44.1638C46.6905 43.4598 46.5025 42.8958 46.1265 42.4718C45.7585 42.0478 45.2665 41.8358 44.6505 41.8358C44.0425 41.8358 43.5505 42.0478 43.1745 42.4718C42.7985 42.8958 42.6105 43.4598 42.6105 44.1638C42.6105 44.6358 42.6945 45.0518 42.8625 45.4118C43.0305 45.7718 43.2665 46.0558 43.5705 46.2638C43.8825 46.4638 44.2425 46.5638 44.6505 46.5638ZM49.1143 47.2598V41.1398H50.0143V42.6998H50.0743V47.2598H49.1143ZM50.0743 44.0678L49.9183 42.6158C50.0623 42.0958 50.3183 41.6998 50.6863 41.4278C51.0543 41.1558 51.4783 41.0198 51.9583 41.0198C52.1583 41.0198 52.2943 41.0358 52.3663 41.0678V41.9918C52.3263 41.9758 52.2703 41.9678 52.1983 41.9678C52.1263 41.9598 52.0383 41.9558 51.9343 41.9558C51.3263 41.9558 50.8623 42.1398 50.5423 42.5078C50.2303 42.8678 50.0743 43.3878 50.0743 44.0678ZM55.9114 47.3798C55.3274 47.3798 54.8114 47.2438 54.3634 46.9718C53.9154 46.6918 53.5634 46.3118 53.3074 45.8318C53.0514 45.3518 52.9234 44.7998 52.9234 44.1758C52.9234 43.5518 53.0474 43.0038 53.2954 42.5318C53.5514 42.0518 53.9074 41.6798 54.3634 41.4158C54.8194 41.1518 55.3434 41.0198 55.9354 41.0198C56.5034 41.0198 56.9954 41.1438 57.4114 41.3918C57.8354 41.6398 58.1594 41.9878 58.3834 42.4358C58.6154 42.8838 58.7314 43.4118 58.7314 44.0198C58.7314 44.0998 58.7274 44.1758 58.7194 44.2478C58.7194 44.3198 58.7114 44.3998 58.6954 44.4878H53.6434V43.6838H58.1074L57.7954 44.1278C57.7954 43.3918 57.6314 42.8278 57.3034 42.4358C56.9834 42.0358 56.5274 41.8358 55.9354 41.8358C55.3274 41.8358 54.8354 42.0478 54.4594 42.4718C54.0914 42.8878 53.9074 43.4518 53.9074 44.1638C53.9074 44.8918 54.0914 45.4758 54.4594 45.9158C54.8354 46.3478 55.3354 46.5638 55.9594 46.5638C56.3514 46.5638 56.6954 46.4798 56.9914 46.3118C57.2874 46.1358 57.5034 45.8878 57.6394 45.5678H58.5514C58.3514 46.1278 58.0154 46.5718 57.5434 46.8998C57.0794 47.2198 56.5354 47.3798 55.9114 47.3798ZM62.5791 44.4518V43.5398H66.7311V44.4518H62.5791Z" fill="#415362"/>
<path d="M74.7238 47.2598V44.9798L74.7718 44.7398V39.8078L75.2278 39.9398L71.6278 44.8118L71.1358 44.3438H77.0638V45.3878H70.4638V44.4158L74.7718 38.6198H76.0318V47.2598H74.7238ZM80.8969 47.3798C80.0249 47.3798 79.3249 47.1518 78.7969 46.6958C78.2689 46.2318 77.9449 45.6198 77.8249 44.8598H79.1329C79.2289 45.3238 79.4329 45.6878 79.7449 45.9518C80.0569 46.2078 80.4289 46.3358 80.8609 46.3358C81.3249 46.3358 81.7129 46.1878 82.0249 45.8918C82.3449 45.5878 82.5049 45.1158 82.5049 44.4758C82.5049 43.8438 82.3489 43.3678 82.0369 43.0478C81.7249 42.7198 81.3249 42.5558 80.8369 42.5558C80.5089 42.5558 80.2169 42.6278 79.9609 42.7718C79.7049 42.9078 79.5209 43.0878 79.4089 43.3118H78.2569L78.6769 38.6198H83.3689V39.6638H79.2769L79.8289 39.3878L79.5769 42.6038L79.2289 42.5198C79.3889 42.2478 79.6249 42.0278 79.9369 41.8598C80.2569 41.6838 80.6489 41.5958 81.1129 41.5958C81.6489 41.5958 82.1249 41.7118 82.5409 41.9438C82.9569 42.1758 83.2809 42.5078 83.5129 42.9398C83.7449 43.3718 83.8609 43.8838 83.8609 44.4758C83.8609 45.0838 83.7369 45.6038 83.4889 46.0358C83.2489 46.4678 82.9049 46.7998 82.4569 47.0318C82.0169 47.2638 81.4969 47.3798 80.8969 47.3798ZM87.8226 47.3798C86.9506 47.3798 86.2506 47.1518 85.7226 46.6958C85.1946 46.2318 84.8706 45.6198 84.7506 44.8598H86.0586C86.1546 45.3238 86.3586 45.6878 86.6706 45.9518C86.9826 46.2078 87.3546 46.3358 87.7866 46.3358C88.2506 46.3358 88.6386 46.1878 88.9506 45.8918C89.2706 45.5878 89.4306 45.1158 89.4306 44.4758C89.4306 43.8438 89.2746 43.3678 88.9626 43.0478C88.6506 42.7198 88.2506 42.5558 87.7626 42.5558C87.4346 42.5558 87.1426 42.6278 86.8866 42.7718C86.6306 42.9078 86.4466 43.0878 86.3346 43.3118H85.1826L85.6026 38.6198H90.2946V39.6638H86.2026L86.7546 39.3878L86.5026 42.6038L86.1546 42.5198C86.3146 42.2478 86.5506 42.0278 86.8626 41.8598C87.1826 41.6838 87.5746 41.5958 88.0386 41.5958C88.5746 41.5958 89.0506 41.7118 89.4666 41.9438C89.8826 42.1758 90.2066 42.5078 90.4386 42.9398C90.6706 43.3718 90.7866 43.8838 90.7866 44.4758C90.7866 45.0838 90.6626 45.6038 90.4146 46.0358C90.1746 46.4678 89.8306 46.7998 89.3826 47.0318C88.9426 47.2638 88.4226 47.3798 87.8226 47.3798ZM91.3045 48.0638L94.3885 38.1758H95.4685L92.3845 48.0638H91.3045ZM98.2178 47.2598V39.8078L98.4458 39.9038C98.3418 40.1278 98.1618 40.3478 97.9058 40.5638C97.6498 40.7798 97.3538 40.9678 97.0178 41.1278C96.6818 41.2798 96.3258 41.3878 95.9498 41.4518V40.2278C96.3018 40.1718 96.6458 40.0678 96.9818 39.9158C97.3178 39.7558 97.6178 39.5638 97.8818 39.3398C98.1458 39.1078 98.3418 38.8678 98.4698 38.6198H99.4538V47.2598H98.2178ZM104.37 47.3798C103.674 47.3798 103.062 47.1918 102.534 46.8158C102.006 46.4318 101.594 45.9038 101.298 45.2318C101.002 44.5518 100.854 43.7758 100.854 42.9038C100.854 42.0318 101.002 41.2678 101.298 40.6118C101.594 39.9478 102.006 39.4318 102.534 39.0638C103.062 38.6878 103.674 38.4998 104.37 38.4998C105.066 38.4998 105.674 38.6878 106.194 39.0638C106.722 39.4318 107.134 39.9478 107.43 40.6118C107.726 41.2678 107.874 42.0318 107.874 42.9038C107.874 43.7838 107.726 44.5598 107.43 45.2318C107.134 45.9038 106.722 46.4318 106.194 46.8158C105.666 47.1918 105.058 47.3798 104.37 47.3798ZM104.37 46.2878C104.826 46.2878 105.214 46.1478 105.534 45.8678C105.854 45.5798 106.094 45.1838 106.254 44.6798C106.422 44.1678 106.506 43.5718 106.506 42.8918C106.506 42.2198 106.422 41.6358 106.254 41.1398C106.094 40.6438 105.854 40.2638 105.534 39.9998C105.222 39.7278 104.834 39.5918 104.37 39.5918C103.898 39.5918 103.502 39.7278 103.182 39.9998C102.87 40.2718 102.63 40.6558 102.462 41.1518C102.302 41.6398 102.222 42.2198 102.222 42.8918C102.222 43.5718 102.306 44.1678 102.474 44.6798C102.642 45.1918 102.882 45.5878 103.194 45.8678C103.514 46.1478 103.906 46.2878 104.37 46.2878ZM112.585 47.3798C111.889 47.3798 111.277 47.1918 110.749 46.8158C110.221 46.4318 109.809 45.9038 109.513 45.2318C109.217 44.5518 109.069 43.7758 109.069 42.9038C109.069 42.0318 109.217 41.2678 109.513 40.6118C109.809 39.9478 110.221 39.4318 110.749 39.0638C111.277 38.6878 111.889 38.4998 112.585 38.4998C113.281 38.4998 113.889 38.6878 114.409 39.0638C114.937 39.4318 115.349 39.9478 115.645 40.6118C115.941 41.2678 116.089 42.0318 116.089 42.9038C116.089 43.7838 115.941 44.5598 115.645 45.2318C115.349 45.9038 114.937 46.4318 114.409 46.8158C113.881 47.1918 113.273 47.3798 112.585 47.3798ZM112.585 46.2878C113.041 46.2878 113.429 46.1478 113.749 45.8678C114.069 45.5798 114.309 45.1838 114.469 44.6798C114.637 44.1678 114.721 43.5718 114.721 42.8918C114.721 42.2198 114.637 41.6358 114.469 41.1398C114.309 40.6438 114.069 40.2638 113.749 39.9998C113.437 39.7278 113.049 39.5918 112.585 39.5918C112.113 39.5918 111.717 39.7278 111.397 39.9998C111.085 40.2718 110.845 40.6558 110.677 41.1518C110.517 41.6398 110.437 42.2198 110.437 42.8918C110.437 43.5718 110.521 44.1678 110.689 44.6798C110.857 45.1918 111.097 45.5878 111.409 45.8678C111.729 46.1478 112.121 46.2878 112.585 46.2878ZM120.8 47.3798C120.104 47.3798 119.492 47.1918 118.964 46.8158C118.436 46.4318 118.024 45.9038 117.728 45.2318C117.432 44.5518 117.284 43.7758 117.284 42.9038C117.284 42.0318 117.432 41.2678 117.728 40.6118C118.024 39.9478 118.436 39.4318 118.964 39.0638C119.492 38.6878 120.104 38.4998 120.8 38.4998C121.496 38.4998 122.104 38.6878 122.624 39.0638C123.152 39.4318 123.564 39.9478 123.86 40.6118C124.156 41.2678 124.304 42.0318 124.304 42.9038C124.304 43.7838 124.156 44.5598 123.86 45.2318C123.564 45.9038 123.152 46.4318 122.624 46.8158C122.096 47.1918 121.488 47.3798 120.8 47.3798ZM120.8 46.2878C121.256 46.2878 121.644 46.1478 121.964 45.8678C122.284 45.5798 122.524 45.1838 122.684 44.6798C122.852 44.1678 122.936 43.5718 122.936 42.8918C122.936 42.2198 122.852 41.6358 122.684 41.1398C122.524 40.6438 122.284 40.2638 121.964 39.9998C121.652 39.7278 121.264 39.5918 120.8 39.5918C120.328 39.5918 119.932 39.7278 119.612 39.9998C119.3 40.2718 119.06 40.6558 118.892 41.1518C118.732 41.6398 118.652 42.2198 118.652 42.8918C118.652 43.5718 118.736 44.1678 118.904 44.6798C119.072 45.1918 119.312 45.5878 119.624 45.8678C119.944 46.1478 120.336 46.2878 120.8 46.2878Z" fill="#101B25"/>
<defs>
<clipPath id="clip0_13274_299758">
<rect width="57.2407" height="32.0548" fill="white" transform="translate(33.9473)"/>
</clipPath>
</defs>
</svg>
