<svg width="25" height="25" viewBox="0 0 25 25" fill="none" xmlns="http://www.w3.org/2000/svg">
<path d="M12.4987 22.9193C18.2517 22.9193 22.9154 18.2556 22.9154 12.5026C22.9154 6.74964 18.2517 2.08594 12.4987 2.08594C6.74573 2.08594 2.08203 6.74964 2.08203 12.5026C2.08203 18.2556 6.74573 22.9193 12.4987 22.9193Z" stroke="#101828" stroke-width="1.32812" stroke-linecap="round" stroke-linejoin="round"/>
<path d="M16.6654 8.33594H10.4154C9.86283 8.33594 9.33293 8.55543 8.94223 8.94613C8.55153 9.33683 8.33203 9.86674 8.33203 10.4193C8.33203 10.9718 8.55153 11.5017 8.94223 11.8924C9.33293 12.2831 9.86283 12.5026 10.4154 12.5026H14.582C15.1346 12.5026 15.6645 12.7221 16.0552 13.1128C16.4459 13.5035 16.6654 14.0334 16.6654 14.5859C16.6654 15.1385 16.4459 15.6684 16.0552 16.0591C15.6645 16.4498 15.1346 16.6693 14.582 16.6693H8.33203" stroke="#101828" stroke-width="1.32812" stroke-linecap="round" stroke-linejoin="round"/>
<path d="M12.5 18.75V6.25" stroke="#101828" stroke-width="1.32812" stroke-linecap="round" stroke-linejoin="round"/>
</svg>
