<svg width="32" height="32" viewBox="0 0 32 32" fill="none" xmlns="http://www.w3.org/2000/svg">
<rect width="32" height="32" rx="16" fill="#ECEEEF"/>
<g clip-path="url(#clip0_13358_102398)">
<path d="M16 8.66406V23.3307" stroke="#101B25" stroke-linecap="round" stroke-linejoin="round"/>
<path d="M19.3333 11.3359H14.3333C13.7145 11.3359 13.121 11.5818 12.6834 12.0194C12.2458 12.4569 12 13.0504 12 13.6693C12 14.2881 12.2458 14.8816 12.6834 15.3192C13.121 15.7568 13.7145 16.0026 14.3333 16.0026H17.6667C18.2855 16.0026 18.879 16.2484 19.3166 16.686C19.7542 17.1236 20 17.7171 20 18.3359C20 18.9548 19.7542 19.5483 19.3166 19.9859C18.879 20.4234 18.2855 20.6693 17.6667 20.6693H12" stroke="#101B25" stroke-linecap="round" stroke-linejoin="round"/>
</g>
<defs>
<clipPath id="clip0_13358_102398">
<rect width="16" height="16" fill="white" transform="translate(8 8)"/>
</clipPath>
</defs>
</svg>
