<svg width="24" height="24" viewBox="0 0 24 24" fill="none" xmlns="http://www.w3.org/2000/svg">
<path d="M14 2H6C5.4696 2 4.9609 2.2107 4.5858 2.5858C4.2107 2.9609 4 3.4696 4 4V20C4 20.5304 4.2107 21.0391 4.5858 21.4142C4.9609 21.7893 5.4696 22 6 22H18C18.5304 22 19.0391 21.7893 19.4142 21.4142C19.7893 21.0391 20 20.5304 20 20V8L14 2Z" stroke="#415362" stroke-width="1.5" stroke-linecap="round" stroke-linejoin="round"/>
<path d="M14 2V8H20" stroke="#415362" stroke-width="1.5" stroke-linecap="round" stroke-linejoin="round"/>
<path d="M16 13H8" stroke="#415362" stroke-width="1.5" stroke-linecap="round" stroke-linejoin="round"/>
<path d="M16 17H8" stroke="#415362" stroke-width="1.5" stroke-linecap="round" stroke-linejoin="round"/>
<path d="M10 9H9H8" stroke="#415362" stroke-width="1.5" stroke-linecap="round" stroke-linejoin="round"/>
</svg>
