<svg width="80" height="80" viewBox="0 0 80 80" fill="none" xmlns="http://www.w3.org/2000/svg">
<rect width="80" height="80" rx="40" fill="#F6F7F9"/>
<path d="M43.3334 23.333H30.0001C29.116 23.333 28.2682 23.6842 27.6431 24.3093C27.0179 24.9344 26.6667 25.7823 26.6667 26.6663V53.333C26.6667 54.2171 27.0179 55.0649 27.6431 55.69C28.2682 56.3152 29.116 56.6663 30.0001 56.6663H50.0001C50.8841 56.6663 51.732 56.3152 52.3571 55.69C52.9822 55.0649 53.3334 54.2171 53.3334 53.333V33.333V26.6663C53.3334 24.8254 51.841 23.333 50.0001 23.333H43.3334Z" stroke="#415362" stroke-width="2.5" stroke-linecap="round" stroke-linejoin="round"/>
<path d="M46.6666 41.667H33.3333" stroke="#415362" stroke-width="2.5" stroke-linecap="round" stroke-linejoin="round"/>
<path d="M46.6666 35H33.3333" stroke="#415362" stroke-width="2.5" stroke-linecap="round" stroke-linejoin="round"/>
<path d="M36.6666 48.333H34.9999H33.3333" stroke="#415362" stroke-width="2.5" stroke-linecap="round" stroke-linejoin="round"/>
</svg>
