<svg width="180" height="95" viewBox="0 0 180 95" fill="none" xmlns="http://www.w3.org/2000/svg">
<path d="M89.999 0.611328H90.0596C96.103 0.615552 102.145 1.22641 108.019 2.42871C113.41 3.53213 118.719 5.14448 123.816 7.22559L124.833 7.64844C130.138 9.89115 135.253 12.6678 140.037 15.9004C144.696 19.0485 149.087 22.6598 153.086 26.6357L153.089 26.6387L153.158 26.7061L153.161 26.709C153.202 26.7484 153.235 26.7808 153.266 26.8125L153.272 26.8184C157.319 30.8649 160.992 35.3179 164.19 40.0527C167.422 44.8369 170.198 49.952 172.442 55.2568C174.729 60.663 176.485 66.3202 177.662 72.0713C178.847 77.8624 179.457 83.8164 179.478 89.7744V91.6465H153.392V90.0586C153.387 81.5059 151.714 73.2152 148.415 65.417C146.827 61.6628 144.861 58.0416 142.572 54.6533C140.302 51.2937 137.695 48.1339 134.824 45.2627L134.815 45.2539L134.778 45.2178C134.764 45.2033 134.743 45.1829 134.723 45.1631L134.646 45.0869C131.819 42.282 128.72 39.7337 125.434 37.5137C122.045 35.2249 118.424 33.2588 114.67 31.6709C106.882 28.3765 98.6004 26.7029 90.0576 26.6943H89.998C81.438 26.6943 73.1349 28.3694 65.3281 31.6709C61.5742 33.2587 57.9535 35.225 54.5654 37.5137C51.9529 39.2779 49.4518 41.2551 47.1162 43.4014L46.125 44.332C45.7821 44.6622 45.4709 44.9666 45.1748 45.2627C42.3035 48.134 39.696 51.2936 37.4258 54.6533C35.137 58.0415 33.1709 61.6629 31.583 65.417C28.2845 73.2151 26.6098 81.5059 26.6055 90.0586V91.6465H0.520508V90.0576L0.52832 88.9229C0.602202 83.2498 1.20942 77.585 2.33789 72.0693C3.51488 66.3182 5.27125 60.6611 7.55762 55.2549C9.80032 49.9501 12.577 44.8349 15.8096 40.0508C19.0083 35.3161 22.6812 30.8638 26.7275 26.8174L27.7178 25.8447C31.4998 22.181 35.6186 18.8344 39.9619 15.9004C44.7461 12.6692 49.8612 9.89257 55.166 7.64844C60.5721 5.36211 66.2294 3.60568 71.9805 2.42871C77.8749 1.22226 83.9362 0.611346 89.999 0.611328Z" fill="white" stroke="#DFE1E3" stroke-width="1.04132"/>
<path d="M176.109 72.3907C174.954 66.7417 173.229 61.1862 170.983 55.8772C168.78 50.6672 166.052 45.6428 162.877 40.9441C159.735 36.2921 156.126 31.9191 152.151 27.944C152.091 27.8831 152.03 27.8251 151.97 27.7642C148.045 23.8613 143.734 20.3139 139.153 17.2183C134.454 14.0433 129.43 11.3172 124.22 9.11233C118.911 6.86635 113.355 5.14149 107.706 3.98593C101.937 2.80488 96.0019 2.20444 90.0654 2.2002C90.0456 2.2002 90.0258 2.2002 90.0046 2.2002C84.0483 2.2002 78.0935 2.80063 72.3044 3.98593C66.6554 5.14149 61.0999 6.86635 55.7909 9.11233C50.5809 11.3158 45.5565 14.0433 40.8578 17.2183C36.5825 20.1072 32.5423 23.3897 28.8306 26.9881C28.5035 27.3053 28.1792 27.6226 27.8577 27.944C23.884 31.9177 20.2743 36.2921 17.1319 40.9441C13.957 45.6428 11.2309 50.6672 9.02602 55.8772C6.78004 61.1862 5.05519 66.7417 3.89963 72.3907C2.71716 78.1699 2.11672 84.1162 2.11389 90.0611H25.0212C25.0255 81.2939 26.7418 72.7957 30.1235 64.8002C31.7506 60.9526 33.7658 57.2395 36.1123 53.7657C38.439 50.3217 41.1113 47.0844 44.054 44.1403C44.3754 43.8188 44.7012 43.5016 45.0297 43.1872C47.7076 40.6184 50.6121 38.2719 53.6794 36.1986C57.1532 33.8521 60.8649 31.837 64.7139 30.2098C72.7179 26.8239 81.2274 25.1075 90.0046 25.1075C90.0244 25.1075 90.0442 25.1075 90.0654 25.1075C98.8214 25.116 107.31 26.8309 115.295 30.2098C119.143 31.837 122.856 33.8521 126.33 36.1986C129.703 38.4772 132.878 41.0885 135.772 43.9604C135.833 44.0199 135.894 44.0794 135.954 44.1403C138.898 47.083 141.569 50.3217 143.895 53.7657C146.242 57.2395 148.257 60.9512 149.884 64.8002C153.266 72.7957 154.982 81.2939 154.987 90.0611H177.894C177.892 84.1162 177.291 78.1699 176.108 72.3907H176.109Z" fill="white"/>
<path d="M150.992 64.3296C149.334 60.4098 147.282 56.6287 144.892 53.0912C142.699 49.8455 140.206 46.7796 137.47 43.9643L151.964 29.4702C155.62 33.2088 158.952 37.2915 161.875 41.6164C165.006 46.2514 167.696 51.2064 169.869 56.3441C172.084 61.5795 173.785 67.06 174.925 72.6296C176.011 77.9387 176.6 83.3908 176.677 88.8528H156.178C156.024 80.3503 154.282 72.1056 150.992 64.3282V64.3296Z" fill="#05AA4E"/>
<path d="M174.925 72.6296C173.785 67.0599 172.084 61.5795 169.869 56.3441C167.696 51.205 165.006 46.2499 161.875 41.6163C158.952 37.2901 155.622 33.2088 151.964 29.4702L137.47 43.9643C140.204 46.7796 142.698 49.8455 144.892 53.0912C147.282 56.6287 149.334 60.4112 150.992 64.3296C154.282 72.107 156.024 80.3517 156.178 88.8542H176.677C176.6 83.3922 176.011 77.9401 174.925 72.631V72.6296Z" fill="#05AA4E"/>
<path d="M138.477 18.2159C133.842 15.0849 128.887 12.3956 123.749 10.2219C118.513 8.00705 113.033 6.30629 107.463 5.1663C102.164 4.08155 96.722 3.49385 91.2699 3.41455V23.913C99.7624 24.0702 107.997 25.8135 115.765 29.0975C119.685 30.7558 123.466 32.8077 127.003 35.1982C130.104 37.2926 133.046 39.6675 135.76 42.2646L150.256 27.7691C146.615 24.2486 142.658 21.0383 138.477 18.2145V18.2159Z" fill="#FDD600"/>
<path d="M88.8629 23.9111C80.3278 24.0541 72.052 25.7974 64.2477 29.0984C60.3279 30.7566 56.5468 32.8086 53.0093 35.199C50.2167 37.0853 47.5473 39.2039 45.0592 41.5065L30.558 27.0053C33.9751 23.785 37.6641 20.831 41.5344 18.2154C46.1694 15.0843 51.1244 12.3951 56.2622 10.2213C61.4976 8.00652 66.978 6.30575 72.5476 5.16577C77.8864 4.07393 83.3697 3.48482 88.8614 3.4126V23.9097L88.8629 23.9111Z" fill="#F68922"/>
<path d="M56.2622 10.2219C51.123 12.3956 46.168 15.0849 41.5344 18.2159C37.6627 20.8315 33.9751 23.7842 30.558 27.0059L45.0592 41.507C47.5473 39.2044 50.2167 37.0873 53.0093 35.1996C56.5468 32.8091 60.3293 30.7572 64.2477 29.0989C72.052 25.7979 80.3278 24.0546 88.8629 23.9116V3.41455C83.3711 3.48677 77.8879 4.07588 72.5491 5.16772C66.9794 6.3077 61.499 8.00847 56.2636 10.2233L56.2622 10.2219Z" fill="#F68922"/>
<path d="M43.2018 43.2857C40.2039 46.2836 37.4835 49.5818 35.1129 53.0881C32.7225 56.6256 30.6705 60.4081 29.0122 64.3266C25.7226 72.1039 23.9807 80.3486 23.8263 88.8511H3.32788C3.40435 83.3891 3.99346 77.937 5.07963 72.6279C6.21962 67.0583 7.92039 61.5779 10.1352 56.3424C12.309 51.2033 14.9982 46.2483 18.1293 41.6147C21.2292 37.0264 24.7879 32.7129 28.7078 28.793C28.7446 28.7562 28.7814 28.7194 28.8196 28.6812L43.3123 43.1738C43.2741 43.2106 43.2372 43.2489 43.2004 43.2857H43.2018Z" fill="#EF3C38"/>
<path d="M28.7078 28.793C24.7879 32.7129 21.2278 37.0278 18.1293 41.6147C14.9982 46.2497 12.309 51.2047 10.1352 56.3424C7.92039 61.5779 6.21962 67.0583 5.07963 72.6279C3.99346 77.937 3.40435 83.3891 3.32788 88.8511H23.8264C23.9807 80.3486 25.7225 72.1039 29.0122 64.3266C30.6705 60.4067 32.7225 56.6256 35.1129 53.0881C37.4821 49.5804 40.2039 46.2822 43.2018 43.2857C43.2387 43.2489 43.2769 43.2106 43.3137 43.1738L28.821 28.6812C28.7828 28.7194 28.746 28.7562 28.7092 28.793H28.7078Z" fill="#EF3C38"/>
<path d="M51.2366 79.6645C50.9024 79.1462 51.2366 78.5784 51.8257 78.6039L85.7094 82.8522C86.831 82.8353 87.304 81.6811 88.1607 81.0623C94.5616 76.4542 102.418 84.0715 98.354 90.5829C94.9539 96.0293 87.1185 94.3484 85.3228 88.5026C74.7401 85.1846 63.5668 83.2927 52.8595 80.2692C52.4771 80.1616 51.4065 79.9265 51.2366 79.6631V79.6645Z" fill="#2E348E"/>
<path d="M20.5307 69.5418L19.7178 69.2997C19.3808 68.4755 19.0792 67.7802 18.8129 67.2151C18.5467 66.6501 18.2989 66.1885 18.0666 65.8288C17.8344 65.4705 17.6078 65.1957 17.3855 65.006C17.1646 64.8162 16.9252 64.6831 16.6703 64.6066C16.322 64.5033 16.0189 64.5245 15.7612 64.6718C15.5034 64.8191 15.3208 65.074 15.2131 65.4351C15.1013 65.8089 15.1182 66.1446 15.2641 66.4434C15.4086 66.7422 15.6691 66.9772 16.0444 67.1514L15.7385 68.1781C15.1409 67.9317 14.7189 67.538 14.4725 66.9999C14.2261 66.4604 14.2077 65.8401 14.4173 65.1363C14.6169 64.465 14.9497 63.9864 15.4142 63.7003C15.8787 63.4143 16.4168 63.3619 17.0272 63.5445C17.3387 63.638 17.6305 63.7881 17.9038 63.9977C18.1771 64.2073 18.4405 64.4934 18.6954 64.8587C18.9489 65.2241 19.2109 65.69 19.4799 66.2564C19.749 66.8229 20.0407 67.5111 20.3551 68.3226L19.9671 68.4656L21.1099 64.6265L21.9228 64.8686L20.5307 69.5447V69.5418Z" fill="white"/>
<path d="M23.0713 62.0893C22.8135 62.762 22.4312 63.235 21.9256 63.5083C21.4201 63.7816 20.8621 63.8538 20.2503 63.725L20.6384 62.7153C21.0193 62.7761 21.3535 62.7237 21.6438 62.5595C21.9327 62.3938 22.1423 62.1446 22.2697 61.8118C22.4071 61.4535 22.4085 61.1094 22.2754 60.778C22.1409 60.4466 21.8322 60.1889 21.3464 60.0019C20.8678 59.8179 20.4585 59.7994 20.1201 59.9453C19.7816 60.0912 19.5409 60.3531 19.3964 60.7298C19.2987 60.9833 19.2661 61.2283 19.2959 61.4662C19.3256 61.7041 19.4092 61.8996 19.5465 62.0511L19.2052 62.9404L15.7711 61.251L17.1603 57.6313L17.952 57.9358L16.7398 61.0924L16.6944 60.5868L19.058 61.7169L18.8909 61.9604C18.7322 61.7579 18.6345 61.5101 18.5977 61.2156C18.5609 60.9224 18.6119 60.5953 18.7492 60.2384C18.9078 59.8249 19.1373 59.4921 19.4361 59.2387C19.7349 58.9852 20.0832 58.8322 20.4797 58.7784C20.8763 58.726 21.2983 58.7855 21.7472 58.9568C22.2088 59.1339 22.5657 59.3788 22.822 59.6932C23.0769 60.0076 23.227 60.3687 23.2724 60.7794C23.3163 61.1901 23.2497 61.6262 23.0727 62.0893H23.0713Z" fill="white"/>
<path d="M25.4651 56.5798C25.2145 57.0967 24.8548 57.4848 24.386 57.7425C23.9173 58.0002 23.3834 58.1192 22.783 58.0993C22.1825 58.0795 21.5637 57.9153 20.9264 57.6051C20.2892 57.2964 19.7836 56.9141 19.4069 56.4595C19.0316 56.0049 18.8036 55.5163 18.7215 54.9909C18.6408 54.467 18.7258 53.9458 18.9764 53.4275C19.2271 52.9106 19.5839 52.5226 20.0442 52.2649C20.5058 52.0072 21.0298 51.8854 21.6189 51.8995C22.208 51.9137 22.8212 52.0751 23.4585 52.3853C24.1014 52.6968 24.6154 53.0834 24.9992 53.5408C25.383 53.9997 25.6195 54.4925 25.7059 55.0193C25.7937 55.5461 25.7129 56.0658 25.4637 56.577L25.4651 56.5798ZM24.6678 56.1932C24.8321 55.8548 24.8689 55.5149 24.7769 55.1765C24.6848 54.838 24.4823 54.518 24.1708 54.2149C23.8592 53.9133 23.4542 53.6414 22.9572 53.3992C22.4658 53.1613 22.0098 53.0155 21.5878 52.9602C21.1658 52.9064 20.8004 52.9489 20.4903 53.0891C20.1801 53.2293 19.9422 53.4714 19.7737 53.817C19.6038 54.1682 19.5613 54.5095 19.6448 54.8408C19.7298 55.1722 19.9224 55.4866 20.2226 55.7826C20.5228 56.0785 20.9179 56.3462 21.4093 56.5855C21.9064 56.8263 22.3723 56.9764 22.807 57.033C23.2418 57.0897 23.6185 57.05 23.9371 56.914C24.2557 56.7781 24.4993 56.5388 24.6664 56.1932H24.6678Z" fill="white"/>
<path d="M56.0883 25.9369C55.4539 26.2781 54.8563 26.3886 54.2941 26.2668C53.7333 26.145 53.2617 25.8363 52.8822 25.3392L53.8338 24.8266C54.083 25.1212 54.3705 25.2996 54.6977 25.3633C55.0248 25.4271 55.3462 25.3732 55.6592 25.2047C55.9962 25.0235 56.2228 24.7629 56.3375 24.4244C56.4522 24.086 56.3857 23.688 56.1393 23.2306C55.8957 22.7789 55.5983 22.4985 55.2457 22.3895C54.8945 22.2804 54.5405 22.3215 54.185 22.5127C53.9457 22.6415 53.7616 22.8058 53.6285 23.0069C53.4968 23.208 53.433 23.4105 53.4373 23.6144L52.5989 24.0661L51.0964 20.5471L54.5093 18.7075L54.9115 19.4538L51.9348 21.0583L52.2293 20.6448L53.2858 23.0437L52.9997 23.1202C53.011 22.8639 53.0988 22.6118 53.2617 22.364C53.426 22.1176 53.6752 21.9023 54.0137 21.721C54.4031 21.5115 54.794 21.4067 55.1862 21.4095C55.5785 21.4123 55.9424 21.5228 56.2766 21.7409C56.6123 21.9589 56.8941 22.279 57.1221 22.7024C57.3557 23.1372 57.4676 23.5563 57.4563 23.9614C57.4449 24.3664 57.3232 24.7388 57.0895 25.0787C56.8558 25.4186 56.5216 25.706 56.084 25.9411L56.0883 25.9369Z" fill="white"/>
<path d="M61.4938 23.3168C60.9656 23.5448 60.4402 23.6042 59.9177 23.4952C59.3951 23.3847 58.9122 23.127 58.469 22.7206C58.0257 22.3142 57.6646 21.7859 57.3828 21.1359C57.101 20.4859 56.9664 19.8671 56.9778 19.2766C56.9891 18.6875 57.135 18.1677 57.4154 17.7174C57.6958 17.2671 58.0993 16.9272 58.6276 16.6992C59.1558 16.4712 59.6783 16.4089 60.1952 16.5137C60.7121 16.6185 61.1893 16.8691 61.6269 17.2642C62.0645 17.6593 62.4242 18.1819 62.7046 18.8319C62.9892 19.4876 63.1266 20.1149 63.1195 20.7125C63.1124 21.3101 62.9694 21.8383 62.6919 22.2943C62.4143 22.7503 62.0149 23.0916 61.4924 23.3182L61.4938 23.3168ZM61.1412 22.5025C61.4867 22.3524 61.736 22.1201 61.8861 21.8029C62.0376 21.4857 62.0928 21.1119 62.0532 20.6785C62.0135 20.2466 61.8847 19.7764 61.6652 19.2695C61.4485 18.7682 61.1978 18.3603 60.9132 18.0445C60.6286 17.7287 60.3241 17.5234 59.997 17.4271C59.6713 17.3308 59.3314 17.3591 58.9802 17.5121C58.6219 17.6664 58.367 17.8972 58.2155 18.2045C58.064 18.5118 58.0045 18.8744 58.0399 19.295C58.0739 19.7156 58.1999 20.1758 58.4166 20.6771C58.6361 21.1841 58.8924 21.6004 59.1841 21.9276C59.4772 22.2547 59.7874 22.4699 60.1188 22.5747C60.4487 22.6795 60.79 22.6554 61.1412 22.5039V22.5025Z" fill="white"/>
<path d="M67.6817 20.9741C67.1351 21.1526 66.6069 21.1625 66.0957 21.0039C65.5859 20.8452 65.1285 20.5436 64.7263 20.0975C64.3241 19.6514 64.0126 19.0921 63.7931 18.418C63.5736 17.7439 63.4971 17.1152 63.5636 16.5289C63.6302 15.944 63.8242 15.4399 64.1457 15.0165C64.4671 14.5944 64.9005 14.2942 65.4471 14.1158C65.9937 13.9374 66.5205 13.9246 67.0261 14.0776C67.5316 14.2305 67.9834 14.5237 68.3827 14.9584C68.7807 15.3917 69.0908 15.9454 69.3103 16.6195C69.5312 17.2993 69.6105 17.9365 69.5468 18.5313C69.4831 19.1261 69.2919 19.6373 68.9733 20.0664C68.6546 20.4955 68.2241 20.7971 67.6832 20.9741H67.6817ZM67.407 20.1301C67.7653 20.014 68.0344 19.8044 68.2142 19.5028C68.3941 19.2011 68.4847 18.8343 68.4861 18.3996C68.4861 17.9648 68.4026 17.4862 68.2312 16.9608C68.0627 16.4425 67.8503 16.012 67.5968 15.6707C67.3433 15.3294 67.0586 15.0958 66.7428 14.9697C66.427 14.8437 66.0872 14.8395 65.7218 14.9584C65.3508 15.0788 65.0761 15.2855 64.8962 15.5758C64.7164 15.8676 64.6243 16.223 64.6187 16.645C64.613 17.067 64.6951 17.5372 64.8651 18.0569C65.0364 18.5823 65.2517 19.0213 65.5136 19.3725C65.7742 19.7251 66.0645 19.9687 66.3832 20.1046C66.7018 20.2406 67.0431 20.2476 67.4084 20.1287L67.407 20.1301Z" fill="white"/>
<path d="M110.083 20.3975C110.487 19.3652 111.052 18.4008 111.781 17.5058C112.509 16.6108 113.411 15.781 114.487 15.0148L114.446 15.257L110.559 14.1014L110.801 13.2886L115.563 14.7033L115.35 15.4227C114.664 15.9651 114.059 16.5159 113.534 17.0739C113.009 17.6333 112.556 18.2125 112.175 18.8101C111.794 19.4091 111.471 20.0478 111.206 20.7289L110.084 20.3961L110.083 20.3975Z" fill="white"/>
<path d="M116.131 22.504C115.457 22.2477 114.982 21.8682 114.707 21.3641C114.433 20.8599 114.358 20.302 114.485 19.6888L115.496 20.0726C115.437 20.4535 115.489 20.7877 115.656 21.0766C115.822 21.3655 116.073 21.5737 116.405 21.6997C116.764 21.8356 117.108 21.8371 117.439 21.7011C117.771 21.5652 118.027 21.255 118.212 20.7693C118.395 20.2892 118.412 19.8814 118.265 19.5429C118.117 19.2059 117.856 18.9651 117.477 18.8221C117.224 18.7258 116.977 18.6933 116.74 18.7244C116.502 18.7556 116.306 18.8391 116.156 18.9765L115.267 18.638L116.945 15.1982L120.569 16.5747L120.267 17.3677L117.106 16.1669L117.612 16.1187L116.489 18.4865L116.244 18.3208C116.446 18.1608 116.694 18.0631 116.987 18.0248C117.281 17.9866 117.608 18.0362 117.966 18.1721C118.379 18.3293 118.714 18.5573 118.969 18.8561C119.223 19.1549 119.378 19.5019 119.432 19.897C119.487 20.2935 119.429 20.7155 119.257 21.1658C119.082 21.6275 118.838 21.9858 118.524 22.2435C118.211 22.4998 117.85 22.6513 117.439 22.6966C117.03 22.742 116.592 22.6768 116.129 22.5012L116.131 22.504Z" fill="white"/>
<path d="M121.642 24.8758C121.124 24.6266 120.735 24.2683 120.476 23.801C120.216 23.3337 120.095 22.7998 120.113 22.1994C120.13 21.5989 120.293 20.9786 120.6 20.3414C120.908 19.7027 121.287 19.1957 121.74 18.819C122.193 18.4424 122.682 18.2115 123.206 18.1294C123.73 18.0473 124.251 18.1294 124.769 18.3786C125.288 18.6279 125.676 18.9833 125.935 19.4421C126.194 19.9024 126.317 20.4264 126.306 21.0155C126.293 21.6046 126.134 22.2178 125.827 22.8564C125.517 23.5008 125.133 24.0148 124.677 24.4014C124.22 24.7866 123.728 25.0245 123.202 25.1138C122.675 25.203 122.155 25.1237 121.642 24.8773V24.8758ZM122.028 24.0757C122.368 24.2386 122.706 24.274 123.044 24.1805C123.383 24.0871 123.703 23.8845 124.003 23.5716C124.305 23.2586 124.574 22.8536 124.815 22.3551C125.051 21.8637 125.196 21.4063 125.248 20.9843C125.3 20.5623 125.256 20.1969 125.115 19.8868C124.973 19.5781 124.731 19.3402 124.386 19.1731C124.034 19.0046 123.693 18.9621 123.362 19.0485C123.03 19.1349 122.717 19.3274 122.421 19.6291C122.125 19.9307 121.861 20.3272 121.623 20.8186C121.383 21.3171 121.236 21.783 121.181 22.2178C121.126 22.6525 121.167 23.0292 121.303 23.3478C121.439 23.6665 121.681 23.9086 122.026 24.0743L122.028 24.0757Z" fill="white"/>
<path d="M153.423 54.6897L158.664 51.662L158.691 51.8645C158.49 51.8815 158.262 51.8418 158.004 51.7469C157.746 51.6521 157.493 51.5147 157.245 51.3377C156.996 51.1607 156.772 50.9511 156.571 50.7075L157.432 50.2104C157.616 50.4399 157.834 50.6424 158.082 50.8194C158.331 50.9964 158.589 51.1338 158.859 51.2301C159.128 51.3264 159.378 51.3703 159.604 51.3603L160.011 52.0642L153.934 55.5733L153.423 54.6882V54.6897Z" fill="white"/>
<path d="M155.658 59.1217C155.408 58.6034 155.326 58.0823 155.413 57.5541C155.501 57.0273 155.739 56.533 156.126 56.0742C156.514 55.614 157.026 55.2302 157.664 54.9215C158.301 54.6128 158.914 54.4513 159.503 54.4386C160.092 54.4244 160.618 54.549 161.079 54.8096C161.541 55.0702 161.898 55.4596 162.149 55.9779C162.399 56.4962 162.483 57.0145 162.399 57.5371C162.316 58.0582 162.086 58.5454 161.711 58.9999C161.336 59.4531 160.829 59.8355 160.191 60.1442C159.549 60.4557 158.927 60.62 158.329 60.6384C157.732 60.6554 157.198 60.5364 156.73 60.2773C156.263 60.0195 155.905 59.6344 155.657 59.1232L155.658 59.1217ZM156.456 58.7351C156.62 59.075 156.864 59.3129 157.186 59.4503C157.509 59.5876 157.886 59.6273 158.317 59.5692C158.747 59.5112 159.21 59.3625 159.707 59.1217C160.199 58.8838 160.596 58.6162 160.9 58.3188C161.203 58.0214 161.395 57.707 161.479 57.3771C161.561 57.0471 161.518 56.7101 161.351 56.3645C161.181 56.0133 160.939 55.7683 160.628 55.6296C160.315 55.4908 159.949 55.4469 159.53 55.4993C159.111 55.5517 158.656 55.6961 158.165 55.934C157.668 56.1748 157.263 56.4481 156.949 56.754C156.634 57.0598 156.432 57.3799 156.341 57.7141C156.25 58.0483 156.289 58.3882 156.456 58.7323V58.7351Z" fill="white"/>
<path d="M158.256 65.2153C158.055 64.6758 158.023 64.149 158.16 63.6321C158.296 63.1152 158.579 62.6465 159.008 62.2259C159.437 61.8053 159.984 61.4697 160.647 61.2233C161.309 60.9755 161.935 60.8721 162.523 60.9146C163.111 60.9556 163.622 61.1284 164.058 61.4314C164.494 61.7345 164.811 62.1551 165.013 62.6946C165.214 63.2342 165.249 63.7582 165.117 64.2694C164.986 64.7806 164.711 65.2451 164.295 65.6614C163.878 66.0778 163.337 66.4106 162.675 66.6584C162.005 66.909 161.372 67.0138 160.774 66.9756C160.178 66.9374 159.658 66.7674 159.216 66.4672C158.775 66.1656 158.454 65.7492 158.256 65.2168V65.2153ZM159.087 64.9052C159.219 65.2578 159.439 65.5184 159.747 65.6855C160.056 65.8526 160.427 65.9277 160.862 65.9107C161.295 65.8937 161.771 65.7889 162.289 65.5949C162.801 65.4037 163.221 65.1743 163.551 64.9066C163.881 64.639 164.102 64.3444 164.215 64.0244C164.327 63.7029 164.317 63.363 164.183 63.0048C164.047 62.6394 163.829 62.3732 163.531 62.2061C163.232 62.039 162.873 61.9611 162.451 61.9738C162.029 61.9866 161.563 62.0885 161.052 62.2797C160.535 62.4723 160.104 62.7074 159.764 62.9821C159.423 63.2583 159.192 63.5571 159.07 63.8814C158.949 64.2057 158.954 64.5469 159.089 64.9066L159.087 64.9052Z" fill="white"/>
<path d="M160.287 71.5218C160.137 70.9667 160.154 70.4385 160.338 69.9357C160.522 69.4344 160.846 68.9926 161.314 68.6145C161.78 68.2349 162.355 67.9531 163.039 67.7676C163.723 67.5821 164.354 67.5382 164.936 67.6345C165.517 67.7308 166.011 67.9503 166.416 68.2916C166.821 68.6343 167.1 69.0832 167.25 69.6383C167.4 70.1935 167.386 70.7202 167.208 71.2159C167.029 71.713 166.713 72.1491 166.259 72.5258C165.806 72.9025 165.236 73.1829 164.552 73.367C163.863 73.5539 163.223 73.6007 162.631 73.5058C162.04 73.4123 161.539 73.1957 161.127 72.8544C160.715 72.5131 160.434 72.0684 160.287 71.5204V71.5218ZM161.144 71.291C161.242 71.6549 161.437 71.9339 161.729 72.1293C162.02 72.3247 162.383 72.4338 162.816 72.4564C163.25 72.4791 163.734 72.4196 164.266 72.2752C164.793 72.1321 165.234 71.9438 165.588 71.7073C165.942 71.4708 166.188 71.1989 166.331 70.8902C166.473 70.5815 166.494 70.2416 166.393 69.872C166.291 69.4953 166.1 69.2107 165.818 69.0152C165.537 68.8212 165.185 68.7108 164.765 68.6839C164.344 68.6569 163.87 68.715 163.343 68.8581C162.809 69.0025 162.36 69.1951 161.995 69.4387C161.63 69.6808 161.372 69.9584 161.22 70.2699C161.069 70.5815 161.043 70.9228 161.144 71.2924V71.291Z" fill="white"/>
<path d="M92.3954 94.6001C96.5734 94.6001 99.9604 91.2132 99.9604 87.0352C99.9604 82.8572 96.5734 79.4702 92.3954 79.4702C88.2174 79.4702 84.8304 82.8572 84.8304 87.0352C84.8304 91.2132 88.2174 94.6001 92.3954 94.6001Z" fill="#2E348E"/>
</svg>
