<svg width="32" height="18" viewBox="0 0 32 18" fill="none" xmlns="http://www.w3.org/2000/svg">
<g clip-path="url(#clip0_12079_162208)">
<path d="M15.8447 0.797852H15.8555C16.9116 0.79859 17.9676 0.90523 18.9941 1.11523C19.9993 1.32093 20.9879 1.62781 21.9326 2.02734C22.8596 2.41956 23.7538 2.90492 24.5898 3.46973C25.404 4.01984 26.1721 4.65081 26.8711 5.3457V5.34668L26.8828 5.3584C26.8896 5.36506 26.8967 5.37135 26.9033 5.37793C27.6104 6.085 28.2524 6.86378 28.8115 7.69141C29.3763 8.52743 29.8618 9.42164 30.2539 10.3486C30.6535 11.2933 30.9603 12.282 31.166 13.2871C31.3764 14.3155 31.4831 15.3738 31.4834 16.4316V16.5098H31.4844V16.7207H26.9043V16.4316C26.9036 14.9397 26.6114 13.4931 26.0361 12.1328C25.7592 11.478 25.4159 10.846 25.0166 10.2549C24.6206 9.66864 24.166 9.11709 23.665 8.61621C23.6594 8.61055 23.6537 8.6048 23.6484 8.59961H23.6475L23.6338 8.58594C23.2639 8.21885 22.8674 7.87684 22.4502 7.56543L22.0264 7.26465C21.4353 6.86537 20.8032 6.52207 20.1484 6.24512C18.9597 5.74249 17.7053 5.45632 16.4121 5.3916L15.8555 5.37695H15.8447C14.3514 5.37695 12.9029 5.66908 11.541 6.24512C11.0501 6.45278 10.5719 6.69781 10.1143 6.97559L9.66309 7.26465C9.14216 7.61667 8.64643 8.01676 8.19043 8.4541C8.13045 8.51155 8.07605 8.56458 8.02441 8.61621C7.52356 9.11718 7.06887 9.66876 6.67285 10.2549C6.27357 10.846 5.93125 11.4781 5.6543 12.1328C5.07895 13.4932 4.78677 14.9397 4.78613 16.4316L4.78516 16.7207H0.206055V16.4316C0.206474 15.3738 0.313006 14.3155 0.523438 13.2871C0.729138 12.282 1.036 11.2933 1.43555 10.3486C1.82777 9.42164 2.31311 8.52741 2.87793 7.69141C3.43698 6.86389 4.07896 6.0851 4.78613 5.37793C4.83771 5.32646 4.89237 5.27165 4.95898 5.20703C5.61971 4.56666 6.3406 3.9825 7.09961 3.46973C7.93564 2.90489 8.82983 2.41947 9.75684 2.02734C10.7015 1.62779 11.6902 1.32094 12.6953 1.11523C13.7254 0.90439 14.7851 0.797857 15.8447 0.797852Z" fill="white" stroke="#DFE1E3" stroke-width="0.157576"/>
<path d="M30.8823 13.3441C30.6805 12.3576 30.3793 11.3873 29.987 10.4601C29.6021 9.55021 29.1258 8.67272 28.5714 7.85198C28.0226 7.03967 27.3924 6.27578 26.6984 5.58169C26.6878 5.57116 26.6771 5.56084 26.6666 5.55031C25.9809 4.86865 25.2281 4.24909 24.4281 3.7086C23.6074 3.15421 22.7299 2.67794 21.8199 2.29304C20.8926 1.90089 19.9224 1.59969 18.936 1.39777C17.9283 1.19153 16.8918 1.08667 15.8551 1.08594C15.8517 1.08594 15.8481 1.08594 15.8446 1.08594C14.8045 1.08594 13.7644 1.1909 12.7533 1.39777C11.7668 1.59958 10.7965 1.90078 9.8693 2.29304C8.95939 2.67794 8.0819 3.15421 7.26117 3.7086C6.51454 4.21298 5.80897 4.78642 5.16078 5.41472C5.10372 5.46999 5.04698 5.52557 4.99087 5.58169C4.29678 6.27578 3.66659 7.03967 3.11778 7.85198C2.56339 8.67262 2.08712 9.5501 1.70222 10.4601C1.31007 11.3874 1.00887 12.3576 0.806948 13.3441C0.600394 14.3535 0.495538 15.3917 0.495117 16.4302H4.49564C4.49638 14.899 4.7961 13.4148 5.3866 12.0185C5.67085 11.3465 6.02279 10.6981 6.43263 10.0915C6.8389 9.4902 7.30559 8.92465 7.81966 8.41058C7.87577 8.35447 7.93262 8.29899 7.99 8.24404C8.45774 7.79545 8.96497 7.3855 9.50062 7.02367C10.1072 6.61382 10.7556 6.26188 11.4276 5.97763C12.8255 5.3864 14.3115 5.08657 15.8445 5.08657C15.848 5.08657 15.8516 5.08657 15.855 5.08657C17.3843 5.08794 18.8667 5.38766 20.2614 5.97753C20.9334 6.26178 21.5818 6.61372 22.1884 7.02356C22.7774 7.42151 23.332 7.87757 23.8376 8.37911C23.8481 8.38964 23.8588 8.39995 23.8693 8.41048C24.3834 8.92455 24.85 9.4901 25.2564 10.0914C25.6662 10.698 26.0182 11.3464 26.3024 12.0184C26.893 13.4147 27.1927 14.8989 27.1934 16.4301H31.1939C31.1936 15.3917 31.0886 14.3535 30.8821 13.344L30.8823 13.3441Z" fill="white"/>
<path d="M26.4962 11.9396C26.2067 11.255 25.8483 10.5947 25.4308 9.97674C25.0479 9.40992 24.6124 8.87449 24.1348 8.38284L26.666 5.85156C27.3048 6.50439 27.8865 7.21743 28.3969 7.97289C28.9437 8.78226 29.4135 9.64764 29.793 10.5451C30.1798 11.4596 30.4768 12.4164 30.6758 13.3893C30.8655 14.3166 30.9684 15.2687 30.9819 16.2226H27.402C27.3752 14.7376 27.0708 13.2977 26.4963 11.9395L26.4962 11.9396Z" fill="#05AA4E"/>
<g filter="url(#filter0_d_12079_162208)">
<path d="M30.6758 13.3893C30.4768 12.4164 30.1798 11.4596 29.793 10.5451C29.4134 9.64764 28.9437 8.78226 28.3969 7.97289C27.8865 7.21743 27.3048 6.50449 26.666 5.85156L24.1348 8.38284C24.6125 8.87438 25.0479 9.40993 25.4308 9.97674C25.8483 10.5946 26.2067 11.255 26.4962 11.9396C27.0707 13.2978 27.3751 14.7377 27.4019 16.2227H30.9818C30.9683 15.2688 30.8655 14.3168 30.6757 13.3894L30.6758 13.3893Z" fill="#05AA4E"/>
</g>
<g filter="url(#filter1_d_12079_162208)">
<path d="M24.3109 3.88174C23.5015 3.33493 22.6361 2.86519 21.7386 2.48566C20.8242 2.09887 19.8672 1.80189 18.8945 1.60281C17.9689 1.41342 17.0186 1.31067 16.0664 1.29688V4.87682C17.5495 4.9043 18.9877 5.20865 20.3442 5.78241C21.0288 6.07192 21.6891 6.43039 22.3071 6.84782C22.8487 7.21365 23.3623 7.62823 23.8366 8.08208L26.3681 5.55059C25.7323 4.93588 25.0412 4.37517 24.311 3.88185L24.3109 3.88174Z" fill="#FDD600"/>
</g>
<path d="M15.6455 4.87661C14.155 4.90156 12.7096 5.20613 11.3466 5.78262C10.662 6.07213 10.0017 6.4306 9.38372 6.84803C8.89597 7.17754 8.42981 7.54749 7.99533 7.94954L5.46289 5.4171C6.05981 4.85461 6.7039 4.33875 7.37998 3.88206C8.18935 3.33525 9.05473 2.8655 9.95222 2.48598C10.8667 2.09919 11.8236 1.8022 12.7964 1.60313C13.7288 1.41236 14.6863 1.30951 15.6455 1.29688V4.87671V4.87661Z" fill="#F68922"/>
<g filter="url(#filter2_d_12079_162208)">
<path d="M9.95222 2.48598C9.05473 2.86561 8.18935 3.33525 7.37998 3.88206C6.7039 4.33885 6.05981 4.85461 5.46289 5.4171L7.99533 7.94954C8.42981 7.54749 8.89597 7.17754 9.38372 6.84803C10.0016 6.4306 10.662 6.07213 11.3466 5.78262C12.7096 5.20613 14.155 4.90166 15.6455 4.87661V1.29688C14.6863 1.3094 13.7289 1.41226 12.7964 1.60313C11.8235 1.8022 10.8667 2.09919 9.95222 2.48598Z" fill="#F68922"/>
</g>
<g filter="url(#filter3_d_12079_162208)">
<path d="M7.67156 8.26138C7.14812 8.78481 6.67279 9.36089 6.25895 9.97339C5.84153 10.5913 5.48306 11.2517 5.19355 11.9363C4.61905 13.2945 4.31469 14.7343 4.28785 16.2194H0.708008C0.721483 15.2655 0.824233 14.3134 1.01405 13.3861C1.21313 12.4132 1.51011 11.4563 1.8969 10.5419C2.27653 9.6444 2.74617 8.77903 3.29298 7.96966C3.83431 7.16839 4.45587 6.41503 5.14049 5.73041C5.14691 5.72399 5.15343 5.71746 5.16007 5.71094L7.69114 8.24201C7.68461 8.24853 7.67808 8.25506 7.67156 8.26159V8.26138Z" fill="#EF3C38"/>
</g>
<path d="M19.1997 8.77279C19.3025 8.74036 19.3826 8.823 19.3511 8.92102L17.0677 14.4305C17.0186 14.6202 17.1913 14.7532 17.2556 14.9261C17.7356 16.2172 16.0891 17.188 15.1806 16.2022C14.4206 15.3774 15.0664 14.1359 16.1339 14.104C17.1824 12.4755 18.018 10.6814 19.0225 9.01808C19.0584 8.9586 19.1476 8.78921 19.1997 8.77279Z" fill="#000B77"/>
<path d="M3.71199 12.8473L3.57008 12.8051C3.51113 12.661 3.45849 12.5397 3.41206 12.4409C3.36563 12.3422 3.32226 12.2615 3.28162 12.1988C3.24109 12.1361 3.20151 12.0882 3.16276 12.055C3.12413 12.0218 3.08244 11.9985 3.03791 11.9853C2.97695 11.9672 2.924 11.971 2.87904 11.9967C2.83409 12.0225 2.80219 12.067 2.78345 12.13C2.76397 12.1953 2.76703 12.254 2.79229 12.3062C2.81767 12.3583 2.86304 12.3995 2.92863 12.4299L2.87525 12.6091C2.77082 12.5661 2.69712 12.4974 2.65407 12.4033C2.61101 12.3092 2.60774 12.2008 2.64438 12.0779C2.67923 11.9606 2.73734 11.877 2.81851 11.827C2.89968 11.7771 2.99358 11.768 3.10012 11.7998C3.15455 11.816 3.20561 11.8423 3.2533 11.8788C3.3011 11.9154 3.3471 11.9655 3.39143 12.0293C3.43585 12.0931 3.48144 12.1745 3.52839 12.2733C3.57534 12.3722 3.6263 12.4925 3.68125 12.6341L3.61346 12.659L3.81306 11.9884L3.95497 12.0306L3.71199 12.8473Z" fill="white"/>
<path d="M4.15674 11.5444C4.11158 11.6618 4.04494 11.7445 3.95671 11.7922C3.86849 11.84 3.77101 11.8526 3.66404 11.8301L3.73174 11.6538C3.79817 11.6645 3.8567 11.6554 3.90723 11.6266C3.95777 11.5977 3.9943 11.5543 4.01662 11.496C4.04062 11.4335 4.04094 11.3734 4.01756 11.3155C3.99419 11.2577 3.94008 11.2125 3.85533 11.1799C3.77164 11.1478 3.70026 11.1445 3.6412 11.17C3.58214 11.1956 3.54003 11.2413 3.51476 11.307C3.49781 11.3512 3.49192 11.394 3.49729 11.4356C3.50255 11.4773 3.51718 11.5113 3.54108 11.5377L3.48149 11.6929L2.88184 11.3978L3.1245 10.7656L3.26273 10.8187L3.05112 11.37L3.04312 11.2816L3.45602 11.4791L3.42686 11.5217C3.39917 11.4864 3.38201 11.443 3.37558 11.3917C3.36916 11.3404 3.3779 11.2835 3.4019 11.2209C3.42959 11.1487 3.4696 11.0905 3.52181 11.0463C3.57403 11.0021 3.63478 10.9753 3.70394 10.966C3.77311 10.9567 3.84691 10.9671 3.92534 10.9971C4.00588 11.0281 4.06841 11.0709 4.11305 11.1258C4.15769 11.1806 4.1838 11.2438 4.19159 11.3155C4.19938 11.3871 4.18769 11.4633 4.15663 11.5441L4.15674 11.5444Z" fill="white"/>
<path d="M4.57444 10.5828C4.53054 10.6731 4.4678 10.7408 4.386 10.7858C4.3042 10.8309 4.21092 10.8516 4.10596 10.8482C4.001 10.8447 3.89299 10.8159 3.78171 10.7619C3.67043 10.7079 3.582 10.6413 3.51641 10.5619C3.45082 10.4826 3.41092 10.3972 3.39682 10.3056C3.3826 10.214 3.39745 10.123 3.44135 10.0326C3.48525 9.94225 3.54736 9.87456 3.6279 9.82961C3.70844 9.78465 3.80013 9.76339 3.90299 9.76581C4.00584 9.76834 4.11302 9.79655 4.22419 9.85056C4.33652 9.90509 4.42621 9.97236 4.49328 10.0524C4.56034 10.1325 4.6015 10.2185 4.61677 10.3106C4.63203 10.4027 4.61792 10.4934 4.57455 10.5828H4.57444ZM4.43506 10.5152C4.4638 10.456 4.47011 10.3968 4.45401 10.3377C4.4379 10.2785 4.40263 10.2226 4.3482 10.1698C4.29367 10.117 4.22313 10.0695 4.13628 10.0274C4.05059 9.98584 3.97089 9.96026 3.8972 9.95078C3.82361 9.94141 3.75971 9.94889 3.70559 9.97331C3.65148 9.99774 3.60979 10.0401 3.58052 10.1003C3.55073 10.1615 3.54336 10.2211 3.5581 10.279C3.57294 10.3369 3.60653 10.3918 3.65896 10.4435C3.71138 10.4953 3.78045 10.5419 3.86625 10.5836C3.95299 10.6257 4.03437 10.6517 4.11028 10.6616C4.18618 10.6715 4.25198 10.6647 4.30767 10.641C4.36336 10.6173 4.40579 10.5754 4.43506 10.5151V10.5152Z" fill="white"/>
<path d="M9.92324 5.23186C9.81249 5.29156 9.70806 5.31082 9.61004 5.28945C9.51203 5.26818 9.42981 5.21418 9.36338 5.12753L9.52961 5.03794C9.57298 5.08932 9.62331 5.12059 9.68047 5.13164C9.73764 5.14269 9.79365 5.13353 9.84849 5.10395C9.90745 5.07216 9.94693 5.02678 9.96683 4.96762C9.98672 4.90856 9.97525 4.83908 9.93219 4.75906C9.88966 4.68021 9.83765 4.63115 9.77627 4.6121C9.71479 4.59304 9.6531 4.6002 9.59109 4.63357C9.5494 4.656 9.51698 4.68474 9.49392 4.7198C9.47076 4.75485 9.45971 4.79012 9.46055 4.82581L9.31421 4.90466L9.05176 4.29006L9.64784 3.96875L9.71806 4.09908L9.1982 4.37922L9.24978 4.30701L9.43423 4.7259L9.38433 4.73927C9.38633 4.69442 9.40159 4.65031 9.43023 4.60726C9.45876 4.56409 9.50255 4.52672 9.56151 4.49492C9.62962 4.45818 9.69784 4.44008 9.76638 4.4406C9.83481 4.44113 9.89829 4.46039 9.95693 4.4984C10.0155 4.53651 10.0646 4.59241 10.1045 4.66642C10.1455 4.74233 10.165 4.8156 10.163 4.88624C10.1611 4.95688 10.1397 5.02194 10.0988 5.08132C10.0581 5.14069 9.99957 5.19091 9.92335 5.23197L9.92324 5.23186Z" fill="white"/>
<path d="M10.867 4.77494C10.7748 4.81484 10.6831 4.82526 10.5917 4.806C10.5003 4.78684 10.416 4.74167 10.3387 4.67072C10.2614 4.59965 10.1982 4.50743 10.149 4.39394C10.0998 4.28045 10.0762 4.17223 10.0782 4.06937C10.0802 3.96652 10.1057 3.87566 10.1547 3.79702C10.2036 3.71827 10.2742 3.659 10.3664 3.6191C10.4586 3.5792 10.5498 3.56846 10.6402 3.58678C10.7305 3.60521 10.8139 3.64879 10.8903 3.71775C10.9668 3.7867 11.0295 3.87798 11.0787 3.99147C11.1283 4.10601 11.1524 4.2155 11.1511 4.31993C11.1498 4.42437 11.1249 4.51648 11.0764 4.59618C11.0278 4.67598 10.958 4.73557 10.867 4.77494ZM10.8055 4.63271C10.8659 4.6066 10.9093 4.56586 10.9356 4.51048C10.9619 4.45521 10.9717 4.38973 10.9648 4.31425C10.9578 4.23876 10.9353 4.15675 10.8969 4.06821C10.859 3.98073 10.8152 3.90946 10.7656 3.85429C10.7159 3.79913 10.6626 3.76323 10.6057 3.74638C10.5487 3.72964 10.4895 3.73459 10.4281 3.76112C10.3655 3.78818 10.321 3.8285 10.2945 3.88198C10.268 3.93546 10.2577 3.99905 10.2637 4.07243C10.2697 4.14591 10.2917 4.22634 10.3295 4.31383C10.3679 4.40236 10.4126 4.47511 10.4637 4.53217C10.5147 4.58923 10.5692 4.62692 10.6267 4.64524C10.6843 4.66356 10.7439 4.65945 10.8054 4.63282L10.8055 4.63271Z" fill="white"/>
<path d="M11.9489 4.36335C11.8534 4.39452 11.7611 4.3962 11.6719 4.36862C11.5827 4.34103 11.503 4.28819 11.4327 4.21028C11.3624 4.13238 11.308 4.03457 11.2697 3.91698C11.2314 3.79939 11.218 3.68948 11.2296 3.58715C11.2412 3.48492 11.2751 3.39691 11.3312 3.32311C11.3873 3.24931 11.4631 3.19688 11.5586 3.16572C11.6541 3.13456 11.746 3.13246 11.8342 3.1592C11.9224 3.18594 12.0014 3.23721 12.0711 3.31301C12.1407 3.3888 12.1947 3.48545 12.233 3.60304C12.2716 3.7218 12.2854 3.83297 12.2744 3.93688C12.2633 4.04079 12.2299 4.13017 12.1742 4.20502C12.1185 4.27987 12.0433 4.33272 11.949 4.36346L11.9489 4.36335ZM11.9009 4.21618C11.9634 4.19575 12.0105 4.15933 12.0418 4.10669C12.0732 4.05405 12.0891 3.98983 12.0892 3.91403C12.0894 3.83823 12.0746 3.75443 12.0447 3.66274C12.0151 3.57209 11.9782 3.49703 11.9339 3.43744C11.8896 3.37786 11.8399 3.33711 11.7847 3.31511C11.7296 3.29311 11.6702 3.29248 11.6065 3.31322C11.5418 3.33427 11.4937 3.37028 11.4623 3.42112C11.4309 3.47197 11.4147 3.53419 11.4139 3.60789C11.413 3.68158 11.4273 3.7637 11.4568 3.85434C11.4867 3.94604 11.5244 4.02268 11.57 4.08426C11.6156 4.14585 11.6661 4.18838 11.7218 4.21207C11.7775 4.23576 11.8372 4.23713 11.9008 4.21639L11.9009 4.21618Z" fill="white"/>
<path d="M19.3517 4.26476C19.4221 4.08442 19.521 3.91608 19.6481 3.75974C19.7753 3.60341 19.9328 3.45844 20.1207 3.32485L20.1136 3.36717L19.4345 3.16535L19.4767 3.02344L20.3084 3.27063L20.2711 3.39622C20.1514 3.49087 20.0457 3.58709 19.9541 3.68468C19.8624 3.78238 19.7833 3.88345 19.7167 3.98799C19.65 4.09253 19.5937 4.20422 19.5475 4.32308L19.3516 4.26486L19.3517 4.26476Z" fill="white"/>
<path d="M20.4083 4.6346C20.2907 4.58985 20.2078 4.52353 20.1597 4.43541C20.1117 4.3474 20.0987 4.24991 20.1208 4.14295L20.2972 4.21001C20.2868 4.27644 20.2961 4.33498 20.3251 4.3854C20.3541 4.43583 20.3978 4.47215 20.456 4.49437C20.5186 4.51816 20.5787 4.51826 20.6365 4.49468C20.6943 4.4711 20.7393 4.41688 20.7715 4.33203C20.8033 4.24823 20.8063 4.17685 20.7807 4.1179C20.7549 4.05894 20.7091 4.01694 20.6433 3.99198C20.599 3.97514 20.5561 3.96946 20.5145 3.97493C20.4729 3.9804 20.4389 3.99504 20.4125 4.01904L20.2571 3.95998L20.5502 3.35938L21.1832 3.59993L21.1306 3.73837L20.5785 3.52856L20.6669 3.52024L20.4708 3.93377L20.4281 3.90482C20.4634 3.87692 20.5066 3.85976 20.558 3.85312C20.6093 3.84649 20.6662 3.85512 20.7289 3.87892C20.8012 3.90639 20.8595 3.94619 20.9039 3.9983C20.9484 4.05041 20.9753 4.11105 20.9849 4.18022C20.9945 4.24939 20.9843 4.32329 20.9545 4.40172C20.9238 4.48236 20.8812 4.545 20.8265 4.58985C20.7717 4.6346 20.7086 4.66102 20.6371 4.66902C20.5655 4.67702 20.4891 4.66565 20.4083 4.63491V4.6346Z" fill="white"/>
<path d="M21.3708 5.05121C21.2803 5.00763 21.2124 4.94509 21.1671 4.8635C21.1218 4.78191 21.1007 4.68864 21.1038 4.58368C21.1069 4.47871 21.1353 4.3706 21.1889 4.25911C21.2425 4.14762 21.3089 4.05898 21.388 3.99318C21.467 3.92738 21.5524 3.88716 21.6439 3.87264C21.7354 3.85811 21.8264 3.87264 21.917 3.91622C22.0075 3.95981 22.0754 4.02171 22.1207 4.10203C22.166 4.18236 22.1875 4.27395 22.1854 4.37691C22.1833 4.47977 22.1554 4.58694 22.1018 4.69843C22.0477 4.81097 21.9807 4.90088 21.9009 4.96825C21.8211 5.03563 21.7351 5.07711 21.6431 5.09259C21.551 5.10817 21.4603 5.09438 21.3708 5.05132V5.05121ZM21.438 4.91172C21.4972 4.94025 21.5564 4.94636 21.6156 4.93014C21.6746 4.91393 21.7304 4.87845 21.7831 4.82371C21.8356 4.76907 21.8829 4.69822 21.9247 4.61136C21.966 4.52546 21.9912 4.44566 22.0005 4.37207C22.0096 4.29838 22.0019 4.23458 21.9773 4.18047C21.9527 4.12646 21.9102 4.08487 21.8499 4.05582C21.7885 4.02623 21.729 4.01897 21.6711 4.03403C21.6132 4.04897 21.5585 4.08287 21.5069 4.13541C21.4553 4.18805 21.4089 4.25732 21.3675 4.34322C21.3257 4.43018 21.3 4.51156 21.2904 4.58757C21.2808 4.66358 21.2878 4.72927 21.3117 4.78486C21.3356 4.84045 21.3778 4.88277 21.4381 4.91172H21.438Z" fill="white"/>
<path d="M26.921 10.2588L27.8364 9.73018L27.841 9.76544C27.806 9.76839 27.766 9.76144 27.721 9.74481C27.6759 9.72807 27.6317 9.70428 27.5884 9.67343C27.545 9.64248 27.5057 9.60584 27.4708 9.56342L27.6211 9.47656C27.6534 9.51657 27.6912 9.55205 27.7347 9.583C27.7781 9.61395 27.8233 9.63785 27.8704 9.65459C27.9174 9.67143 27.9608 9.67901 28.0005 9.67743L28.0715 9.80039L27.0101 10.4133L26.9209 10.2589L26.921 10.2588Z" fill="white"/>
<path d="M27.3104 11.0289C27.2666 10.9385 27.2524 10.8473 27.2676 10.7552C27.2829 10.6631 27.3244 10.577 27.3922 10.4967C27.4599 10.4165 27.5494 10.3495 27.6607 10.2956C27.772 10.2417 27.8792 10.2135 27.9821 10.2111C28.0849 10.2087 28.1767 10.2304 28.2575 10.276C28.3382 10.3216 28.4004 10.3896 28.4442 10.48C28.488 10.5704 28.5026 10.6611 28.4881 10.7522C28.4736 10.8433 28.4335 10.9285 28.3679 11.0078C28.3022 11.087 28.2138 11.1536 28.1024 11.2075C27.9901 11.2619 27.8816 11.2906 27.7772 11.2937C27.6728 11.2967 27.5797 11.2758 27.498 11.2307C27.4163 11.1857 27.3538 11.1184 27.3105 11.029L27.3104 11.0289ZM27.4498 10.9614C27.4784 11.0207 27.5209 11.0623 27.5774 11.0863C27.6337 11.1103 27.6995 11.1172 27.7747 11.1071C27.8498 11.097 27.9308 11.0709 28.0176 11.0289C28.1034 10.9873 28.1728 10.9406 28.2259 10.8887C28.2788 10.8367 28.3125 10.7819 28.3269 10.7243C28.3413 10.6668 28.3339 10.6078 28.3046 10.5475C28.2749 10.4861 28.2328 10.4434 28.1782 10.4191C28.1235 10.3949 28.0598 10.3874 27.9866 10.3965C27.9134 10.4057 27.834 10.4309 27.7482 10.4725C27.6614 10.5145 27.5906 10.5623 27.5358 10.6158C27.4809 10.6693 27.4457 10.7252 27.4298 10.7835C27.4139 10.8418 27.4205 10.9012 27.4498 10.9614Z" fill="white"/>
<path d="M27.7657 12.0968C27.7306 12.0027 27.725 11.9105 27.7489 11.8202C27.7727 11.73 27.8221 11.6481 27.897 11.5745C27.9719 11.5009 28.0674 11.4426 28.1832 11.3993C28.2991 11.3561 28.4084 11.3381 28.511 11.3453C28.6136 11.3526 28.703 11.3827 28.7791 11.4356C28.8553 11.4886 28.9108 11.5621 28.9459 11.6562C28.9811 11.7503 28.9871 11.842 28.9641 11.9313C28.9411 12.0206 28.8933 12.1016 28.8204 12.1744C28.7477 12.2471 28.6533 12.3051 28.5374 12.3484C28.4205 12.3921 28.3099 12.4105 28.2056 12.4039C28.1014 12.3971 28.0106 12.3676 27.9334 12.315C27.8563 12.2625 27.8004 12.1896 27.7656 12.0967L27.7657 12.0968ZM27.9109 12.0427C27.934 12.1044 27.9724 12.1497 28.0263 12.1789C28.0802 12.2081 28.1451 12.2211 28.2209 12.2181C28.2967 12.215 28.3797 12.1967 28.47 12.1629C28.5593 12.1295 28.6328 12.0895 28.6905 12.0428C28.7481 11.996 28.7867 11.9446 28.8064 11.8885C28.8261 11.8325 28.8242 11.7732 28.8008 11.7104C28.777 11.6466 28.739 11.6001 28.6869 11.5708C28.6348 11.5416 28.572 11.5281 28.4983 11.5303C28.4246 11.5325 28.3431 11.5503 28.2538 11.5837C28.1634 11.6174 28.0884 11.6583 28.0289 11.7064C27.9693 11.7545 27.9289 11.8069 27.9077 11.8635C27.8864 11.9201 27.8874 11.9798 27.9109 12.0426V12.0427Z" fill="white"/>
<path d="M28.1192 13.1952C28.093 13.0983 28.096 13.0059 28.1281 12.9184C28.1602 12.8308 28.2169 12.7538 28.2984 12.6875C28.3798 12.6213 28.4802 12.572 28.5996 12.5397C28.719 12.5074 28.8295 12.4997 28.931 12.5164C29.0325 12.5331 29.1187 12.5715 29.1896 12.6313C29.2604 12.6911 29.309 12.7694 29.3352 12.8663C29.3614 12.9633 29.359 13.0552 29.3277 13.142C29.2965 13.2287 29.2413 13.3049 29.1621 13.3706C29.0828 13.4363 28.9836 13.4853 28.8642 13.5176C28.7436 13.5502 28.6318 13.5582 28.5287 13.5419C28.4255 13.5256 28.3379 13.4877 28.266 13.4281C28.1941 13.3686 28.1451 13.2909 28.1192 13.1951V13.1952ZM28.2687 13.1547C28.2859 13.2182 28.32 13.267 28.371 13.3011C28.4219 13.3351 28.4852 13.3543 28.561 13.3583C28.6367 13.3623 28.7211 13.3518 28.8143 13.3266C28.9063 13.3018 28.9831 13.2687 29.0449 13.2274C29.1066 13.1863 29.1499 13.1387 29.1747 13.0847C29.1995 13.0307 29.2032 12.9714 29.1857 12.9068C29.1679 12.841 29.1344 12.7912 29.0853 12.7572C29.0361 12.7232 28.9747 12.7039 28.9012 12.6993C28.8276 12.6946 28.7449 12.7047 28.6529 12.7297C28.5597 12.7549 28.4813 12.7887 28.4175 12.8311C28.3537 12.8734 28.3086 12.9218 28.2822 12.9763C28.2558 13.0307 28.2513 13.0902 28.2687 13.1548V13.1547Z" fill="white"/>
</g>
<defs>
<filter id="filter0_d_12079_162208" x="22.559" y="5.85156" width="8.42244" height="11.9508" filterUnits="userSpaceOnUse" color-interpolation-filters="sRGB">
<feFlood flood-opacity="0" result="BackgroundImageFix"/>
<feColorMatrix in="SourceAlpha" type="matrix" values="0 0 0 0 0 0 0 0 0 0 0 0 0 0 0 0 0 0 127 0" result="hardAlpha"/>
<feOffset dx="-0.787879" dy="0.787879"/>
<feGaussianBlur stdDeviation="0.393939"/>
<feComposite in2="hardAlpha" operator="out"/>
<feColorMatrix type="matrix" values="0 0 0 0 0.0196078 0 0 0 0 0.666667 0 0 0 0 0.305882 0 0 0 0.16 0"/>
<feBlend mode="normal" in2="BackgroundImageFix" result="effect1_dropShadow_12079_162208"/>
<feBlend mode="normal" in="SourceGraphic" in2="effect1_dropShadow_12079_162208" result="shape"/>
</filter>
<filter id="filter1_d_12079_162208" x="14.4906" y="1.29688" width="11.8775" height="8.36482" filterUnits="userSpaceOnUse" color-interpolation-filters="sRGB">
<feFlood flood-opacity="0" result="BackgroundImageFix"/>
<feColorMatrix in="SourceAlpha" type="matrix" values="0 0 0 0 0 0 0 0 0 0 0 0 0 0 0 0 0 0 127 0" result="hardAlpha"/>
<feOffset dx="-0.787879" dy="0.787879"/>
<feGaussianBlur stdDeviation="0.393939"/>
<feComposite in2="hardAlpha" operator="out"/>
<feColorMatrix type="matrix" values="0 0 0 0 0.992157 0 0 0 0 0.839216 0 0 0 0 0 0 0 0 0.2 0"/>
<feBlend mode="normal" in2="BackgroundImageFix" result="effect1_dropShadow_12079_162208"/>
<feBlend mode="normal" in="SourceGraphic" in2="effect1_dropShadow_12079_162208" result="shape"/>
</filter>
<filter id="filter2_d_12079_162208" x="4.67501" y="1.29688" width="11.7584" height="8.23201" filterUnits="userSpaceOnUse" color-interpolation-filters="sRGB">
<feFlood flood-opacity="0" result="BackgroundImageFix"/>
<feColorMatrix in="SourceAlpha" type="matrix" values="0 0 0 0 0 0 0 0 0 0 0 0 0 0 0 0 0 0 127 0" result="hardAlpha"/>
<feOffset dy="0.787879"/>
<feGaussianBlur stdDeviation="0.393939"/>
<feComposite in2="hardAlpha" operator="out"/>
<feColorMatrix type="matrix" values="0 0 0 0 0.964706 0 0 0 0 0.537255 0 0 0 0 0.133333 0 0 0 0.2 0"/>
<feBlend mode="normal" in2="BackgroundImageFix" result="effect1_dropShadow_12079_162208"/>
<feBlend mode="normal" in="SourceGraphic" in2="effect1_dropShadow_12079_162208" result="shape"/>
</filter>
<filter id="filter3_d_12079_162208" x="0.314068" y="5.71094" width="8.55916" height="12.0836" filterUnits="userSpaceOnUse" color-interpolation-filters="sRGB">
<feFlood flood-opacity="0" result="BackgroundImageFix"/>
<feColorMatrix in="SourceAlpha" type="matrix" values="0 0 0 0 0 0 0 0 0 0 0 0 0 0 0 0 0 0 127 0" result="hardAlpha"/>
<feOffset dx="0.393939" dy="0.787879"/>
<feGaussianBlur stdDeviation="0.393939"/>
<feComposite in2="hardAlpha" operator="out"/>
<feColorMatrix type="matrix" values="0 0 0 0 0.937255 0 0 0 0 0.235294 0 0 0 0 0.219608 0 0 0 0.2 0"/>
<feBlend mode="normal" in2="BackgroundImageFix" result="effect1_dropShadow_12079_162208"/>
<feBlend mode="normal" in="SourceGraphic" in2="effect1_dropShadow_12079_162208" result="shape"/>
</filter>
<clipPath id="clip0_12079_162208">
<rect width="31.5714" height="17.3333" fill="white"/>
</clipPath>
</defs>
</svg>
