<svg width="18" height="18" viewBox="0 0 18 18" fill="none" xmlns="http://www.w3.org/2000/svg">
<path d="M7.1727 3.3131L7.81769 5.10431C8.53418 7.09232 10.0997 8.65783 12.0877 9.37431L13.8789 10.0193C14.0404 10.0779 14.0404 10.3069 13.8789 10.3647L12.0877 11.0097C10.0997 11.7262 8.53418 13.2917 7.81769 15.2797L7.1727 17.0709C7.11406 17.2324 6.88514 17.2324 6.8273 17.0709L6.18231 15.2797C5.46582 13.2917 3.90031 11.7262 1.9123 11.0097L0.121088 10.3647C-0.0403626 10.3061 -0.0403626 10.0771 0.121088 10.0193L1.9123 9.37431C3.90031 8.65783 5.46582 7.09232 6.18231 5.10431L6.8273 3.3131C6.88514 3.15084 7.11406 3.15084 7.1727 3.3131Z" fill="#5090CC"/>
<path d="M14.6815 0.0544625L14.9582 0.821881C15.2654 1.67359 15.9363 2.34448 16.788 2.65172L17.5554 2.92837C17.6248 2.95352 17.6248 3.0514 17.5554 3.07655L16.788 3.3532C15.9363 3.66044 15.2654 4.33134 14.9582 5.18304L14.6815 5.95046C14.6564 6.0198 14.5585 6.0198 14.5333 5.95046L14.2567 5.18304C13.9494 4.33134 13.2785 3.66044 12.4268 3.3532L11.6594 3.07655C11.5901 3.0514 11.5901 2.95352 11.6594 2.92837L12.4268 2.65172C13.2785 2.34448 13.9494 1.67359 14.2567 0.821881L14.5333 0.0544625C14.5585 -0.01555 14.657 -0.01555 14.6815 0.0544625Z" fill="#5090CC"/>
</svg>
