<svg width="15" height="15" viewBox="0 0 15 15" fill="none" xmlns="http://www.w3.org/2000/svg">
<g clip-path="url(#clip0_391_63861)">
<path d="M13.6898 11.9925C13.6898 12.3019 13.5669 12.5987 13.3481 12.8175C13.1293 13.0363 12.8325 13.1592 12.5231 13.1592H2.02311C1.71369 13.1592 1.41695 13.0363 1.19815 12.8175C0.979362 12.5987 0.856445 12.3019 0.856445 11.9925V5.57585C0.856445 5.26643 0.979362 4.96968 1.19815 4.75089C1.41695 4.5321 1.71369 4.40918 2.02311 4.40918H4.35645L5.52311 2.65918H9.02311L10.1898 4.40918H12.5231C12.8325 4.40918 13.1293 4.5321 13.3481 4.75089C13.5669 4.96968 13.6898 5.26643 13.6898 5.57585V11.9925Z" stroke="#5090CC" stroke-width="0.707071" stroke-linecap="round" stroke-linejoin="round"/>
<path d="M7.27376 10.8258C8.56243 10.8258 9.6071 9.78118 9.6071 8.49251C9.6071 7.20385 8.56243 6.15918 7.27376 6.15918C5.9851 6.15918 4.94043 7.20385 4.94043 8.49251C4.94043 9.78118 5.9851 10.8258 7.27376 10.8258Z" stroke="#5090CC" stroke-width="0.707071" stroke-linecap="round" stroke-linejoin="round"/>
</g>
<defs>
<clipPath id="clip0_391_63861">
<rect width="14" height="14" fill="white" transform="translate(0.273438 0.90918)"/>
</clipPath>
</defs>
</svg>
