<svg width="16" height="14" viewBox="0 0 16 14" fill="none" xmlns="http://www.w3.org/2000/svg">
<path d="M15.4542 4.25665L11.8323 0.470773C11.5335 0.158394 11.2303 0 10.9314 0C10.5209 0 10.0417 0.326326 10.0417 1.24605V2.53493C7.41028 2.65481 4.95294 3.78284 3.07869 5.74188C1.09356 7.81678 0.0001875 10.5755 0 13.51C0 13.7208 0.129 13.908 0.320312 13.9748C0.369156 13.9918 0.419156 14 0.468688 14C0.613281 14 0.75325 13.9299 0.8435 13.8043C3.05659 10.7251 6.38847 8.90532 10.0417 8.76166V10.0307C10.0417 10.9504 10.5209 11.2768 10.9314 11.2768H10.9315C11.2304 11.2768 11.5335 11.1184 11.8323 10.806L15.4541 7.02007C15.8062 6.65223 16 6.16153 16 5.63836C16 5.11529 15.8062 4.62456 15.4542 4.25665Z" fill="#31509F"/>
</svg>
