<svg width="10" height="11" viewBox="0 0 10 11" fill="none" xmlns="http://www.w3.org/2000/svg">
<path d="M7.63281 0.0776367C8.02189 0.00652605 8.42392 0.0752028 8.76758 0.270996C9.11113 0.466762 9.3745 0.777113 9.51172 1.14795C9.64891 1.51884 9.65102 1.92609 9.51758 2.29834C9.38409 2.67057 9.12382 2.98389 8.78223 3.18311C8.44053 3.38231 8.03918 3.45542 7.64941 3.38818C7.27296 3.32319 6.93159 3.13051 6.67871 2.84521L3.36621 4.61963C3.39738 4.74566 3.41651 4.87451 3.41895 5.00439V5.00635C3.41686 5.13948 3.3956 5.27109 3.3623 5.3999L6.6748 7.1665C6.92867 6.87656 7.27407 6.68149 7.6543 6.61377C8.04814 6.54365 8.45434 6.61491 8.80078 6.81494C9.147 7.01495 9.41169 7.3306 9.54785 7.70654C9.68401 8.08269 9.68301 8.49517 9.54492 8.87061C9.40678 9.24607 9.14047 9.56105 8.79297 9.75928C8.44551 9.95747 8.03895 10.0267 7.64551 9.95459C7.25201 9.88238 6.89609 9.67343 6.6416 9.36475C6.38715 9.05609 6.25075 8.66708 6.25488 8.26709V8.26611C6.25986 8.12427 6.28401 7.98354 6.32617 7.84814L3.03125 6.08936C2.81886 6.34922 2.53409 6.54089 2.21191 6.63721C1.87633 6.73746 1.5179 6.73009 1.18652 6.6167C0.85494 6.50315 0.56705 6.28858 0.363281 6.00342C0.159633 5.71839 0.0498944 5.37716 0.0498047 5.02686C0.0498047 4.67637 0.159515 4.33448 0.363281 4.04932C0.56705 3.76415 0.85494 3.54958 1.18652 3.43604C1.51788 3.32266 1.87635 3.31529 2.21191 3.41553C2.53382 3.51177 2.81892 3.70287 3.03125 3.9624L6.32031 2.18115C6.29075 2.07766 6.27034 1.97183 6.26074 1.86475L6.25488 1.74365C6.25202 1.34819 6.3885 0.964344 6.64062 0.659668C6.89271 0.355092 7.24392 0.148825 7.63281 0.0776367ZM7.93555 7.33838C7.68933 7.33838 7.45344 7.43679 7.2793 7.61084C7.10522 7.78492 7.00692 8.02091 7.00684 8.26709C7.00684 8.45076 7.06104 8.63097 7.16309 8.78369C7.26512 8.93635 7.41044 9.05521 7.58008 9.12549C7.74977 9.19578 7.93705 9.21406 8.11719 9.17822C8.297 9.14236 8.46208 9.05391 8.5918 8.92432C8.72165 8.79446 8.81084 8.62884 8.84668 8.44873C8.88251 8.26859 8.86423 8.08131 8.79395 7.91162C8.72365 7.74202 8.60383 7.59761 8.45117 7.49561C8.29847 7.39359 8.11919 7.33838 7.93555 7.33838ZM1.55664 4.09424C1.37667 4.13004 1.21087 4.21848 1.08105 4.34814C0.951235 4.47796 0.862034 4.64368 0.826172 4.82373C0.790339 5.00387 0.809595 5.19115 0.879883 5.36084C0.950191 5.53037 1.06907 5.67586 1.22168 5.77783C1.3743 5.8797 1.55381 5.93407 1.7373 5.93408C1.98355 5.93408 2.21941 5.83571 2.39355 5.66162C2.56768 5.4875 2.66598 5.25161 2.66602 5.00537C2.66602 4.82187 2.61162 4.64237 2.50977 4.48975C2.40772 4.33703 2.26246 4.21726 2.09277 4.14697C1.92325 4.07677 1.73661 4.05853 1.55664 4.09424ZM7.93555 0.813965C7.68933 0.813965 7.45344 0.912377 7.2793 1.08643C7.10522 1.2605 7.00693 1.4965 7.00684 1.74268C7.00684 1.92635 7.06104 2.10656 7.16309 2.25928C7.26512 2.41194 7.41044 2.5308 7.58008 2.60107C7.74977 2.67136 7.93705 2.68964 8.11719 2.65381C8.29701 2.61795 8.46208 2.5295 8.5918 2.3999C8.72166 2.27004 8.81084 2.10444 8.84668 1.92432C8.88251 1.74417 8.86423 1.5569 8.79395 1.38721C8.72365 1.21761 8.60382 1.07319 8.45117 0.971191C8.29847 0.869177 8.11919 0.813965 7.93555 0.813965Z" fill="black" stroke="black" stroke-width="0.1"/>
</svg>
