<svg width="624" height="148" viewBox="0 0 624 148" fill="none" xmlns="http://www.w3.org/2000/svg">
<g clip-path="url(#clip0_1132_730)">
<path d="M604 0.5H20C9.23045 0.5 0.5 9.23045 0.5 20V128C0.5 138.77 9.23045 147.5 20 147.5H604C614.77 147.5 623.5 138.77 623.5 128V20C623.5 9.23045 614.77 0.5 604 0.5Z" fill="#1D1D1D" fill-opacity="0.28"/>
<path d="M604 0.5H20C9.23045 0.5 0.5 9.23045 0.5 20V128C0.5 138.77 9.23045 147.5 20 147.5H604C614.77 147.5 623.5 138.77 623.5 128V20C623.5 9.23045 614.77 0.5 604 0.5Z" stroke="url(#paint0_linear_1132_730)"/>
</g>
<defs>
<linearGradient id="paint0_linear_1132_730" x1="1.3044e-05" y1="6.04079" x2="497.749" y2="291.767" gradientUnits="userSpaceOnUse">
<stop stop-color="#787878"/>
<stop offset="1" stop-color="#6F6F6F"/>
</linearGradient>
<clipPath id="clip0_1132_730">
<rect width="624" height="148" fill="white"/>
</clipPath>
</defs>
</svg>
