<svg width="16" height="16" viewBox="0 0 16 16" fill="none" xmlns="http://www.w3.org/2000/svg">
<path d="M2.28516 4.83984V13.7287C2.28516 14.0655 2.41894 14.3885 2.65708 14.6266C2.89523 14.8648 3.21821 14.9986 3.555 14.9986H12.4439C12.7807 14.9986 13.1037 14.8648 13.3418 14.6266C13.5799 14.3885 13.7137 14.0655 13.7137 13.7287V4.83984H2.28516Z" stroke="#1BB746" stroke-linecap="round" stroke-linejoin="round"/>
<path d="M11.2315 7.38281L6.78705 11.8273L4.76685 9.80705" fill="white"/>
<path d="M11.2315 7.38281L6.78705 11.8273L4.76685 9.80706" stroke="#1BB746" stroke-linecap="round" stroke-linejoin="round"/>
<path d="M10.5391 4.52344C10.5391 3.84987 10.2715 2.88643 9.79523 2.41015C9.31894 1.93387 8.67297 1.66629 7.9994 1.66629C7.32583 1.66629 6.67986 1.93387 6.20357 2.41015C5.72729 2.88643 5.45972 3.84987 5.45972 4.52344" stroke="#1BB746" stroke-linecap="round" stroke-linejoin="round"/>
</svg>
