<svg width="16" height="16" viewBox="0 0 16 16" fill="none" xmlns="http://www.w3.org/2000/svg">
<path fill-rule="evenodd" clip-rule="evenodd" d="M15.1673 4.66675C15.1673 4.94289 14.9435 5.16675 14.6673 5.16675H1.33398C1.05784 5.16675 0.833984 4.94289 0.833984 4.66675C0.833984 4.39061 1.05784 4.16675 1.33398 4.16675H14.6673C14.9435 4.16675 15.1673 4.39061 15.1673 4.66675Z" fill="#7B8D9F"/>
<path fill-rule="evenodd" clip-rule="evenodd" d="M13.1673 8.00008C13.1673 8.27622 12.9435 8.50008 12.6673 8.50008H3.33398C3.05784 8.50008 2.83398 8.27622 2.83398 8.00008C2.83398 7.72394 3.05784 7.50008 3.33398 7.50008H12.6673C12.9435 7.50008 13.1673 7.72394 13.1673 8.00008Z" fill="#7B8D9F"/>
<path fill-rule="evenodd" clip-rule="evenodd" d="M11.1673 11.3334C11.1673 11.6096 10.9435 11.8334 10.6673 11.8334H5.33398C5.05784 11.8334 4.83398 11.6096 4.83398 11.3334C4.83398 11.0573 5.05784 10.8334 5.33398 10.8334H10.6673C10.9435 10.8334 11.1673 11.0573 11.1673 11.3334Z" fill="#7B8D9F"/>
</svg>
