<svg width="100" height="20" viewBox="0 0 100 20" fill="none" xmlns="http://www.w3.org/2000/svg">
<path d="M9.99935 1.66675L12.5743 6.88341L18.3327 7.72508L14.166 11.7834L15.1493 17.5167L9.99935 14.8084L4.84935 17.5167L5.83268 11.7834L1.66602 7.72508L7.42435 6.88341L9.99935 1.66675Z" fill="#F59E0B"/>
<path d="M29.9993 1.66675L32.5743 6.88341L38.3327 7.72508L34.166 11.7834L35.1493 17.5167L29.9993 14.8084L24.8493 17.5167L25.8327 11.7834L21.666 7.72508L27.4243 6.88341L29.9993 1.66675Z" fill="#F59E0B"/>
<path d="M49.9993 1.66675L52.5743 6.88341L58.3327 7.72508L54.166 11.7834L55.1493 17.5167L49.9993 14.8084L44.8493 17.5167L45.8327 11.7834L41.666 7.72508L47.4243 6.88341L49.9993 1.66675Z" fill="#F59E0B"/>
<path d="M69.9993 1.66675L72.5743 6.88341L78.3327 7.72508L74.166 11.7834L75.1493 17.5167L69.9993 14.8084L64.8493 17.5167L65.8327 11.7834L61.666 7.72508L67.4243 6.88341L69.9993 1.66675Z" fill="#F59E0B"/>
<path d="M89.9993 1.66675L92.5743 6.88341L98.3327 7.72508L94.166 11.7834L95.1493 17.5167L89.9993 14.8084L84.8493 17.5167L85.8327 11.7834L81.666 7.72508L87.4243 6.88341L89.9993 1.66675Z" fill="#F59E0B"/>
</svg>
