<svg width="16" height="16" viewBox="0 0 16 16" fill="none" xmlns="http://www.w3.org/2000/svg">
<path d="M9.66895 5.69971C9.73245 5.82837 9.85513 5.91808 9.99707 5.93896L13.7285 6.48389L11.0293 9.11377C10.9263 9.21407 10.8791 9.3588 10.9033 9.50049L11.54 13.2144L8.2041 11.4604C8.10861 11.4102 7.99895 11.3972 7.89648 11.4224L7.79688 11.4604L4.46094 13.2144L5.09766 9.50049C5.12191 9.35878 5.07467 9.21408 4.97168 9.11377L2.27148 6.48389L6.00391 5.93896C6.14598 5.91817 6.26847 5.82847 6.33203 5.69971L8 2.31982L9.66895 5.69971Z" stroke="#F59E0B" stroke-width="0.873577" stroke-linecap="round" stroke-linejoin="round"/>
<path d="M3.88065 14.0135L8.00065 11.8468L12.334 6.00016L10.0007 5.50683L8.00065 1.3335L5.94065 5.50683L1.33398 6.18016L4.66732 9.42683L3.88065 14.0135Z" fill="#F59E0B"/>
</svg>
