<svg width="100" height="20" viewBox="0 0 100 20" fill="none" xmlns="http://www.w3.org/2000/svg">
<path d="M9.99984 1.66699L12.5748 6.88366L18.3332 7.72533L14.1665 11.7837L15.1498 17.517L9.99984 14.8087L4.84984 17.517L5.83317 11.7837L1.6665 7.72533L7.42484 6.88366L9.99984 1.66699Z" fill="#F59E0B"/>
<path d="M29.9998 1.66699L32.5748 6.88366L38.3332 7.72533L34.1665 11.7837L35.1498 17.517L29.9998 14.8087L24.8498 17.517L25.8332 11.7837L21.6665 7.72533L27.4248 6.88366L29.9998 1.66699Z" fill="#F59E0B"/>
<path d="M49.9998 1.66699L52.5748 6.88366L58.3332 7.72533L54.1665 11.7837L55.1498 17.517L49.9998 14.8087L44.8498 17.517L45.8332 11.7837L41.6665 7.72533L47.4248 6.88366L49.9998 1.66699Z" fill="#F59E0B"/>
<path d="M69.9998 1.66699L72.5748 6.88366L78.3332 7.72533L74.1665 11.7837L75.1498 17.517L69.9998 14.8087L64.8498 17.517L65.8332 11.7837L61.6665 7.72533L67.4248 6.88366L69.9998 1.66699Z" fill="#F59E0B"/>
<path d="M89.9998 1.66699L92.5748 6.88366L98.3332 7.72533L94.1665 11.7837L95.1498 17.517L89.9998 14.8087L84.8498 17.517L85.8332 11.7837L81.6665 7.72533L87.4248 6.88366L89.9998 1.66699Z" fill="#F59E0B"/>
</svg>
