<svg width="58" height="24" viewBox="0 0 58 24" fill="none" xmlns="http://www.w3.org/2000/svg">
<g clip-path="url(#clip0_2_8439)">
<path d="M4.50388 9.31104C4.50388 8.69241 5.01055 8.45448 5.84971 8.45448C7.05305 8.45448 8.57305 8.81931 9.77638 9.46966V5.74207C8.46221 5.21862 7.16388 5.01241 5.84971 5.01241C2.63555 5.01241 0.498047 6.69379 0.498047 9.50138C0.498047 13.8793 6.51471 13.1814 6.51471 15.069C6.51471 15.7986 5.88138 16.0366 4.99471 16.0366C3.68055 16.0366 2.00221 15.4972 0.672214 14.7676V18.5428C2.14471 19.1772 3.63305 19.4469 4.99471 19.4469C8.28805 19.4469 10.5522 17.8131 10.5522 14.9738C10.5364 10.2469 4.50388 11.0876 4.50388 9.31104ZM15.2072 1.84L11.3439 2.66483L11.328 15.3703C11.328 17.7179 13.0855 19.4469 15.4289 19.4469C16.7272 19.4469 17.6772 19.209 18.1997 18.9234V15.7034C17.693 15.9097 15.1914 16.6393 15.1914 14.2917V8.66069H18.1997V5.28207H15.1914L15.2072 1.84ZM23.1239 6.45586L22.8705 5.28207H19.4505V19.1614H23.4089V9.75517C24.343 8.53379 25.9264 8.75586 26.4172 8.93035V5.28207C25.9105 5.09172 24.058 4.74276 23.1239 6.45586ZM27.383 5.28207H31.3572V19.1614H27.383V5.28207ZM27.383 4.07655L31.3572 3.22V0L27.383 0.84069V4.07655ZM39.6222 5.01241C38.0705 5.01241 37.073 5.74207 36.5189 6.24966L36.313 5.26621H32.8297V23.7614L36.788 22.9207L36.8039 18.4317C37.3739 18.8441 38.213 19.431 39.6064 19.431C42.4405 19.431 45.0214 17.1469 45.0214 12.1186C45.0055 7.51862 42.393 5.01241 39.6222 5.01241ZM38.6722 15.9414C37.738 15.9414 37.1839 15.6083 36.8039 15.1959L36.788 9.31104C37.1997 8.85104 37.7697 8.53379 38.6722 8.53379C40.113 8.53379 41.1105 10.1517 41.1105 12.2297C41.1105 14.3552 40.1289 15.9414 38.6722 15.9414ZM57.498 12.2772C57.498 8.21655 55.5347 5.01241 51.7822 5.01241C48.0139 5.01241 45.7339 8.21655 45.7339 12.2455C45.7339 17.02 48.4255 19.431 52.2889 19.431C54.173 19.431 55.598 19.0028 56.6747 18.4V15.2276C55.598 15.7669 54.363 16.1 52.7955 16.1C51.2597 16.1 49.898 15.5607 49.7239 13.689H57.4664C57.4664 13.4828 57.498 12.6579 57.498 12.2772ZM49.6764 10.7703C49.6764 8.97793 50.7689 8.23241 51.7664 8.23241C52.7322 8.23241 53.7614 8.97793 53.7614 10.7703H49.6764Z" fill="#6772E5"/>
</g>
<defs>
<clipPath id="clip0_2_8439">
<rect width="57" height="24" fill="white" transform="translate(0.5)"/>
</clipPath>
</defs>
</svg>
