<svg width="48" height="48" viewBox="0 0 48 48" fill="none" xmlns="http://www.w3.org/2000/svg">
<rect width="48" height="48" rx="24" fill="#EEF4FA"/>
<path d="M24.3299 17.1388L26.4899 14.5191C27.1075 14.1175 27.8164 14.8652 27.3955 15.4689L25.1274 18.2216L27.3789 20.9909C27.4149 21.0407 27.4592 21.0656 27.5173 21.0795C27.6558 21.1044 28.9657 21.0961 29.0488 21.0573L31.4968 18.3822C31.7211 18.1828 31.8928 17.8865 32.2307 17.8754C32.7651 17.8588 33.103 18.493 32.779 18.9278C32.0839 19.6395 31.4359 20.3899 30.7685 21.1266C30.5663 21.3481 30.1482 21.6389 30.1066 21.9297C30.1565 23.5746 30.0235 25.275 30.1011 26.9116C30.1952 28.972 30.5996 31.1126 30.7408 33.1785C30.6937 33.9982 29.6663 34.2115 29.3008 33.4748L28.4949 27.2827L28.4257 27.2135L28.0684 27.2052L27.2293 33.4582C26.9413 34.2225 25.8142 33.9955 25.8004 33.1757C25.9361 31.2594 26.3044 29.2766 26.393 27.3658C26.4816 25.455 26.3238 23.6577 26.3902 21.83L24.4047 19.3819L24.2717 19.2933L22.1394 21.877C22.2086 23.702 22.0425 25.5962 22.1366 27.4129C22.2308 29.2295 22.6046 31.2788 22.7292 33.1785C22.7431 33.7739 22.0951 34.1782 21.5717 33.8736C21.1867 33.6493 21.1951 33.1065 21.1369 32.7077C20.8738 30.8966 20.7326 29.0606 20.439 27.255L20.032 27.2522L19.2538 33.4416C19.0239 34.2281 17.7611 34.181 17.7888 33.076C17.8387 31.1154 18.2928 29.0135 18.387 27.0445C18.4701 25.347 18.3205 23.5802 18.3842 21.877L15.7091 18.925C15.2882 18.2548 16.1522 17.5237 16.7614 18.1025C17.3374 18.6508 17.8996 19.3902 18.4535 19.9801C18.7941 20.3401 19.1347 20.7029 19.4836 21.0546L21.015 21.0767L21.1314 21.0103L23.3773 18.2161L23.3523 18.1053L21.1369 15.4218C20.7409 14.7683 21.4443 14.1064 22.0674 14.5384L24.1942 17.125L24.3271 17.1416L24.3299 17.1388Z" fill="#5090CC"/>
<path d="M21.298 20.2749C20.1459 21.5183 18.152 19.71 19.3678 18.414C20.5807 17.1152 22.5054 18.9706 21.298 20.2749Z" fill="#5090CC"/>
<path d="M29.1689 18.3456C30.476 19.4976 28.6039 21.5053 27.3273 20.2287C26.1476 19.0517 27.8728 17.2018 29.1689 18.3456Z" fill="#5090CC"/>
</svg>
