<svg width="18" height="10" viewBox="0 0 18 10" fill="none" xmlns="http://www.w3.org/2000/svg">
<path fill-rule="evenodd" clip-rule="evenodd" d="M17.9167 0.625C17.9167 0.970178 17.6368 1.25 17.2917 1.25H0.625C0.279822 1.25 0 0.970178 0 0.625C0 0.279822 0.279822 0 0.625 0H17.2917C17.6368 0 17.9167 0.279822 17.9167 0.625Z" fill="#7B8D9F"/>
<path fill-rule="evenodd" clip-rule="evenodd" d="M15.4167 4.79167C15.4167 5.13684 15.1368 5.41667 14.7917 5.41667H3.125C2.77982 5.41667 2.5 5.13684 2.5 4.79167C2.5 4.44649 2.77982 4.16667 3.125 4.16667H14.7917C15.1368 4.16667 15.4167 4.44649 15.4167 4.79167Z" fill="#7B8D9F"/>
<path fill-rule="evenodd" clip-rule="evenodd" d="M12.9167 8.95833C12.9167 9.30351 12.6368 9.58333 12.2917 9.58333H5.625C5.27982 9.58333 5 9.30351 5 8.95833C5 8.61316 5.27982 8.33333 5.625 8.33333H12.2917C12.6368 8.33333 12.9167 8.61316 12.9167 8.95833Z" fill="#7B8D9F"/>
</svg>
