<svg width="24" height="24" viewBox="0 0 24 24" fill="none" xmlns="http://www.w3.org/2000/svg">
<path d="M16.4852 12.8649C16.8505 12.7344 17.0957 12.3857 17.0957 11.9979C17.0957 11.6102 16.8505 11.2614 16.4867 11.1309L14.8142 10.5279C13.1627 9.93319 11.8742 8.64394 11.2787 6.99244L10.6757 5.31994C10.5445 4.95619 10.1965 4.71094 9.81021 4.71094C9.42321 4.71094 9.07446 4.95544 8.94246 5.31994L8.34021 6.99244C7.74471 8.64469 6.45621 9.93319 4.80396 10.5279L3.13296 11.1309C2.76771 11.2622 2.52246 11.6102 2.52246 11.9979C2.52246 12.3857 2.76771 12.7337 3.13146 12.8649L4.80396 13.4679C6.45546 14.0627 7.74396 15.3512 8.33946 17.0034L8.94246 18.6767C9.07371 19.0404 9.42246 19.2849 9.80946 19.2849C10.1965 19.2849 10.5452 19.0397 10.6757 18.6759L11.2787 17.0034C11.8735 15.3519 13.1627 14.0634 14.8142 13.4679L16.4852 12.8649ZM14.3057 12.0564C12.232 12.8034 10.6142 14.4212 9.86721 16.4949L9.80871 16.6569L9.75021 16.4949C9.00246 14.4212 7.38471 12.8034 5.31171 12.0564L5.15046 11.9979L5.31246 11.9394C7.38621 11.1924 9.00396 9.57469 9.75096 7.50094L9.80946 7.33894L9.86796 7.50094C10.615 9.57469 12.2327 11.1924 14.3057 11.9394L14.4677 11.9979L14.3057 12.0564Z" fill="#415362"/>
<path d="M13.9109 5.59725L14.7577 5.9025C15.4904 6.1665 16.0612 6.738 16.3252 7.47L16.6297 8.316C16.7489 8.6475 17.0654 8.87025 17.4172 8.87025C17.7689 8.87025 18.0862 8.6475 18.2047 8.31675L18.5099 7.47C18.7739 6.73725 19.3454 6.16575 20.0774 5.9025L20.9249 5.59725C21.2542 5.478 21.4769 5.16225 21.4777 4.812C21.4784 4.46175 21.2579 4.1445 20.9249 4.023L20.0774 3.71775C19.3454 3.45375 18.7739 2.88225 18.5099 2.15025L18.2047 1.3035C18.0854 0.972 17.7697 0.75 17.4179 0.75C17.0654 0.75 16.7489 0.97275 16.6304 1.3035L16.3252 2.15025C16.0612 2.883 15.4897 3.45375 14.7577 3.71775L13.9087 4.02375C13.5787 4.14375 13.3567 4.461 13.3574 4.812C13.3582 5.163 13.5809 5.47875 13.9109 5.59725ZM17.4179 3.34125C17.7734 3.95025 18.2782 4.455 18.8864 4.80975C18.2774 5.16525 17.7727 5.67 17.4179 6.27825C17.0624 5.67 16.5577 5.1645 15.9494 4.80975C16.5577 4.45425 17.0624 3.9495 17.4179 3.34125Z" fill="#415362"/>
<path d="M20.9249 18.4058L20.0782 18.1006C19.3462 17.8366 18.7747 17.2651 18.5107 16.5331L18.2054 15.6863C18.0862 15.3556 17.7697 15.1328 17.4179 15.1328C17.0654 15.1328 16.7489 15.3556 16.6304 15.6863L16.3252 16.5331C16.0612 17.2658 15.4897 17.8373 14.7577 18.1006L13.9117 18.4051C13.5809 18.5236 13.3582 18.8401 13.3574 19.1911C13.3567 19.5421 13.5779 19.8593 13.9109 19.9801L14.7577 20.2853C15.4904 20.5493 16.0619 21.1201 16.3252 21.8528L16.6297 22.6988C16.7497 23.0303 17.0662 23.2531 17.4187 23.2531C17.7712 23.2531 18.0877 23.0303 18.2062 22.6996L18.5114 21.8528C18.7754 21.1208 19.3469 20.5493 20.0789 20.2853L20.9294 19.9793C21.2587 19.8586 21.4799 19.5421 21.4792 19.1911C21.4784 18.8401 21.2549 18.5251 20.9249 18.4058ZM17.4187 20.6618C17.0632 20.0528 16.5584 19.5481 15.9502 19.1933C16.5584 18.8378 17.0639 18.3331 17.4187 17.7248C17.7742 18.3331 18.2789 18.8386 18.8872 19.1933C18.2789 19.5488 17.7734 20.0536 17.4187 20.6618Z" fill="#415362"/>
</svg>
