<svg width="248" height="128" viewBox="0 0 248 128" fill="none" xmlns="http://www.w3.org/2000/svg">
<path d="M123.999 1.35413H124.082L125.644 1.36487C133.448 1.46824 141.239 2.30509 148.825 3.85803C156.749 5.47966 164.544 7.89835 171.992 11.0485C179.301 14.1384 186.348 17.9639 192.939 22.4176C199.358 26.7551 205.41 31.7314 210.919 37.2096L210.923 37.2135L211.019 37.3073L211.022 37.3102C211.078 37.3639 211.124 37.408 211.166 37.4518L211.165 37.4528L211.175 37.4615C216.75 43.0367 221.812 49.1704 226.219 55.694C230.671 62.2855 234.496 69.3333 237.588 76.6422C240.738 84.0908 243.157 91.8854 244.778 99.8092C246.416 107.814 247.258 116.044 247.28 124.279V126.78H211.34V124.592C211.334 112.808 209.028 101.385 204.483 90.6403C202.296 85.468 199.587 80.4793 196.434 75.8112C193.306 71.1822 189.714 66.8287 185.758 62.8727L185.752 62.8668L185.745 62.861C185.731 62.8475 185.716 62.8329 185.694 62.8112C185.674 62.7912 185.647 62.7634 185.618 62.736L185.512 62.6305C181.617 58.766 177.347 55.2556 172.819 52.1969C168.151 49.0435 163.162 46.3349 157.99 44.1471C147.26 39.6082 135.85 37.3025 124.08 37.2906H123.997C112.203 37.2906 100.764 39.5984 90.0078 44.1471C85.1588 46.1981 80.4711 48.707 76.0576 51.611L75.1787 52.1969C71.0649 54.9749 67.1525 58.1363 63.5508 61.5905L63.5498 61.5914C63.0773 62.0463 62.6481 62.4648 62.2402 62.8727C58.2842 66.8287 54.6924 71.1822 51.5645 75.8112C48.4111 80.4793 45.7024 85.468 43.5146 90.6403C38.9698 101.385 36.6622 112.808 36.6562 124.592V126.78H0.717773V124.59L0.727539 123.027C0.822551 115.732 1.55822 108.447 2.91992 101.33L3.22168 99.8073C4.8433 91.8834 7.26201 84.0888 10.4121 76.6403C13.502 69.3316 17.3276 62.2844 21.7812 55.693V55.692C26.1885 49.1685 31.2501 43.0347 36.8252 37.4596C37.2295 37.0553 37.6637 36.6289 38.1885 36.1198C43.3992 31.0719 49.0736 26.46 55.0576 22.4176C61.6491 17.9657 68.697 14.1404 76.0059 11.0485C83.4544 7.89835 91.249 5.47966 99.1729 3.85803C107.294 2.19574 115.646 1.35413 123.999 1.35413Z" fill="white" stroke="#DFE1E3" stroke-width="1.43471"/>
<path d="M242.633 100.247C241.041 92.4645 238.665 84.8102 235.57 77.4955C232.535 70.3173 228.777 63.3948 224.402 56.921C220.073 50.5116 215.101 44.4866 209.625 39.0098C209.541 38.9259 209.457 38.846 209.375 38.7621C203.966 33.3848 198.027 28.4972 191.715 24.232C185.242 19.8576 178.319 16.1019 171.141 13.064C163.826 9.96955 156.172 7.59306 148.389 6.00095C140.44 4.37372 132.263 3.54638 124.084 3.54053C124.057 3.54053 124.029 3.54053 124 3.54053C115.794 3.54053 107.589 4.36787 99.6131 6.00095C91.8301 7.59306 84.1759 9.96955 76.8612 13.064C69.683 16.0999 62.7605 19.8576 56.2867 24.232C50.3963 28.2123 44.8298 32.735 39.7159 37.6928C39.2652 38.1298 38.8184 38.5669 38.3755 39.0098C32.9007 44.4846 27.9273 50.5116 23.5978 56.921C19.2234 63.3948 15.4675 70.3173 12.4296 77.4955C9.33516 84.8102 6.95871 92.4645 5.3666 100.247C3.73742 108.21 2.91015 116.403 2.90625 124.593H34.4674C34.4733 112.514 36.838 100.805 41.4973 89.7894C43.7391 84.4882 46.5156 79.3724 49.7485 74.5863C52.9542 69.8412 56.636 65.3811 60.6904 61.3247C61.1333 60.8818 61.582 60.4446 62.0347 60.0115C65.7242 56.4722 69.726 53.2393 73.9521 50.3828C78.7382 47.1498 83.852 44.3734 89.1551 42.1316C100.183 37.4665 111.907 35.1017 124 35.1017C124.027 35.1017 124.055 35.1017 124.084 35.1017C136.148 35.1134 147.843 37.4762 158.845 42.1316C164.146 44.3734 169.262 47.1498 174.048 50.3828C178.696 53.5222 183.07 57.1201 187.058 61.077C187.142 61.1589 187.226 61.2408 187.308 61.3247C191.364 65.3791 195.044 69.8412 198.25 74.5863C201.483 79.3724 204.259 84.4863 206.501 89.7894C211.16 100.805 213.525 112.514 213.531 124.593H245.092C245.09 116.403 244.261 108.21 242.632 100.247H242.633Z" fill="white"/>
<path d="M208.033 89.1419C205.748 83.7412 202.921 78.5317 199.627 73.6578C196.607 69.1858 193.171 64.9616 189.401 61.0828L209.371 41.1133C214.409 46.2642 219 51.8892 223.027 57.8479C227.341 64.2339 231.046 71.0608 234.041 78.1394C237.092 85.3527 239.436 92.9035 241.006 100.577C242.503 107.892 243.314 115.404 243.42 122.929H215.178C214.965 111.215 212.565 99.8553 208.033 89.1398V89.1419Z" fill="#05AA4E"/>
<path d="M241.006 100.579C239.436 92.9058 237.092 85.355 234.041 78.1417C231.046 71.0611 227.341 64.2342 223.027 57.8501C219 51.8895 214.411 46.2663 209.371 41.1154L189.401 61.0849C193.169 64.9637 196.605 69.1879 199.627 73.6599C202.921 78.5337 205.748 83.7452 208.033 89.144C212.565 99.8595 214.965 111.219 215.178 122.933H243.42C243.314 115.408 242.503 107.896 241.006 100.581V100.579Z" fill="#05AA4E"/>
<path d="M190.79 25.6097C184.404 21.2958 177.577 17.5906 170.499 14.5956C163.285 11.5441 155.735 9.20075 148.061 7.6301C140.76 6.13555 133.262 5.32581 125.75 5.21655V33.4589C137.451 33.6755 148.797 36.0774 159.498 40.602C164.899 42.8867 170.109 45.7139 174.982 49.0074C179.255 51.8931 183.308 55.165 187.048 58.7433L207.02 38.7719C202.003 33.9214 196.552 29.4983 190.79 25.6078V25.6097Z" fill="#FDD600"/>
<path d="M122.428 33.4562C110.669 33.6533 99.2662 36.0551 88.5136 40.6031C83.113 42.8879 77.9035 45.715 73.0296 49.0085C69.182 51.6074 65.5042 54.5263 62.0761 57.6988L42.0967 37.7193C46.8047 33.2825 51.8874 29.2126 57.2197 25.6089C63.6057 21.295 70.4327 17.5898 77.5113 14.5948C84.7246 11.5433 92.2754 9.19997 99.9491 7.62932C107.305 6.12501 114.859 5.31337 122.426 5.21387V33.4543L122.428 33.4562Z" fill="#F68922"/>
<path d="M77.5172 14.5943C70.4366 17.5892 63.6096 21.2944 57.2256 25.6083C51.8913 29.212 46.8106 33.28 42.1025 37.7187L62.0819 57.6982C65.51 54.5257 69.1879 51.6088 73.0355 49.008C77.9093 45.7145 83.1208 42.8873 88.5195 40.6025C99.2721 36.0545 110.674 33.6527 122.434 33.4556V5.21521C114.867 5.31472 107.313 6.12636 99.9569 7.63066C92.2832 9.20131 84.7324 11.5446 77.5191 14.5962L77.5172 14.5943Z" fill="#F68922"/>
<path d="M59.5224 60.1528C55.3919 64.2833 51.6438 68.8274 48.3777 73.6583C45.0842 78.5322 42.257 83.7437 39.9723 89.1424C35.4398 99.8579 33.04 111.217 32.8273 122.932H4.58496C4.69032 115.406 5.50198 107.895 6.99848 100.58C8.56913 92.9061 10.9124 85.3553 13.9639 78.1421C16.9589 71.0615 20.6641 64.2346 24.978 57.8505C29.249 51.5289 34.1521 45.5858 39.5528 40.1852C39.6035 40.1344 39.6542 40.0837 39.7069 40.031L59.6746 59.9987C59.6219 60.0494 59.5712 60.1021 59.5205 60.1528H59.5224Z" fill="#EF3C38"/>
<path d="M39.5528 40.1852C34.1521 45.5858 29.247 51.5309 24.978 57.8505C20.6641 64.2365 16.9589 71.0635 13.964 78.1421C10.9124 85.3553 8.56913 92.9061 6.99849 100.58C5.50198 107.895 4.69032 115.406 4.58496 122.932H32.8273C33.04 111.217 35.4398 99.8579 39.9723 89.1424C42.257 83.7418 45.0842 78.5322 48.3777 73.6583C51.6419 68.8254 55.3919 64.2814 59.5224 60.1528C59.5731 60.1021 59.6258 60.0494 59.6766 59.9987L39.7089 40.031C39.6562 40.0837 39.6055 40.1344 39.5547 40.1852H39.5528Z" fill="#EF3C38"/>

<path d="M28.289 96.3265L27.1691 95.9928C26.7047 94.8573 26.2891 93.8993 25.9223 93.1208C25.5555 92.3424 25.2141 91.7063 24.8941 91.2107C24.5741 90.7171 24.2619 90.3386 23.9556 90.0772C23.6512 89.8157 23.3215 89.6323 22.9703 89.5269C22.4903 89.3845 22.0728 89.4137 21.7177 89.6167C21.3626 89.8196 21.1109 90.1707 20.9626 90.6682C20.8085 91.1833 20.8319 91.6458 21.0328 92.0575C21.2319 92.4691 21.5909 92.793 22.1079 93.033L21.6865 94.4476C20.8631 94.1081 20.2817 93.5658 19.9422 92.8244C19.6027 92.081 19.5773 91.2264 19.8661 90.2567C20.1412 89.3319 20.5997 88.6723 21.2397 88.2781C21.8796 87.884 22.621 87.8119 23.462 88.0636C23.8912 88.1924 24.2931 88.3992 24.6697 88.688C25.0463 88.9767 25.4092 89.3709 25.7604 89.8743C26.1096 90.3777 26.4706 91.0196 26.8413 91.8C27.212 92.5805 27.6139 93.5287 28.0471 94.6467L27.5125 94.8437L29.087 89.5542L30.207 89.8878L28.289 96.3305V96.3265Z" fill="white"/>
<path d="M31.7884 86.0558C31.4333 86.9825 30.9065 87.6341 30.21 88.0107C29.5134 88.3873 28.7447 88.4868 27.9018 88.3093L28.4364 86.9181C28.9613 87.002 29.4217 86.9299 29.8217 86.7036C30.2198 86.4753 30.5085 86.1319 30.6841 85.6734C30.8734 85.1797 30.8753 84.7056 30.6919 84.2491C30.5066 83.7925 30.0812 83.4373 29.412 83.1798C28.7525 82.9261 28.1886 82.9009 27.7223 83.1019C27.256 83.3028 26.9243 83.6638 26.7253 84.1828C26.5907 84.532 26.5458 84.8694 26.5868 85.1972C26.6278 85.525 26.7429 85.7944 26.9321 86.0032L26.4619 87.2283L21.7305 84.9007L23.6445 79.9136L24.7352 80.3331L23.065 84.6822L23.0026 83.9856L26.259 85.5426L26.0288 85.8782C25.8102 85.5992 25.6756 85.2578 25.6249 84.8519C25.5742 84.4481 25.6444 83.9973 25.8337 83.5056C26.0522 82.9359 26.3683 82.4774 26.7799 82.1282C27.1916 81.779 27.6716 81.5682 28.2179 81.4941C28.7642 81.4219 29.3456 81.5038 29.9642 81.7399C30.6002 81.9838 31.0919 82.3214 31.4451 82.7545C31.7963 83.1876 32.0031 83.6852 32.0655 84.251C32.126 84.8168 32.0343 85.4178 31.7904 86.0558H31.7884Z" fill="white"/>
<path d="M35.0809 78.4663C34.7355 79.1784 34.2399 79.713 33.5941 80.0681C32.9483 80.4232 32.2127 80.5872 31.3855 80.5599C30.5582 80.5326 29.7055 80.3062 28.8275 79.8789C27.9495 79.4536 27.253 78.9268 26.734 78.3005C26.217 77.6742 25.9028 77.001 25.7897 76.2772C25.6784 75.5553 25.7955 74.8372 26.1409 74.1231C26.4862 73.411 26.9779 72.8764 27.612 72.5213C28.2481 72.1662 28.97 71.9984 29.7816 72.0179C30.5933 72.0374 31.4381 72.2599 32.3161 72.6872C33.2019 73.1165 33.9102 73.649 34.4389 74.2792C34.9677 74.9113 35.2935 75.5904 35.4125 76.3162C35.5335 77.042 35.4223 77.7581 35.0789 78.4625L35.0809 78.4663ZM33.9804 77.9337C34.2068 77.4674 34.2575 76.9992 34.1307 76.5329C34.0038 76.0666 33.7248 75.6256 33.2956 75.2081C32.8663 74.7925 32.3083 74.4177 31.6235 74.0841C30.9465 73.7563 30.3182 73.5554 29.7368 73.4793C29.1553 73.4052 28.6519 73.4637 28.2247 73.6569C27.7974 73.8501 27.4696 74.1836 27.2374 74.6597C27.0033 75.1436 26.9447 75.6139 27.0598 76.0704C27.1769 76.527 27.4423 76.96 27.8559 77.3678C28.2695 77.7756 28.8139 78.1443 29.4909 78.4741C30.1758 78.8058 30.8177 79.0126 31.4167 79.0907C32.0157 79.1687 32.5347 79.1141 32.9737 78.9268C33.4127 78.7395 33.7482 78.4098 33.9785 77.9337H33.9804Z" fill="white"/>
<path d="M77.2771 36.2425C76.403 36.7127 75.5796 36.8649 74.805 36.6971C74.0324 36.5293 73.3827 36.104 72.8598 35.4192L74.1709 34.7128C74.5143 35.1187 74.9104 35.3645 75.3611 35.4523C75.8118 35.5401 76.2547 35.466 76.6859 35.2338C77.1503 34.984 77.4624 34.6249 77.6205 34.1586C77.7785 33.6923 77.6868 33.1441 77.3473 32.5138C77.0117 31.8914 76.602 31.5052 76.1162 31.355C75.6323 31.2048 75.1445 31.2612 74.6548 31.5246C74.3251 31.7021 74.0714 31.9285 73.888 32.2056C73.7065 32.4826 73.6187 32.7616 73.6246 33.0426L72.4695 33.6651L70.3994 28.8165L75.1016 26.2821L75.6557 27.3102L71.5545 29.5209L71.9603 28.9512L73.4158 32.2562L73.0217 32.3616C73.0373 32.0085 73.1583 31.6612 73.3827 31.3197C73.609 30.9803 73.9524 30.6837 74.4187 30.4339C74.9553 30.1452 75.4938 30.0009 76.0342 30.0048C76.5747 30.0087 77.0761 30.1609 77.5366 30.4614C77.999 30.7618 78.3873 31.2028 78.7014 31.7862C79.0233 32.3852 79.1775 32.9626 79.1619 33.5207C79.1462 34.0787 78.9785 34.5917 78.6565 35.06C78.3346 35.5283 77.8741 35.9245 77.2712 36.2484L77.2771 36.2425Z" fill="white"/>
<path d="M84.7191 32.6346C83.9913 32.9487 83.2675 33.0306 82.5475 32.8804C81.8275 32.7282 81.1622 32.3731 80.5515 31.8132C79.9408 31.2532 79.4433 30.5253 79.055 29.6298C78.6667 28.7342 78.4814 27.8816 78.497 27.068C78.5126 26.2563 78.7136 25.5403 79.0999 24.9199C79.4862 24.2994 80.0423 23.8313 80.77 23.5171C81.4978 23.203 82.2178 23.117 82.9299 23.2614C83.6421 23.4058 84.2996 23.7511 84.9025 24.2955C85.5054 24.8398 86.001 25.5599 86.3873 26.4554C86.7795 27.3588 86.9687 28.2232 86.959 29.0465C86.9492 29.8699 86.7522 30.5977 86.3697 31.2259C85.9873 31.8542 85.4371 32.3243 84.7171 32.6365L84.7191 32.6346ZM84.2352 31.5127C84.7113 31.3059 85.0547 30.9858 85.2615 30.5488C85.4703 30.1117 85.5464 29.5967 85.4917 28.9997C85.4371 28.4046 85.2596 27.7568 84.9571 27.0583C84.6586 26.3676 84.3133 25.8058 83.9211 25.3707C83.5289 24.9356 83.1094 24.6526 82.6587 24.5199C82.21 24.3873 81.7417 24.4262 81.2578 24.6369C80.7642 24.8496 80.413 25.1677 80.2042 25.5911C79.9955 26.0145 79.9135 26.5139 79.9623 27.0933C80.0091 27.6728 80.1828 28.3071 80.4813 28.9978C80.7837 29.6963 81.1369 30.2699 81.5388 30.7206C81.9427 31.1713 82.3699 31.4678 82.8265 31.6121C83.2811 31.7565 83.7513 31.7234 84.2352 31.5146V31.5127Z" fill="white"/>
<path d="M93.2566 29.406C92.5035 29.6518 91.7757 29.6655 91.0714 29.4469C90.369 29.2284 89.7388 28.8127 89.1846 28.1981C88.6305 27.5835 88.2013 26.813 87.8989 25.8843C87.5964 24.9555 87.4911 24.0891 87.5828 23.2813C87.6745 22.4755 87.9418 21.781 88.3847 21.1976C88.8276 20.6162 89.4246 20.2026 90.1778 19.9568C90.9309 19.711 91.6567 19.6933 92.3532 19.904C93.0498 20.1147 93.6722 20.5186 94.2224 21.1176C94.7707 21.7146 95.198 22.4776 95.5004 23.4063C95.8048 24.3428 95.914 25.2208 95.8262 26.0403C95.7384 26.8598 95.475 27.5641 95.036 28.1553C94.597 28.7465 94.0039 29.1621 93.2586 29.406H93.2566ZM92.8781 28.2431C93.3717 28.0831 93.7424 27.7942 93.9902 27.3786C94.238 26.9631 94.3629 26.4579 94.3648 25.8589C94.3648 25.2599 94.2497 24.6004 94.0136 23.8766C93.7815 23.1624 93.4888 22.5692 93.1395 22.099C92.7903 21.6288 92.3981 21.3068 91.963 21.1332C91.5279 20.9595 91.0597 20.9537 90.5563 21.1176C90.0451 21.2834 89.6666 21.5683 89.4188 21.9683C89.171 22.3702 89.0442 22.8599 89.0364 23.4414C89.0286 24.0228 89.1417 24.6705 89.3759 25.3866C89.6119 26.1104 89.9085 26.7153 90.2695 27.1992C90.6285 27.685 91.0284 28.0206 91.4674 28.2079C91.9064 28.3952 92.3767 28.4051 92.88 28.2412L92.8781 28.2431Z" fill="white"/>
<path d="M151.67 28.6115C152.226 27.1892 153.004 25.8605 154.009 24.6274C155.012 23.3943 156.255 22.2509 157.738 21.1954L157.681 21.529L152.325 19.9369L152.659 18.8169L159.221 20.7661L158.926 21.7573C157.982 22.5046 157.149 23.2636 156.425 24.0323C155.701 24.803 155.077 25.601 154.552 26.4243C154.027 27.2496 153.582 28.1296 153.217 29.068L151.672 28.6096L151.67 28.6115Z" fill="white"/>
<path d="M159.998 31.513C159.069 31.1599 158.415 30.637 158.037 29.9424C157.658 29.2478 157.555 28.4791 157.73 27.6342L159.124 28.163C159.042 28.6878 159.114 29.1483 159.344 29.5463C159.572 29.9443 159.918 30.2312 160.376 30.4049C160.87 30.5922 161.344 30.5941 161.8 30.4068C162.257 30.2194 162.61 29.7921 162.866 29.1229C163.118 28.4615 163.141 27.8995 162.938 27.4332C162.735 26.9689 162.374 26.6372 161.853 26.4401C161.504 26.3075 161.164 26.2625 160.837 26.3054C160.509 26.3483 160.24 26.4635 160.033 26.6528L158.807 26.1865L161.12 21.4473L166.112 23.3437L165.697 24.4364L161.342 22.7818L162.039 22.7155L160.491 25.9777L160.154 25.7494C160.433 25.529 160.774 25.3944 161.178 25.3417C161.582 25.289 162.033 25.3573 162.526 25.5446C163.096 25.7612 163.556 26.0753 163.908 26.487C164.259 26.8987 164.472 27.3766 164.546 27.921C164.622 28.4673 164.542 29.0487 164.306 29.6692C164.064 30.3052 163.728 30.7989 163.295 31.154C162.864 31.5072 162.366 31.716 161.8 31.7784C161.237 31.8409 160.634 31.7511 159.996 31.5092L159.998 31.513Z" fill="white"/>
<path d="M167.595 34.7815C166.881 34.4381 166.344 33.9445 165.987 33.3006C165.63 32.6568 165.462 31.9211 165.488 31.0938C165.511 30.2666 165.736 29.4121 166.159 28.5341C166.582 27.6542 167.105 26.9557 167.73 26.4367C168.354 25.9177 169.027 25.5996 169.749 25.4865C170.471 25.3733 171.189 25.4864 171.903 25.8298C172.617 26.1732 173.152 26.6629 173.509 27.2951C173.866 27.9292 174.036 28.6512 174.02 29.4628C174.002 30.2745 173.784 31.1193 173.361 31.9993C172.933 32.887 172.405 33.5953 171.776 34.128C171.146 34.6587 170.469 34.9863 169.743 35.1092C169.017 35.2321 168.301 35.1229 167.595 34.7834V34.7815ZM168.124 33.6811C168.592 33.9055 169.058 33.9542 169.525 33.8254C169.991 33.6966 170.432 33.4176 170.846 32.9864C171.261 32.5552 171.632 31.9973 171.964 31.3105C172.289 30.6334 172.488 30.0033 172.561 29.4219C172.633 28.8404 172.572 28.337 172.377 27.9097C172.182 27.4844 171.848 27.1566 171.372 26.9264C170.889 26.6942 170.418 26.6357 169.962 26.7547C169.505 26.8737 169.074 27.139 168.666 27.5546C168.258 27.9702 167.894 28.5166 167.566 29.1936C167.236 29.8804 167.033 30.5223 166.957 31.1213C166.881 31.7203 166.938 32.2392 167.125 32.6782C167.312 33.1172 167.646 33.4508 168.122 33.679L168.124 33.6811Z" fill="white"/>
<path d="M211.38 75.8635L218.601 71.692L218.638 71.971C218.361 71.9944 218.047 71.9399 217.692 71.8092C217.337 71.6785 216.987 71.4891 216.646 71.2452C216.303 71.0013 215.994 70.7125 215.717 70.3769L216.903 69.6921C217.157 70.0082 217.458 70.2872 217.799 70.5311C218.142 70.775 218.498 70.9643 218.87 71.097C219.241 71.2297 219.584 71.2901 219.896 71.2765L220.456 72.2461L212.084 77.081L211.38 75.8616V75.8635Z" fill="white"/>
<path d="M214.456 81.968C214.11 81.2539 213.997 80.536 214.118 79.8082C214.239 79.0824 214.567 78.4014 215.1 77.7693C215.634 77.1352 216.341 76.6063 217.219 76.1809C218.097 75.7556 218.941 75.5333 219.753 75.5158C220.565 75.4963 221.289 75.6678 221.925 76.0268C222.561 76.3858 223.052 76.9224 223.398 77.6365C223.743 78.3506 223.858 79.0648 223.743 79.7848C223.628 80.5028 223.312 81.174 222.795 81.8003C222.278 82.4247 221.579 82.9513 220.701 83.3766C219.815 83.8059 218.959 84.0322 218.136 84.0576C217.312 84.081 216.577 83.9172 215.933 83.5601C215.289 83.205 214.795 82.6742 214.454 81.9699L214.456 81.968ZM215.554 81.4354C215.781 81.9037 216.116 82.2314 216.561 82.4207C217.006 82.61 217.525 82.6646 218.118 82.5846C218.711 82.5046 219.349 82.2997 220.034 81.968C220.711 81.6402 221.259 81.2714 221.677 80.8617C222.094 80.452 222.36 80.0189 222.475 79.5643C222.588 79.1097 222.529 78.6453 222.299 78.1692C222.065 77.6853 221.731 77.3477 221.302 77.1565C220.871 76.9653 220.368 76.9048 219.79 76.977C219.213 77.0492 218.586 77.2483 217.909 77.5761C217.224 77.9078 216.666 78.2843 216.233 78.7058C215.8 79.1272 215.521 79.5682 215.396 80.0287C215.271 80.4891 215.324 80.9573 215.554 81.4314V81.4354Z" fill="white"/>
<path d="M218.045 90.3613C217.768 89.6179 217.723 88.892 217.913 88.1798C218.1 87.4677 218.49 86.8219 219.081 86.2425C219.673 85.663 220.426 85.2005 221.339 84.8611C222.252 84.5196 223.114 84.3772 223.924 84.4358C224.734 84.4924 225.438 84.7303 226.039 85.1478C226.64 85.5653 227.077 86.1448 227.354 86.8882C227.631 87.6316 227.68 88.3535 227.499 89.0578C227.317 89.7622 226.939 90.4022 226.365 90.9758C225.791 91.5494 225.046 92.008 224.133 92.3494C223.21 92.6947 222.338 92.8392 221.514 92.7865C220.693 92.7338 219.977 92.4997 219.368 92.0861C218.759 91.6705 218.319 91.0968 218.045 90.3632V90.3613ZM219.189 89.9339C219.37 90.4198 219.673 90.7787 220.098 91.009C220.523 91.2392 221.034 91.3428 221.633 91.3193C222.231 91.2959 222.886 91.1515 223.6 90.8842C224.305 90.6208 224.884 90.3046 225.339 89.9358C225.793 89.5671 226.098 89.1614 226.254 88.7204C226.408 88.2775 226.394 87.8092 226.209 87.3156C226.022 86.8122 225.721 86.4454 225.311 86.2152C224.9 85.985 224.404 85.8775 223.823 85.8951C223.241 85.9127 222.599 86.0532 221.895 86.3166C221.183 86.5819 220.59 86.9058 220.121 87.2843C219.651 87.6648 219.333 88.0766 219.165 88.5234C218.998 88.9702 219.005 89.4403 219.191 89.9358L219.189 89.9339Z" fill="white"/>
<path d="M220.833 99.0536C220.626 98.2888 220.649 97.561 220.903 96.8683C221.157 96.1776 221.603 95.5689 222.247 95.0479C222.889 94.525 223.681 94.1368 224.624 93.8813C225.566 93.6257 226.436 93.5651 227.238 93.6978C228.038 93.8304 228.719 94.1328 229.277 94.603C229.835 95.0752 230.22 95.6938 230.426 96.4587C230.633 97.2235 230.614 97.9492 230.368 98.6321C230.122 99.317 229.687 99.9179 229.061 100.437C228.436 100.956 227.652 101.342 226.709 101.596C225.759 101.854 224.877 101.918 224.062 101.787C223.248 101.658 222.557 101.36 221.99 100.89C221.422 100.419 221.036 99.8068 220.833 99.0517V99.0536ZM222.013 98.7337C222.148 99.2351 222.417 99.6195 222.819 99.8887C223.221 100.158 223.72 100.308 224.317 100.339C224.914 100.371 225.582 100.289 226.315 100.09C227.041 99.8925 227.648 99.633 228.136 99.3072C228.623 98.9814 228.963 98.6069 229.16 98.1815C229.355 97.7562 229.384 97.2878 229.246 96.7786C229.105 96.2596 228.842 95.8674 228.454 95.5982C228.065 95.3309 227.582 95.1787 227.002 95.1417C226.423 95.1046 225.769 95.1845 225.043 95.3815C224.308 95.5806 223.689 95.846 223.186 96.1816C222.682 96.5153 222.327 96.8975 222.118 97.3268C221.91 97.756 221.875 98.2264 222.013 98.7356V98.7337Z" fill="white"/>

</svg>
