<svg width="58" height="33" viewBox="0 0 58 33" fill="none" xmlns="http://www.w3.org/2000/svg">
<g clip-path="url(#clip0_13638_202942)">
<path d="M28.6201 1.44531H28.6396C30.5615 1.44665 32.4828 1.63882 34.3506 2.01562C36.1796 2.38454 37.979 2.93476 39.6982 3.65137C41.3853 4.35435 43.0127 5.22505 44.5342 6.23828C46.0156 7.22494 47.4122 8.35651 48.6836 9.60254L48.6846 9.60352L48.707 9.625L48.7402 9.6582L48.7432 9.66016C50.0299 10.9283 51.1977 12.3238 52.2148 13.8076C53.2423 15.307 54.1253 16.9107 54.8389 18.5732C55.5657 20.2672 56.1238 22.0398 56.498 23.8418C56.8808 25.6856 57.0757 27.5825 57.0762 29.4795V29.9756H48.7783V29.4795C48.777 26.7984 48.2444 24.1993 47.1953 21.7549C46.6903 20.5781 46.0648 19.4429 45.3369 18.3809C44.6149 17.3278 43.7861 16.3374 42.873 15.4375L42.8584 15.4229C42.8538 15.4183 42.8473 15.4124 42.8408 15.4062L42.8164 15.3828C41.9175 14.5036 40.9319 13.7046 39.8867 13.0088C38.8093 12.2915 37.6575 11.6754 36.4639 11.1777C33.9876 10.1454 31.3547 9.62085 28.6387 9.61816H28.6201C25.8986 9.61816 23.2585 10.1432 20.7764 11.1777C19.5827 11.6754 18.4309 12.2915 17.3535 13.0088C16.4041 13.6406 15.5012 14.3598 14.6699 15.1455C14.5609 15.249 14.4613 15.3447 14.3672 15.4375C13.4542 16.3374 12.6253 17.3278 11.9033 18.3809C11.1754 19.4429 10.55 20.5781 10.0449 21.7549C8.99585 24.1993 8.46328 26.7984 8.46191 29.4795V29.9756H0.164062V29.4795C0.164958 27.5829 0.359448 25.6856 0.742188 23.8418C1.11642 22.0395 1.67438 20.2665 2.40137 18.5723C3.11444 16.9099 3.99757 15.3069 5.02539 13.8076C6.04254 12.3237 7.2113 10.9284 8.49805 9.66016C8.59141 9.56814 8.6913 9.4704 8.8125 9.35449C10.0151 8.20632 11.325 7.15783 12.7061 6.23828C14.2275 5.22548 15.8549 4.3548 17.542 3.65137C19.2613 2.93476 21.0606 2.38454 22.8896 2.01562C24.7643 1.63747 26.6919 1.44531 28.6201 1.44531Z" fill="white" stroke="#DFE1E3" stroke-width="0.328772"/>
<path d="M55.9992 23.9428C55.6318 22.1723 55.0833 20.431 54.369 18.767C53.6683 17.1341 52.801 15.5593 51.7913 14.0866C50.792 12.6286 49.6446 11.258 48.3805 10.0121C48.3611 9.99302 48.3418 9.97482 48.3228 9.95574C47.0745 8.73249 45.7037 7.62064 44.2469 6.65039C42.7527 5.65528 41.1549 4.80087 39.4981 4.10979C37.8098 3.40585 36.0431 2.86524 34.2467 2.50305C32.4121 2.13288 30.5247 1.94469 28.6369 1.94336C28.6306 1.94336 28.6243 1.94336 28.6175 1.94336C26.7234 1.94336 24.8298 2.13155 22.9888 2.50305C21.1924 2.86524 19.4258 3.40585 17.7375 4.10979C16.0807 4.80042 14.4829 5.65528 12.9887 6.65039C11.6291 7.55584 10.3443 8.58469 9.16399 9.71251C9.05996 9.81193 8.95683 9.91135 8.8546 10.0121C7.59096 11.2576 6.44306 12.6286 5.44377 14.0866C4.43412 15.5593 3.56722 17.1341 2.86605 18.767C2.15182 20.431 1.60331 22.1723 1.23584 23.9428C0.859812 25.7541 0.668869 27.6179 0.667969 29.4811H7.95258C7.95394 26.7333 8.49974 24.0697 9.57514 21.5637C10.0926 20.3578 10.7334 19.194 11.4796 18.1053C12.2195 17.0258 13.0693 16.0112 14.0051 15.0884C14.1073 14.9877 14.2109 14.8882 14.3154 14.7897C15.1669 13.9846 16.0906 13.2491 17.066 12.5993C18.1707 11.8638 19.351 11.2323 20.575 10.7223C23.1203 9.66102 25.8264 9.12308 28.6175 9.12308C28.6239 9.12308 28.6302 9.12308 28.6369 9.12308C31.4213 9.12574 34.1206 9.66324 36.6601 10.7223C37.8836 11.2323 39.0644 11.8638 40.1691 12.5993C41.2418 13.3135 42.2514 14.1319 43.1719 15.032C43.1913 15.0507 43.2106 15.0693 43.2296 15.0884C44.1658 16.0107 45.0151 17.0258 45.755 18.1053C46.5012 19.194 47.1421 20.3574 47.6595 21.5637C48.7349 24.0697 49.2807 26.7333 49.2821 29.4811H56.5667C56.5662 27.6179 56.3748 25.7541 55.9988 23.9428H55.9992Z" fill="white"/>
<path d="M48.0151 21.416C47.4877 20.1875 46.8352 19.0024 46.075 17.8937C45.3779 16.8763 44.5849 15.9154 43.7148 15.033L48.324 10.4902C49.4868 11.662 50.5464 12.9416 51.4759 14.2971C52.4716 15.7499 53.3268 17.3029 54.0181 18.9132C54.7224 20.5541 55.2632 22.2718 55.6257 24.0174C55.9712 25.6814 56.1585 27.3903 56.1828 29.1022H49.6642C49.6151 26.4373 49.0612 23.8532 48.0151 21.4156V21.416Z" fill="#05AA4E"/>
<path d="M55.6257 24.0174C55.2632 22.2718 54.7224 20.5541 54.0181 18.9132C53.3268 17.3024 52.4716 15.7494 51.4759 14.2971C50.5464 12.9412 49.4872 11.662 48.324 10.4902L43.7148 15.033C44.5844 15.9154 45.3775 16.8763 46.075 17.8937C46.8352 19.0024 47.4877 20.1879 48.0151 21.416C49.0612 23.8537 49.6151 26.4378 49.6642 29.1026H56.1828C56.1585 27.3907 55.9712 25.6819 55.6257 24.0179V24.0174Z" fill="#05AA4E"/>
<path d="M44.0353 6.96138C42.5614 5.98003 40.9857 5.13716 39.3519 4.45585C37.687 3.76167 35.9442 3.22861 34.173 2.87131C32.4879 2.53132 30.7572 2.34712 29.0234 2.32227V8.74699C31.7241 8.79626 34.3428 9.34264 36.8129 10.3719C38.0594 10.8917 39.2618 11.5348 40.3867 12.284C41.373 12.9405 42.3083 13.6848 43.1716 14.4988L47.7812 9.9556C46.6234 8.85219 45.3652 7.84598 44.0353 6.96094V6.96138Z" fill="#FDD600"/>
<path d="M28.2541 8.74699C25.5399 8.79182 22.9081 9.3382 20.4264 10.3728C19.1798 10.8926 17.9774 11.5357 16.8525 12.2849C15.9644 12.8761 15.1156 13.5401 14.3243 14.2618L9.71289 9.7168C10.7995 8.70749 11.9727 7.78162 13.2034 6.96183C14.6774 5.98048 16.2531 5.13761 17.8869 4.4563C19.5518 3.76212 21.2946 3.22905 23.0658 2.87175C24.7635 2.52954 26.5072 2.3449 28.2536 2.32227V8.74655L28.2541 8.74699Z" fill="#F68922"/>
<path d="M17.8889 4.45585C16.2546 5.13716 14.6789 5.98003 13.2054 6.96139C11.9742 7.78118 10.8015 8.7066 9.71484 9.71636L14.3263 14.2614C15.1175 13.5397 15.9664 12.8761 16.8545 12.2845C17.9794 11.5353 19.1822 10.8921 20.4283 10.3724C22.9101 9.33776 25.5419 8.79138 28.256 8.74655V2.32227C26.5096 2.3449 24.7659 2.52954 23.0682 2.87175C21.297 3.22905 19.5542 3.76211 17.8893 4.4563L17.8889 4.45585Z" fill="#F68922"/>
<path d="M13.7348 14.8196C12.7814 15.7592 11.9163 16.793 11.1625 17.8919C10.4023 19.0007 9.74975 20.1862 9.22241 21.4143C8.17628 23.852 7.62237 26.4361 7.57328 29.1009H1.05469C1.07901 27.389 1.26634 25.6802 1.61175 24.0162C1.97427 22.2705 2.51512 20.5528 3.21945 18.9119C3.91071 17.3012 4.7659 15.7481 5.76159 14.2959C6.74737 12.8578 7.87906 11.5058 9.12558 10.2773C9.13729 10.2657 9.149 10.2542 9.16116 10.2422L13.7699 14.7845C13.7577 14.7961 13.746 14.8081 13.7343 14.8196H13.7348Z" fill="#EF3C38"/>
<path d="M9.12754 10.2773C7.88101 11.5058 6.74887 12.8582 5.76354 14.2959C4.76785 15.7486 3.91266 17.3016 3.2214 18.9119C2.51708 20.5528 1.97623 22.2705 1.61371 24.0162C1.2683 25.6802 1.08096 27.389 1.05664 29.1009H7.57524C7.62432 26.4361 8.17824 23.852 9.22436 21.4143C9.75171 20.1858 10.4042 19.0007 11.1644 17.8919C11.9178 16.7925 12.7834 15.7588 13.7367 14.8196C13.7484 14.8081 13.7606 14.7961 13.7723 14.7845L9.16357 10.2422C9.15141 10.2542 9.1397 10.2657 9.12799 10.2773H9.12754Z" fill="#EF3C38"/>
<path d="M16.1766 29.9415C16.028 29.815 16.0794 29.6152 16.2613 29.5704L26.9797 27.8522C27.3206 27.7479 27.3612 27.3591 27.5674 27.0973C29.1067 25.1457 32.1874 26.7417 31.5313 29.0591C30.9823 30.9978 28.4411 31.1847 27.3693 29.5855C23.8431 29.5233 20.2643 29.9423 16.7265 29.9801C16.6 29.9814 16.2523 30.0054 16.1766 29.9415Z" fill="#2E348E"/>
<path d="M6.5252 23.0498L6.26671 22.9739C6.15953 22.7156 6.06361 22.4977 5.97895 22.3206C5.89428 22.1435 5.81547 21.9988 5.74162 21.886C5.66776 21.7737 5.59571 21.6876 5.52501 21.6282C5.45476 21.5687 5.37865 21.527 5.29759 21.503C5.18681 21.4706 5.09044 21.4773 5.00847 21.5234C4.92651 21.5696 4.86842 21.6495 4.83419 21.7627C4.79862 21.8798 4.80402 21.985 4.85041 22.0787C4.89634 22.1723 4.9792 22.246 5.09854 22.3006L5.00127 22.6224C4.81123 22.5452 4.67703 22.4218 4.59867 22.2531C4.52031 22.084 4.51446 21.8896 4.58111 21.669C4.6446 21.4586 4.75043 21.3086 4.89814 21.2189C5.04585 21.1293 5.21698 21.1129 5.41107 21.1701C5.51015 21.1994 5.60292 21.2465 5.68983 21.3121C5.77675 21.3778 5.86051 21.4675 5.94157 21.582C6.02218 21.6965 6.10549 21.8425 6.19105 22.0201C6.27662 22.1976 6.36939 22.4133 6.46936 22.6677L6.34597 22.7125L6.70939 21.5092L6.96788 21.5851L6.5252 23.0507V23.0498Z" fill="white"/>
<path d="M7.33124 20.7136C7.24928 20.9245 7.12769 21.0727 6.96692 21.1584C6.80615 21.244 6.62872 21.2667 6.43417 21.2263L6.55757 20.9098C6.67871 20.9289 6.78498 20.9125 6.8773 20.861C6.96917 20.8091 7.03582 20.731 7.07635 20.6266C7.12003 20.5144 7.12048 20.4065 7.07815 20.3026C7.03537 20.1988 6.9372 20.118 6.78273 20.0594C6.63052 20.0017 6.50037 19.9959 6.39274 20.0417C6.28511 20.0874 6.20856 20.1695 6.16262 20.2876C6.13155 20.367 6.12119 20.4438 6.13065 20.5184C6.14011 20.5929 6.16667 20.6542 6.21036 20.7017L6.10183 20.9804L5.00977 20.4509L5.45154 19.3164L5.70328 19.4118L5.31779 20.4012L5.30338 20.2427L6.05499 20.5969L6.00185 20.6733C5.95142 20.6098 5.92034 20.5321 5.90863 20.4398C5.89692 20.3479 5.91314 20.2454 5.95682 20.1335C6.00726 20.0039 6.08021 19.8996 6.17523 19.8202C6.27025 19.7407 6.38103 19.6928 6.50713 19.6759C6.63322 19.6595 6.76742 19.6781 6.91018 19.7318C7.05699 19.7873 7.17047 19.8641 7.25198 19.9627C7.33304 20.0612 7.38078 20.1744 7.39519 20.3031C7.40915 20.4318 7.38798 20.5685 7.33169 20.7136H7.33124Z" fill="white"/>
<path d="M8.09137 18.9868C8.01166 19.1488 7.89728 19.2704 7.74822 19.3512C7.59916 19.432 7.42938 19.4693 7.23844 19.4631C7.0475 19.4568 6.8507 19.4054 6.64805 19.3082C6.4454 19.2114 6.28463 19.0916 6.16484 18.9491C6.0455 18.8066 5.973 18.6535 5.94688 18.4888C5.92121 18.3246 5.94823 18.1612 6.02794 17.9988C6.10765 17.8368 6.22113 17.7152 6.36749 17.6344C6.5143 17.5536 6.68092 17.5154 6.86826 17.5199C7.0556 17.5243 7.2506 17.5749 7.45325 17.6721C7.6577 17.7698 7.82117 17.8909 7.94321 18.0343C8.06525 18.1781 8.14046 18.3326 8.16793 18.4977C8.19585 18.6628 8.17018 18.8257 8.09092 18.9859L8.09137 18.9868ZM7.83783 18.8652C7.89007 18.7591 7.90178 18.6526 7.87251 18.5465C7.84324 18.4404 7.77884 18.3401 7.67977 18.2451C7.58069 18.1506 7.4519 18.0654 7.29383 17.9895C7.13756 17.9149 6.99256 17.8692 6.85836 17.8519C6.72416 17.835 6.60797 17.8483 6.50935 17.8923C6.41072 17.9362 6.33507 18.0121 6.28148 18.1204C6.22744 18.2305 6.21393 18.3375 6.2405 18.4413C6.26752 18.5452 6.32876 18.6437 6.42423 18.7365C6.5197 18.8292 6.64535 18.9131 6.80161 18.9881C6.95968 19.0636 7.10784 19.1106 7.24609 19.1284C7.38435 19.1461 7.50414 19.1337 7.60546 19.0911C7.70679 19.0485 7.78424 18.9735 7.83738 18.8652H7.83783Z" fill="white"/>
<path d="M17.8374 9.38304C17.6357 9.49001 17.4456 9.52463 17.2669 9.48646C17.0885 9.44829 16.9386 9.35153 16.8179 9.19574L17.1205 9.03506C17.1998 9.12738 17.2912 9.18331 17.3952 9.20328C17.4992 9.22326 17.6015 9.20639 17.701 9.15357C17.8082 9.09676 17.8802 9.01509 17.9167 8.90901C17.9532 8.80293 17.932 8.67821 17.8536 8.53484C17.7762 8.39325 17.6816 8.30537 17.5695 8.2712C17.4578 8.23702 17.3452 8.24989 17.2322 8.30981C17.1561 8.3502 17.0975 8.40169 17.0552 8.46472C17.0133 8.52774 16.9931 8.59121 16.9944 8.65513L16.7278 8.79672L16.25 7.69375L17.3353 7.11719L17.4632 7.3511L16.5166 7.85398L16.6103 7.72437L16.9462 8.47626L16.8553 8.50022C16.8589 8.41989 16.8868 8.34088 16.9386 8.26321C16.9908 8.18598 17.0701 8.11851 17.1777 8.0617C17.3015 7.99601 17.4258 7.96316 17.5506 7.96405C17.6753 7.96494 17.791 7.99956 17.8973 8.06791C18.0041 8.13627 18.0937 8.23658 18.1662 8.36929C18.2405 8.50555 18.2761 8.63693 18.2725 8.76387C18.2689 8.89081 18.2301 9.00754 18.1558 9.11407C18.0815 9.22059 17.9752 9.31069 17.8361 9.38437L17.8374 9.38304Z" fill="white"/>
<path d="M19.5574 8.56178C19.3894 8.63324 19.2224 8.65188 19.0562 8.6177C18.89 8.58308 18.7365 8.5023 18.5955 8.37492C18.4545 8.24753 18.3397 8.08198 18.2501 7.87825C18.1605 7.67452 18.1177 7.48056 18.1213 7.29547C18.1249 7.11083 18.1713 6.94794 18.2605 6.8068C18.3496 6.66565 18.478 6.55913 18.6459 6.48767C18.8139 6.41621 18.9801 6.39668 19.1445 6.42952C19.3088 6.46237 19.4606 6.54093 19.5998 6.66476C19.7389 6.7886 19.8533 6.95238 19.9425 7.15611C20.033 7.36161 20.0767 7.55823 20.0744 7.74554C20.0722 7.93284 20.0267 8.0984 19.9384 8.24132C19.8501 8.38424 19.7231 8.49121 19.557 8.56222L19.5574 8.56178ZM19.4453 8.30657C19.5552 8.25952 19.6344 8.18673 19.6822 8.0873C19.7303 7.98788 19.7479 7.8707 19.7353 7.73489C19.7227 7.59951 19.6817 7.45215 19.6119 7.29326C19.543 7.13613 19.4633 7.0083 19.3728 6.90933C19.2823 6.81035 19.1854 6.74599 19.0814 6.71581C18.9778 6.68563 18.8698 6.6945 18.7581 6.74244C18.6441 6.79082 18.5631 6.86316 18.5149 6.95948C18.4667 7.0558 18.4478 7.16942 18.4591 7.30125C18.4699 7.43307 18.5099 7.57732 18.5788 7.73444C18.6486 7.89334 18.7302 8.02383 18.8229 8.12636C18.9161 8.22889 19.0148 8.29636 19.1201 8.3292C19.2251 8.36205 19.3336 8.3545 19.4453 8.30701V8.30657Z" fill="white"/>
<path d="M21.524 7.82755C21.3502 7.88347 21.1822 7.88658 21.0196 7.83687C20.8575 7.78716 20.712 7.69262 20.5841 7.5528C20.4562 7.41299 20.3572 7.23767 20.2874 7.0264C20.2176 6.81513 20.1933 6.61806 20.2144 6.4343C20.2356 6.25099 20.2973 6.09298 20.3995 5.96027C20.5017 5.828 20.6395 5.73391 20.8134 5.67798C20.9872 5.62206 21.1547 5.61806 21.3155 5.666C21.4763 5.71393 21.6199 5.80581 21.7469 5.94207C21.8735 6.07789 21.9721 6.25144 22.0419 6.46271C22.1121 6.67576 22.1373 6.87549 22.1171 7.06191C22.0968 7.24832 22.036 7.40855 21.9347 7.54304C21.8334 7.67753 21.6965 7.77207 21.5244 7.82755H21.524ZM21.4366 7.56346C21.5506 7.52706 21.6361 7.46137 21.6933 7.36683C21.7505 7.27229 21.7793 7.15733 21.7798 7.02107C21.7798 6.88481 21.7532 6.73479 21.6987 6.57012C21.6451 6.40767 21.5776 6.27274 21.497 6.16577C21.4164 6.05881 21.3258 5.98557 21.2254 5.94607C21.125 5.90657 21.0169 5.90523 20.9007 5.94252C20.7827 5.98024 20.6954 6.04505 20.6382 6.13604C20.581 6.22747 20.5517 6.33887 20.5499 6.47114C20.5481 6.60341 20.5742 6.75077 20.6283 6.91366C20.6828 7.07833 20.7512 7.21592 20.8345 7.326C20.9174 7.43652 21.0097 7.51286 21.111 7.55547C21.2124 7.59808 21.3209 7.6003 21.4371 7.56301L21.4366 7.56346Z" fill="white"/>
<path d="M35.0078 7.6461C35.1362 7.32253 35.3158 7.02027 35.5478 6.73975C35.7792 6.45924 36.0661 6.19914 36.4084 5.95902L36.3953 6.03492L35.1591 5.67274L35.2361 5.41797L36.7506 5.86137L36.6826 6.08685C36.4646 6.25684 36.2724 6.4295 36.1053 6.60438C35.9382 6.7797 35.7941 6.96123 35.673 7.14854C35.5518 7.33629 35.4491 7.53646 35.3649 7.74996L35.0083 7.64565L35.0078 7.6461Z" fill="white"/>
<path d="M36.9311 8.30545C36.7168 8.22511 36.5659 8.10616 36.4785 7.94815C36.3912 7.79014 36.3673 7.61526 36.4078 7.42307L36.7294 7.54336C36.7105 7.66275 36.7271 7.7675 36.7803 7.85805C36.8329 7.94859 36.9127 8.01384 37.0185 8.05334C37.1324 8.09595 37.2419 8.09639 37.3472 8.05378C37.4526 8.01117 37.5341 7.91397 37.5931 7.76173C37.6512 7.61127 37.6566 7.48344 37.6098 7.37736C37.5629 7.27172 37.4796 7.19627 37.3594 7.15144C37.2788 7.12126 37.2004 7.11105 37.1248 7.12081C37.0491 7.13058 36.987 7.15676 36.9392 7.19982L36.6564 7.09374L37.1901 6.01562L38.3425 6.44705L38.2466 6.6956L37.2414 6.31922L37.4022 6.30413L37.0451 7.04624L36.9671 6.99431C37.0315 6.94416 37.1104 6.91353 37.2036 6.90155C37.2968 6.88957 37.4008 6.9051 37.5148 6.94771C37.6463 6.99698 37.7525 7.06844 37.8336 7.16209C37.9147 7.25574 37.9637 7.36448 37.9809 7.48832C37.9984 7.6126 37.98 7.74486 37.9255 7.88601C37.8696 8.0307 37.7922 8.143 37.6922 8.22378C37.5927 8.30412 37.4778 8.35161 37.3472 8.36581C37.2171 8.38001 37.0779 8.3596 36.9307 8.30456L36.9311 8.30545Z" fill="white"/>
<path d="M38.6842 9.04992C38.5194 8.97181 38.3955 8.85951 38.3131 8.71304C38.2307 8.56657 38.192 8.39924 38.1978 8.21105C38.2032 8.02285 38.255 7.82845 38.3528 7.62871C38.4505 7.42854 38.5712 7.26964 38.7153 7.15158C38.8594 7.03351 39.0148 6.96116 39.1814 6.93542C39.348 6.90968 39.5137 6.93542 39.6785 7.01354C39.8434 7.09166 39.9668 7.20306 40.0492 7.34687C40.1316 7.49112 40.1708 7.65535 40.1672 7.83999C40.1631 8.02463 40.1127 8.21682 40.0149 8.41699C39.9163 8.61894 39.7943 8.78006 39.6493 8.90123C39.5038 9.02196 39.3475 9.09653 39.18 9.12449C39.0125 9.15245 38.8472 9.1276 38.6842 9.05037V9.04992ZM38.8067 8.79959C38.9148 8.85063 39.0224 8.86173 39.13 8.83244C39.2377 8.80314 39.3394 8.73967 39.4349 8.64158C39.5308 8.54349 39.6164 8.41655 39.693 8.26031C39.7682 8.1063 39.8141 7.96293 39.8308 7.83067C39.8474 7.6984 39.8335 7.58389 39.7884 7.48668C39.7434 7.38992 39.6664 7.31536 39.5565 7.26298C39.4448 7.21016 39.3363 7.19685 39.2309 7.22392C39.1255 7.251 39.026 7.31136 38.9319 7.4059C38.8378 7.50044 38.7536 7.62472 38.6779 7.77874C38.6018 7.93497 38.555 8.081 38.5374 8.21726C38.5198 8.35352 38.5329 8.47159 38.5761 8.57145C38.6194 8.67132 38.6964 8.74722 38.8062 8.79915L38.8067 8.79959Z" fill="white"/>
<path d="M48.7871 18.3941L50.4538 17.4452L50.4624 17.5087C50.3984 17.514 50.3259 17.5015 50.2439 17.4718C50.162 17.4421 50.0814 17.399 50.0026 17.3435C49.9233 17.2881 49.8522 17.2224 49.7882 17.146L50.062 16.9902C50.1205 17.0621 50.1899 17.1256 50.2687 17.1811C50.348 17.2366 50.4299 17.2796 50.5159 17.3098C50.6015 17.34 50.6808 17.3537 50.7528 17.3506L50.8821 17.5712L48.9497 18.6711L48.7871 18.3937V18.3941Z" fill="white"/>
<path d="M49.4989 19.7826C49.4192 19.6202 49.3931 19.4568 49.421 19.2913C49.4489 19.1262 49.5246 18.9712 49.6475 18.8274C49.7709 18.6832 49.9339 18.5629 50.1366 18.4661C50.3392 18.3694 50.5342 18.3188 50.7216 18.3148C50.9089 18.3104 51.076 18.3494 51.2228 18.4311C51.3696 18.5127 51.4831 18.6348 51.5628 18.7973C51.6425 18.9597 51.6691 19.1222 51.6425 19.2859C51.6159 19.4493 51.543 19.602 51.4236 19.7444C51.3043 19.8865 51.1431 20.0063 50.9404 20.1031C50.736 20.2007 50.5383 20.2522 50.3482 20.258C50.1582 20.2633 49.9884 20.226 49.8398 20.1448C49.6912 20.064 49.5773 19.9433 49.4984 19.783L49.4989 19.7826ZM49.7524 19.6614C49.8047 19.768 49.8821 19.8425 49.9848 19.8856C50.0875 19.9286 50.2073 19.9411 50.3442 19.9229C50.4811 19.9047 50.6283 19.8581 50.7864 19.7826C50.9427 19.708 51.0692 19.6242 51.1656 19.5309C51.262 19.4377 51.3232 19.3392 51.3498 19.2358C51.3759 19.1324 51.3624 19.0267 51.3092 18.9184C51.2552 18.8084 51.1782 18.7316 51.0791 18.6881C50.9796 18.6446 50.8634 18.6308 50.7301 18.6472C50.5968 18.6637 50.4523 18.7089 50.296 18.7835C50.1379 18.859 50.0091 18.9446 49.9092 19.0405C49.8092 19.1364 49.7448 19.2367 49.716 19.3414C49.6871 19.4462 49.6993 19.5527 49.7524 19.6605V19.6614Z" fill="white"/>
<path d="M50.3247 21.6927C50.2608 21.5236 50.2504 21.3585 50.2941 21.1965C50.3373 21.0344 50.4274 20.8875 50.5638 20.7557C50.7003 20.6239 50.8741 20.5187 51.0849 20.4415C51.2956 20.3638 51.4947 20.3314 51.6816 20.3447C51.8685 20.3576 52.031 20.4117 52.1697 20.5067C52.3084 20.6017 52.4093 20.7335 52.4733 20.9026C52.5372 21.0717 52.5485 21.236 52.5066 21.3962C52.4647 21.5564 52.3773 21.702 52.2449 21.8325C52.1125 21.963 51.9405 22.0673 51.7298 22.145C51.5168 22.2235 51.3154 22.2564 51.1254 22.2444C50.9358 22.2324 50.7705 22.1791 50.63 22.085C50.4895 21.9905 50.3878 21.86 50.3247 21.6931V21.6927ZM50.5891 21.5955C50.6309 21.706 50.7007 21.7877 50.7989 21.84C50.8971 21.8924 51.0151 21.9159 51.1533 21.9106C51.2911 21.9053 51.4424 21.8724 51.6073 21.8116C51.7698 21.7517 51.9036 21.6798 52.0085 21.5959C52.1134 21.512 52.1837 21.4197 52.2197 21.3194C52.2553 21.2186 52.2521 21.1121 52.2094 20.9998C52.1661 20.8853 52.0968 20.8019 52.0022 20.7495C51.9072 20.6971 51.7928 20.6727 51.6586 20.6767C51.5244 20.6807 51.3762 20.7127 51.2137 20.7726C51.0493 20.8329 50.9124 20.9066 50.8043 20.9927C50.6958 21.0793 50.6224 21.1729 50.5837 21.2746C50.5449 21.3762 50.5467 21.4832 50.5895 21.5959L50.5891 21.5955Z" fill="white"/>
<path d="M50.9658 23.6694C50.918 23.4955 50.9234 23.3299 50.982 23.1723C51.0405 23.0152 51.1436 22.8767 51.2922 22.7582C51.4404 22.6393 51.6232 22.5509 51.8408 22.4928C52.0583 22.4347 52.2591 22.4209 52.4442 22.4511C52.6288 22.4813 52.786 22.5501 52.9148 22.657C53.0436 22.7644 53.1323 22.9051 53.1801 23.0791C53.2278 23.2531 53.2233 23.4182 53.1665 23.5736C53.1098 23.7294 53.0094 23.8661 52.8648 23.9841C52.7207 24.1022 52.5397 24.1901 52.3222 24.2478C52.1028 24.3064 51.8993 24.321 51.7111 24.2913C51.5233 24.262 51.3639 24.1941 51.2328 24.0871C51.1018 23.9801 51.0126 23.8408 50.9658 23.669V23.6694ZM51.2382 23.5971C51.2693 23.7112 51.3314 23.7986 51.4242 23.8599C51.517 23.9211 51.6322 23.9553 51.7701 23.9624C51.9079 23.9695 52.0619 23.9508 52.2312 23.9056C52.3987 23.8607 52.5388 23.8017 52.6514 23.7276C52.7639 23.6535 52.8423 23.5682 52.8878 23.4715C52.9328 23.3747 52.9396 23.2682 52.9076 23.1524C52.8752 23.0343 52.8144 22.9451 52.7248 22.8838C52.6351 22.823 52.5235 22.7884 52.3897 22.78C52.256 22.7715 52.1051 22.7897 51.9376 22.8346C51.7678 22.8798 51.625 22.9402 51.5089 23.0165C51.3927 23.0924 51.3107 23.1794 51.2625 23.2771C51.2143 23.3747 51.2062 23.4817 51.2382 23.5975V23.5971Z" fill="white"/>
<path d="M29.5209 30.7929C30.8496 30.7929 31.9266 29.7313 31.9266 28.4218C31.9266 27.1123 30.8496 26.0508 29.5209 26.0508C28.1923 26.0508 27.1152 27.1123 27.1152 28.4218C27.1152 29.7313 28.1923 30.7929 29.5209 30.7929Z" fill="#2E348E"/>
</g>
<defs>
<clipPath id="clip0_13638_202942">
<rect width="57.2407" height="32.0548" fill="white"/>
</clipPath>
</defs>
</svg>
