<svg width="16" height="16" viewBox="0 0 16 16" fill="none" xmlns="http://www.w3.org/2000/svg">
<g clip-path="url(#clip0_206_31539)">
<path d="M15.3337 1.99889C14.6952 2.44921 13.9884 2.79363 13.2403 3.01889C12.8388 2.55723 12.3052 2.23002 11.7117 2.08151C11.1181 1.933 10.4933 1.97036 9.92171 2.18853C9.3501 2.4067 8.85929 2.79516 8.51565 3.30137C8.17201 3.80758 7.99212 4.40712 8.00033 5.01889V5.68556C6.82875 5.71594 5.66784 5.4561 4.621 4.92919C3.57415 4.40228 2.67387 3.62465 2.00033 2.66556C2.00033 2.66556 -0.666341 8.66556 5.33366 11.3322C3.96068 12.2642 2.3251 12.7315 0.666992 12.6656C6.66699 15.9989 14.0003 12.6656 14.0003 4.99889C13.9997 4.81319 13.9819 4.62795 13.947 4.44556C14.6274 3.77455 15.1075 2.92737 15.3337 1.99889Z" stroke="#415362" stroke-width="1.5" stroke-linecap="round" stroke-linejoin="round"/>
</g>
<defs>
<clipPath id="clip0_206_31539">
<rect width="16" height="16" fill="white"/>
</clipPath>
</defs>
</svg>
