<svg width="41" height="42" viewBox="0 0 41 42" fill="none" xmlns="http://www.w3.org/2000/svg">
<path d="M32.4583 5.25H8.54167C6.65469 5.25 5.125 6.817 5.125 8.75V33.25C5.125 35.183 6.65469 36.75 8.54167 36.75H32.4583C34.3453 36.75 35.875 35.183 35.875 33.25V8.75C35.875 6.817 34.3453 5.25 32.4583 5.25Z" stroke="#415362" stroke-width="1.09091" stroke-linecap="round" stroke-linejoin="round"/>
<path d="M14.5205 17.5C15.9357 17.5 17.083 16.3247 17.083 14.875C17.083 13.4253 15.9357 12.25 14.5205 12.25C13.1053 12.25 11.958 13.4253 11.958 14.875C11.958 16.3247 13.1053 17.5 14.5205 17.5Z" stroke="#415362" stroke-width="1.09091" stroke-linecap="round" stroke-linejoin="round"/>
<path d="M35.8753 26.25L27.3337 17.5L8.54199 36.75" stroke="#415362" stroke-width="1.09091" stroke-linecap="round" stroke-linejoin="round"/>
</svg>
