<svg width="48" height="48" viewBox="0 0 48 48" fill="none" xmlns="http://www.w3.org/2000/svg">
<circle cx="24" cy="24" r="24" fill="#DCE9F5"/>
<path d="M29.4547 17.4553H19.2729C18.4696 17.4553 17.8184 18.1065 17.8184 18.9099V29.0917C17.8184 29.895 18.4696 30.5462 19.2729 30.5462H29.4547C30.258 30.5462 30.9093 29.895 30.9093 29.0917V18.9099C30.9093 18.1065 30.258 17.4553 29.4547 17.4553Z" stroke="#415362" stroke-width="1.09091" stroke-linecap="round" stroke-linejoin="round"/>
<path d="M21.8184 22.5461C22.4209 22.5461 22.9094 22.0577 22.9094 21.4552C22.9094 20.8527 22.4209 20.3643 21.8184 20.3643C21.216 20.3643 20.7275 20.8527 20.7275 21.4552C20.7275 22.0577 21.216 22.5461 21.8184 22.5461Z" stroke="#415362" stroke-width="1.09091" stroke-linecap="round" stroke-linejoin="round"/>
<path d="M30.9098 26.1825L27.2734 22.5461L19.2734 30.5461" stroke="#415362" stroke-width="1.09091" stroke-linecap="round" stroke-linejoin="round"/>
</svg>
