<svg width="26" height="26" viewBox="0 0 26 26" fill="none" xmlns="http://www.w3.org/2000/svg">
<rect width="26" height="26" rx="13" fill="white"/>
<path d="M19.4167 17.0833C19.4167 17.3928 19.2938 17.6895 19.075 17.9083C18.8562 18.1271 18.5594 18.25 18.25 18.25H7.75001C7.44059 18.25 7.14384 18.1271 6.92505 17.9083C6.70626 17.6895 6.58334 17.3928 6.58334 17.0833V10.6667C6.58334 10.3572 6.70626 10.0605 6.92505 9.84171C7.14384 9.62292 7.44059 9.5 7.75001 9.5H10.0833L11.25 7.75H14.75L15.9167 9.5H18.25C18.5594 9.5 18.8562 9.62292 19.075 9.84171C19.2938 10.0605 19.4167 10.3572 19.4167 10.6667V17.0833Z" stroke="#5090CC" stroke-width="0.707071" stroke-linecap="round" stroke-linejoin="round"/>
<path d="M13 15.9167C14.2887 15.9167 15.3333 14.872 15.3333 13.5833C15.3333 12.2947 14.2887 11.25 13 11.25C11.7113 11.25 10.6667 12.2947 10.6667 13.5833C10.6667 14.872 11.7113 15.9167 13 15.9167Z" stroke="#5090CC" stroke-width="0.707071" stroke-linecap="round" stroke-linejoin="round"/>
</svg>
