<svg width="134" height="134" viewBox="0 0 134 134" fill="none" xmlns="http://www.w3.org/2000/svg">
<rect x="0.8375" y="0.8375" width="132.325" height="132.325" rx="66.1625" fill="#EFF7FF"/>
<rect x="0.8375" y="0.8375" width="132.325" height="132.325" rx="66.1625" stroke="white" stroke-width="1.675"/>
<path d="M73.5 47.625H51.8333C49.4401 47.625 47.5 49.6024 47.5 52.0417V82.9583C47.5 85.3976 49.4401 87.375 51.8333 87.375H82.1667C84.5599 87.375 86.5 85.3976 86.5 82.9583V61.9792" stroke="#415362" stroke-width="2.89583" stroke-linecap="round" stroke-linejoin="round"/>
<path d="M59.416 63.0859C61.2109 63.0859 62.666 61.6029 62.666 59.7734C62.666 57.944 61.2109 56.4609 59.416 56.4609C57.6211 56.4609 56.166 57.944 56.166 59.7734C56.166 61.6029 57.6211 63.0859 59.416 63.0859Z" stroke="#415362" stroke-width="2.89583" stroke-linecap="round" stroke-linejoin="round"/>
<path d="M86.5006 74.1276L75.6673 63.0859L51.834 87.3776" stroke="#415362" stroke-width="2.89583" stroke-linecap="round" stroke-linejoin="round"/>
<path d="M82.166 58.6667V47.625" stroke="#415362" stroke-width="2.89583" stroke-linecap="round" stroke-linejoin="round"/>
<path d="M76.75 53.1458L82.1667 47.625L87.5833 53.1458" stroke="#415362" stroke-width="2.89583" stroke-linecap="round" stroke-linejoin="round"/>
</svg>
