<svg width="3" height="15" viewBox="0 0 3 15" fill="none" xmlns="http://www.w3.org/2000/svg">
<path d="M1.45833 8.11979C1.91857 8.11979 2.29167 7.7467 2.29167 7.28646C2.29167 6.82622 1.91857 6.45312 1.45833 6.45312C0.998096 6.45312 0.625 6.82622 0.625 7.28646C0.625 7.7467 0.998096 8.11979 1.45833 8.11979Z" stroke="#415362" stroke-width="1.25" stroke-linecap="round" stroke-linejoin="round"/>
<path d="M1.45833 2.29167C1.91857 2.29167 2.29167 1.91857 2.29167 1.45833C2.29167 0.998096 1.91857 0.625 1.45833 0.625C0.998096 0.625 0.625 0.998096 0.625 1.45833C0.625 1.91857 0.998096 2.29167 1.45833 2.29167Z" stroke="#415362" stroke-width="1.25" stroke-linecap="round" stroke-linejoin="round"/>
<path d="M1.45833 13.9557C1.91857 13.9557 2.29167 13.5826 2.29167 13.1224C2.29167 12.6622 1.91857 12.2891 1.45833 12.2891C0.998096 12.2891 0.625 12.6622 0.625 13.1224C0.625 13.5826 0.998096 13.9557 1.45833 13.9557Z" stroke="#415362" stroke-width="1.25" stroke-linecap="round" stroke-linejoin="round"/>
</svg>
