<svg width="70" height="65" viewBox="0 0 70 65" fill="none" xmlns="http://www.w3.org/2000/svg">
<g filter="url(#filter0_d_0_5079)">
<path d="M40.6692 22.5677L32.4192 16.9427C32.3156 16.8721 32.1952 16.8315 32.0709 16.8253C31.9465 16.8192 31.8229 16.8476 31.7131 16.9077C31.6034 16.9678 31.5116 17.0573 31.4477 17.1665C31.3837 17.2758 31.35 17.4008 31.3501 17.5281V28.7781C31.35 28.9054 31.3836 29.0304 31.4475 29.1396C31.5114 29.2489 31.603 29.3384 31.7128 29.3986C31.8226 29.4587 31.9463 29.4872 32.0707 29.481C32.1951 29.4748 32.3156 29.4342 32.4192 29.3634L40.6692 23.7384C40.7635 23.6742 40.8408 23.5872 40.8943 23.4851C40.9478 23.383 40.9758 23.2689 40.9758 23.1531C40.9758 23.0372 40.9478 22.9232 40.8943 22.821C40.8408 22.7189 40.7635 22.6319 40.6692 22.5677ZM32.7251 27.465V18.8412L39.0484 23.1531L32.7251 27.465ZM49.9126 11.2H19.6626C19.1156 11.2 18.591 11.4222 18.2042 11.8178C17.8174 12.2134 17.6001 12.7499 17.6001 13.3093V32.9968C17.6001 33.5563 17.8174 34.0928 18.2042 34.4884C18.591 34.884 19.1156 35.1062 19.6626 35.1062H49.9126C50.4596 35.1062 50.9842 34.884 51.371 34.4884C51.7578 34.0928 51.9751 33.5563 51.9751 32.9968V13.3093C51.9751 12.7499 51.7578 12.2134 51.371 11.8178C50.9842 11.4222 50.4596 11.2 49.9126 11.2ZM50.6001 32.9968C50.6001 33.1833 50.5277 33.3622 50.3987 33.494C50.2698 33.6259 50.0949 33.7 49.9126 33.7H19.6626C19.4803 33.7 19.3054 33.6259 19.1765 33.494C19.0475 33.3622 18.9751 33.1833 18.9751 32.9968V13.3093C18.9751 13.1228 19.0475 12.944 19.1765 12.8121C19.3054 12.6803 19.4803 12.6062 19.6626 12.6062H49.9126C50.0949 12.6062 50.2698 12.6803 50.3987 12.8121C50.5277 12.944 50.6001 13.1228 50.6001 13.3093V32.9968ZM51.9751 40.0281C51.9751 40.2146 51.9027 40.3934 51.7737 40.5253C51.6448 40.6571 51.4699 40.7312 51.2876 40.7312H18.2876C18.1053 40.7312 17.9304 40.6571 17.8015 40.5253C17.6725 40.3934 17.6001 40.2146 17.6001 40.0281C17.6001 39.8416 17.6725 39.6628 17.8015 39.5309C17.9304 39.399 18.1053 39.325 18.2876 39.325H51.2876C51.4699 39.325 51.6448 39.399 51.7737 39.5309C51.9027 39.6628 51.9751 39.8416 51.9751 40.0281Z" fill="#415362"/>
</g>
<defs>
<filter id="filter0_d_0_5079" x="-6.4999" y="-9.00005" width="83.2" height="83.2" filterUnits="userSpaceOnUse" color-interpolation-filters="sRGB">
<feFlood flood-opacity="0" result="BackgroundImageFix"/>
<feColorMatrix in="SourceAlpha" type="matrix" values="0 0 0 0 0 0 0 0 0 0 0 0 0 0 0 0 0 0 127 0" result="hardAlpha"/>
<feMorphology radius="1.6" operator="erode" in="SourceAlpha" result="effect1_dropShadow_0_5079"/>
<feOffset dy="6.4"/>
<feGaussianBlur stdDeviation="9.6"/>
<feColorMatrix type="matrix" values="0 0 0 0 0.105882 0 0 0 0 0.145098 0 0 0 0 0.2 0 0 0 0.04 0"/>
<feBlend mode="normal" in2="BackgroundImageFix" result="effect1_dropShadow_0_5079"/>
<feBlend mode="normal" in="SourceGraphic" in2="effect1_dropShadow_0_5079" result="shape"/>
</filter>
</defs>
</svg>
