<svg width="26" height="26" viewBox="0 0 26 26" fill="none" xmlns="http://www.w3.org/2000/svg">
<g clip-path="url(#clip0_14074_117200)">
<path d="M11.9974 17.6326C12.1959 17.434 12.1959 17.1127 11.9974 16.9141C11.7986 16.7161 11.4766 16.7161 11.2777 16.9141C11.0793 17.1127 11.0793 17.434 11.2777 17.6326C11.4766 17.8305 11.7986 17.8305 11.9974 17.6326Z" fill="black"/>
<path d="M9.58789 5.58435C9.58789 8.66356 12.0979 11.1689 15.1832 11.1689C18.2684 11.1689 20.7784 8.66356 20.7784 5.58435C20.7784 2.50514 18.2684 0 15.1832 0C12.0979 0 9.58789 2.50514 9.58789 5.58435ZM19.7612 5.58435C19.7612 8.10378 17.7075 10.1535 15.1832 10.1535C12.6588 10.1535 10.6051 8.10378 10.6051 5.58435C10.6051 3.06513 12.6588 1.01543 15.1832 1.01543C17.7075 1.01543 19.7612 3.06513 19.7612 5.58435Z" fill="black"/>
<path d="M5.88436 25.8493C6.08153 26.0476 6.40251 26.0498 6.60226 25.8534L9.06838 23.4286C9.48735 23.0105 9.61475 22.3914 9.43051 21.8532L9.96098 21.3426C10.2466 21.0673 10.6226 20.9155 11.0201 20.9155H17.7823C18.982 20.9155 20.1158 20.4557 20.9754 19.6208C21.0108 19.5865 20.7069 19.9438 25.5887 14.1206C26.3127 13.2656 26.2044 11.9818 25.347 11.2584C24.4949 10.5417 23.2186 10.6446 22.4925 11.4849L19.491 14.5639C19.1119 14.0984 18.534 13.8081 17.9095 13.8081H12.2373C11.4302 13.4711 10.5737 13.3005 9.69008 13.3005C7.24065 13.3005 5.10188 14.4296 3.95408 16.5466C3.47052 16.4551 2.96052 16.6011 2.59362 16.9673L0.173809 19.3895C-0.0237506 19.5873 -0.0241481 19.9073 0.173014 20.1056L5.88436 25.8493ZM9.68988 14.3158C10.469 14.3158 11.2223 14.4723 11.9292 14.7809C11.9936 14.8091 12.063 14.8236 12.1331 14.8236H17.9095C18.461 14.8236 18.9269 15.2725 18.9269 15.8388C18.9269 16.3988 18.4706 16.8542 17.9095 16.8542H13.7593C13.4785 16.8542 13.2507 17.0816 13.2507 17.3618C13.2507 17.6423 13.4785 17.8695 13.7593 17.8695H17.9095C19.0314 17.8695 19.9441 16.9586 19.9441 15.8388C19.9441 15.7495 19.9378 15.6611 19.9262 15.5734C22.8298 12.5946 23.2392 12.176 23.2567 12.1552C23.6192 11.7281 24.2628 11.6739 24.6909 12.0342C25.1194 12.3958 25.1737 13.0377 24.8102 13.4672L20.2478 18.9107C19.5816 19.549 18.7069 19.9003 17.7823 19.9003H11.0201C10.3575 19.9003 9.73022 20.1532 9.25441 20.612L8.82212 21.0284L4.83714 17.0514C5.76849 15.3076 7.51612 14.3158 9.68988 14.3158ZM3.3135 17.6848C3.48125 17.5174 3.73883 17.4872 3.94335 17.6134C4.0314 17.6669 3.77858 17.4372 8.34909 21.9925C8.55242 22.1954 8.54149 22.5187 8.35188 22.708L6.24947 24.7751L1.25145 19.7488L3.3135 17.6848Z" fill="black"/>
<path d="M14.5734 2.53906V3.13396C13.9813 3.34343 13.556 3.90778 13.556 4.56972C13.556 5.40939 14.2405 6.09276 15.082 6.09276C15.3624 6.09276 15.5906 6.32048 15.5906 6.60037C15.5906 6.88027 15.3624 7.10799 15.082 7.10799C14.8647 7.10799 14.63 6.97171 14.4215 6.72396C14.2407 6.50932 13.9199 6.48175 13.7048 6.66207C13.4898 6.84258 13.4619 7.16274 13.6428 7.37737C13.9147 7.70011 14.2345 7.92505 14.5734 8.03852V8.63103C14.5734 8.91152 14.8011 9.13864 15.082 9.13864C15.3628 9.13864 15.5906 8.91152 15.5906 8.63103V8.03614C16.1827 7.82646 16.608 7.26212 16.608 6.60037C16.608 5.7605 15.9235 5.07733 15.082 5.07733C14.8015 5.07733 14.5734 4.84961 14.5734 4.56972C14.5734 4.28983 14.8015 4.06191 15.082 4.06191C15.2622 4.06191 15.4524 4.15375 15.6321 4.32732C15.8341 4.52231 16.156 4.51695 16.3514 4.31561C16.5468 4.11408 16.5414 3.79273 16.3397 3.59773C16.0815 3.34839 15.8231 3.20735 15.5906 3.13039V2.53906C15.5906 2.25858 15.3628 2.03125 15.082 2.03125C14.8011 2.03125 14.5734 2.25858 14.5734 2.53906Z" fill="black"/>
</g>
<defs>
<clipPath id="clip0_14074_117200">
<rect width="26" height="26" fill="white"/>
</clipPath>
</defs>
</svg>
