<svg width="20" height="20" viewBox="0 0 20 20" fill="none" xmlns="http://www.w3.org/2000/svg">
<g clip-path="url(#clip0_14628_197839)">
<path d="M10 -0.0498047C15.5484 -0.0450376 20.045 4.45156 20.0498 10L20.0371 10.5176C19.7677 15.8275 15.3769 20.0498 10 20.0498C4.44953 20.0498 -0.0498047 15.5505 -0.0498047 10C-0.0498047 4.44953 4.44953 -0.0498047 10 -0.0498047ZM10 0.912109C4.9811 0.912109 0.912109 4.9811 0.912109 10C0.912109 15.0189 4.9811 19.0879 10 19.0879L10.4678 19.0752C15.2673 18.8275 19.0833 14.8601 19.0879 10L19.0762 9.53223C18.8327 4.7307 14.862 0.912109 10 0.912109Z" fill="#101828" stroke="black" stroke-width="0.1"/>
<path d="M9.78613 4.29004C9.99427 4.18631 10.2419 4.24667 10.3799 4.42285L10.4316 4.50586L12.0195 7.75879L15.6064 8.28125H15.6074C15.7255 8.28864 15.8368 8.33967 15.9199 8.42383C16.1065 8.61296 16.1051 8.91783 15.916 9.10449H15.915L13.3164 11.6387L13.9287 15.2168L13.9385 15.3047C13.94 15.3933 13.9169 15.4814 13.8711 15.5586C13.7355 15.787 13.4404 15.862 13.2119 15.7266V15.7256L9.99805 14.0361L6.76562 15.7236C6.67297 15.772 6.56696 15.7886 6.46387 15.7715C6.20202 15.7278 6.02504 15.4807 6.06836 15.2188V15.2178L6.71875 11.6377L4.12109 9.10449C4.04412 9.03038 3.99385 8.93286 3.97852 8.82715C3.94037 8.56413 4.12278 8.32036 4.38574 8.28223L7.96387 7.7627L9.57031 4.50586L9.61035 4.43945C9.65573 4.37638 9.71593 4.32505 9.78613 4.29004ZM8.68945 8.41406C8.61999 8.55596 8.48532 8.6551 8.3291 8.67871H8.32812L5.44824 9.09473L7.53223 11.124C7.64681 11.2349 7.69919 11.3957 7.67188 11.5527L7.17969 14.4189L9.75586 13.0654C9.89593 12.9919 10.0631 12.9919 10.2031 13.0654L12.7783 14.4189L12.2861 11.5527C12.2588 11.3957 12.3113 11.2349 12.4258 11.124L14.5254 9.09863L11.6475 8.68262C11.4909 8.6591 11.3556 8.56017 11.2861 8.41797L9.99805 5.80762L8.68945 8.41406Z" fill="#101828" stroke="black" stroke-width="0.1"/>
</g>
<defs>
<clipPath id="clip0_14628_197839">
<rect width="20" height="20" fill="white"/>
</clipPath>
</defs>
</svg>
