<svg width="14" height="14" viewBox="0 0 14 14" fill="none" xmlns="http://www.w3.org/2000/svg">
<g clip-path="url(#clip0_13358_103432)">
<path d="M7 0C3.134 0 0 3.134 0 7C0 10.866 3.134 14 7 14C10.866 14 14 10.866 14 7C13.9967 3.1354 10.8646 0.0033204 7 0ZM7 13.3963C3.46744 13.3963 0.603709 10.5326 0.603709 7C0.603709 3.46744 3.46744 0.603709 7 0.603709C10.5326 0.603709 13.3963 3.46744 13.3963 7C13.393 10.5312 10.5312 13.393 7 13.3963Z" fill="#415362"/>
<path d="M11.1193 5.91892C11.0671 5.86606 10.9973 5.83425 10.9232 5.82961L8.3906 5.46135L7.27072 3.16726C7.19635 3.01807 7.01513 2.9574 6.8659 3.03176C6.80722 3.06101 6.75964 3.10859 6.7304 3.16726L5.59845 5.46437L3.07495 5.82961C2.90998 5.85354 2.79562 6.00669 2.81958 6.17169C2.8292 6.23802 2.86063 6.2993 2.90893 6.34578L4.74118 8.13276L4.28236 10.6563C4.25505 10.8207 4.3662 10.9762 4.53064 11.0035C4.59539 11.0143 4.66187 11.0036 4.72005 10.9732L6.99905 9.78391L9.26598 10.9762C9.40936 11.0613 9.59455 11.014 9.67959 10.8706C9.71785 10.8061 9.73072 10.7297 9.71574 10.6563L9.28409 8.13276L11.1163 6.34578C11.235 6.2287 11.2363 6.03759 11.1193 5.91892ZM8.72264 7.80978C8.65076 7.87932 8.61797 7.97991 8.6351 8.07843L8.99129 10.1552L7.12583 9.17416C7.03795 9.12801 6.93298 9.12801 6.84511 9.17416L4.97965 10.1552L5.33584 8.07843C5.35297 7.97991 5.32018 7.87932 5.2483 7.80978L3.73903 6.33975L5.82484 6.03789C5.92302 6.02314 6.00765 5.96107 6.05123 5.87187L6.99905 3.98528L7.93178 5.87489C7.97536 5.96409 8.05999 6.02616 8.15817 6.04091L10.244 6.34277L8.72264 7.80978Z" fill="#415362"/>
</g>
<defs>
<clipPath id="clip0_13358_103432">
<rect width="14" height="14" fill="white"/>
</clipPath>
</defs>
</svg>
