<svg width="32" height="32" viewBox="0 0 32 32" fill="none" xmlns="http://www.w3.org/2000/svg">
<rect width="32" height="32" rx="16" fill="#ECEEEF"/>
<path d="M12.7507 14.3724H11.9382C11.579 14.3724 11.2346 14.2297 10.9806 13.9758C10.7267 13.7218 10.584 13.3774 10.584 13.0182C10.584 12.6591 10.7267 12.3146 10.9806 12.0607C11.2346 11.8067 11.579 11.6641 11.9382 11.6641H12.7507" stroke="#101B25" stroke-linecap="round" stroke-linejoin="round"/>
<path d="M19.25 14.3724H20.0625C20.4216 14.3724 20.7661 14.2297 21.02 13.9758C21.274 13.7218 21.4167 13.3774 21.4167 13.0182C21.4167 12.6591 21.274 12.3146 21.02 12.0607C20.7661 11.8067 20.4216 11.6641 20.0625 11.6641H19.25" stroke="#101B25" stroke-linecap="round" stroke-linejoin="round"/>
<path d="M11.666 21.4141H20.3327" stroke="#101B25" stroke-linecap="round" stroke-linejoin="round"/>
<path d="M14.916 17.4375V18.705C14.916 19.0029 14.6614 19.2358 14.3906 19.3604C13.7514 19.6529 13.291 20.46 13.291 21.4133" stroke="#101B25" stroke-linecap="round" stroke-linejoin="round"/>
<path d="M17.084 17.4375V18.705C17.084 19.0029 17.3386 19.2358 17.6094 19.3604C18.2486 19.6529 18.709 20.46 18.709 21.4133" stroke="#101B25" stroke-linecap="round" stroke-linejoin="round"/>
<path d="M19.25 10.5859H12.75V14.3776C12.75 15.2396 13.0924 16.0662 13.7019 16.6757C14.3114 17.2852 15.138 17.6276 16 17.6276C16.862 17.6276 17.6886 17.2852 18.2981 16.6757C18.9076 16.0662 19.25 15.2396 19.25 14.3776V10.5859Z" stroke="#101B25" stroke-linecap="round" stroke-linejoin="round"/>
</svg>
